<?xml version="1.0" encoding="iso-8859-1"?>
<!-- Generator: Adobe Illustrator 16.0.0, SVG Export Plug-In . SVG Version: 6.00 Build 0)  -->
<!DOCTYPE svg PUBLIC "-//W3C//DTD SVG 1.1//EN" "http://www.w3.org/Graphics/SVG/1.1/DTD/svg11.dtd">
<svg xmlns="http://www.w3.org/2000/svg" xmlns:xlink="http://www.w3.org/1999/xlink" version="1.1" id="Capa_1" x="0px" y="0px" width="512px" height="512px" viewBox="0 0 421.799 421.799" style="enable-background:new 0 0 421.799 421.799;" xml:space="preserve">
<g>
	<g>
		<path d="M133.899,132.799h56c4.143,0,7.5-3.357,7.5-7.5v-56c0-4.143-3.357-7.5-7.5-7.5h-56c-4.143,0-7.5,3.357-7.5,7.5v56    C126.399,129.442,129.756,132.799,133.899,132.799z M141.399,76.799h41v41h-41V76.799z" fill="rgba(255, 255, 255, 0.6)"/>
		<path d="M231.898,132.799h56c4.143,0,7.5-3.357,7.5-7.5v-56c0-4.143-3.357-7.5-7.5-7.5h-56c-4.143,0-7.5,3.357-7.5,7.5v56    C224.398,129.442,227.756,132.799,231.898,132.799z M239.398,76.799h41v41h-41V76.799z" fill="rgba(255, 255, 255, 0.6)"/>
		<path d="M189.899,232.799c4.143,0,7.5-3.357,7.5-7.5v-56c0-4.143-3.357-7.5-7.5-7.5h-56c-4.143,0-7.5,3.357-7.5,7.5v56    c0,4.143,3.357,7.5,7.5,7.5H189.899z M141.399,176.799h41v41h-41V176.799z" fill="rgba(255, 255, 255, 0.6)"/>
		<path d="M231.898,232.799h56c4.143,0,7.5-3.357,7.5-7.5v-56c0-4.143-3.357-7.5-7.5-7.5h-56c-4.143,0-7.5,3.357-7.5,7.5v56    C224.398,229.441,227.756,232.799,231.898,232.799z M239.398,176.799h41v41h-41V176.799z" fill="rgba(255, 255, 255, 0.6)"/>
		<path d="M414.299,97.799h-81.906V17.918c0-4.143-3.357-7.5-7.5-7.5H96.905c-4.143,0-7.5,3.357-7.5,7.5v79.881H7.5    c-4.143,0-7.5,3.357-7.5,7.5v52.035v56v44v56v90.547c0,4.143,3.357,7.5,7.5,7.5h89.405h227.988h89.406c4.143,0,7.5-3.357,7.5-7.5    v-90.547v-56v-44v-56v-52.035C421.799,101.156,418.441,97.799,414.299,97.799z M15,164.834h41v41H15V164.834z M15,264.834h41v41    H15V264.834z M89.405,396.381H15v-75.547h48.5c4.143,0,7.5-3.357,7.5-7.5v-56c0-4.143-3.357-7.5-7.5-7.5H15v-29h48.5    c4.143,0,7.5-3.357,7.5-7.5v-56c0-4.143-3.357-7.5-7.5-7.5H15v-37.035h74.405V396.381z M242.199,396.381h-62.6V287.312h62.6    V396.381z M317.393,105.299v291.082h-60.193V279.812c0-4.143-3.357-7.5-7.5-7.5h-77.6c-4.143,0-7.5,3.357-7.5,7.5v116.568h-60.194    V105.299V25.418h212.988V105.299z M406.799,305.834h-41v-41h41V305.834z M406.799,205.834h-41v-41h41V205.834z M406.799,149.834    h-48.5c-4.145,0-7.5,3.357-7.5,7.5v56c0,4.143,3.355,7.5,7.5,7.5h48.5v29h-48.5c-4.145,0-7.5,3.357-7.5,7.5v56    c0,4.143,3.355,7.5,7.5,7.5h48.5v75.547h-74.406V112.799h74.406V149.834z" fill="rgba(255, 255, 255, 0.6)"/>
	</g>
</g>
<g>
</g>
<g>
</g>
<g>
</g>
<g>
</g>
<g>
</g>
<g>
</g>
<g>
</g>
<g>
</g>
<g>
</g>
<g>
</g>
<g>
</g>
<g>
</g>
<g>
</g>
<g>
</g>
<g>
</g>
</svg>
