<?xml version="1.0" encoding="utf-8"?>
<!-- Generator: Adobe Illustrator 19.2.1, SVG Export Plug-In . SVG Version: 6.00 Build 0)  -->
<svg version="1.1" id="Layer_1" xmlns="http://www.w3.org/2000/svg" xmlns:xlink="http://www.w3.org/1999/xlink" x="0px" y="0px"
	 viewBox="0 0 64 64" style="enable-background:new 0 0 64 64;" xml:space="preserve">
<style type="text/css">
	.st0{clip-path:url(#SVGID_2_);}
	.st1{opacity:0.15;fill:#FFFFFF;}
	.st2{opacity:0.3;fill:#231F20;}
	.st3{clip-path:url(#SVGID_4_);}
	.st4{clip-path:url(#SVGID_6_);}
	.st5{fill-rule:evenodd;clip-rule:evenodd;fill:#93C1CF;}
	.st6{opacity:0.3;}
	.st7{fill-rule:evenodd;clip-rule:evenodd;}
	.st8{clip-path:url(#SVGID_8_);}
	.st9{opacity:0.15;fill:#231F20;}
	.st10{fill:#DEDCD9;}
	.st11{opacity:0.6;fill:#FFFFFF;}
	.st12{opacity:0.3;fill-rule:evenodd;clip-rule:evenodd;}
	.st13{clip-path:url(#SVGID_10_);}
	.st14{opacity:0.15;fill-rule:evenodd;clip-rule:evenodd;}
</style>
<g>
	<defs>
		<path id="SVGID_1_" d="M26,39c0,0-2,1-14,7c-4,2-4,3-5,14h50c-1-11-1-12-5-14c-12.8-6.4-14-7-14-7H26z"/>
	</defs>
	<use xlink:href="#SVGID_1_"  style="overflow:visible;fill-rule:evenodd;clip-rule:evenodd;fill:#47475E;"/>
	<clipPath id="SVGID_2_">
		<use xlink:href="#SVGID_1_"  style="overflow:visible;"/>
	</clipPath>
	<g class="st0">
		<path class="st1" d="M17.3,48L24,36.3L32,60l-13.6-7.9C16.9,51.3,16.4,49.5,17.3,48z"/>
	</g>
	<g class="st0">
		<path class="st2" d="M46.7,48L40,36.3L32,60l13.6-7.9C47.1,51.3,47.6,49.5,46.7,48z"/>
	</g>
</g>
<g>
	<defs>
		<path id="SVGID_3_" d="M32,60c-7-10-8-16-8-20c0-6,0-8,0-8h16c0,0,0,5,0,8C40,44,39,50,32,60z"/>
	</defs>
	<use xlink:href="#SVGID_3_"  style="overflow:visible;fill-rule:evenodd;clip-rule:evenodd;fill:#DEDCD9;"/>
	<clipPath id="SVGID_4_">
		<use xlink:href="#SVGID_3_"  style="overflow:visible;"/>
	</clipPath>
	<g class="st3">
		<defs>
			<polygon id="SVGID_5_" points="42.4,60 32,42 32,42 21.6,60 32,60 32,60 			"/>
		</defs>
		<use xlink:href="#SVGID_5_"  style="overflow:visible;fill:#231F20;"/>
		<clipPath id="SVGID_6_">
			<use xlink:href="#SVGID_5_"  style="overflow:visible;"/>
		</clipPath>
		<g class="st4">
			<path class="st5" d="M27,61l3.8-12L26,41h12l-5,8l4,12H27z"/>
			<g class="st6">
				<path class="st7" d="M27,61l3.8-12L26,41h12l-5,8l4,12H27z"/>
			</g>
		</g>
	</g>
</g>
<g>
	<defs>
		<path id="SVGID_7_" d="M32,7c10.3,0,13,7.4,13,13c0,2,0,5,0,8c0,5.9-5.6,13.5-13,13.5S19,33.9,19,28c0-3,0-6,0-8
			C19,14.4,21.7,7,32,7z"/>
	</defs>
	<use xlink:href="#SVGID_7_"  style="overflow:visible;fill-rule:evenodd;clip-rule:evenodd;fill:#85DED8;"/>
	<clipPath id="SVGID_8_">
		<use xlink:href="#SVGID_7_"  style="overflow:visible;"/>
	</clipPath>
	<g class="st8">
		<rect x="19" y="7" class="st1" width="13" height="35"/>
	</g>
	<g class="st8">
		<polygon class="st9" points="45.4,24.6 32,22.3 32,32.3 32,42 46,42 		"/>
	</g>
</g>
<g>
	
		<ellipse transform="matrix(3.030587e-002 -0.9995 0.9995 3.030587e-002 11.8429 63.2105)" class="st10" cx="38.5" cy="25.5" rx="8.5" ry="8.5"/>
	
		<ellipse transform="matrix(3.030587e-002 -0.9995 0.9995 3.030587e-002 11.8429 63.2105)" class="st11" cx="38.5" cy="25.5" rx="8.5" ry="8.5"/>
</g>
<g>
	<g>
		<path class="st5" d="M57.7,33.6C57.1,33.2,57.7,33.5,57.7,33.6l-9.4-4.4l-1.7,2.9l8.5,6c0,0-0.6-0.4,0,0s1.3,0.4,2,0.3
			c1.4-0.4,2.2-1.8,1.8-3.2C58.7,34.5,58.3,33.9,57.7,33.6z"/>
		<path class="st12" d="M57.7,33.6C57.1,33.2,57.7,33.5,57.7,33.6l-9.4-4.4l-1.7,2.9l8.5,6c0,0-0.6-0.4,0,0s1.3,0.4,2,0.3
			c1.4-0.4,2.2-1.8,1.8-3.2C58.7,34.5,58.3,33.9,57.7,33.6z"/>
	</g>
	<g>
		<defs>
			<path id="SVGID_9_" d="M38.5,15C32.7,15,28,19.7,28,25.5C28,31.3,32.7,36,38.5,36C44.3,36,49,31.3,49,25.5
				C49,19.7,44.3,15,38.5,15z M38.5,32c-3.6,0-6.5-2.9-6.5-6.5s2.9-6.5,6.5-6.5s6.5,2.9,6.5,6.5S42.1,32,38.5,32z"/>
		</defs>
		<clipPath id="SVGID_10_">
			<use xlink:href="#SVGID_9_"  style="overflow:visible;"/>
		</clipPath>
		<g class="st13">
			<rect x="28" y="15" class="st5" width="21" height="21"/>
			<rect x="28" y="15" class="st14" width="21" height="21"/>
		</g>
		<g class="st13">
			<rect x="28" y="15" class="st5" width="4" height="21"/>
			<rect x="28" y="15" class="st12" width="4" height="21"/>
		</g>
	</g>
</g>
</svg>
