<?xml version="1.0" encoding="utf-8"?>
<!-- Generator: Adobe Illustrator 19.2.1, SVG Export Plug-In . SVG Version: 6.00 Build 0)  -->
<svg version="1.1" id="Layer_1" xmlns="http://www.w3.org/2000/svg" xmlns:xlink="http://www.w3.org/1999/xlink" x="0px" y="0px"
	 viewBox="0 0 64 64" style="enable-background:new 0 0 64 64;" xml:space="preserve">
<style type="text/css">
	.st0{clip-path:url(#SVGID_2_);}
	.st1{opacity:0.3;fill:#FFFFFF;}
	.st2{clip-path:url(#SVGID_2_);fill:#231F20;fill-opacity:0.6;}
	.st3{fill:#80B34F;}
	.st4{opacity:0.5;fill:#9CE84D;}
	.st5{fill:#DEDCD9;}
	.st6{clip-path:url(#SVGID_4_);fill-rule:evenodd;clip-rule:evenodd;fill:#FFFFFF;fill-opacity:0.15;}
	.st7{clip-path:url(#SVGID_6_);}
	.st8{opacity:0.15;fill:#231F20;}
	.st9{clip-path:url(#SVGID_6_);fill:#231F20;fill-opacity:0.6;}
	.st10{fill-rule:evenodd;clip-rule:evenodd;fill:#6958DB;}
	.st11{clip-path:url(#SVGID_8_);fill-rule:evenodd;clip-rule:evenodd;fill:#231F20;fill-opacity:0.3;}
</style>
<g>
	<g>
		<defs>
			<path id="SVGID_1_" d="M14.2,8c7,0,9.8,2,11.8,8c1,3,3.4,10.1,3.9,11.8C30.5,29.6,30,30,29,30s-3,0-3,0v2h-5c1,2,4,3,5,3
				c0,2,0,6-2,6c-1.2,0-6.1,0-10,0s-8.6-0.5-10-4.5C1.9,30.3,0,26.8,0,19C0,11,5.2,8,14.2,8z"/>
		</defs>
		<use xlink:href="#SVGID_1_"  style="overflow:visible;fill:#75A2D9;"/>
		<clipPath id="SVGID_2_">
			<use xlink:href="#SVGID_1_"  style="overflow:visible;"/>
		</clipPath>
		<g class="st0">
			<polygon class="st1" points="26,8 13,8 13,42.5 26,50 			"/>
		</g>
		<ellipse class="st2" cx="20.5" cy="24" rx="1.5" ry="2"/>
	</g>
	<g>
		<path class="st3" d="M11.8,58c0-8.7,1.2-13.6,2.6-18.3c5.3,4.7,11.1,6.9,16.3,18.3H11.8z"/>
		<path class="st4" d="M11.8,58c0-8.7,1.2-13.6,2.6-18.3c5.3,4.7,11.1,6.9,16.3,18.3H11.8z"/>
	</g>
	<polygon class="st5" points="4,36.5 19,41 19,57.4 4,57.4 	"/>
	<g>
		<defs>
			<path id="SVGID_3_" d="M0,58c0-8.7,1.8-13.6,4-18.3c8.1,4.7,16.9,6.9,24.8,18.3H0z"/>
		</defs>
		<use xlink:href="#SVGID_3_"  style="overflow:visible;fill-rule:evenodd;clip-rule:evenodd;fill:#47475E;"/>
		<clipPath id="SVGID_4_">
			<use xlink:href="#SVGID_3_"  style="overflow:visible;"/>
		</clipPath>
		<polygon class="st6" points="28.8,33.8 0,33.8 0,41.4 28.8,58 		"/>
	</g>
</g>
<g>
	<g>
		<defs>
			<path id="SVGID_5_" d="M49.8,8c-7,0-9.8,2-11.8,8c-1,3-3.4,10.1-3.9,11.8C33.5,29.6,34,30,35,30s3,0,3,0v2h5c-1,2-4,3-5,3
				c0,2,0,6,2,6c1.2,0,6.1,0,10,0s8.6-0.5,10-4.5c2.1-6.2,4-9.7,4-17.5C64,11,58.8,8,49.8,8z"/>
		</defs>
		<use xlink:href="#SVGID_5_"  style="overflow:visible;fill-rule:evenodd;clip-rule:evenodd;fill:#85DED8;"/>
		<clipPath id="SVGID_6_">
			<use xlink:href="#SVGID_5_"  style="overflow:visible;"/>
		</clipPath>
		<g class="st7">
			<polygon class="st8" points="51,47.5 38,47.5 38,3 51,-4.5 			"/>
		</g>
		<ellipse class="st9" cx="43.5" cy="24" rx="1.5" ry="2"/>
	</g>
	<path class="st10" d="M52.2,58c0-8.7-1.2-13.6-2.6-18.3c-5.3,4.7-11.1,6.9-16.3,18.3H52.2z"/>
	<polygon class="st5" points="60,36.5 45,41 45,57.4 60,57.4 	"/>
	<g>
		<defs>
			<path id="SVGID_7_" d="M64,58c0-8.7-1.8-13.6-4-18.3c-8.1,4.7-16.9,6.9-24.8,18.3H64z"/>
		</defs>
		<use xlink:href="#SVGID_7_"  style="overflow:visible;fill-rule:evenodd;clip-rule:evenodd;fill:#47475E;"/>
		<clipPath id="SVGID_8_">
			<use xlink:href="#SVGID_7_"  style="overflow:visible;"/>
		</clipPath>
		<polygon class="st11" points="35.3,33.8 64,33.8 64,41.4 35.3,58 		"/>
	</g>
</g>
</svg>
