<?xml version="1.0" encoding="utf-8"?>
<!-- Generator: Adobe Illustrator 19.2.1, SVG Export Plug-In . SVG Version: 6.00 Build 0)  -->
<svg version="1.1" id="Layer_1" xmlns="http://www.w3.org/2000/svg" xmlns:xlink="http://www.w3.org/1999/xlink" x="0px" y="0px"
	 viewBox="0 0 64 64" style="enable-background:new 0 0 64 64;" xml:space="preserve">
<style type="text/css">
	.st0{clip-path:url(#SVGID_2_);}
	.st1{opacity:0.15;fill:#231F20;}
	.st2{opacity:0.3;fill:#FFFFFF;}
	.st3{clip-path:url(#SVGID_2_);fill:#231F20;fill-opacity:0.6;}
	.st4{fill:#DEDCD9;}
	.st5{opacity:0.5;fill:#FFFFFF;}
	.st6{clip-path:url(#SVGID_4_);fill:#231F20;fill-opacity:0.3;}
	.st7{fill:#75A2D8;}
	.st8{opacity:0.5;fill:#231F20;}
</style>
<g>
	<defs>
		<path id="SVGID_1_" d="M32,5c10.3,0,13,7.4,13,13c0,2,0,5,0,8c0,5.9-5.6,13.5-13,13.5S19,31.9,19,26c0-3,0-6,0-8
			C19,12.4,21.7,5,32,5z"/>
	</defs>
	<use xlink:href="#SVGID_1_"  style="overflow:visible;fill-rule:evenodd;clip-rule:evenodd;fill:#85DED8;"/>
	<clipPath id="SVGID_2_">
		<use xlink:href="#SVGID_1_"  style="overflow:visible;"/>
	</clipPath>
	<g class="st0">
		<g>
			<polygon class="st1" points="45.4,17.6 32,25.3 32,33.3 32,40 46,40 			"/>
		</g>
		<g>
			<polygon class="st2" points="32,23.3 32,5 19,5 19,17.8 32,25.3 			"/>
		</g>
	</g>
	<ellipse class="st3" cx="26.5" cy="26" rx="1.5" ry="2"/>
	<ellipse class="st3" cx="37.5" cy="26" rx="1.5" ry="2"/>
</g>
<g>
	<g>
		<path class="st4" d="M32,57L13.1,46.1c-1.7-1-5.8-16.4-4.3-17.2l3.3-1.9c0.8-0.4,1.5-0.6,3.1,0.3c0,0,12.8,7.4,14.8,8.5
			c2,1.2,2,2.4,2,4.2C32,41.2,32,57,32,57z"/>
		<path class="st5" d="M32,57L13.1,46.1c-1.7-1-5.8-16.4-4.3-17.2l3.3-1.9c0.8-0.4,1.5-0.6,3.1,0.3c0,0,12.8,7.4,14.8,8.5
			c2,1.2,2,2.4,2,4.2C32,41.2,32,57,32,57z"/>
	</g>
	<path class="st4" d="M32,57l18.9-11c1.7-1,5.8-16.4,4.3-17.2L52,26.9c-0.8-0.4-1.5-0.6-3.1,0.3c0,0-12.8,7.4-14.8,8.6
		c-2,1.2-2,2.4-2,4.2C32,41.2,32,57,32,57z"/>
	<g>
		<defs>
			<path id="SVGID_3_" d="M30,60L11.1,49.1c-1.7-1-3-3.1-3-4.7v-14c0-1.7,1.3-2.2,3-1.3L30,40V60z M34,60l18.9-11c1.7-1,3-3.1,3-4.7
				v-14c0-1.7-1.3-2.2-3-1.3L34,40V60z"/>
		</defs>
		<use xlink:href="#SVGID_3_"  style="overflow:visible;fill:#75A2D8;"/>
		<clipPath id="SVGID_4_">
			<use xlink:href="#SVGID_3_"  style="overflow:visible;"/>
		</clipPath>
		<polygon class="st6" points="57,61 32,61 32,29 56.9,26.7 		"/>
	</g>
	<g>
		<rect x="30" y="40" class="st7" width="4" height="20"/>
		<rect x="30" y="40" class="st8" width="4" height="20"/>
	</g>
</g>
</svg>
