<?xml version="1.0" encoding="utf-8"?>
<!-- Generator: Adobe Illustrator 19.2.1, SVG Export Plug-In . SVG Version: 6.00 Build 0)  -->
<svg version="1.1" id="Layer_1" xmlns="http://www.w3.org/2000/svg" xmlns:xlink="http://www.w3.org/1999/xlink" x="0px" y="0px"
	 viewBox="0 0 255.7 429.4" style="enable-background:new 0 0 255.7 429.4;" xml:space="preserve">
<style type="text/css">
	.st0{clip-path:url(#SVGID_2_);}
	.st1{fill:#EBEBEB;}
</style>
<g>
	<defs>
		<rect id="SVGID_1_" width="255.7" height="431"/>
	</defs>
	<clipPath id="SVGID_2_">
		<use xlink:href="#SVGID_1_"  style="overflow:visible;"/>
	</clipPath>
	<g class="st0">
		<polygon class="st1" points="-158.2,6.9 -159.8,9.7 -156.6,9.7 		"/>
		<polygon class="st1" points="-142.3,6.9 -144,9.7 -140.7,9.7 		"/>
		<polygon class="st1" points="-126.5,6.9 -128.1,9.7 -124.9,9.7 		"/>
		<polygon class="st1" points="-110.7,6.9 -112.3,9.7 -109.1,9.7 		"/>
		<polygon class="st1" points="-94.9,6.9 -96.5,9.7 -93.3,9.7 		"/>
		<polygon class="st1" points="-79.1,6.9 -80.7,9.7 -77.5,9.7 		"/>
		<polygon class="st1" points="-63.3,6.9 -64.9,9.7 -61.7,9.7 		"/>
		<polygon class="st1" points="-47.4,6.9 -49.1,9.7 -45.8,9.7 		"/>
		<polygon class="st1" points="-31.6,6.9 -33.2,9.7 -30,9.7 		"/>
		<polygon class="st1" points="-15.8,6.9 -17.4,9.7 -14.2,9.7 		"/>
		<polygon class="st1" points="0,6.9 -1.6,9.7 1.6,9.7 		"/>
		<polygon class="st1" points="15.8,6.9 14.2,9.7 17.4,9.7 		"/>
		<polygon class="st1" points="31.6,6.9 30,9.7 33.2,9.7 		"/>
		<polygon class="st1" points="47.4,6.9 45.8,9.7 49.1,9.7 		"/>
		<polygon class="st1" points="63.3,6.9 61.7,9.7 64.9,9.7 		"/>
		<polygon class="st1" points="79.1,6.9 77.5,9.7 80.7,9.7 		"/>
		<polygon class="st1" points="94.9,6.9 93.3,9.7 96.5,9.7 		"/>
		<polygon class="st1" points="110.7,6.9 109.1,9.7 112.3,9.7 		"/>
		<polygon class="st1" points="126.5,6.9 124.9,9.7 128.1,9.7 		"/>
		<polygon class="st1" points="142.3,6.9 140.7,9.7 144,9.7 		"/>
		<polygon class="st1" points="158.2,6.9 156.6,9.7 159.8,9.7 		"/>
		<polygon class="st1" points="174,6.9 172.4,9.7 175.6,9.7 		"/>
		<polygon class="st1" points="189.8,6.9 188.2,9.7 191.4,9.7 		"/>
		<polygon class="st1" points="205.6,6.9 204,9.7 207.2,9.7 		"/>
		<polygon class="st1" points="221.4,6.9 219.8,9.7 223,9.7 		"/>
		<polygon class="st1" points="237.2,6.9 235.6,9.7 238.9,9.7 		"/>
		<polygon class="st1" points="-167.7,25.5 -164.5,25.5 -166.1,22.7 		"/>
		<polygon class="st1" points="-151.9,25.5 -150.3,22.7 -148.6,25.5 		"/>
		<polygon class="st1" points="-136.1,25.5 -134.4,22.7 -132.8,25.5 		"/>
		<polygon class="st1" points="-120.2,25.5 -118.6,22.7 -117,25.5 		"/>
		<polygon class="st1" points="-104.4,25.5 -102.8,22.7 -101.2,25.5 		"/>
		<polygon class="st1" points="-88.6,25.5 -87,22.7 -85.4,25.5 		"/>
		<polygon class="st1" points="-72.8,25.5 -71.2,22.7 -69.6,25.5 		"/>
		<polygon class="st1" points="-57,25.5 -55.4,22.7 -53.7,25.5 		"/>
		<polygon class="st1" points="-41.2,25.5 -39.5,22.7 -37.9,25.5 		"/>
		<polygon class="st1" points="-25.3,25.5 -23.7,22.7 -22.1,25.5 		"/>
		<polygon class="st1" points="-9.5,25.5 -7.9,22.7 -6.3,25.5 		"/>
		<polygon class="st1" points="6.3,25.5 7.9,22.7 9.5,25.5 		"/>
		<polygon class="st1" points="22.1,25.5 23.7,22.7 25.3,25.5 		"/>
		<polygon class="st1" points="37.9,25.5 39.5,22.7 41.2,25.5 		"/>
		<polygon class="st1" points="53.7,25.5 55.4,22.7 57,25.5 		"/>
		<polygon class="st1" points="69.6,25.5 71.2,22.7 72.8,25.5 		"/>
		<polygon class="st1" points="85.4,25.5 87,22.7 88.6,25.5 		"/>
		<polygon class="st1" points="101.2,25.5 102.8,22.7 104.4,25.5 		"/>
		<polygon class="st1" points="117,25.5 118.6,22.7 120.2,25.5 		"/>
		<polygon class="st1" points="132.8,25.5 134.4,22.7 136.1,25.5 		"/>
		<polygon class="st1" points="148.6,25.5 150.3,22.7 151.9,25.5 		"/>
		<polygon class="st1" points="164.5,25.5 166.1,22.7 167.7,25.5 		"/>
		<polygon class="st1" points="180.3,25.5 181.9,22.7 183.5,25.5 		"/>
		<polygon class="st1" points="196.1,25.5 197.7,22.7 199.3,25.5 		"/>
		<polygon class="st1" points="211.9,25.5 213.5,22.7 215.1,25.5 		"/>
		<polygon class="st1" points="227.7,25.5 229.3,22.7 230.9,25.5 		"/>
		<polygon class="st1" points="243.5,25.5 246.8,25.5 245.2,22.7 		"/>
		<polygon class="st1" points="-159.8,41.3 -158.2,38.5 -156.6,41.3 		"/>
		<polygon class="st1" points="-144,41.3 -142.3,38.5 -140.7,41.3 		"/>
		<polygon class="st1" points="-128.1,41.3 -126.5,38.5 -124.9,41.3 		"/>
		<polygon class="st1" points="-112.3,41.3 -110.7,38.5 -109.1,41.3 		"/>
		<polygon class="st1" points="-96.5,41.3 -94.9,38.5 -93.3,41.3 		"/>
		<polygon class="st1" points="-80.7,41.3 -79.1,38.5 -77.5,41.3 		"/>
		<polygon class="st1" points="-64.9,41.3 -63.3,38.5 -61.7,41.3 		"/>
		<polygon class="st1" points="-49.1,41.3 -47.4,38.5 -45.8,41.3 		"/>
		<polygon class="st1" points="-33.2,41.3 -31.6,38.5 -30,41.3 		"/>
		<polygon class="st1" points="-17.4,41.3 -15.8,38.5 -14.2,41.3 		"/>
		<polygon class="st1" points="-1.6,41.3 0,38.5 1.6,41.3 		"/>
		<polygon class="st1" points="14.1,41.4 15.8,38.4 17.6,41.4 		"/>
		<polygon class="st1" points="29.8,41.5 31.6,38.3 33.4,41.5 		"/>
		<polygon class="st1" points="45.6,41.5 47.4,38.3 49.3,41.5 		"/>
		<polygon class="st1" points="61.5,41.5 63.3,38.3 65.1,41.5 		"/>
		<polygon class="st1" points="77.4,41.4 79.1,38.4 80.8,41.4 		"/>
		<polygon class="st1" points="93.3,41.3 94.9,38.5 96.5,41.3 		"/>
		<polygon class="st1" points="109.1,41.3 110.7,38.5 112.3,41.3 		"/>
		<polygon class="st1" points="124.9,41.3 126.5,38.5 128.1,41.3 		"/>
		<polygon class="st1" points="140.7,41.3 142.3,38.5 144,41.3 		"/>
		<polygon class="st1" points="156.6,41.3 158.2,38.5 159.8,41.3 		"/>
		<polygon class="st1" points="172.4,41.3 174,38.5 175.6,41.3 		"/>
		<polygon class="st1" points="188.2,41.3 189.8,38.5 191.4,41.3 		"/>
		<polygon class="st1" points="204,41.3 205.6,38.5 207.2,41.3 		"/>
		<polygon class="st1" points="219.8,41.3 221.4,38.5 223,41.3 		"/>
		<polygon class="st1" points="235.6,41.3 237.2,38.5 238.9,41.3 		"/>
		<polygon class="st1" points="-167.7,57.1 -164.5,57.1 -166.1,54.3 		"/>
		<polygon class="st1" points="-151.9,57.1 -150.3,54.3 -148.6,57.1 		"/>
		<polygon class="st1" points="-136.1,57.1 -134.4,54.3 -132.8,57.1 		"/>
		<polygon class="st1" points="-120.2,57.1 -118.6,54.3 -117,57.1 		"/>
		<polygon class="st1" points="-104.4,57.1 -102.8,54.3 -101.2,57.1 		"/>
		<polygon class="st1" points="-88.6,57.1 -87,54.3 -85.4,57.1 		"/>
		<polygon class="st1" points="-72.8,57.1 -71.2,54.3 -69.6,57.1 		"/>
		<polygon class="st1" points="-57,57.1 -55.4,54.3 -53.7,57.1 		"/>
		<polygon class="st1" points="-41.2,57.1 -39.5,54.3 -37.9,57.1 		"/>
		<polygon class="st1" points="-25.4,57.2 -23.7,54.3 -22.1,57.2 		"/>
		<polygon class="st1" points="-9.8,57.4 -7.9,54.1 -6,57.4 		"/>
		<polygon class="st1" points="5.9,57.5 7.9,53.9 10,57.5 		"/>
		<polygon class="st1" points="21.6,57.6 23.7,53.8 25.9,57.6 		"/>
		<polygon class="st1" points="37.3,57.7 39.5,53.8 41.8,57.7 		"/>
		<polygon class="st1" points="53.1,57.7 55.4,53.8 57.6,57.7 		"/>
		<polygon class="st1" points="68.9,57.7 71.2,53.8 73.4,57.7 		"/>
		<polygon class="st1" points="84.8,57.6 87,53.8 89.2,57.6 		"/>
		<polygon class="st1" points="100.8,57.5 102.8,53.9 104.9,57.5 		"/>
		<polygon class="st1" points="116.8,57.3 118.6,54.1 120.5,57.3 		"/>
		<polygon class="st1" points="132.8,57.1 134.4,54.3 136.1,57.1 		"/>
		<polygon class="st1" points="148.6,57.1 150.3,54.3 151.9,57.1 		"/>
		<polygon class="st1" points="164.5,57.1 166.1,54.3 167.7,57.1 		"/>
		<polygon class="st1" points="180.3,57.1 181.9,54.3 183.5,57.1 		"/>
		<polygon class="st1" points="196.1,57.1 197.7,54.3 199.3,57.1 		"/>
		<polygon class="st1" points="211.9,57.1 213.5,54.3 215.1,57.1 		"/>
		<polygon class="st1" points="227.7,57.1 229.3,54.3 230.9,57.1 		"/>
		<polygon class="st1" points="243.5,57.1 246.8,57.1 245.2,54.3 		"/>
		<polygon class="st1" points="-159.8,72.9 -158.2,70.1 -156.6,72.9 		"/>
		<polygon class="st1" points="-144,72.9 -142.3,70.1 -140.7,72.9 		"/>
		<polygon class="st1" points="-128.1,72.9 -126.5,70.1 -124.9,72.9 		"/>
		<polygon class="st1" points="-112.3,72.9 -110.7,70.1 -109.1,72.9 		"/>
		<polygon class="st1" points="-96.5,72.9 -94.9,70.1 -93.3,72.9 		"/>
		<polygon class="st1" points="-80.7,72.9 -79.1,70.1 -77.5,72.9 		"/>
		<polygon class="st1" points="-64.9,72.9 -63.3,70.1 -61.7,72.9 		"/>
		<polygon class="st1" points="-49.2,73.1 -47.4,70 -45.6,73.1 		"/>
		<polygon class="st1" points="-33.7,73.3 -31.6,69.7 -29.6,73.3 		"/>
		<polygon class="st1" points="-18.1,73.5 -15.8,69.5 -13.5,73.5 		"/>
		<polygon class="st1" points="-2.5,73.7 0,69.4 2.5,73.7 		"/>
		<polygon class="st1" points="13.2,73.8 15.8,69.3 18.5,73.8 		"/>
		<polygon class="st1" points="28.9,73.9 31.6,69.2 34.4,73.9 		"/>
		<polygon class="st1" points="44.7,73.9 47.4,69.1 50.2,73.9 		"/>
		<polygon class="st1" points="60.5,73.9 63.3,69.2 66,73.9 		"/>
		<polygon class="st1" points="76.4,73.8 79.1,69.3 81.7,73.8 		"/>
		<polygon class="st1" points="92.4,73.7 94.9,69.4 97.4,73.7 		"/>
		<polygon class="st1" points="108.4,73.5 110.7,69.5 113,73.5 		"/>
		<polygon class="st1" points="124.5,73.3 126.5,69.8 128.6,73.3 		"/>
		<polygon class="st1" points="140.5,73.1 142.3,70 144.1,73.1 		"/>
		<polygon class="st1" points="156.6,72.9 158.2,70.1 159.8,72.9 		"/>
		<polygon class="st1" points="172.4,72.9 174,70.1 175.6,72.9 		"/>
		<polygon class="st1" points="188.2,72.9 189.8,70.1 191.4,72.9 		"/>
		<polygon class="st1" points="204,72.9 205.6,70.1 207.2,72.9 		"/>
		<polygon class="st1" points="219.8,72.9 221.4,70.1 223,72.9 		"/>
		<polygon class="st1" points="235.6,72.9 237.2,70.1 238.9,72.9 		"/>
		<polygon class="st1" points="-167.7,88.7 -164.5,88.7 -166.1,86 		"/>
		<polygon class="st1" points="-151.9,88.7 -150.3,86 -148.6,88.7 		"/>
		<polygon class="st1" points="-136.1,88.7 -134.4,86 -132.8,88.7 		"/>
		<polygon class="st1" points="-120.2,88.7 -118.6,86 -117,88.7 		"/>
		<polygon class="st1" points="-104.4,88.7 -102.8,86 -101.2,88.7 		"/>
		<polygon class="st1" points="-88.6,88.7 -87,86 -85.4,88.7 		"/>
		<polygon class="st1" points="-72.8,88.7 -71.2,86 -69.6,88.7 		"/>
		<polygon class="st1" points="-57.2,88.9 -55.4,85.8 -53.5,88.9 		"/>
		<polygon class="st1" points="-41.7,89.2 -39.5,85.5 -37.4,89.2 		"/>
		<polygon class="st1" points="-26.2,89.5 -23.7,85.2 -21.2,89.5 		"/>
		<polygon class="st1" points="-10.6,89.7 -7.9,85 -5.2,89.7 		"/>
		<polygon class="st1" points="4.9,89.9 7.9,84.8 10.9,89.9 		"/>
		<polygon class="st1" points="20.6,90.1 23.7,84.6 26.9,90.1 		"/>
		<polygon class="st1" points="36.3,90.1 39.5,84.6 42.8,90.1 		"/>
		<polygon class="st1" points="52.1,90.2 55.4,84.5 58.6,90.2 		"/>
		<polygon class="st1" points="67.9,90.1 71.2,84.6 74.4,90.1 		"/>
		<polygon class="st1" points="83.9,90 87,84.7 90.1,90 		"/>
		<polygon class="st1" points="99.9,89.9 102.8,84.8 105.8,89.9 		"/>
		<polygon class="st1" points="115.9,89.7 118.6,85 121.4,89.7 		"/>
		<polygon class="st1" points="132,89.5 134.4,85.2 136.9,89.5 		"/>
		<polygon class="st1" points="148.1,89.2 150.3,85.5 152.4,89.2 		"/>
		<polygon class="st1" points="164.2,88.9 166.1,85.8 167.9,88.9 		"/>
		<polygon class="st1" points="180.3,88.7 181.9,86 183.5,88.7 		"/>
		<polygon class="st1" points="196.1,88.7 197.7,86 199.3,88.7 		"/>
		<polygon class="st1" points="211.9,88.7 213.5,86 215.1,88.7 		"/>
		<polygon class="st1" points="227.7,88.7 229.3,86 230.9,88.7 		"/>
		<polygon class="st1" points="243.5,88.7 246.8,88.7 245.2,86 		"/>
		<polygon class="st1" points="-159.8,104.6 -158.2,101.8 -156.6,104.6 		"/>
		<polygon class="st1" points="-144,104.6 -142.3,101.8 -140.7,104.6 		"/>
		<polygon class="st1" points="-128.1,104.6 -126.5,101.8 -124.9,104.6 		"/>
		<polygon class="st1" points="-112.3,104.6 -110.7,101.8 -109.1,104.6 		"/>
		<polygon class="st1" points="-96.5,104.6 -94.9,101.8 -93.3,104.6 		"/>
		<polygon class="st1" points="-80.9,104.7 -79.1,101.6 -77.3,104.7 		"/>
		<polygon class="st1" points="-65.4,105 -63.3,101.3 -61.1,105 		"/>
		<polygon class="st1" points="-50,105.3 -47.4,101 -44.9,105.3 		"/>
		<polygon class="st1" points="-34.5,105.6 -31.6,100.7 -28.8,105.6 		"/>
		<polygon class="st1" points="-19,105.9 -15.8,100.4 -12.7,105.9 		"/>
		<polygon class="st1" points="-3.4,106.1 0,100.2 3.4,106.1 		"/>
		<polygon class="st1" points="12.2,106.3 15.8,100 19.5,106.3 		"/>
		<polygon class="st1" points="27.8,106.4 31.6,99.9 35.4,106.4 		"/>
		<polygon class="st1" points="43.6,106.5 47.4,99.8 51.3,106.5 		"/>
		<polygon class="st1" points="59.5,106.4 63.3,99.9 67,106.4 		"/>
		<polygon class="st1" points="75.5,106.3 79.1,100 82.7,106.3 		"/>
		<polygon class="st1" points="91.5,106.1 94.9,100.2 98.3,106.1 		"/>
		<polygon class="st1" points="107.6,105.9 110.7,100.4 113.9,105.9 		"/>
		<polygon class="st1" points="123.7,105.6 126.5,100.7 129.4,105.6 		"/>
		<polygon class="st1" points="139.8,105.3 142.3,101 144.9,105.3 		"/>
		<polygon class="st1" points="156,105 158.2,101.3 160.3,105 		"/>
		<polygon class="st1" points="172.2,104.7 174,101.6 175.8,104.7 		"/>
		<polygon class="st1" points="188.2,104.6 189.8,101.8 191.4,104.6 		"/>
		<polygon class="st1" points="204,104.6 205.6,101.8 207.2,104.6 		"/>
		<polygon class="st1" points="219.8,104.6 221.4,101.8 223,104.6 		"/>
		<polygon class="st1" points="235.6,104.6 237.2,101.8 238.9,104.6 		"/>
		<polygon class="st1" points="-167.7,120.4 -164.5,120.4 -166.1,117.6 		"/>
		<polygon class="st1" points="-151.9,120.4 -150.3,117.6 -148.6,120.4 		"/>
		<polygon class="st1" points="-136.1,120.4 -134.4,117.6 -132.8,120.4 		"/>
		<polygon class="st1" points="-120.2,120.4 -118.6,117.6 -117,120.4 		"/>
		<polygon class="st1" points="-104.4,120.4 -102.8,117.6 -101.2,120.4 		"/>
		<polygon class="st1" points="-88.7,120.4 -87,117.5 -85.3,120.4 		"/>
		<polygon class="st1" points="-73.3,120.8 -71.2,117.2 -69.1,120.8 		"/>
		<polygon class="st1" points="-57.8,121.1 -55.4,116.8 -52.9,121.1 		"/>
		<polygon class="st1" points="-42.4,121.5 -39.5,116.5 -36.7,121.5 		"/>
		<polygon class="st1" points="-27,121.8 -23.7,116.2 -20.5,121.8 		"/>
		<polygon class="st1" points="-11.5,122.1 -7.9,115.8 -4.3,122.1 		"/>
		<polygon class="st1" points="3.9,122.4 7.9,115.5 11.9,122.4 		"/>
		<polygon class="st1" points="19.5,122.6 23.7,115.4 27.9,122.6 		"/>
		<polygon class="st1" points="35.2,122.7 39.5,115.2 43.9,122.7 		"/>
		<polygon class="st1" points="50.9,122.8 55.4,115.1 59.8,122.8 		"/>
		<polygon class="st1" points="66.8,122.7 71.2,115.2 75.5,122.7 		"/>
		<polygon class="st1" points="82.8,122.6 87,115.4 91.2,122.6 		"/>
		<polygon class="st1" points="98.9,122.4 102.8,115.6 106.7,122.4 		"/>
		<polygon class="st1" points="115,122.1 118.6,115.8 122.3,122.1 		"/>
		<polygon class="st1" points="131.2,121.8 134.4,116.2 137.7,121.8 		"/>
		<polygon class="st1" points="147.4,121.5 150.3,116.5 153.1,121.5 		"/>
		<polygon class="st1" points="163.6,121.1 166.1,116.8 168.6,121.1 		"/>
		<polygon class="st1" points="179.8,120.8 181.9,117.2 184,120.8 		"/>
		<polygon class="st1" points="196.1,120.4 197.7,117.6 199.3,120.4 		"/>
		<polygon class="st1" points="211.9,120.4 213.5,117.6 215.1,120.4 		"/>
		<polygon class="st1" points="227.7,120.4 229.3,117.6 230.9,120.4 		"/>
		<polygon class="st1" points="243.5,120.4 246.8,120.4 245.2,117.6 		"/>
		<polygon class="st1" points="-159.8,136.2 -158.2,133.4 -156.6,136.2 		"/>
		<polygon class="st1" points="-144,136.2 -142.3,133.4 -140.7,136.2 		"/>
		<polygon class="st1" points="-128.1,136.2 -126.5,133.4 -124.9,136.2 		"/>
		<polygon class="st1" points="-112.3,136.2 -110.7,133.4 -109.1,136.2 		"/>
		<polygon class="st1" points="-96.8,136.4 -94.9,133.2 -93,136.4 		"/>
		<polygon class="st1" points="-81.4,136.8 -79.1,132.8 -76.7,136.8 		"/>
		<polygon class="st1" points="-66.1,137.2 -63.3,132.4 -60.5,137.2 		"/>
		<polygon class="st1" points="-50.7,137.6 -47.4,132 -44.2,137.6 		"/>
		<polygon class="st1" points="-35.3,138 -31.6,131.6 -27.9,138 		"/>
		<polygon class="st1" points="-19.9,138.3 -15.8,131.3 -11.7,138.3 		"/>
		<polygon class="st1" points="-4.5,138.7 0,130.9 4.5,138.7 		"/>
		<polygon class="st1" points="11,139 15.8,130.6 20.6,139 		"/>
		<polygon class="st1" points="26.6,139.2 31.6,130.4 36.7,139.2 		"/>
		<polygon class="st1" points="42.3,139.2 47.4,130.4 52.6,139.2 		"/>
		<polygon class="st1" points="58.2,139.2 63.3,130.4 68.3,139.2 		"/>
		<polygon class="st1" points="74.3,139 79.1,130.6 83.9,139 		"/>
		<polygon class="st1" points="90.4,138.7 94.9,130.9 99.4,138.7 		"/>
		<polygon class="st1" points="106.6,138.3 110.7,131.3 114.8,138.3 		"/>
		<polygon class="st1" points="122.9,138 126.5,131.6 130.2,138 		"/>
		<polygon class="st1" points="139.1,137.6 142.3,132 145.6,137.6 		"/>
		<polygon class="st1" points="155.4,137.2 158.2,132.4 161,137.2 		"/>
		<polygon class="st1" points="171.7,136.8 174,132.8 176.3,136.8 		"/>
		<polygon class="st1" points="187.9,136.4 189.8,133.2 191.7,136.4 		"/>
		<polygon class="st1" points="204,136.2 205.6,133.4 207.2,136.2 		"/>
		<polygon class="st1" points="219.8,136.2 221.4,133.4 223,136.2 		"/>
		<polygon class="st1" points="235.6,136.2 237.2,133.4 238.9,136.2 		"/>
		<polygon class="st1" points="-167.7,152 -164.5,152 -166.1,149.2 		"/>
		<polygon class="st1" points="-151.9,152 -150.3,149.2 -148.6,152 		"/>
		<polygon class="st1" points="-136.1,152 -134.4,149.2 -132.8,152 		"/>
		<polygon class="st1" points="-120.2,152 -118.6,149.2 -117,152 		"/>
		<polygon class="st1" points="-104.5,152.1 -102.8,149.2 -101.1,152.1 		"/>
		<polygon class="st1" points="-89.1,152.4 -87,148.8 -84.9,152.4 		"/>
		<polygon class="st1" points="-73.8,152.9 -71.2,148.4 -68.6,152.9 		"/>
		<polygon class="st1" points="-58.4,153.3 -55.4,148 -52.3,153.3 		"/>
		<polygon class="st1" points="-43.1,153.7 -39.5,147.5 -36,153.7 		"/>
		<polygon class="st1" points="-27.8,154.2 -23.7,147.1 -19.6,154.2 		"/>
		<polygon class="st1" points="-12.5,154.6 -7.9,146.6 -3.3,154.6 		"/>
		<polygon class="st1" points="2.8,155 7.9,146.2 13,155 		"/>
		<polygon class="st1" points="18.2,155.4 23.7,145.9 29.2,155.4 		"/>
		<polygon class="st1" points="33.8,155.6 39.5,145.6 45.3,155.6 		"/>
		<polygon class="st1" points="49.5,155.7 55.4,145.5 61.2,155.7 		"/>
		<polygon class="st1" points="65.4,155.6 71.2,145.6 76.9,155.6 		"/>
		<polygon class="st1" points="81.5,155.4 87,145.9 92.5,155.4 		"/>
		<polygon class="st1" points="97.8,155 102.8,146.2 107.9,155 		"/>
		<polygon class="st1" points="114.1,154.6 118.6,146.7 123.2,154.6 		"/>
		<polygon class="st1" points="130.4,154.1 134.4,147.1 138.5,154.1 		"/>
		<polygon class="st1" points="146.7,153.7 150.3,147.6 153.8,153.7 		"/>
		<polygon class="st1" points="163,153.2 166.1,148 169.1,153.2 		"/>
		<polygon class="st1" points="179.3,152.8 181.9,148.4 184.5,152.8 		"/>
		<polygon class="st1" points="195.6,152.4 197.7,148.8 199.8,152.4 		"/>
		<polygon class="st1" points="211.9,152 213.5,149.2 215.2,152 		"/>
		<polygon class="st1" points="227.7,152 229.3,149.2 230.9,152 		"/>
		<polygon class="st1" points="243.5,152 246.8,152 245.2,149.2 		"/>
		<polygon class="st1" points="-159.8,167.8 -158.2,165 -156.6,167.8 		"/>
		<polygon class="st1" points="-144,167.8 -142.3,165 -140.7,167.8 		"/>
		<polygon class="st1" points="-128.1,167.8 -126.5,165 -124.9,167.8 		"/>
		<polygon class="st1" points="-112.5,168 -110.7,164.8 -108.9,168 		"/>
		<polygon class="st1" points="-97.2,168.4 -94.9,164.4 -92.6,168.4 		"/>
		<polygon class="st1" points="-81.9,168.8 -79.1,164 -76.3,168.8 		"/>
		<polygon class="st1" points="-66.6,169.3 -63.3,163.6 -59.9,169.3 		"/>
		<polygon class="st1" points="-51.3,169.8 -47.4,163.1 -43.6,169.8 		"/>
		<polygon class="st1" points="-36.1,170.3 -31.6,162.6 -27.2,170.3 		"/>
		<polygon class="st1" points="-20.9,170.8 -15.8,162.1 -10.8,170.8 		"/>
		<polygon class="st1" points="-5.7,171.3 0,161.5 5.7,171.3 		"/>
		<polygon class="st1" points="9.6,171.8 15.8,161.1 22,171.8 		"/>
		<polygon class="st1" points="25.2,172 31.6,160.9 38,172 		"/>
		<polygon class="st1" points="41.1,172 47.4,160.9 53.8,172 		"/>
		<polygon class="st1" points="56.9,172 63.3,160.9 69.7,172 		"/>
		<polygon class="st1" points="72.9,171.8 79.1,161.1 85.3,171.8 		"/>
		<polygon class="st1" points="89.3,171.3 94.9,161.5 100.5,171.3 		"/>
		<polygon class="st1" points="105.7,170.8 110.7,162.1 115.8,170.8 		"/>
		<polygon class="st1" points="122.1,170.3 126.5,162.6 131,170.3 		"/>
		<polygon class="st1" points="138.5,169.8 142.3,163.1 146.2,169.8 		"/>
		<polygon class="st1" points="154.9,169.3 158.2,163.6 161.4,169.3 		"/>
		<polygon class="st1" points="171.2,168.8 174,164 176.8,168.8 		"/>
		<polygon class="st1" points="187.5,168.4 189.8,164.5 192.1,168.4 		"/>
		<polygon class="st1" points="203.8,168 205.6,164.9 207.4,168 		"/>
		<polygon class="st1" points="219.8,167.8 221.4,165 223,167.8 		"/>
		<polygon class="st1" points="235.6,167.8 237.2,165 238.9,167.8 		"/>
		<polygon class="st1" points="-167.7,183.6 -164.5,183.6 -166.1,180.9 		"/>
		<polygon class="st1" points="-151.9,183.6 -150.3,180.9 -148.6,183.6 		"/>
		<polygon class="st1" points="-136.1,183.6 -134.4,180.9 -132.8,183.6 		"/>
		<polygon class="st1" points="-120.2,183.6 -118.6,180.9 -117,183.6 		"/>
		<polygon class="st1" points="-104.8,183.9 -102.8,180.6 -100.9,183.9 		"/>
		<polygon class="st1" points="-89.4,184.4 -87,180.1 -84.5,184.4 		"/>
		<polygon class="st1" points="-74.2,184.8 -71.2,179.7 -68.2,184.8 		"/>
		<polygon class="st1" points="-58.9,185.3 -55.4,179.2 -51.8,185.3 		"/>
		<polygon class="st1" points="-43.7,185.8 -39.5,178.7 -35.4,185.8 		"/>
		<polygon class="st1" points="-28.5,186.4 -23.7,178.1 -18.9,186.4 		"/>
		<polygon class="st1" points="-13.4,187 -7.9,177.5 -2.4,187 		"/>
		<polygon class="st1" points="1.6,187.7 7.9,176.8 14.2,187.7 		"/>
		<polygon class="st1" points="17.3,187.8 23.7,176.7 30.1,187.8 		"/>
		<polygon class="st1" points="33.2,187.8 39.5,176.7 45.9,187.8 		"/>
		<polygon class="st1" points="49,187.8 55.4,176.7 61.7,187.8 		"/>
		<polygon class="st1" points="64.8,187.8 71.2,176.7 77.6,187.8 		"/>
		<polygon class="st1" points="80.6,187.8 87,176.7 93.4,187.8 		"/>
		<polygon class="st1" points="96.6,187.6 102.8,176.9 109,187.6 		"/>
		<polygon class="st1" points="113.1,187 118.6,177.5 124.1,187 		"/>
		<polygon class="st1" points="129.7,186.4 134.4,178.1 139.2,186.4 		"/>
		<polygon class="st1" points="146.2,185.8 150.3,178.7 154.3,185.8 		"/>
		<polygon class="st1" points="162.6,185.3 166.1,179.2 169.6,185.3 		"/>
		<polygon class="st1" points="178.9,184.8 181.9,179.7 184.8,184.8 		"/>
		<polygon class="st1" points="195.3,184.3 197.7,180.2 200.1,184.3 		"/>
		<polygon class="st1" points="211.6,183.9 213.5,180.6 215.4,183.9 		"/>
		<polygon class="st1" points="227.7,183.6 229.3,180.9 230.9,183.6 		"/>
		<polygon class="st1" points="243.5,183.6 246.8,183.6 245.2,180.9 		"/>
		<polygon class="st1" points="-159.8,199.5 -158.2,196.7 -156.6,199.5 		"/>
		<polygon class="st1" points="-144,199.5 -142.3,196.7 -140.7,199.5 		"/>
		<polygon class="st1" points="-128.1,199.5 -126.5,196.7 -124.9,199.5 		"/>
		<polygon class="st1" points="-112.8,199.8 -110.7,196.3 -108.7,199.8 		"/>
		<polygon class="st1" points="-97.4,200.3 -94.9,195.9 -92.4,200.3 		"/>
		<polygon class="st1" points="-82.2,200.7 -79.1,195.4 -76,200.7 		"/>
		<polygon class="st1" points="-67,201.3 -63.3,194.9 -59.6,201.3 		"/>
		<polygon class="st1" points="-51.8,201.8 -47.4,194.3 -43.1,201.8 		"/>
		<polygon class="st1" points="-36.7,202.4 -31.6,193.7 -26.6,202.4 		"/>
		<polygon class="st1" points="-21.7,203.1 -15.8,193 -10,203.1 		"/>
		<polygon class="st1" points="-6.4,203.6 0,192.5 6.4,203.6 		"/>
		<polygon class="st1" points="9.4,203.6 15.8,192.5 22.2,203.6 		"/>
		<polygon class="st1" points="25.2,203.6 31.6,192.5 38,203.6 		"/>
		<polygon class="st1" points="41.1,203.6 47.4,192.5 53.8,203.6 		"/>
		<polygon class="st1" points="56.9,203.6 63.3,192.5 69.7,203.6 		"/>
		<polygon class="st1" points="72.7,203.6 79.1,192.5 85.5,203.6 		"/>
		<polygon class="st1" points="88.5,203.6 94.9,192.5 101.3,203.6 		"/>
		<polygon class="st1" points="104.9,203.1 110.7,193 116.5,203.1 		"/>
		<polygon class="st1" points="121.5,202.4 126.5,193.7 131.5,202.4 		"/>
		<polygon class="st1" points="138.1,201.8 142.3,194.4 146.6,201.8 		"/>
		<polygon class="st1" points="154.5,201.2 158.2,194.9 161.8,201.2 		"/>
		<polygon class="st1" points="170.9,200.7 174,195.4 177,200.7 		"/>
		<polygon class="st1" points="187.3,200.2 189.8,195.9 192.3,200.2 		"/>
		<polygon class="st1" points="203.6,199.8 205.6,196.3 207.6,199.8 		"/>
		<polygon class="st1" points="219.8,199.5 221.4,196.7 223,199.5 		"/>
		<polygon class="st1" points="235.6,199.5 237.2,196.7 238.9,199.5 		"/>
		<polygon class="st1" points="-167.7,215.3 -164.5,215.3 -166.1,212.5 		"/>
		<polygon class="st1" points="-151.9,215.3 -150.3,212.5 -148.6,215.3 		"/>
		<polygon class="st1" points="-136.1,215.3 -134.4,212.5 -132.8,215.3 		"/>
		<polygon class="st1" points="-120.2,215.3 -118.6,212.5 -117,215.3 		"/>
		<polygon class="st1" points="-104.9,215.7 -102.8,212.1 -100.7,215.7 		"/>
		<polygon class="st1" points="-89.6,216.1 -87,211.6 -84.4,216.1 		"/>
		<polygon class="st1" points="-74.3,216.6 -71.2,211.1 -68,216.6 		"/>
		<polygon class="st1" points="-59.1,217.2 -55.4,210.6 -51.6,217.2 		"/>
		<polygon class="st1" points="-44,217.7 -39.5,210 -35.1,217.7 		"/>
		<polygon class="st1" points="-28.9,218.4 -23.7,209.4 -18.5,218.4 		"/>
		<polygon class="st1" points="-14,219.1 -7.9,208.6 -1.8,219.1 		"/>
		<polygon class="st1" points="1.5,219.4 7.9,208.3 14.3,219.4 		"/>
		<polygon class="st1" points="17.3,219.4 23.7,208.3 30.1,219.4 		"/>
		<polygon class="st1" points="33.2,219.4 39.5,208.3 45.9,219.4 		"/>
		<polygon class="st1" points="49,219.4 55.4,208.3 61.7,219.4 		"/>
		<polygon class="st1" points="64.8,219.4 71.2,208.3 77.6,219.4 		"/>
		<polygon class="st1" points="80.6,219.4 87,208.3 93.4,219.4 		"/>
		<polygon class="st1" points="96.4,219.4 102.8,208.3 109.2,219.4 		"/>
		<polygon class="st1" points="112.6,219.1 118.6,208.6 124.7,219.1 		"/>
		<polygon class="st1" points="129.3,218.3 134.4,209.4 139.6,218.3 		"/>
		<polygon class="st1" points="145.9,217.7 150.3,210.1 154.7,217.7 		"/>
		<polygon class="st1" points="162.3,217.1 166.1,210.6 169.8,217.1 		"/>
		<polygon class="st1" points="178.8,216.6 181.9,211.2 185,216.6 		"/>
		<polygon class="st1" points="195.1,216.1 197.7,211.7 200.3,216.1 		"/>
		<polygon class="st1" points="211.5,215.7 213.5,212.1 215.6,215.7 		"/>
		<polygon class="st1" points="227.7,215.3 229.3,212.5 230.9,215.3 		"/>
		<polygon class="st1" points="243.5,215.3 246.8,215.3 245.2,212.5 		"/>
		<polygon class="st1" points="-159.8,231.1 -158.2,228.3 -156.6,231.1 		"/>
		<polygon class="st1" points="-144,231.1 -142.3,228.3 -140.7,231.1 		"/>
		<polygon class="st1" points="-128.1,231.1 -126.5,228.3 -124.9,231.1 		"/>
		<polygon class="st1" points="-112.8,231.5 -110.7,227.9 -108.6,231.5 		"/>
		<polygon class="st1" points="-97.5,232 -94.9,227.4 -92.3,232 		"/>
		<polygon class="st1" points="-82.2,232.4 -79.1,227 -75.9,232.4 		"/>
		<polygon class="st1" points="-67,233 -63.3,226.4 -59.5,233 		"/>
		<polygon class="st1" points="-51.9,233.6 -47.4,225.8 -43,233.6 		"/>
		<polygon class="st1" points="-36.9,234.2 -31.6,225.2 -26.4,234.2 		"/>
		<polygon class="st1" points="-21.9,235 -15.8,224.4 -9.7,235 		"/>
		<polygon class="st1" points="-6.4,235.2 0,224.2 6.4,235.2 		"/>
		<polygon class="st1" points="9.4,235.2 15.8,224.2 22.2,235.2 		"/>
		<polygon class="st1" points="25.2,235.2 31.6,224.2 38,235.2 		"/>
		<polygon class="st1" points="41.1,235.2 47.4,224.2 53.8,235.2 		"/>
		<polygon class="st1" points="56.9,235.2 63.3,224.2 69.7,235.2 		"/>
		<polygon class="st1" points="72.7,235.2 79.1,224.2 85.5,235.2 		"/>
		<polygon class="st1" points="88.5,235.2 94.9,224.2 101.3,235.2 		"/>
		<polygon class="st1" points="104.7,234.9 110.7,224.5 116.8,234.9 		"/>
		<polygon class="st1" points="121.3,234.2 126.5,225.2 131.7,234.2 		"/>
		<polygon class="st1" points="137.9,233.5 142.3,225.9 146.8,233.5 		"/>
		<polygon class="st1" points="154.4,232.9 158.2,226.4 161.9,232.9 		"/>
		<polygon class="st1" points="170.8,232.4 174,227 177.1,232.4 		"/>
		<polygon class="st1" points="187.2,232 189.8,227.4 192.4,232 		"/>
		<polygon class="st1" points="203.5,231.5 205.6,227.9 207.7,231.5 		"/>
		<polygon class="st1" points="219.8,231.1 221.4,228.3 223,231.1 		"/>
		<polygon class="st1" points="235.6,231.1 237.2,228.3 238.9,231.1 		"/>
		<polygon class="st1" points="-167.7,246.9 -164.5,246.9 -166.1,244.1 		"/>
		<polygon class="st1" points="-151.9,246.9 -150.3,244.1 -148.6,246.9 		"/>
		<polygon class="st1" points="-136.1,246.9 -134.4,244.1 -132.8,246.9 		"/>
		<polygon class="st1" points="-120.2,246.9 -118.6,244.1 -117,246.9 		"/>
		<polygon class="st1" points="-104.9,247.3 -102.8,243.7 -100.7,247.3 		"/>
		<polygon class="st1" points="-89.6,247.7 -87,243.3 -84.4,247.7 		"/>
		<polygon class="st1" points="-74.3,248.2 -71.2,242.8 -68,248.2 		"/>
		<polygon class="st1" points="-59.1,248.7 -55.4,242.3 -51.6,248.7 		"/>
		<polygon class="st1" points="-43.9,249.3 -39.5,241.8 -35.2,249.3 		"/>
		<polygon class="st1" points="-28.8,249.9 -23.7,241.1 -18.6,249.9 		"/>
		<polygon class="st1" points="-13.9,250.7 -7.9,240.4 -2,250.7 		"/>
		<polygon class="st1" points="1.5,251 7.9,240 14.3,251 		"/>
		<polygon class="st1" points="17.3,251 23.7,240 30.1,251 		"/>
		<polygon class="st1" points="33.2,251 39.5,240 45.9,251 		"/>
		<polygon class="st1" points="49,251 55.4,240 61.7,251 		"/>
		<polygon class="st1" points="64.8,251 71.2,240 77.6,251 		"/>
		<polygon class="st1" points="80.6,251 87,240 93.4,251 		"/>
		<polygon class="st1" points="96.4,251 102.8,240 109.2,251 		"/>
		<polygon class="st1" points="112.7,250.6 118.6,240.4 124.5,250.6 		"/>
		<polygon class="st1" points="129.4,249.9 134.4,241.1 139.5,249.9 		"/>
		<polygon class="st1" points="145.9,249.2 150.3,241.8 154.6,249.2 		"/>
		<polygon class="st1" points="162.4,248.7 166.1,242.3 169.8,248.7 		"/>
		<polygon class="st1" points="178.8,248.2 181.9,242.8 185,248.2 		"/>
		<polygon class="st1" points="195.2,247.7 197.7,243.3 200.2,247.7 		"/>
		<polygon class="st1" points="211.5,247.3 213.5,243.8 215.5,247.3 		"/>
		<polygon class="st1" points="227.7,246.9 229.3,244.1 230.9,246.9 		"/>
		<polygon class="st1" points="243.5,246.9 246.8,246.9 245.2,244.1 		"/>
		<polygon class="st1" points="-159.8,262.7 -158.2,259.9 -156.6,262.7 		"/>
		<polygon class="st1" points="-144,262.7 -142.3,259.9 -140.7,262.7 		"/>
		<polygon class="st1" points="-128.1,262.7 -126.5,259.9 -124.9,262.7 		"/>
		<polygon class="st1" points="-112.7,263 -110.7,259.6 -108.7,263 		"/>
		<polygon class="st1" points="-97.4,263.5 -94.9,259.2 -92.4,263.5 		"/>
		<polygon class="st1" points="-82.1,263.9 -79.1,258.7 -76.1,263.9 		"/>
		<polygon class="st1" points="-66.9,264.4 -63.3,258.2 -59.7,264.4 		"/>
		<polygon class="st1" points="-51.7,265 -47.4,257.7 -43.2,265 		"/>
		<polygon class="st1" points="-36.5,265.6 -31.6,257.1 -26.7,265.6 		"/>
		<polygon class="st1" points="-21.5,266.2 -15.8,256.4 -10.2,266.2 		"/>
		<polygon class="st1" points="-6.4,266.9 0,255.8 6.4,266.9 		"/>
		<polygon class="st1" points="9.4,266.9 15.8,255.8 22.2,266.9 		"/>
		<polygon class="st1" points="25.2,266.9 31.6,255.8 38,266.9 		"/>
		<polygon class="st1" points="41.1,266.9 47.4,255.8 53.8,266.9 		"/>
		<polygon class="st1" points="56.9,266.9 63.3,255.8 69.7,266.9 		"/>
		<polygon class="st1" points="72.7,266.9 79.1,255.8 85.5,266.9 		"/>
		<polygon class="st1" points="88.5,266.9 94.9,255.8 101.3,266.9 		"/>
		<polygon class="st1" points="105.1,266.2 110.7,256.5 116.3,266.2 		"/>
		<polygon class="st1" points="121.7,265.5 126.5,257.1 131.4,265.5 		"/>
		<polygon class="st1" points="138.2,265 142.3,257.7 146.5,265 		"/>
		<polygon class="st1" points="154.6,264.4 158.2,258.2 161.7,264.4 		"/>
		<polygon class="st1" points="171,263.9 174,258.7 177,263.9 		"/>
		<polygon class="st1" points="187.3,263.5 189.8,259.2 192.3,263.5 		"/>
		<polygon class="st1" points="203.7,263 205.6,259.6 207.6,263 		"/>
		<polygon class="st1" points="219.8,262.7 221.4,259.9 223,262.7 		"/>
		<polygon class="st1" points="235.6,262.7 237.2,259.9 238.9,262.7 		"/>
		<polygon class="st1" points="-167.7,278.5 -164.5,278.5 -166.1,275.7 		"/>
		<polygon class="st1" points="-151.9,278.5 -150.3,275.7 -148.6,278.5 		"/>
		<polygon class="st1" points="-136.1,278.5 -134.4,275.7 -132.8,278.5 		"/>
		<polygon class="st1" points="-120.2,278.5 -118.6,275.7 -117,278.5 		"/>
		<polygon class="st1" points="-104.7,278.8 -102.8,275.5 -100.9,278.8 		"/>
		<polygon class="st1" points="-89.3,279.2 -87,275.1 -84.6,279.2 		"/>
		<polygon class="st1" points="-74.1,279.6 -71.2,274.6 -68.3,279.6 		"/>
		<polygon class="st1" points="-58.8,280.1 -55.4,274.2 -51.9,280.1 		"/>
		<polygon class="st1" points="-43.5,280.6 -39.5,273.7 -35.5,280.6 		"/>
		<polygon class="st1" points="-28.3,281.1 -23.7,273.2 -19.1,281.1 		"/>
		<polygon class="st1" points="-13.1,281.7 -7.9,272.6 -2.7,281.7 		"/>
		<polygon class="st1" points="2,282.2 7.9,272 13.8,282.2 		"/>
		<polygon class="st1" points="17.3,282.7 23.7,271.6 30.1,282.7 		"/>
		<polygon class="st1" points="33.2,282.7 39.5,271.6 45.9,282.7 		"/>
		<polygon class="st1" points="49,282.7 55.4,271.6 61.7,282.7 		"/>
		<polygon class="st1" points="64.8,282.7 71.2,271.6 77.6,282.7 		"/>
		<polygon class="st1" points="80.6,282.7 87,271.6 93.4,282.7 		"/>
		<polygon class="st1" points="96.9,282.2 102.8,272.1 108.7,282.2 		"/>
		<polygon class="st1" points="113.4,281.7 118.6,272.6 123.8,281.7 		"/>
		<polygon class="st1" points="129.9,281.1 134.4,273.2 139,281.1 		"/>
		<polygon class="st1" points="146.3,280.6 150.3,273.7 154.2,280.6 		"/>
		<polygon class="st1" points="162.7,280.1 166.1,274.2 169.5,280.1 		"/>
		<polygon class="st1" points="179,279.6 181.9,274.7 184.7,279.6 		"/>
		<polygon class="st1" points="195.3,279.2 197.7,275.1 200.1,279.2 		"/>
		<polygon class="st1" points="211.7,278.8 213.5,275.5 215.4,278.8 		"/>
		<polygon class="st1" points="227.7,278.5 229.3,275.7 230.9,278.5 		"/>
		<polygon class="st1" points="243.5,278.5 246.8,278.5 245.2,275.7 		"/>
		<polygon class="st1" points="-159.8,294.4 -158.2,291.6 -156.6,294.4 		"/>
		<polygon class="st1" points="-144,294.4 -142.3,291.6 -140.7,294.4 		"/>
		<polygon class="st1" points="-128.1,294.4 -126.5,291.6 -124.9,294.4 		"/>
		<polygon class="st1" points="-112.5,294.5 -110.7,291.5 -109,294.5 		"/>
		<polygon class="st1" points="-97.1,294.9 -94.9,291.1 -92.7,294.9 		"/>
		<polygon class="st1" points="-81.7,295.3 -79.1,290.7 -76.4,295.3 		"/>
		<polygon class="st1" points="-66.4,295.7 -63.3,290.2 -60.1,295.7 		"/>
		<polygon class="st1" points="-51.1,296.2 -47.4,289.8 -43.8,296.2 		"/>
		<polygon class="st1" points="-35.9,296.6 -31.6,289.3 -27.4,296.6 		"/>
		<polygon class="st1" points="-20.6,297.1 -15.8,288.8 -11,297.1 		"/>
		<polygon class="st1" points="-5.3,297.6 0,288.4 5.3,297.6 		"/>
		<polygon class="st1" points="10,298 15.8,288 21.6,298 		"/>
		<polygon class="st1" points="25.6,298.2 31.6,287.7 37.7,298.2 		"/>
		<polygon class="st1" points="41.2,298.3 47.4,287.6 53.7,298.3 		"/>
		<polygon class="st1" points="57.2,298.2 63.3,287.7 69.3,298.2 		"/>
		<polygon class="st1" points="73.3,297.9 79.1,288 84.8,297.9 		"/>
		<polygon class="st1" points="89.6,297.5 94.9,288.4 100.2,297.5 		"/>
		<polygon class="st1" points="106,297.1 110.7,288.9 115.5,297.1 		"/>
		<polygon class="st1" points="122.3,296.6 126.5,289.3 130.7,296.6 		"/>
		<polygon class="st1" points="138.7,296.1 142.3,289.8 146,296.1 		"/>
		<polygon class="st1" points="155,295.7 158.2,290.2 161.3,295.7 		"/>
		<polygon class="st1" points="171.3,295.2 174,290.7 176.6,295.2 		"/>
		<polygon class="st1" points="187.6,294.8 189.8,291.1 192,294.8 		"/>
		<polygon class="st1" points="203.9,294.4 205.6,291.5 207.3,294.4 		"/>
		<polygon class="st1" points="219.8,294.4 221.4,291.6 223,294.4 		"/>
		<polygon class="st1" points="235.6,294.4 237.2,291.6 238.9,294.4 		"/>
		<polygon class="st1" points="-167.7,310.2 -164.5,310.2 -166.1,307.4 		"/>
		<polygon class="st1" points="-151.9,310.2 -150.3,307.4 -148.6,310.2 		"/>
		<polygon class="st1" points="-136.1,310.2 -134.4,307.4 -132.8,310.2 		"/>
		<polygon class="st1" points="-120.2,310.2 -118.6,307.4 -117,310.2 		"/>
		<polygon class="st1" points="-104.4,310.2 -102.8,307.4 -101.2,310.2 		"/>
		<polygon class="st1" points="-89,310.5 -87,307 -85,310.5 		"/>
		<polygon class="st1" points="-73.6,310.9 -71.2,306.7 -68.7,310.9 		"/>
		<polygon class="st1" points="-58.3,311.3 -55.4,306.3 -52.4,311.3 		"/>
		<polygon class="st1" points="-42.9,311.7 -39.5,305.9 -36.2,311.7 		"/>
		<polygon class="st1" points="-27.6,312.1 -23.7,305.4 -19.9,312.1 		"/>
		<polygon class="st1" points="-12.2,312.5 -7.9,305.1 -3.6,312.5 		"/>
		<polygon class="st1" points="3.2,312.9 7.9,304.7 12.6,312.9 		"/>
		<polygon class="st1" points="18.6,313.2 23.7,304.4 28.8,313.2 		"/>
		<polygon class="st1" points="34.2,313.4 39.5,304.2 44.8,313.4 		"/>
		<polygon class="st1" points="50,313.5 55.4,304.1 60.8,313.5 		"/>
		<polygon class="st1" points="65.9,313.4 71.2,304.2 76.5,313.4 		"/>
		<polygon class="st1" points="81.9,313.2 87,304.4 92,313.2 		"/>
		<polygon class="st1" points="98.1,312.9 102.8,304.7 107.5,312.9 		"/>
		<polygon class="st1" points="114.4,312.5 118.6,305.1 122.9,312.5 		"/>
		<polygon class="st1" points="130.6,312.1 134.4,305.5 138.3,312.1 		"/>
		<polygon class="st1" points="146.9,311.7 150.3,305.9 153.6,311.7 		"/>
		<polygon class="st1" points="163.2,311.3 166.1,306.3 169,311.3 		"/>
		<polygon class="st1" points="179.5,310.9 181.9,306.7 184.3,310.9 		"/>
		<polygon class="st1" points="195.7,310.5 197.7,307.1 199.7,310.5 		"/>
		<polygon class="st1" points="211.9,310.2 213.5,307.4 215.1,310.2 		"/>
		<polygon class="st1" points="227.7,310.2 229.3,307.4 230.9,310.2 		"/>
		<polygon class="st1" points="243.5,310.2 246.8,310.2 245.2,307.4 		"/>
		<polygon class="st1" points="-159.8,326 -158.2,323.2 -156.6,326 		"/>
		<polygon class="st1" points="-144,326 -142.3,323.2 -140.7,326 		"/>
		<polygon class="st1" points="-128.1,326 -126.5,323.2 -124.9,326 		"/>
		<polygon class="st1" points="-112.3,326 -110.7,323.2 -109.1,326 		"/>
		<polygon class="st1" points="-96.7,326.1 -94.9,323.1 -93.1,326.1 		"/>
		<polygon class="st1" points="-81.3,326.5 -79.1,322.7 -76.9,326.5 		"/>
		<polygon class="st1" points="-65.9,326.9 -63.3,322.3 -60.6,326.9 		"/>
		<polygon class="st1" points="-50.5,327.2 -47.4,322 -44.4,327.2 		"/>
		<polygon class="st1" points="-35,327.5 -31.6,321.6 -28.2,327.5 		"/>
		<polygon class="st1" points="-19.7,327.9 -15.8,321.3 -12,327.9 		"/>
		<polygon class="st1" points="-4.2,328.2 0,321 4.2,328.2 		"/>
		<polygon class="st1" points="11.4,328.4 15.8,320.8 20.3,328.4 		"/>
		<polygon class="st1" points="27,328.6 31.6,320.6 36.2,328.6 		"/>
		<polygon class="st1" points="42.8,328.6 47.4,320.5 52.1,328.6 		"/>
		<polygon class="st1" points="58.7,328.6 63.3,320.6 67.9,328.6 		"/>
		<polygon class="st1" points="74.6,328.4 79.1,320.8 83.5,328.4 		"/>
		<polygon class="st1" points="90.7,328.2 94.9,321 99.1,328.2 		"/>
		<polygon class="st1" points="106.9,327.9 110.7,321.3 114.5,327.9 		"/>
		<polygon class="st1" points="123.1,327.5 126.5,321.6 129.9,327.5 		"/>
		<polygon class="st1" points="139.4,327.2 142.3,322 145.3,327.2 		"/>
		<polygon class="st1" points="155.6,326.9 158.2,322.3 160.8,326.9 		"/>
		<polygon class="st1" points="171.8,326.5 174,322.7 176.1,326.5 		"/>
		<polygon class="st1" points="188.1,326.1 189.8,323.1 191.5,326.1 		"/>
		<polygon class="st1" points="204,326 205.6,323.2 207.2,326 		"/>
		<polygon class="st1" points="219.8,326 221.4,323.2 223,326 		"/>
		<polygon class="st1" points="235.6,326 237.2,323.2 238.9,326 		"/>
		<polygon class="st1" points="-167.7,341.8 -164.5,341.8 -166.1,339 		"/>
		<polygon class="st1" points="-151.9,341.8 -150.3,339 -148.6,341.8 		"/>
		<polygon class="st1" points="-136.1,341.8 -134.4,339 -132.8,341.8 		"/>
		<polygon class="st1" points="-120.2,341.8 -118.6,339 -117,341.8 		"/>
		<polygon class="st1" points="-104.4,341.8 -102.8,339 -101.2,341.8 		"/>
		<polygon class="st1" points="-88.6,341.8 -87,339 -85.4,341.8 		"/>
		<polygon class="st1" points="-73.1,342 -71.2,338.8 -69.3,342 		"/>
		<polygon class="st1" points="-57.7,342.4 -55.4,338.4 -53.1,342.4 		"/>
		<polygon class="st1" points="-42.2,342.7 -39.5,338.1 -36.9,342.7 		"/>
		<polygon class="st1" points="-26.7,343 -23.7,337.8 -20.7,343 		"/>
		<polygon class="st1" points="-11.3,343.3 -7.9,337.5 -4.6,343.3 		"/>
		<polygon class="st1" points="4.3,343.6 7.9,337.3 11.5,343.6 		"/>
		<polygon class="st1" points="19.8,343.8 23.7,337.1 27.6,343.8 		"/>
		<polygon class="st1" points="35.5,343.9 39.5,336.9 43.5,343.9 		"/>
		<polygon class="st1" points="51.3,343.9 55.4,336.9 59.4,343.9 		"/>
		<polygon class="st1" points="67.2,343.9 71.2,336.9 75.2,343.9 		"/>
		<polygon class="st1" points="83.1,343.7 87,337.1 90.8,343.7 		"/>
		<polygon class="st1" points="99.2,343.6 102.8,337.3 106.4,343.6 		"/>
		<polygon class="st1" points="115.3,343.3 118.6,337.5 121.9,343.3 		"/>
		<polygon class="st1" points="131.5,343 134.4,337.8 137.4,343 		"/>
		<polygon class="st1" points="147.6,342.7 150.3,338.1 152.9,342.7 		"/>
		<polygon class="st1" points="163.8,342.4 166.1,338.4 168.3,342.4 		"/>
		<polygon class="st1" points="180,342 181.9,338.8 183.8,342 		"/>
		<polygon class="st1" points="196.1,341.8 197.7,339 199.3,341.8 		"/>
		<polygon class="st1" points="211.9,341.8 213.5,339 215.1,341.8 		"/>
		<polygon class="st1" points="227.7,341.8 229.3,339 230.9,341.8 		"/>
		<polygon class="st1" points="243.5,341.8 246.8,341.8 245.2,339 		"/>
		<polygon class="st1" points="-159.8,357.6 -158.2,354.8 -156.6,357.6 		"/>
		<polygon class="st1" points="-144,357.6 -142.3,354.8 -140.7,357.6 		"/>
		<polygon class="st1" points="-128.1,357.6 -126.5,354.8 -124.9,357.6 		"/>
		<polygon class="st1" points="-112.3,357.6 -110.7,354.8 -109.1,357.6 		"/>
		<polygon class="st1" points="-96.5,357.6 -94.9,354.8 -93.3,357.6 		"/>
		<polygon class="st1" points="-80.7,357.6 -79.1,354.8 -77.5,357.6 		"/>
		<polygon class="st1" points="-65.3,357.9 -63.3,354.5 -61.3,357.9 		"/>
		<polygon class="st1" points="-49.7,358.2 -47.4,354.2 -45.2,358.2 		"/>
		<polygon class="st1" points="-34.3,358.5 -31.6,353.9 -29,358.5 		"/>
		<polygon class="st1" points="-18.7,358.8 -15.8,353.7 -12.9,358.8 		"/>
		<polygon class="st1" points="-3.1,358.9 0,353.5 3.1,358.9 		"/>
		<polygon class="st1" points="12.5,359.1 15.8,353.4 19.1,359.1 		"/>
		<polygon class="st1" points="28.2,359.2 31.6,353.2 35.1,359.2 		"/>
		<polygon class="st1" points="44,359.2 47.4,353.2 50.9,359.2 		"/>
		<polygon class="st1" points="59.9,359.2 63.3,353.3 66.7,359.2 		"/>
		<polygon class="st1" points="75.8,359.1 79.1,353.4 82.4,359.1 		"/>
		<polygon class="st1" points="91.8,358.9 94.9,353.5 98,358.9 		"/>
		<polygon class="st1" points="107.8,358.7 110.7,353.7 113.6,358.7 		"/>
		<polygon class="st1" points="123.9,358.5 126.5,354 129.1,358.5 		"/>
		<polygon class="st1" points="140.1,358.2 142.3,354.2 144.6,358.2 		"/>
		<polygon class="st1" points="156.2,357.9 158.2,354.5 160.1,357.9 		"/>
		<polygon class="st1" points="172.4,357.6 174,354.8 175.6,357.6 		"/>
		<polygon class="st1" points="188.2,357.6 189.8,354.8 191.4,357.6 		"/>
		<polygon class="st1" points="204,357.6 205.6,354.8 207.2,357.6 		"/>
		<polygon class="st1" points="219.8,357.6 221.4,354.8 223,357.6 		"/>
		<polygon class="st1" points="235.6,357.6 237.2,354.8 238.9,357.6 		"/>
		<polygon class="st1" points="-167.7,373.4 -164.5,373.4 -166.1,370.6 		"/>
		<polygon class="st1" points="-151.9,373.4 -150.3,370.6 -148.6,373.4 		"/>
		<polygon class="st1" points="-136.1,373.4 -134.4,370.6 -132.8,373.4 		"/>
		<polygon class="st1" points="-120.2,373.4 -118.6,370.6 -117,373.4 		"/>
		<polygon class="st1" points="-104.4,373.4 -102.8,370.6 -101.2,373.4 		"/>
		<polygon class="st1" points="-88.6,373.4 -87,370.6 -85.4,373.4 		"/>
		<polygon class="st1" points="-72.8,373.4 -71.2,370.6 -69.6,373.4 		"/>
		<polygon class="st1" points="-57,373.5 -55.4,370.6 -53.7,373.5 		"/>
		<polygon class="st1" points="-41.5,373.7 -39.5,370.4 -37.6,373.7 		"/>
		<polygon class="st1" points="-26,374 -23.7,370.1 -21.5,374 		"/>
		<polygon class="st1" points="-10.4,374.2 -7.9,369.9 -5.4,374.2 		"/>
		<polygon class="st1" points="5.2,374.4 7.9,369.7 10.6,374.4 		"/>
		<polygon class="st1" points="20.9,374.5 23.7,369.6 26.5,374.5 		"/>
		<polygon class="st1" points="36.6,374.6 39.5,369.5 42.5,374.6 		"/>
		<polygon class="st1" points="52.4,374.6 55.4,369.5 58.3,374.6 		"/>
		<polygon class="st1" points="68.3,374.6 71.2,369.5 74.1,374.6 		"/>
		<polygon class="st1" points="84.2,374.5 87,369.6 89.8,374.5 		"/>
		<polygon class="st1" points="100.1,374.4 102.8,369.7 105.5,374.4 		"/>
		<polygon class="st1" points="116.2,374.2 118.6,369.9 121.1,374.2 		"/>
		<polygon class="st1" points="132.2,374 134.4,370.1 136.6,374 		"/>
		<polygon class="st1" points="148.3,373.7 150.3,370.4 152.2,373.7 		"/>
		<polygon class="st1" points="164.5,373.4 166.1,370.6 167.7,373.4 		"/>
		<polygon class="st1" points="180.3,373.4 181.9,370.6 183.5,373.4 		"/>
		<polygon class="st1" points="196.1,373.4 197.7,370.6 199.3,373.4 		"/>
		<polygon class="st1" points="211.9,373.4 213.5,370.6 215.1,373.4 		"/>
		<polygon class="st1" points="227.7,373.4 229.3,370.6 230.9,373.4 		"/>
		<polygon class="st1" points="243.5,373.4 246.8,373.4 245.2,370.6 		"/>
		<polygon class="st1" points="-159.8,389.3 -158.2,386.5 -156.6,389.3 		"/>
		<polygon class="st1" points="-144,389.3 -142.3,386.5 -140.7,389.3 		"/>
		<polygon class="st1" points="-128.1,389.3 -126.5,386.5 -124.9,389.3 		"/>
		<polygon class="st1" points="-112.3,389.3 -110.7,386.5 -109.1,389.3 		"/>
		<polygon class="st1" points="-96.5,389.3 -94.9,386.5 -93.3,389.3 		"/>
		<polygon class="st1" points="-80.7,389.3 -79.1,386.5 -77.5,389.3 		"/>
		<polygon class="st1" points="-64.9,389.3 -63.3,386.5 -61.7,389.3 		"/>
		<polygon class="st1" points="-49.1,389.3 -47.4,386.5 -45.8,389.3 		"/>
		<polygon class="st1" points="-33.5,389.4 -31.6,386.3 -29.8,389.4 		"/>
		<polygon class="st1" points="-17.9,389.6 -15.8,386.1 -13.8,389.6 		"/>
		<polygon class="st1" points="-2.2,389.8 0,385.9 2.2,389.8 		"/>
		<polygon class="st1" points="13.5,389.9 15.8,385.8 18.2,389.9 		"/>
		<polygon class="st1" points="29.2,390 31.6,385.7 34.1,390 		"/>
		<polygon class="st1" points="45,390 47.4,385.7 49.9,390 		"/>
		<polygon class="st1" points="60.8,390 63.3,385.7 65.7,390 		"/>
		<polygon class="st1" points="76.7,389.9 79.1,385.8 81.4,389.9 		"/>
		<polygon class="st1" points="92.7,389.8 94.9,385.9 97.1,389.8 		"/>
		<polygon class="st1" points="108.7,389.6 110.7,386.1 112.7,389.6 		"/>
		<polygon class="st1" points="124.7,389.4 126.5,386.3 128.3,389.4 		"/>
		<polygon class="st1" points="140.7,389.3 142.3,386.5 144,389.3 		"/>
		<polygon class="st1" points="156.6,389.3 158.2,386.5 159.8,389.3 		"/>
		<polygon class="st1" points="172.4,389.3 174,386.5 175.6,389.3 		"/>
		<polygon class="st1" points="188.2,389.3 189.8,386.5 191.4,389.3 		"/>
		<polygon class="st1" points="204,389.3 205.6,386.5 207.2,389.3 		"/>
		<polygon class="st1" points="219.8,389.3 221.4,386.5 223,389.3 		"/>
		<polygon class="st1" points="235.6,389.3 237.2,386.5 238.9,389.3 		"/>
		<polygon class="st1" points="-167.7,405.1 -164.5,405.1 -166.1,402.3 		"/>
		<polygon class="st1" points="-151.9,405.1 -150.3,402.3 -148.6,405.1 		"/>
		<polygon class="st1" points="-136.1,405.1 -134.4,402.3 -132.8,405.1 		"/>
		<polygon class="st1" points="-120.2,405.1 -118.6,402.3 -117,405.1 		"/>
		<polygon class="st1" points="-104.4,405.1 -102.8,402.3 -101.2,405.1 		"/>
		<polygon class="st1" points="-88.6,405.1 -87,402.3 -85.4,405.1 		"/>
		<polygon class="st1" points="-72.8,405.1 -71.2,402.3 -69.6,405.1 		"/>
		<polygon class="st1" points="-57,405.1 -55.4,402.3 -53.7,405.1 		"/>
		<polygon class="st1" points="-41.2,405.1 -39.5,402.3 -37.9,405.1 		"/>
		<polygon class="st1" points="-25.3,405.1 -23.7,402.3 -22.1,405.1 		"/>
		<polygon class="st1" points="-9.5,405.1 -7.9,402.3 -6.3,405.1 		"/>
		<polygon class="st1" points="6.1,405.2 7.9,402.1 9.7,405.2 		"/>
		<polygon class="st1" points="21.8,405.3 23.7,402 25.6,405.3 		"/>
		<polygon class="st1" points="37.6,405.4 39.5,402 41.5,405.4 		"/>
		<polygon class="st1" points="53.3,405.4 55.4,401.9 57.4,405.4 		"/>
		<polygon class="st1" points="69.2,405.4 71.2,402 73.2,405.4 		"/>
		<polygon class="st1" points="85.1,405.3 87,402 88.9,405.3 		"/>
		<polygon class="st1" points="101,405.2 102.8,402.1 104.6,405.2 		"/>
		<polygon class="st1" points="117,405.1 118.6,402.3 120.2,405.1 		"/>
		<polygon class="st1" points="132.8,405.1 134.4,402.3 136.1,405.1 		"/>
		<polygon class="st1" points="148.6,405.1 150.3,402.3 151.9,405.1 		"/>
		<polygon class="st1" points="164.5,405.1 166.1,402.3 167.7,405.1 		"/>
		<polygon class="st1" points="180.3,405.1 181.9,402.3 183.5,405.1 		"/>
		<polygon class="st1" points="196.1,405.1 197.7,402.3 199.3,405.1 		"/>
		<polygon class="st1" points="211.9,405.1 213.5,402.3 215.1,405.1 		"/>
		<polygon class="st1" points="227.7,405.1 229.3,402.3 230.9,405.1 		"/>
		<polygon class="st1" points="243.5,405.1 246.8,405.1 245.2,402.3 		"/>
		<polygon class="st1" points="-159.8,420.9 -156.6,420.9 -158.2,418.1 		"/>
		<polygon class="st1" points="-144,420.9 -140.7,420.9 -142.3,418.1 		"/>
		<polygon class="st1" points="-128.1,420.9 -124.9,420.9 -126.5,418.1 		"/>
		<polygon class="st1" points="-112.3,420.9 -109.1,420.9 -110.7,418.1 		"/>
		<polygon class="st1" points="-96.5,420.9 -93.3,420.9 -94.9,418.1 		"/>
		<polygon class="st1" points="-80.7,420.9 -77.5,420.9 -79.1,418.1 		"/>
		<polygon class="st1" points="-64.9,420.9 -61.7,420.9 -63.3,418.1 		"/>
		<polygon class="st1" points="-49.1,420.9 -45.8,420.9 -47.4,418.1 		"/>
		<polygon class="st1" points="-33.2,420.9 -30,420.9 -31.6,418.1 		"/>
		<polygon class="st1" points="-17.4,420.9 -14.2,420.9 -15.8,418.1 		"/>
		<polygon class="st1" points="-1.6,420.9 1.6,420.9 0,418.1 		"/>
		<polygon class="st1" points="14.2,420.9 17.4,420.9 15.8,418.1 		"/>
		<polygon class="st1" points="30,420.9 33.2,420.9 31.6,418.1 		"/>
		<polygon class="st1" points="45.8,420.9 49.1,420.9 47.4,418.1 		"/>
		<polygon class="st1" points="61.7,420.9 64.9,420.9 63.3,418.1 		"/>
		<polygon class="st1" points="77.5,420.9 80.7,420.9 79.1,418.1 		"/>
		<polygon class="st1" points="93.3,420.9 96.5,420.9 94.9,418.1 		"/>
		<polygon class="st1" points="109.1,420.9 112.3,420.9 110.7,418.1 		"/>
		<polygon class="st1" points="124.9,420.9 128.1,420.9 126.5,418.1 		"/>
		<polygon class="st1" points="140.7,420.9 144,420.9 142.3,418.1 		"/>
		<polygon class="st1" points="156.6,420.9 159.8,420.9 158.2,418.1 		"/>
		<polygon class="st1" points="172.4,420.9 175.6,420.9 174,418.1 		"/>
		<polygon class="st1" points="188.2,420.9 191.4,420.9 189.8,418.1 		"/>
		<polygon class="st1" points="204,420.9 207.2,420.9 205.6,418.1 		"/>
		<polygon class="st1" points="219.8,420.9 223,420.9 221.4,418.1 		"/>
		<polygon class="st1" points="235.6,420.9 238.9,420.9 237.2,418.1 		"/>
	</g>
</g>
</svg>
