<?xml version="1.0" encoding="utf-8"?>
<!-- Generator: Adobe Illustrator 19.2.1, SVG Export Plug-In . SVG Version: 6.00 Build 0)  -->
<svg version="1.1" id="Layer_1" xmlns="http://www.w3.org/2000/svg" xmlns:xlink="http://www.w3.org/1999/xlink" x="0px" y="0px"
	 viewBox="0 0 319 179.4" style="enable-background:new 0 0 319 179.4;" xml:space="preserve">
<style type="text/css">
	@font-face {
    	font-family: 'PFItalic';
    	src:    url('../fonts/pfit/PFDinTextCompPro-Italic.eot?#iefix') format('embedded-opentype'),
				url('../fonts/pfit/PFDinTextCompPro-Italic.woff') format('woff'),
           		url('../fonts/pfit/PFDinTextCompPro-Italic.ttf')  format('truetype'),
            	url('../fonts/pfit/PFDinTextCompPro-Italic.svg#PFDinTextCompPro-Italic') format('svg');
    	font-weight: normal;
    	font-style: normal;
	}
	.st0{fill:#F8981D;}
	.st1{fill:#BE1E2D;}
	.st2{fill:none;}
	.st3{font-family:'PFItalic';}
	.st4{font-size:24px;}
	.st5{font-size:20px;}
</style>

    <g>
        <g>
		<path class="st0" d="M308.6,94.1c-0.4,1-1,2.4-1.5,3.5c0.2-0.4,0.2-0.5,0.5-1.1c1.3-3.3,2-6.8,2.1-10.5c0.1-1.9,0.4-3.6,0.9-5
			c0.2-0.6,0.4-1.2,0.6-1.7v-4.7c-0.3,1-0.6,2-1,3c-0.7,1.4-1.2,0.5-1.5-0.2c-0.1-0.2-0.1-0.4-0.2-0.6c-0.9-3.7-2.5-7.4-4.6-11.2
			c-0.2-0.3-0.3-0.6-0.5-0.9c-1.1-2-1.3-3.8-0.9-5.4c1.3-3.1,1.9-6,2-8.7c0.2-1.3,1.1-0.2,1.5,0.4c0.1,0.2,0.3,0.4,0.4,0.6
			c0.2,0.3,0.3,0.6,0.5,0.8c1.9,3.4,3.3,7,4.2,10.6V17.4c0-4.1-3.4-7.5-7.5-7.5h-80.5c1.7,0.8,3.1,1.9,4.1,3.2
			c2.3,3,2.3,7.3,1.8,10.3c-0.5,3-0.1,8.3-0.1,8.3s3.6,1,4.2,1.3c0.5,0.3,0.6,1.3-0.6,2.9c-1.2,1.6-6.3,5.9-7.8,7.1
			c-1.4,1.2-4.5,2.8-4.5,2.8s1.9-0.3,5.2-2.4c3.3-2.1,9.1-8,11.1-9.7c2-1.7,5.5-7,7.5-8c2-1,8.3-1.1,10.5,0.5
			c2.1,1.6-2.4,8.8-3,10.2c-0.6,1.4-12.7,6.1-15.5,7.8c-2.8,1.6-4.3,4.7-4.2,4.6c0.2-0.1,2.6-2,2.6-2s-0.4,0.5-0.7,1.8
			c-0.4,1.3,0.1,2.9,0.4,5.5c0.4,2.6,1.2,3.8,2.4,5.9c1.2,2.1,5.3,4.4,6.1,5.2c0.8,0.8-1,2.9-1.6,3.7c-0.6,0.8-2.6,1.7-5.1,2.1
			c-2.5,0.5-6.3-1.6-6.3-1.6s0.5,0.4,1.8,1.3c1.4,0.9,4.3,1.6,6,1.8c1.7,0.2,2.5,0.3,3.9,0.4c1.4,0-0.1,2.5-1.8,5.2
			c-1.7,2.7-6.1,7.7-7.2,7.6c-1.1,0-2.1-0.8-4.2-2s-6.7-2.2-6.7-2.2s0.8,0.2,4.2,2.1c3.4,1.9,8.3,5.7,13.8,10.2
			c5.4,4.5,15,13.5,15.4,15.6c0.4,2.1-3.7,5.8-6.6,7.8c-2.9,2.1-21.2,0.6-22.1,0.6c-0.9,0-2.2-0.5-3.2-1.6c-1-1.2-1.7-1.4-1.7-1.4
			s-0.9-0.2,0.1,0.8c1,0.9,0.6,1.9,0,3.6c-0.3,0.7-1,1.3-2,1.8h39.1c3.7-1.1,7.4-2.4,11.2-4.1c2-0.7,3.5-0.6,4.4,0.4
			c1.1,1.5,2.1,2.7,3,3.7h4.5c-0.2,0-0.3-0.1-0.4-0.2c-0.9-1.2-2.1-3-3.6-5.3c-0.5-1.2,0.1-2.4,2-3.6c3.3-1.9,6.5-4,9.6-6.3
			c0.8-0.6,1.5-1.1,2.2-1.7c1.7-1.2,2.8-1.2,3.3,0c0.7,2.9,0.8,5.3,0.6,7.3c-0.3,1-1,2-2.3,3.1c-0.5,0.4-1.1,0.8-1.7,1.3
			c-2.3,1.7-4.7,3.3-7.1,4.7c-0.7,0.4-1.2,0.6-1.7,0.7h21.3c4.1,0,7.5-3.4,7.5-7.5V85.4C310.4,88.8,310.1,90,308.6,94.1z
			 M273.9,60.8c-1.4-1.8-1.6-3.4-0.5-4.8c2.7-2.7,4.9-5.4,6.7-8.1c1-1.1,2.4-1.1,4.3,0.2c3.9,3,7.5,6.4,10.7,10
			c1.4,1.9,1.7,3.6,0.8,5.2c-2.1,3.2-4.8,6.4-8,9.6c-1.6,1.3-3.2,1.1-4.7-0.6C280.5,68.4,277.3,64.5,273.9,60.8z M279.4,80.6
			c-0.8,0.6-1.6,1.2-2.4,1.8c-3.3,2.5-6.8,4.7-10.3,6.7c-2.1,1-3.8,0.5-5.2-1.4c-2.4-4.3-4.8-8.8-7.1-13.2c-0.9-2.1-0.6-3.7,1-4.9
			c3-1.7,5.9-3.6,8.7-5.7c0.7-0.5,1.4-1,2-1.5c1.7-1,3.3-0.8,5,0.9c3.2,3.8,6.3,7.8,9.1,11.8C281.4,77.2,281.1,79,279.4,80.6z
			 M275.7,39.4c-4.4-2.3-9-4.1-13.7-5.5c-2.9-0.9-3.1-1.6-3.1-2.1c0.6-1.5,0.9-2.9,1-4.2c0.2-0.4,1-0.9,3.8-0.8
			c4.9,0.4,9.8,1.3,14.4,2.8c2.2,0.8,3.3,1.7,3.5,2.8c-0.1,2.1-0.6,4.4-1.6,6.9C279.2,40.3,277.8,40.4,275.7,39.4z M285.8,45.6
			c-1.8-1.5-2.5-2.8-2.2-4.1c1-2.6,1.6-5,1.7-7.3c0.2-1,1.3-1,3.2,0c4.1,2.3,7.9,5.1,11.1,8.4c1.5,1.7,2.3,3.2,2.5,4.6
			c-0.1,2.7-0.8,5.6-2,8.6c-0.7,1.2-1.8,1.1-3.4-0.5C293.4,51.8,289.8,48.5,285.8,45.6z M282,24.5c0.8,0.4,1.6,0.8,2.4,1.3l3.2,2
			c1.4,1,3.2,2.3,4.5,3.3c4.3,3.8,4.5,3.9,6.7,6.5c1,1.1,1.8,2.4,2.3,3.7c0,0.1,0.1,0.3,0.1,0.5c-0.3,0.2-0.7-0.2-1.9-1.2
			c-3.3-3.2-7-6-11.1-8.2c-2-1.1-3.1-2.1-3.7-3.1c-0.8-1.9-2.1-3.6-3.9-5c-0.1-0.1-0.2-0.2-0.3-0.3C280.4,23.8,280.5,23.8,282,24.5z
			 M276.9,23c1.8,1.3,3,2.9,3.7,4.7c0.1,0.8-0.8,0.9-3,0.3c-4.6-1.3-9.4-2.1-14.3-2.3c-3.1-0.2-3.8-0.6-4.1-0.9
			c-0.4-1.1-1.2-2.1-2.2-2.8c0,0-0.1-0.1-0.1-0.1c0.2-0.6,1.9-0.8,2.6-0.9c4.4-0.5,8.7-0.3,12.8,0.5C274.4,21.8,275.9,22.3,276.9,23
			z M254,20.4c-1.4-0.4-3.1-0.6-4.9-0.6c-0.1,0-0.2,0-0.3-0.1c0.1-0.2,0.1-0.3,1.2-0.6c1.2-0.3,2.4-0.5,3.6-0.5l2.9-0.1
			c4.1,0.1,4.8,0.1,8.3,0.5c2,0.3,4.6,0.9,6.5,1.3c0.2,0.1,0.4,0.1,0.6,0.2c0.1,0,0.3,0.1,0.5,0.2c-0.4,0-0.4,0-1.7-0.2
			c-4-0.7-8.1-0.8-12.3-0.3C255.5,20.6,254.5,20.5,254,20.4z M253,40c1.5-1.5,2.8-3.1,3.8-4.6c0.7-0.7,2.1-0.7,4.3,0
			c4.6,1.6,9.1,3.6,13.4,6.1c2,1.3,2.6,2.5,2,3.9c-1.7,2.5-3.8,5.1-6.3,7.7c-1.4,1-2.9,0.8-4.7-0.6c-3.6-3.3-7.3-6.4-10.9-9.1
			C252.2,41.3,252.8,40.3,253,40z M242.6,51.7c-0.8-1.8-0.7-3.1,0.2-3.8c1.7-1,3.4-2.1,5-3.3c0.4-0.3,0.8-0.6,1.2-0.9
			c1-0.6,2.4-0.2,4,1c3.4,2.9,6.9,6.2,10.3,9.7c1.5,1.8,1.5,3.3,0.2,4.6c-0.6,0.5-1.3,1-1.9,1.5c-2.6,2-5.4,3.8-8.2,5.4
			c-1.7,0.7-3.2,0.1-4.4-1.8C246.7,59.8,244.5,55.6,242.6,51.7z M248.3,96.8c-1.1,0.2-3.9-2.7-6.3-5.4c-2.1-2.4-5.2-3.7-5.6-5.2
			c-0.2-1.2,3.6-4.4,5.6-6.8c1.7-2.1,2.7-4.3,4.4-5.1c1.9-0.6,3.3,0.1,4.5,2.1c2.2,4.5,4.4,9,6.7,13.4c0.9,2.2,0.3,3.8-1.6,4.9
			C253.2,95.6,251.8,95.9,248.3,96.8z M267.9,114.6c-4.3,1.9-8.5,3.4-12.7,4.6c-2.1,0.4,5.8-8.8,2.8-11.2c-2.3-2.7-6.8-5.6-4.9-6.7
			c1.8-1.5,2.8-2,4.9-2.9c2.2-0.7,3.9-0.2,5.2,1.6c0.2,0.3,0.3,0.6,0.5,0.9c2.1,3.8,4.1,7.1,6,10
			C270.4,112.4,269.8,113.6,267.9,114.6z M290.3,101.2c-0.7,0.6-1.5,1.2-2.3,1.8c-3.2,2.4-6.5,4.5-9.9,6.5c-2.1,1-3.5,0.8-4.6-0.5
			c-1.7-2.9-3.7-6.3-5.8-10.1c-0.2-0.3-0.3-0.6-0.5-0.9c-0.9-2-0.4-3.6,1.6-5c3.6-2.1,7-4.3,10.4-6.8c0.8-0.6,1.6-1.2,2.4-1.8
			c2-1.3,3.5-1.1,4.8,0.7c0.2,0.3,0.3,0.6,0.5,0.9c2.1,3.8,3.9,7.3,5.2,10.5C292.6,98.1,292.1,99.6,290.3,101.2z M296.8,92.3
			c-1.2-3.3-2.9-6.8-5.1-10.6c-0.2-0.3-0.3-0.6-0.5-0.9c-0.9-2-0.7-3.9,0.7-5.6c3.2-3.2,5.9-6.5,8.1-9.7c1.1-1.3,2.3-1.1,3.5,0.6
			c0.2,0.3,0.3,0.6,0.5,0.9c2.1,3.8,3.7,7.5,4.7,11.1c0.4,1.9,0.1,3.6-0.8,5.3c-2,3.1-4.6,6.2-7.6,9.2
			C298.7,93.9,297.6,93.8,296.8,92.3z M304.4,102.5c-1.5,2.2-3.3,4.4-5.5,6.7c-0.9,0.8-1.3,1-1.3,0.4c0-0.1,0-0.2,0-0.3
			c0.5-2.2,0.5-4.8-0.1-7.8c-0.1-1.6,0.5-3.1,1.8-4.6c2.9-3,5.4-6,7.4-9c1.1-1.5,1.4-0.5,1.5,0c0,0.2,0,0.4,0,0.5
			c0,3.6-0.6,7-1.8,10.1C306.1,99.4,305.5,100.8,304.4,102.5z"/>
		<path class="st1" d="M224.6,107c-2.7-0.2-7.1-2.8-10.8-6.3c-3.7-3.5-5.5-7-5.5-7s1.7-1.6,2.9-3.4c1.3-1.8,2.2-5.1,2.2-5.1
			s-0.9,1.8-2.7,4c-1.8,2.2-5.2,4.3-7.9,5.6s-10.1,2.4-16.1,3.4c-6,1-15,3.4-18.2,4.1c-3.2,0.7-8.2,1.4-9,1.5
			c-0.8,0.1-1.6,0.4-2.7,0.7c-1.1,0.3-3.3-0.4-7.2-1.1c-3.9-0.7-9.5,3.7-10.8,4.8c-1.3,1.1-3.1,1.4-4.6,1.3c-1.5-0.1-1.8,1.5-3,1.7
			c-1.2,0.2-2-0.6-2.5-0.8c-0.5-0.2-1,1.3-2.2,2.4c-1.2,1.1-2.9,1.8-4,2c-1.1,0.2-1.6-2.6-1.8-4.7c-0.3-2.1,0.3-3,1.4-5.5
			c1.1-2.5,2.4-2.4,3.3-2.3c0.9,0.1,1.4,3,1.9,3.9c0.5,0.9,1.1,0.9,1.7,0.2c0.6-0.7,1.1-1.4,1.3-2c0.2-0.6,1.8-1.2,4.1-1.9
			c2.3-0.7,6.4-1.3,7.4-1.3c0.9,0,1.4,1.1,1.4,1.1s5.9-1.7,8.2-1.9c2.4-0.2,5.1,0.8,5.9,1.3c0.7,0.4,1.4-0.4,4.3-1.3
			c3-0.9,8.4-2,8.4-2s-4.7,0.4-6.6,0.4c-1.9-0.1-3.5,0.3-7.1,0.4c-3.6,0.1-7.4-0.4-8.2-0.8c-0.8-0.5-1.2-2.4,2.7-8.6
			c3.9-6.2,7.4-6.2,8-6.9c0.6-0.7,1,0.3,1.5,1.2c0.5,0.9,1.2,2.1,2,2.9c0.8,0.9,3.1,1,5.8,1.4c2.7,0.5,8.5-0.6,13.4-2.6
			c4.9-2.1,12.9-7.6,14.8-9.6c1.9-2,4.7-3.2,5.4-3.6c0.7-0.4,0.9-0.7,1.1-1.7c0.2-1,2.8-2.5,3.1-3.4c0.3-1,1.4-0.9,3.2,0.9
			c1.7,1.8,3.9,2.5,3.9,2.5s-2.5-1.5-4.2-3.6c-1.7-2.1-2.4-3.5-3.1-4.7c-0.7-1.2,0.2-1,0.9-1.3c0.6-0.3-0.8-1.6-0.4-2
			c0.5-0.4,1.3,1.3,3.9,2.5c2.6,1.2,5.1,1.5,5.1,1.5s-4.4-1.5-6.2-3.4c-1.8-1.9-2.9-2.9-3.3-4.5c-0.5-1.6,0.2-2.3,0-3.9
			c-0.2-1.7-3.1-4.7-3.1-4.7s0.5,0.8,1.4,2.5c0.9,1.7,0.6,2.4,0.7,4.1c0.1,1.7-0.6,1.7-3.9,2c-3.3,0.4-11.6-0.6-14.7-1.1
			c-3-0.5-16.2-3.3-16.2-3.3s-2.6,0.2-3.5,0c-1-0.2-2-0.6-2.4-1.2c-0.4-0.5-3.6,0.5-5.3,0.4c-1.8-0.2-5-1.4-6.2-3.7
			c-1.2-2.3,0-5,1.4-6.9c1.4-2,4.3-1.5,4.3-1.5s2.9,0.1,4,1.1c1.1,0.9-0.8,4.9-0.8,4.9l1.3-1.5c0,0,2.3,1.6,2.9,1.3
			c0.6-0.3,2-0.3,2.9,0.1c0.9,0.4,1.3,1.5,2.5,1.6c1.2,0,9.5-1.6,13.3-1.7c3.9-0.1,6.2,1.3,7.5,1.1c1.3-0.2,2-1.3,3.4-1.5
			c1.4-0.3,1.2-0.9,2.8-1.7c1.6-0.8,2.1-2.3,2.7-3c0.6-0.7,0.2-1,0.5-1.4c0.3-0.5,1-0.5,1.2-1.5c0.2-1.1,5.5-2.1,7.4-2.7
			c2-0.7,2.9-0.5,4.5,0.1c1.6,0.5,1.8,2.8,3.7,2.8c1.9,0,2.9-2.2,4-3.4c1.1-1.2,2-5.2,2-5.2s-0.6,1.5-1.1,2.4
			c-0.5,0.9-2.9,3.9-4.5,4.1c-1.5,0.2-2.6-1.3-4.9-3.1c-2.3-1.8-3-2.3-4.5-4.9c-1.4-2.6-2.3-7.2-1.6-10.3c0.4-2.2,2.8-4.3,5.5-5.6
			H19.5c-4.1,0-7.5,3.4-7.5,7.5v30.4l6-27.1h16.4l-6.4,29.3l19-29.3h18.8L41,54.7l10.1,38.5H33.7l-5.1-26l-6.5,9.4l-3.7,16.6H12
			v20.4c0,4.1,3.4,7.5,7.5,7.5h192.8c-1.9-1.7-4.2-4.6-5.1-6.1c-1.3-2.3-3.1-6.3-1.4-7.9c1.7-1.6,7.2,2.3,8.9,3.5
			c1.7,1.3,3.1,0.6,3.8,0c0.7-0.6,1.6,0.5,2.8-0.1c1.1-0.6,1.1-2,2.8-2c1.7,0,11.5-1.4,11.5-1.4S227.3,107.2,224.6,107z M78.8,63.6
			l-6.5,29.6H55.9l16-72.4H106l-3.3,14.3H85.1l-3,14.1h16.8l-3.1,14.3H78.8z M98.1,93.2l16-72.4h34.1l-3.3,14.3h-17.6l-3,14.1H141
			l-3.1,14.3h-16.9l-6.5,29.6H98.1z"/>
	</g>
</g>
<rect x="-13.9" y="128.7" class="st2" width="346.8" height="55.7"/>
<text transform="matrix(1 0 0 1 7.7396 146.1103)"><tspan x="0" y="0" class="st3 st4">VI International Cultural Kung-Fu Festival</tspan><tspan x="0.9" y="24" class="st3 st5">V International Kung-Fu Federation Championship</tspan></text>
</svg>
