<?xml version="1.0" encoding="utf-8"?>
<!-- Generator: Adobe Illustrator 19.2.1, SVG Export Plug-In . SVG Version: 6.00 Build 0)  -->
<svg version="1.1" id="Layer_1" xmlns="http://www.w3.org/2000/svg" xmlns:xlink="http://www.w3.org/1999/xlink" x="0px" y="0px"
	 viewBox="0 0 319 179.4" style="enable-background:new 0 0 319 179.4;" xml:space="preserve">
<style type="text/css">
    @font-face {
    	font-family: 'PFItalic';
    	src:    url('../fonts/pfit/PFDinTextCompPro-Italic.eot?#iefix') format('embedded-opentype'),
				url('../fonts/pfit/PFDinTextCompPro-Italic.woff') format('woff'),
           		url('../fonts/pfit/PFDinTextCompPro-Italic.ttf')  format('truetype'),
            	url('../fonts/pfit/PFDinTextCompPro-Italic.svg#PFDinTextCompPro-Italic') format('svg');
    	font-weight: normal;
    	font-style: normal;
	}
	.st0{fill:none;}
	.st1{fill:#FFFFFF;}
	.st2{font-family:'PFItalic';}
	.st3{font-size:24px;}
	.st4{font-size:20px;}
	.st5{fill:#FAFBFB;}
</style>
	<a href="/" target="_top">
<rect x="-13.9" y="128.7" class="st0" width="346.8" height="55.7"/>
<text transform="matrix(1 0 0 1 7.7396 146.1103)"><tspan x="0" y="0" class="st1 st2 st3">VI International Cultural Kung-Fu Festival</tspan><tspan x="0.9" y="24" class="st1 st2 st4">V International Kung-Fu Federation Championship</tspan></text>

	<g>
	<path class="st5" d="M163.2,39.3c0,0,1.8-3.9,0.7-4.9c-1.1-0.9-4-1.1-4-1.1s-2.9-0.5-4.3,1.5c-1.3,1.9-2.6,4.6-1.4,6.9
		c1.2,2.3,4.4,3.5,6.1,3.7c1.8,0.2,4.9-0.9,5.3-0.4c0.4,0.5,1.4,0.9,2.3,1.2c1,0.2,3.5,0,3.5,0s13,2.8,16,3.2c3,0.4,11.3,1.4,14.5,1
		c3.3-0.4,4-0.3,3.9-2c-0.1-1.7,0.2-2.4-0.7-4.1c-0.9-1.7-1.4-2.4-1.4-2.4s2.9,3,3,4.7c0.2,1.6-0.4,2.3,0,3.9
		c0.4,1.6,1.5,2.6,3.3,4.5c1.8,1.9,6.1,3.4,6.1,3.4s-2.5-0.3-5-1.5c-2.6-1.2-3.4-2.8-3.9-2.5c-0.4,0.4,1,1.7,0.4,2
		c-0.6,0.3-1.6,0.1-0.9,1.3c0.7,1.2,1.4,2.6,3.1,4.7c1.7,2.1,4.2,3.5,4.2,3.5s-2.1-0.7-3.8-2.5c-1.7-1.8-2.8-1.9-3.2-0.9
		c-0.3,1-2.9,2.5-3,3.4c-0.2,0.9-0.3,1.3-1.1,1.7c-0.7,0.4-3.5,1.6-5.3,3.5c-1.9,2-9.8,7.5-14.6,9.5c-4.8,2-10.6,3.1-13.3,2.6
		c-2.7-0.5-4.9-0.6-5.7-1.4c-0.8-0.9-1.5-2-2-2.9c-0.5-0.9-0.8-1.8-1.4-1.2c-0.6,0.7-4.1,0.7-8,6.8c-3.9,6.2-3.4,8.1-2.7,8.5
		c0.8,0.4,4.5,1,8.1,0.8c3.6-0.1,5.1-0.5,7.1-0.4c1.9,0.1,6.6-0.4,6.6-0.4s-5.3,1.1-8.3,1.9c-2.9,0.9-3.6,1.8-4.3,1.3
		c-0.7-0.4-3.5-1.4-5.8-1.3c-2.3,0.2-8.2,1.9-8.2,1.9s-0.5-1.1-1.4-1.1c-0.9,0-5,0.6-7.3,1.3c-2.3,0.7-3.9,1.3-4.1,1.9
		c-0.2,0.6-0.7,1.3-1.3,2c-0.6,0.7-1.2,0.7-1.7-0.2c-0.5-0.8-1-3.8-1.9-3.8c-0.9-0.1-2.2-0.2-3.3,2.3c-1.1,2.5-1.6,3.4-1.4,5.5
		c0.3,2,0.7,4.8,1.8,4.6c1.1-0.2,2.8-0.9,4-2c1.2-1.1,1.7-2.7,2.1-2.4c0.5,0.2,1.3,1,2.4,0.8c1.2-0.2,1.5-1.8,3-1.7
		c1.5,0.1,3.3-0.2,4.5-1.3c1.3-1.1,6.9-5.5,10.7-4.8c3.8,0.7,6,1.4,7.1,1.1c1.1-0.3,1.9-0.6,2.6-0.7c0.8-0.1,5.7-0.8,8.9-1.5
		c3.2-0.7,12.1-3,18-4c5.9-1,13.3-2.2,15.9-3.4c2.6-1.2,6.1-3.3,7.8-5.5c1.7-2.2,2.6-4,2.6-4s-0.9,3.2-2.2,5
		c-1.3,1.8-2.9,3.4-2.9,3.4s1.9,3.4,5.5,6.9c3.6,3.5,8,6.1,10.7,6.3c2.7,0.2,10.9,0.2,10.9,0.2s-9.7,1.3-11.4,1.3
		c-1.7,0-1.7,1.4-2.8,2c-1.1,0.5-2.1-0.5-2.7,0.1c-0.7,0.6-2.1,1.3-3.7,0c-1.6-1.3-7.1-5.1-8.8-3.5c-1.7,1.6,0,5.5,1.4,7.8
		c1.3,2.3,6,7.7,7.6,7.5c1.6-0.2,5.8-1.5,6.4-3.3c0.6-1.7,1-2.7,0-3.6c-1-0.9-0.1-0.7-0.1-0.7s0.7,0.2,1.7,1.4
		c1,1.2,2.3,1.6,3.2,1.6c0.9,0,19,1.5,21.9-0.6s6.9-5.7,6.6-7.8c-0.4-2.1-9.8-11-15.2-15.4c-5.4-4.4-10.3-8.2-13.7-10.1
		c-3.4-1.9-4.2-2.1-4.2-2.1s4.6,0.9,6.6,2.2c2,1.2,3,2,4.1,2c1.1,0,5.4-4.9,7.1-7.6c1.7-2.6,3.1-5.1,1.8-5.2c-1.4,0-2.1-0.2-3.8-0.4
		c-1.7-0.2-4.6-0.9-5.9-1.7c-1.3-0.9-1.8-1.3-1.8-1.3s3.8,2.1,6.3,1.6c2.5-0.4,4.5-1.3,5-2.1c0.6-0.8,2.4-2.9,1.6-3.7
		c-0.8-0.8-4.9-3.1-6-5.1c-1.2-2.1-2-3.3-2.3-5.8c-0.4-2.6-0.8-4.2-0.4-5.4c0.4-1.3,0.7-1.8,0.7-1.8s-2.4,1.9-2.6,2
		c-0.2,0.1,1.3-3,4.1-4.6c2.8-1.6,14.7-6.3,15.3-7.7c0.6-1.4,5-8.5,2.9-10.1c-2.1-1.6-8.4-1.5-10.4-0.5c-2,1-5.5,6.2-7.4,7.9
		c-2,1.7-7.7,7.5-11,9.6c-3.3,2.1-5.2,2.3-5.2,2.3s3-1.6,4.5-2.8c1.4-1.2,6.5-5.5,7.7-7c1.2-1.5,1.2-2.6,0.6-2.9
		c-0.5-0.3-4.1-1.3-4.1-1.3s-0.4-5.2,0.1-8.2c0.5-3,0.5-7.3-1.8-10.2c-2.2-3-7.2-4.9-10.9-4.3c-3.8,0.6-8.4,3.5-9,6.7
		c-0.6,3.1,0.2,7.6,1.6,10.2c1.4,2.6,2.1,3.1,4.4,4.8c2.3,1.8,3.4,3.3,4.9,3.1c1.5-0.2,4-3.2,4.4-4c0.4-0.9,1.1-2.4,1.1-2.4
		s-0.9,4-2,5.2c-1.1,1.2-2.1,3.3-3.9,3.3c-1.9,0-2-2.3-3.7-2.8c-1.6-0.5-2.5-0.7-4.5-0.1c-1.9,0.6-7.1,1.7-7.4,2.7
		c-0.2,1.1-0.9,1-1.2,1.5c-0.3,0.5,0.1,0.8-0.5,1.4c-0.6,0.7-1.1,2.2-2.7,3c-1.6,0.8-1.4,1.4-2.7,1.7c-1.4,0.2-2,1.4-3.4,1.5
		c-1.3,0.2-3.6-1.2-7.4-1.1c-3.9,0.1-12,1.8-13.2,1.7c-1.2,0-1.6-1.2-2.5-1.5c-0.9-0.4-2.3-0.3-2.9-0.1c-0.6,0.3-2.9-1.3-2.9-1.3
		L163.2,39.3z"/>
	<g>
		<g>
			<path class="st5" d="M259.1,102.7c-2.3-2.7-6.8-5.6-4.9-6.6c1.8-1.5,2.7-2,4.8-2.9c2.2-0.7,3.9-0.2,5.2,1.6
				c0.2,0.3,0.3,0.6,0.5,0.9c2.1,3.7,4.1,7.1,5.9,9.9c0.7,1.5,0.1,2.7-1.8,3.7c-4.2,1.9-8.5,3.4-12.6,4.5
				C254.3,114.1,262,105,259.1,102.7z"/>
			<path class="st5" d="M259.1,102.7c-2.3-2.7-6.8-5.6-4.9-6.6c1.8-1.5,2.7-2,4.8-2.9c2.2-0.7,3.9-0.2,5.2,1.6
				c0.2,0.3,0.3,0.6,0.5,0.9c2.1,3.7,4.1,7.1,5.9,9.9c0.7,1.5,0.1,2.7-1.8,3.7c-4.2,1.9-8.5,3.4-12.6,4.5
				C254.3,114.1,262,105,259.1,102.7z"/>
		</g>
		<g>
			<path class="st5" d="M281.4,19.6c1.8,1.4,3.1,3,3.9,4.9c0.5,1,1.7,2,3.6,3.1c4.1,2.2,7.8,4.9,11,8.1c1.1,1.1,1.6,1.4,1.9,1.2
				c0-0.1,0-0.3-0.1-0.5c-0.5-1.3-1.3-2.6-2.3-3.7c-2.2-2.5-2.4-2.6-6.6-6.4c-1.3-1-3.1-2.3-4.4-3.3l-3.2-2
				c-0.8-0.4-1.6-0.9-2.4-1.2c-1.5-0.7-1.5-0.7-1.7-0.6C281.1,19.4,281.3,19.5,281.4,19.6z"/>
			<path class="st5" d="M281.4,19.6c1.8,1.4,3.1,3,3.9,4.9c0.5,1,1.7,2,3.6,3.1c4.1,2.2,7.8,4.9,11,8.1c1.1,1.1,1.6,1.4,1.9,1.2
				c0-0.1,0-0.3-0.1-0.5c-0.5-1.3-1.3-2.6-2.3-3.7c-2.2-2.5-2.4-2.6-6.6-6.4c-1.3-1-3.1-2.3-4.4-3.3l-3.2-2
				c-0.8-0.4-1.6-0.9-2.4-1.2c-1.5-0.7-1.5-0.7-1.7-0.6C281.1,19.4,281.3,19.5,281.4,19.6z"/>
		</g>
		<g>
			<path class="st5" d="M310.9,54c0.1,0.5,0.3,0.9,0.4,1.4C311.2,54.9,311.1,54.5,310.9,54z"/>
			<path class="st5" d="M310.9,54c0.1,0.5,0.3,0.9,0.4,1.4C311.2,54.9,311.1,54.5,310.9,54z"/>
		</g>
		<g>
			<path class="st5" d="M300.8,87.4c3-3.1,5.5-6.1,7.6-9.2c0.9-1.6,1.2-3.3,0.8-5.2c-1-3.6-2.5-7.3-4.6-11c-0.2-0.3-0.3-0.6-0.5-0.8
				c-1.2-1.7-2.3-1.9-3.4-0.6c-2.1,3.2-4.8,6.4-8,9.6c-1.4,1.7-1.6,3.5-0.7,5.5c0.2,0.3,0.3,0.6,0.5,0.8c2.1,3.7,3.8,7.3,5,10.5
				C298.3,88.6,299.3,88.7,300.8,87.4z"/>
			<path class="st5" d="M300.8,87.4c3-3.1,5.5-6.1,7.6-9.2c0.9-1.6,1.2-3.3,0.8-5.2c-1-3.6-2.5-7.3-4.6-11c-0.2-0.3-0.3-0.6-0.5-0.8
				c-1.2-1.7-2.3-1.9-3.4-0.6c-2.1,3.2-4.8,6.4-8,9.6c-1.4,1.7-1.6,3.5-0.7,5.5c0.2,0.3,0.3,0.6,0.5,0.8c2.1,3.7,3.8,7.3,5,10.5
				C298.3,88.6,299.3,88.7,300.8,87.4z"/>
		</g>
		<g>
			<path class="st5" d="M250,39c-0.4,0.3-0.8,0.6-1.1,0.9c-1.6,1.2-3.2,2.3-4.9,3.2c-0.9,0.7-0.9,2-0.2,3.8c1.9,3.9,4,8,6.3,12.3
				c1.2,1.9,2.6,2.5,4.3,1.8c2.8-1.6,5.5-3.4,8.1-5.3c0.6-0.5,1.3-1,1.9-1.4c1.3-1.3,1.2-2.8-0.2-4.6c-3.4-3.5-6.8-6.7-10.2-9.6
				C252.3,38.7,251,38.4,250,39z"/>
			<path class="st5" d="M250,39c-0.4,0.3-0.8,0.6-1.1,0.9c-1.6,1.2-3.2,2.3-4.9,3.2c-0.9,0.7-0.9,2-0.2,3.8c1.9,3.9,4,8,6.3,12.3
				c1.2,1.9,2.6,2.5,4.3,1.8c2.8-1.6,5.5-3.4,8.1-5.3c0.6-0.5,1.3-1,1.9-1.4c1.3-1.3,1.2-2.8-0.2-4.6c-3.4-3.5-6.8-6.7-10.2-9.6
				C252.3,38.7,251,38.4,250,39z"/>
		</g>
		<g>
			<path class="st5" d="M303.2,37.6c-0.2-0.2-0.3-0.5-0.5-0.7C302.8,37.1,303,37.4,303.2,37.6z"/>
			<path class="st5" d="M303.2,37.6c-0.2-0.2-0.3-0.5-0.5-0.7C302.8,37.1,303,37.4,303.2,37.6z"/>
		</g>
		<g>
			<path class="st5" d="M279,104c3.3-1.9,6.6-4.1,9.8-6.4c0.8-0.6,1.5-1.2,2.3-1.7c1.7-1.5,2.3-3.1,1.8-4.8c-1.3-3.2-3-6.7-5.1-10.4
				c-0.2-0.3-0.3-0.6-0.5-0.8c-1.3-1.7-2.8-2-4.8-0.7c-0.8,0.6-1.6,1.2-2.4,1.8c-3.3,2.5-6.8,4.7-10.3,6.8c-2,1.4-2.5,3-1.6,5
				c0.2,0.3,0.3,0.6,0.5,0.8c2.1,3.7,4.1,7.1,5.8,10C275.5,104.9,277,105,279,104z"/>
			<path class="st5" d="M279,104c3.3-1.9,6.6-4.1,9.8-6.4c0.8-0.6,1.5-1.2,2.3-1.7c1.7-1.5,2.3-3.1,1.8-4.8c-1.3-3.2-3-6.7-5.1-10.4
				c-0.2-0.3-0.3-0.6-0.5-0.8c-1.3-1.7-2.8-2-4.8-0.7c-0.8,0.6-1.6,1.2-2.4,1.8c-3.3,2.5-6.8,4.7-10.3,6.8c-2,1.4-2.5,3-1.6,5
				c0.2,0.3,0.3,0.6,0.5,0.8c2.1,3.7,4.1,7.1,5.8,10C275.5,104.9,277,105,279,104z"/>
		</g>
		<g>
			<path class="st5" d="M267.7,84c3.5-2,6.9-4.2,10.2-6.7c0.8-0.6,1.6-1.2,2.4-1.8c1.7-1.6,2-3.4,0.8-5.4c-2.8-4-5.8-7.9-9-11.7
				c-1.6-1.6-3.2-1.9-4.9-0.9c-0.7,0.5-1.3,1-2,1.5c-2.8,2.1-5.7,3.9-8.6,5.6c-1.6,1.2-1.9,2.8-1,4.9c2.3,4.4,4.7,8.8,7.1,13
				C263.9,84.5,265.6,85,267.7,84z"/>
			<path class="st5" d="M267.7,84c3.5-2,6.9-4.2,10.2-6.7c0.8-0.6,1.6-1.2,2.4-1.8c1.7-1.6,2-3.4,0.8-5.4c-2.8-4-5.8-7.9-9-11.7
				c-1.6-1.6-3.2-1.9-4.9-0.9c-0.7,0.5-1.3,1-2,1.5c-2.8,2.1-5.7,3.9-8.6,5.6c-1.6,1.2-1.9,2.8-1,4.9c2.3,4.4,4.7,8.8,7.1,13
				C263.9,84.5,265.6,85,267.7,84z"/>
		</g>
		<g>
			<path class="st5" d="M257.9,30.7c-1,1.5-2.3,3.1-3.8,4.6c-0.2,0.3-0.8,1.2,1.6,3.2c3.6,2.7,7.3,5.7,10.8,9
				c1.8,1.5,3.3,1.7,4.7,0.6c2.5-2.5,4.6-5.1,6.3-7.6c0.6-1.3-0.1-2.6-2-3.8c-4.3-2.4-8.8-4.5-13.3-6C260,30,258.6,30.1,257.9,30.7z
				"/>
			<path class="st5" d="M257.9,30.7c-1,1.5-2.3,3.1-3.8,4.6c-0.2,0.3-0.8,1.2,1.6,3.2c3.6,2.7,7.3,5.7,10.8,9
				c1.8,1.5,3.3,1.7,4.7,0.6c2.5-2.5,4.6-5.1,6.3-7.6c0.6-1.3-0.1-2.6-2-3.8c-4.3-2.4-8.8-4.5-13.3-6C260,30,258.6,30.1,257.9,30.7z
				"/>
		</g>
		<g>
			<path class="st5" d="M260.6,16.3c-0.7,0.1-2.4,0.3-2.6,0.9c0,0,0.1,0.1,0.1,0.1c1.1,0.8,1.8,1.7,2.2,2.8c0.3,0.3,1,0.7,4,0.9
				c4.9,0.2,9.6,1,14.2,2.3c2.2,0.6,3.1,0.5,3-0.3c-0.7-1.8-1.9-3.4-3.7-4.6c-1.1-0.7-2.5-1.2-4.5-1.6
				C269.2,16,264.9,15.8,260.6,16.3z"/>
			<path class="st5" d="M260.6,16.3c-0.7,0.1-2.4,0.3-2.6,0.9c0,0,0.1,0.1,0.1,0.1c1.1,0.8,1.8,1.7,2.2,2.8c0.3,0.3,1,0.7,4,0.9
				c4.9,0.2,9.6,1,14.2,2.3c2.2,0.6,3.1,0.5,3-0.3c-0.7-1.8-1.9-3.4-3.7-4.6c-1.1-0.7-2.5-1.2-4.5-1.6
				C269.2,16,264.9,15.8,260.6,16.3z"/>
		</g>
		<g>
			<path class="st5" d="M281,43.1c-1.8,2.7-4,5.4-6.7,8.1c-1.1,1.4-0.9,3,0.5,4.8c3.3,3.7,6.5,7.5,9.3,11.4c1.5,1.7,3,1.9,4.6,0.6
				c3.1-3.2,5.8-6.4,7.9-9.5c0.8-1.7,0.6-3.4-0.8-5.2c-3.1-3.6-6.7-6.9-10.6-9.9C283.4,42,282,41.9,281,43.1z"/>
			<path class="st5" d="M281,43.1c-1.8,2.7-4,5.4-6.7,8.1c-1.1,1.4-0.9,3,0.5,4.8c3.3,3.7,6.5,7.5,9.3,11.4c1.5,1.7,3,1.9,4.6,0.6
				c3.1-3.2,5.8-6.4,7.9-9.5c0.8-1.7,0.6-3.4-0.8-5.2c-3.1-3.6-6.7-6.9-10.6-9.9C283.4,42,282,41.9,281,43.1z"/>
		</g>
		<g>
			<path class="st5" d="M278.8,25c-4.5-1.5-9.3-2.4-14.2-2.8c-2.8-0.1-3.6,0.4-3.7,0.8c0,1.3-0.4,2.7-1,4.1c0,0.4,0.2,1.1,3.1,2.1
				c4.7,1.4,9.2,3.2,13.6,5.5c2.1,1,3.5,1,4.1,0c1-2.4,1.5-4.7,1.6-6.8C282.1,26.7,280.9,25.8,278.8,25z"/>
			<path class="st5" d="M278.8,25c-4.5-1.5-9.3-2.4-14.2-2.8c-2.8-0.1-3.6,0.4-3.7,0.8c0,1.3-0.4,2.7-1,4.1c0,0.4,0.2,1.1,3.1,2.1
				c4.7,1.4,9.2,3.2,13.6,5.5c2.1,1,3.5,1,4.1,0c1-2.4,1.5-4.7,1.6-6.8C282.1,26.7,280.9,25.8,278.8,25z"/>
		</g>
		<g>
			<path class="st5" d="M307.1,46.6c-0.1-0.2-0.2-0.4-0.4-0.6c-0.4-0.6-1.3-1.7-1.5-0.4c-0.1,2.7-0.8,5.6-2,8.6
				c-0.5,1.6-0.2,3.3,0.9,5.3c0.2,0.3,0.3,0.6,0.5,0.8c2.1,3.7,3.6,7.5,4.6,11.1c0.1,0.2,0.1,0.4,0.2,0.6c0.2,0.7,0.8,1.5,1.5,0.2
				c1.2-2.9,1.8-5.6,1.9-8.2c0-1.4-0.2-3.1-0.6-5.1c-0.9-3.9-2.3-7.8-4.5-11.6C307.4,47.1,307.2,46.9,307.1,46.6z"/>
			<path class="st5" d="M307.1,46.6c-0.1-0.2-0.2-0.4-0.4-0.6c-0.4-0.6-1.3-1.7-1.5-0.4c-0.1,2.7-0.8,5.6-2,8.6
				c-0.5,1.6-0.2,3.3,0.9,5.3c0.2,0.3,0.3,0.6,0.5,0.8c2.1,3.7,3.6,7.5,4.6,11.1c0.1,0.2,0.1,0.4,0.2,0.6c0.2,0.7,0.8,1.5,1.5,0.2
				c1.2-2.9,1.8-5.6,1.9-8.2c0-1.4-0.2-3.1-0.6-5.1c-0.9-3.9-2.3-7.8-4.5-11.6C307.4,47.1,307.2,46.9,307.1,46.6z"/>
		</g>
		<g>
			<path class="st5" d="M247.6,69.2c-1.7,0.8-2.7,3-4.4,5c-2,2.4-5.7,5.6-5.5,6.8c0.3,1.5,3.4,2.8,5.5,5.1c2.4,2.7,5.1,5.5,6.3,5.3
				c3.4-0.8,4.8-1.1,7.6-2.1c2-1.1,2.5-2.7,1.6-4.8c-2.3-4.3-4.5-8.8-6.7-13.2C250.9,69.3,249.5,68.6,247.6,69.2z"/>
			<path class="st5" d="M247.6,69.2c-1.7,0.8-2.7,3-4.4,5c-2,2.4-5.7,5.6-5.5,6.8c0.3,1.5,3.4,2.8,5.5,5.1c2.4,2.7,5.1,5.5,6.3,5.3
				c3.4-0.8,4.8-1.1,7.6-2.1c2-1.1,2.5-2.7,1.6-4.8c-2.3-4.3-4.5-8.8-6.7-13.2C250.9,69.3,249.5,68.6,247.6,69.2z"/>
		</g>
		<g>
			<path class="st5" d="M286.6,40.9c3.9,2.9,7.6,6.1,10.7,9.7c1.5,1.5,2.7,1.7,3.4,0.5c1.2-3,1.9-5.9,2-8.5
				c-0.1-1.4-0.9-2.9-2.4-4.6c-3.2-3.2-7-6-11-8.3c-1.9-0.9-2.9-0.9-3.1,0c-0.1,2.2-0.6,4.7-1.7,7.2
				C284.1,38.1,284.9,39.4,286.6,40.9z"/>
			<path class="st5" d="M286.6,40.9c3.9,2.9,7.6,6.1,10.7,9.7c1.5,1.5,2.7,1.7,3.4,0.5c1.2-3,1.9-5.9,2-8.5
				c-0.1-1.4-0.9-2.9-2.4-4.6c-3.2-3.2-7-6-11-8.3c-1.9-0.9-2.9-0.9-3.1,0c-0.1,2.2-0.6,4.7-1.7,7.2
				C284.1,38.1,284.9,39.4,286.6,40.9z"/>
		</g>
		<g>
			<path class="st5" d="M262.9,123.5c-0.1,0-0.3,0-0.4,0C262.7,123.5,262.8,123.5,262.9,123.5z"/>
			<path class="st5" d="M262.9,123.5c-0.1,0-0.3,0-0.4,0C262.7,123.5,262.8,123.5,262.9,123.5z"/>
		</g>
		<g>
			<path class="st5" d="M262.5,123.1c0-0.1,0-0.1,0-0.2c-0.2-0.1-0.3-0.2-0.7-0.3c-2.6-0.6-5.2-1.8-7.8-3.7c-1.4-0.9-3-1.2-4.9-1.1
				c-3.7,0.5-7.2,0.6-10.4,0.3c-0.2,0-0.5,0-0.7,0c-0.7,0.2,0.4,0.9,0.9,1.2c3.2,1.8,6.5,2.9,9.9,3.5l1.7,0.3
				c1.3,0.2,3.1,0.3,4.5,0.4c2.1,0.1,4.3,0,6.7-0.3C262.1,123.2,262.2,123.2,262.5,123.1z"/>
			<path class="st5" d="M262.5,123.1c0-0.1,0-0.1,0-0.2c-0.2-0.1-0.3-0.2-0.7-0.3c-2.6-0.6-5.2-1.8-7.8-3.7c-1.4-0.9-3-1.2-4.9-1.1
				c-3.7,0.5-7.2,0.6-10.4,0.3c-0.2,0-0.5,0-0.7,0c-0.7,0.2,0.4,0.9,0.9,1.2c3.2,1.8,6.5,2.9,9.9,3.5l1.7,0.3
				c1.3,0.2,3.1,0.3,4.5,0.4c2.1,0.1,4.3,0,6.7-0.3C262.1,123.2,262.2,123.2,262.5,123.1z"/>
		</g>
		<g>
			<path class="st5" d="M249.9,15.2c0.1,0,0.2,0,0.3,0.1c1.8,0,3.4,0.2,4.8,0.6c0.5,0.1,1.5,0.2,4.2-0.2c4.2-0.6,8.3-0.5,12.2,0.3
				c1.3,0.2,1.3,0.2,1.7,0.2c-0.1-0.1-0.3-0.1-0.5-0.2c-0.2-0.1-0.4-0.1-0.6-0.2c-1.9-0.5-4.5-1-6.5-1.3c-3.4-0.4-4.2-0.4-8.2-0.5
				l-2.9,0.1c-1.2,0.1-2.4,0.2-3.5,0.5C250,15,250,15,249.9,15.2z"/>
			<path class="st5" d="M249.9,15.2c0.1,0,0.2,0,0.3,0.1c1.8,0,3.4,0.2,4.8,0.6c0.5,0.1,1.5,0.2,4.2-0.2c4.2-0.6,8.3-0.5,12.2,0.3
				c1.3,0.2,1.3,0.2,1.7,0.2c-0.1-0.1-0.3-0.1-0.5-0.2c-0.2-0.1-0.4-0.1-0.6-0.2c-1.9-0.5-4.5-1-6.5-1.3c-3.4-0.4-4.2-0.4-8.2-0.5
				l-2.9,0.1c-1.2,0.1-2.4,0.2-3.5,0.5C250,15,250,15,249.9,15.2z"/>
		</g>
		<g>
			<path class="st5" d="M279.1,116.8c-1.1-1.1-2.5-2.7-4.1-5c-1-1-2.4-1.1-4.4-0.3c-4.1,1.8-8.2,3.3-12.2,4.4
				c-1.8,0.6-2.1,1.4-1.1,2.3c2.5,1.9,4.9,3.2,7.3,3.8c1.2,0.2,2.5,0.2,4-0.2c3-0.8,6-1.9,9-3.3C279,117.9,279.5,117.4,279.1,116.8z
				"/>
			<path class="st5" d="M279.1,116.8c-1.1-1.1-2.5-2.7-4.1-5c-1-1-2.4-1.1-4.4-0.3c-4.1,1.8-8.2,3.3-12.2,4.4
				c-1.8,0.6-2.1,1.4-1.1,2.3c2.5,1.9,4.9,3.2,7.3,3.8c1.2,0.2,2.5,0.2,4-0.2c3-0.8,6-1.9,9-3.3C279,117.9,279.5,117.4,279.1,116.8z
				"/>
		</g>
		<g>
			<path class="st5" d="M292,110.3c0.6-0.4,1.1-0.8,1.6-1.3c1.3-1.1,2-2.1,2.3-3.1c0.3-2,0.1-4.4-0.6-7.3c-0.5-1.2-1.6-1.2-3.3,0
				c-0.7,0.6-1.5,1.1-2.2,1.7c-3.1,2.3-6.2,4.3-9.5,6.2c-1.8,1.2-2.4,2.4-1.9,3.6c1.4,2.3,2.6,4.1,3.5,5.3c0.5,0.5,1.5,0.3,2.9-0.5
				C287.4,113.5,289.7,111.9,292,110.3z"/>
			<path class="st5" d="M292,110.3c0.6-0.4,1.1-0.8,1.6-1.3c1.3-1.1,2-2.1,2.3-3.1c0.3-2,0.1-4.4-0.6-7.3c-0.5-1.2-1.6-1.2-3.3,0
				c-0.7,0.6-1.5,1.1-2.2,1.7c-3.1,2.3-6.2,4.3-9.5,6.2c-1.8,1.2-2.4,2.4-1.9,3.6c1.4,2.3,2.6,4.1,3.5,5.3c0.5,0.5,1.5,0.3,2.9-0.5
				C287.4,113.5,289.7,111.9,292,110.3z"/>
		</g>
		<g>
			<path class="st5" d="M308.9,82.7c-0.1-0.5-0.4-1.5-1.5,0c-2,2.9-4.4,5.9-7.3,8.9c-1.3,1.5-1.9,3-1.8,4.6c0.5,3,0.5,5.5,0.1,7.7
				c0,0.1,0,0.2,0,0.3c0,0.6,0.5,0.4,1.3-0.4c2.2-2.2,4-4.4,5.5-6.6c1.1-1.7,1.7-3.1,2.1-3.9c1.2-3.1,1.8-6.4,1.8-10
				C308.9,83.1,308.9,82.9,308.9,82.7z"/>
			<path class="st5" d="M308.9,82.7c-0.1-0.5-0.4-1.5-1.5,0c-2,2.9-4.4,5.9-7.3,8.9c-1.3,1.5-1.9,3-1.8,4.6c0.5,3,0.5,5.5,0.1,7.7
				c0,0.1,0,0.2,0,0.3c0,0.6,0.5,0.4,1.3-0.4c2.2-2.2,4-4.4,5.5-6.6c1.1-1.7,1.7-3.1,2.1-3.9c1.2-3.1,1.8-6.4,1.8-10
				C308.9,83.1,308.9,82.9,308.9,82.7z"/>
		</g>
		<g>
			<path class="st5" d="M313,67.3c0,0.2,0,0.3,0,0.5c-0.1,2.5-0.7,5.1-1.8,7.9c-0.5,1.4-0.8,3.1-0.9,5c-0.1,3.7-0.8,7.2-2.1,10.4
				c-0.3,0.7-0.3,0.7-0.5,1.1c0.5-1,1-2.4,1.5-3.4c1.7-4.6,1.9-5.6,2.9-10.1l0,0C312.9,74.4,312.9,72,313,67.3z"/>
			<path class="st5" d="M313,67.3c0,0.2,0,0.3,0,0.5c-0.1,2.5-0.7,5.1-1.8,7.9c-0.5,1.4-0.8,3.1-0.9,5c-0.1,3.7-0.8,7.2-2.1,10.4
				c-0.3,0.7-0.3,0.7-0.5,1.1c0.5-1,1-2.4,1.5-3.4c1.7-4.6,1.9-5.6,2.9-10.1l0,0C312.9,74.4,312.9,72,313,67.3z"/>
		</g>
		<g>
			<path class="st5" d="M262.9,123.5c0.8-0.1,1.7-0.2,2.4-0.2l2.2-0.3c-0.4,0.1-1.1,0.2-3.4,0.4
				C263.7,123.4,263.3,123.4,262.9,123.5z"/>
			<path class="st5" d="M262.9,123.5c0.8-0.1,1.7-0.2,2.4-0.2l2.2-0.3c-0.4,0.1-1.1,0.2-3.4,0.4
				C263.7,123.4,263.3,123.4,262.9,123.5z"/>
		</g>
		<g>
			<path class="st5" d="M267.5,122.9c0.2,0,0.3,0,0.4-0.1L267.5,122.9z"/>
			<path class="st5" d="M267.5,122.9c0.2,0,0.3,0,0.4-0.1L267.5,122.9z"/>
		</g>
		<g>
			<path class="st5" d="M261.5,123.6c0.3,0,0.7-0.1,1-0.1C262.2,123.5,261.8,123.6,261.5,123.6z"/>
			<path class="st5" d="M261.5,123.6c0.3,0,0.7-0.1,1-0.1C262.2,123.5,261.8,123.6,261.5,123.6z"/>
		</g>
	</g>
	<g>
		<path class="st5" d="M36.3,88.1l-5-25.8l-6.4,9.3l-3.7,16.4H5l15.8-71.6H37l-6.3,29l18.8-29H68L43.5,50l10,38.1H36.3z"/>
		<path class="st5" d="M58.4,88.1l15.8-71.6h33.7l-3.2,14.2H87.2l-3,14h16.6l-3.1,14.2H81l-6.4,29.3H58.4z"/>
		<path class="st5" d="M100,88.1l15.8-71.6h33.7l-3.2,14.2h-17.4l-3,14h16.6l-3.1,14.2h-16.7l-6.4,29.3H100z"/>
	</g>
</g>
	</a>
</svg>
