<?xml version="1.0" encoding="utf-8"?>
<!-- Generator: Adobe Illustrator 19.2.1, SVG Export Plug-In . SVG Version: 6.00 Build 0)  -->
<svg version="1.1" id="Layer_1" xmlns="http://www.w3.org/2000/svg" xmlns:xlink="http://www.w3.org/1999/xlink" x="0px" y="0px"
	 viewBox="0 0 960 355.6" style="enable-background:new 0 0 960 355.6;" xml:space="preserve">
<style type="text/css">
	.st0{fill:#FFFFFF;}
</style>
<g>
	<g>
		<g>
			<path class="st0" d="M277.8,13.5h19.5v50.9L326,13.5h11.2v53.1h8.3v5.6L326,72.2V21.4l-28.7,50.7h-11.2V19.1h-8.3V13.5z"/>
			<path class="st0" d="M362.7,72.2l-2.2,2.2V89h-8.1V66.6h7.5c1-1.1,2.1-2.8,3.4-4.9c1.3-2.2,2.5-5.1,3.6-8.8
				c1.1-3.7,2.1-8.4,2.9-13.9c0.8-5.5,1.2-12.2,1.2-19.9h-8.7v-5.6h45.5v53.1h10.1v13.7h-10.4l0.1-8.1H362.7z M378,19.4
				c-0.1,7.1-0.5,13.2-1.2,18.5c-0.7,5.2-1.6,9.7-2.7,13.5c-1,3.8-2.1,6.9-3.3,9.3c-1.2,2.5-2.2,4.4-3.1,5.9h28.2V19.4H378z"/>
			<path class="st0" d="M478.4,63.6c-1.9,2.6-4.7,4.7-8.2,6.3c-3.5,1.5-7.7,2.3-12.4,2.3c-4.9,0-9.3-0.7-13-2.1
				c-3.8-1.4-6.9-3.4-9.5-5.9c-2.5-2.5-4.5-5.6-5.8-9.2c-1.3-3.6-2-7.6-2-12.1c0-9.6,2.5-16.9,7.5-21.8c5-5,12-7.5,21.1-7.5
				c3,0,5.9,0.4,8.8,1.1c2.9,0.7,5.4,1.9,7.7,3.5c2.2,1.6,4,3.8,5.4,6.5c1.4,2.7,2.1,6.1,2.1,10.1c0,1.2-0.1,2.5-0.2,3.9
				c-0.1,1.4-0.4,2.8-0.7,4.3H440c0,3.1,0.4,6,1.3,8.6c0.9,2.6,2.2,4.8,3.9,6.7c1.8,1.9,4,3.3,6.6,4.3c2.6,1,5.7,1.6,9.3,1.6
				c2.9,0,5.6-0.5,8.2-1.4c2.5-0.9,4.5-2,6-3.2L478.4,63.6z M455.5,18.6c-2.3,0-4.3,0.3-6.1,1c-1.8,0.6-3.3,1.7-4.5,3.2
				c-1.3,1.5-2.3,3.5-3,6c-0.7,2.5-1.2,5.5-1.5,9.2h27c0.1-0.6,0.1-1.3,0.2-2c0-0.7,0.1-1.3,0.1-1.9c0-4.7-1-8.5-3-11.3
				C462.6,20,459.6,18.6,455.5,18.6z"/>
			<path class="st0" d="M490.5,13.5H510v50.9l28.7-50.9h11.2v53.1h8.3v5.6l-19.5-0.1V21.4L510,72.2h-11.2V19.1h-8.3V13.5z"/>
		</g>
		<g>
			<path class="st0" d="M318.6,161.5h-28.3v-5.6h8.3v-47.5h-11.4l-2.2,2.2l-7.2,0v-7.8h53.4v11.8H324v-4l-2.2-2.2h-11.4v47.5h8.3
				V161.5z"/>
			<path class="st0" d="M475.1,161.4v-53.1h-8.3v-5.6h20v25.7h27.4v-25.7H526v53.1h8.3v5.6l-20,0v-26.7h-27.4v26.7H475.1z"/>
			<path class="st0" d="M544.1,132.1c0-4.7,0.7-8.9,2.1-12.6c1.4-3.7,3.4-6.7,6-9.2c2.6-2.5,5.7-4.4,9.4-5.7
				c3.7-1.3,7.8-1.9,12.2-1.9c5.2,0,9.7,0.7,13.5,2.1c3.8,1.4,6.8,3.4,9.2,5.9c2.4,2.5,4.2,5.6,5.3,9.3c1.2,3.6,1.7,7.7,1.7,12.1
				c0,4.7-0.7,8.9-2.1,12.5c-1.4,3.6-3.4,6.7-5.9,9.2c-2.6,2.5-5.7,4.4-9.4,5.7c-3.7,1.3-7.8,1.9-12.3,1.9c-5.1,0-9.5-0.7-13.2-2.1
				c-3.7-1.4-6.8-3.4-9.3-5.9c-2.5-2.5-4.3-5.6-5.5-9.2C544.7,140.6,544.1,136.6,544.1,132.1z M556.7,132.1c0,3.4,0.3,6.6,1,9.6
				c0.7,2.9,1.8,5.5,3.3,7.6c1.5,2.2,3.5,3.9,5.9,5.1c2.4,1.3,5.4,1.9,8.9,1.9c4.4,0,8-1.9,10.9-5.8c2.8-3.9,4.3-10,4.3-18.4
				c0-3.4-0.3-6.7-1-9.6c-0.7-3-1.7-5.6-3.2-7.8c-1.5-2.2-3.3-3.9-5.6-5.1c-2.3-1.2-5.1-1.8-8.4-1.8c-4.9,0-8.9,1.9-11.8,5.8
				C558.1,117.5,556.7,123.7,556.7,132.1z"/>
			<path class="st0" d="M614.9,155.8c2.9-3.5,6.4-10.6,7.3-13.7c1-3.1,1.8-6.5,2.3-10.2c0.6-3.7,1-7.6,1.3-11.7
				c0.3-4.1,0.4-8,0.4-11.8l0-5.6h43.1v5.6H661v53.1l-19.1,0v-5.6h7.4v-47.5h-16.3c-0.1,7-0.5,13.4-1.3,19.2s-1.8,11-3.2,15.5
				c-1.3,4.5-2.9,8.3-4.6,11.4c-1.8,3.1-3.6,5.4-5.6,7h-10.1v-5.7H614.9z"/>
			<path class="st0" d="M679.1,132.4c0-4.7,0.7-8.9,2-12.6c1.4-3.6,3.3-6.7,5.7-9.2c2.5-2.5,5.5-4.3,9-5.6c3.5-1.3,7.4-1.9,11.7-1.9
				c5,0,9.3,0.7,12.9,2.1c3.6,1.4,6.6,3.4,8.8,5.9c2.3,2.5,4,5.6,5.1,9.2c1.1,3.6,1.7,7.6,1.7,12.1c0,4.7-0.7,8.9-2,12.5
				c-1.3,3.6-3.2,6.7-5.7,9.1c-2.5,2.5-5.5,4.3-9,5.6c-3.5,1.3-7.5,1.9-11.8,1.9c-4.9,0-9.1-0.7-12.6-2.1c-3.6-1.4-6.5-3.4-8.9-5.9
				c-2.4-2.5-4.1-5.6-5.2-9.2C679.7,140.9,679.1,136.9,679.1,132.4z M691.1,132.4c0,3.4,0.3,6.6,1,9.5c0.6,2.9,1.7,5.5,3.2,7.6
				c1.5,2.1,3.4,3.8,5.7,5.1c2.3,1.3,5.2,1.9,8.6,1.9c4.2,0,7.7-1.9,10.4-5.8c2.7-3.9,4.1-10,4.1-18.3c0-3.4-0.3-6.6-1-9.6
				c-0.6-3-1.7-5.5-3.1-7.7c-1.4-2.2-3.2-3.9-5.4-5.1c-2.2-1.2-4.9-1.8-8-1.8c-4.7,0-8.5,1.9-11.3,5.8
				C692.5,117.8,691.1,124,691.1,132.4z"/>
			<path class="st0" d="M795.2,102.7v11.8h-7.2v-4l-2.2-2.2h-17.3v47.5h8.7v5.6h-28.7v-5.6h8.3v-47.5h-8.3v-5.6H795.2z"/>
			<path class="st0" d="M391.6,152.8c-1.9,2.6-4.7,4.7-8.2,6.3c-3.5,1.5-7.7,2.3-12.4,2.3c-4.9,0-9.3-0.7-13-2.1
				c-3.8-1.4-6.9-3.4-9.5-5.9c-2.5-2.5-4.5-5.6-5.8-9.2c-1.3-3.6-2-7.6-2-12.1c0-9.6,2.5-16.9,7.5-21.8c5-5,12-7.5,21.1-7.5
				c3,0,5.9,0.4,8.8,1.1c2.9,0.7,5.4,1.9,7.7,3.5c2.2,1.6,4,3.8,5.4,6.5c1.4,2.7,2.1,6.1,2.1,10.1c0,1.2-0.1,2.5-0.2,3.9
				c-0.1,1.4-0.4,2.8-0.7,4.3h-39.1c0,3.1,0.4,6,1.3,8.6c0.9,2.6,2.2,4.8,3.9,6.7c1.8,1.9,4,3.3,6.6,4.3c2.6,1,5.7,1.6,9.3,1.6
				c2.9,0,5.6-0.5,8.2-1.4c2.5-0.9,4.5-2,6-3.2L391.6,152.8z M368.7,107.8c-2.3,0-4.3,0.3-6.1,1c-1.8,0.6-3.3,1.7-4.5,3.2
				c-1.3,1.5-2.3,3.5-3,6c-0.7,2.5-1.2,5.5-1.5,9.2h27c0.1-0.6,0.1-1.3,0.2-2c0-0.7,0.1-1.3,0.1-1.9c0-4.7-1-8.5-3-11.3
				C375.8,109.2,372.8,107.8,368.7,107.8z"/>
			<polygon class="st0" points="454.2,155.9 434.4,129.7 451.6,108.3 458.6,108.3 458.6,102.7 447.7,102.7 430.4,124.3 418.3,108.3 
				425.6,108.3 425.6,102.7 398.7,102.7 398.7,108.3 404.9,108.3 423.5,132.9 405,155.9 397.9,155.9 397.9,161.5 408.9,161.4 
				427.6,138.2 441,155.9 433.5,155.9 433.5,161.5 460.8,161.5 460.8,155.9 			"/>
			<path class="st0" d="M802.8,103h19.5v50.9L851,103h11.2v53.1h8.3v5.6l-19.5-0.1v-50.7l-28.7,50.7h-11.2v-53.1h-8.3V103z"/>
			<path class="st0" d="M880.1,102.7h19.5v50.9l28.7-50.9h11.2v53.1h8.3v5.6l-19.5-0.1v-50.7l-28.7,50.7h-11.2v-53.1h-8.3V102.7z"/>
		</g>
		<g>
			<path class="st0" d="M302.4,243c-4.4,0-8.2-0.7-11.4-2c-3.2-1.4-5.9-3-8.1-4.9v-5.9h7.3v2.3l1.7,2.2c0.8,0.4,2.1,0.9,3.7,1.5
				c1.6,0.5,3.8,0.8,6.5,0.8c5.7,0,10.1-1.9,13.2-5.6c3.1-3.7,4.6-8.8,4.6-15.4h-20.3v-6.1h20.2c-0.2-4-0.7-7.3-1.6-10
				c-0.9-2.7-2.2-4.8-3.8-6.4c-1.6-1.6-3.5-2.7-5.7-3.4c-2.2-0.6-4.6-1-7.2-1c-2.6,0-4.5,0.1-5.7,0.4c-1.2,0.3-2.2,0.6-2.9,0.9
				l-1.9,2.2V203h-7.3v-15.7c1.1-0.6,2.3-1.1,3.5-1.6c1.2-0.5,2.6-1,4.1-1.4c1.6-0.4,3.3-0.7,5.3-1c2-0.3,4.3-0.4,7-0.4
				c4.1,0,7.9,0.5,11.4,1.5c3.5,1,6.5,2.7,9.1,4.9c2.6,2.3,4.7,5.3,6.1,9c1.5,3.7,2.2,8.3,2.2,13.6c0,5.5-0.9,10.2-2.6,14.1
				c-1.7,3.9-4,7.1-6.9,9.7c-2.8,2.5-6.1,4.4-9.7,5.5C309.9,242.4,306.2,243,302.4,243z"/>
			<path class="st0" d="M403.5,182.7l0,5.8h-7.3L378.4,210l20.9,27l4.2,0v5.7h-12.4l-21.2-28.3h-6.5v28.3h-12v-54.2h-8.4v-5.8h20.4
				v27h5.9l23.2-27H403.5z"/>
			<path class="st0" d="M461.2,234.2c-1.6,2.1-4.1,4.1-7.6,5.8c-3.5,1.8-7.6,2.7-12.3,2.7c-5,0-9.4-0.7-13.2-2.1
				c-3.8-1.4-6.9-3.4-9.4-6c-2.5-2.6-4.4-5.7-5.6-9.4c-1.2-3.7-1.8-7.8-1.8-12.3c0-9.7,2.7-17.1,8-22.2c5.4-5.1,12.7-7.7,21.9-7.7
				c4.2,0,7.6,0.3,10.4,0.8c2.7,0.5,5.3,1.3,7.5,2.4v14.2h-10.3v-10.3c-1.1-0.6-3.4-1-6.9-1c-2.9,0-5.5,0.4-7.7,1.2
				s-4.1,2.1-5.6,3.9c-1.5,1.8-2.7,4.2-3.4,7.3c-0.8,3-1.1,6.8-1.1,11.2c0,2.9,0.4,5.7,1.3,8.3c0.8,2.6,2.1,5,3.8,7
				c1.7,2,3.8,3.6,6.4,4.7c2.6,1.2,5.6,1.7,9,1.7c1.8,0,3.5-0.2,4.9-0.5c1.4-0.4,2.7-0.7,3.7-1.1c1.1-0.4,2-0.9,2.9-1.4
				c0.8-0.5,1.6-1.1,2.4-1.6L461.2,234.2z"/>
			<path class="st0" d="M479.2,242.9v-60.2l60.3,0.1v5.7H531v54.2h-12v-54.2h-27.9v54.2L479.2,242.9z"/>
			<path class="st0" d="M849.9,236.4c2.2,0,4.1-0.3,5.8-1c1.7-0.7,3.1-1.6,4.2-2.7c1.1-1.1,2-2.4,2.6-3.8c0.6-1.4,0.9-2.8,0.9-4.2
				c0-3.4-0.9-5.8-2.6-7.1c-1.8-1.4-4.2-2.3-7.2-2.7h-4.1v-6.3h4.9c0.8-0.3,1.5-0.7,2.4-1.4c0.8-0.6,1.6-1.4,2.3-2.4
				c0.7-0.9,1.3-2,1.8-3.3c0.5-1.2,0.7-2.7,0.7-4.3c0-3.7-1.1-6.1-3.3-7.5c-2.2-1.3-16.2-1.4-16.7-1.2l-2.2,2.4v9.6h-7.3v-15
				c1.7-0.9,2.5-2.1,5.4-3h25.4c1.9,0.5,3.6,1.4,5,2.2c3.8,2.2,5.7,5.5,5.7,10.1c0,1.9-0.4,3.7-1.2,5.2c-0.8,1.6-1.9,2.9-3.3,4.2
				c-1.4,1.2-2.9,2.3-4.5,3.1c-1.7,0.9-3.3,1.5-5,1.9c2.4,0.2,4.5,0.7,6.5,1.4c2,0.7,3.8,1.7,5.3,2.9c1.5,1.2,2.7,2.7,3.6,4.4
				c0.9,1.7,1.3,3.7,1.3,5.9c0,3.2-0.6,5.9-1.9,8.2c-1.3,2.3-3,4.3-5.3,5.8c-2.3,1.5-5,2.7-8.2,3.5c-3.2,0.8-6.8,1.2-10.7,1.2
				c-4.4,0-8.3-0.7-11.7-2.1c-3.4-1.4-6.2-3-8.4-5v-5.9h7.3v2.3l1.9,2.4c0.8,0.5,2.1,1,3.8,1.4C844.8,236.2,847.1,236.4,849.9,236.4
				z"/>
			<path class="st0" d="M936.6,237l7.5,0l0,5.7l-19.4,0l0-10.6c0,0-1.7,3-2.7,4.4c-1,1.4-2.3,2.7-3.9,3.8c-1.6,1.1-3.3,1.9-5.4,2.6
				h-14.4c-2.2-0.7-4.1-1.8-5.6-3.1c-1.6-1.3-2.8-3-3.7-4.9c-0.9-1.9-1.3-4-1.3-6.4c0-3.7,0.8-6.7,2.3-9.1c1.6-2.4,3.9-4.3,6.9-5.7
				c3-1.4,6.8-2.4,11.4-3c4.6-0.6,10.2-1.1,16.3-1.2c0.2-1.2-0.1-2.1-0.1-3.2c0-1.1,0-2.1,0-3.2c0-4.6-0.8-8.1-2.4-10.5
				c-1.6-2.4-3-4.2-7.1-4.2c-1.5,0-9.1,0.1-11.1,2.1v10.1h-10.3v-12.4c2.8-1.4,6-2.7,9.8-3.8c3.7-1.1,8.1-1.7,13.2-1.7
				c4.4,0,7.9,0.5,10.5,1.6c2.6,1.1,4.7,2.5,6.1,4.3c1.4,1.8,2.3,3.7,2.8,5.9c0.4,2.2,0.6,4.4,0.6,6.5V237z M910.8,236.4
				c1.8,0,3.5-0.3,4.9-0.8c1.4-0.6,2.7-1.3,3.8-2.1c1.1-0.9,2.1-1.8,2.9-2.9c0.8-1,1.8-2.8,2.3-3.8v-12.9c-4.9,0-9.3,0.6-12.4,1.3
				c-3.1,0.6-5.5,1.5-7.2,2.5c-1.8,1-2.9,2.3-3.6,3.8c-0.6,1.5-1,3-1,4.6c0,3.4,0.9,5.9,2.7,7.7
				C905.1,235.5,907.6,236.4,910.8,236.4z"/>
			<path class="st0" d="M601.5,233.8c-2,2.7-4.8,4.8-8.4,6.4c-3.6,1.6-7.8,2.4-12.6,2.4c-5,0-9.5-0.7-13.3-2.1
				c-3.8-1.4-7.1-3.4-9.7-6c-2.6-2.6-4.6-5.7-5.9-9.4c-1.3-3.7-2-7.8-2-12.3c0-9.8,2.6-17.2,7.7-22.3c5.1-5.1,12.3-7.6,21.5-7.6
				c3,0,6,0.4,9,1.1c2.9,0.7,5.5,1.9,7.8,3.6c2.3,1.7,4.1,3.9,5.5,6.7c1.4,2.8,2.1,6.2,2.1,10.3c0,1.2-0.1,2.6-0.2,3.9
				c-0.2,1.4-0.4,2.8-0.7,4.4h-39.9c0,3.2,0.4,6.1,1.3,8.8c0.9,2.6,2.2,4.9,4,6.8c1.8,1.9,4,3.4,6.7,4.4c2.7,1.1,5.9,1.6,9.5,1.6
				c3,0,5.8-0.5,8.3-1.4c2.6-0.9,4.6-2,6.1-3.3L601.5,233.8z M578.1,188c-2.4,0-4.4,0.3-6.2,1c-1.8,0.7-3.3,1.8-4.6,3.3
				c-1.3,1.5-2.3,3.6-3.1,6.1c-0.8,2.5-1.3,5.6-1.5,9.4h27.5c0.1-0.7,0.1-1.3,0.2-2c0-0.7,0.1-1.3,0.1-1.9c0-4.8-1-8.7-3-11.5
				C585.4,189.4,582.3,188,578.1,188z"/>
			<path class="st0" d="M621.2,264l-0.1-75.7l-8.3,0l0-5.6l20.1,0l0,11.8h0.1c1.6-4,3.8-9.5,6.8-11.8l18.5,0c0,0,5.6-0.1,10.8,5.7
				c4.1,4.6,6.1,12,6.1,22.4c0,4.9-0.7,9.4-2.1,13.4c-1.4,4-3.4,7.3-5.9,10.1c-2.6,2.8-5.7,4.9-9.3,6.3c-3.6,1.5-7.7,2.2-12.2,2.2
				c-1.5,0-2.8,0-4-0.1c-1.2-0.1-2.2-0.2-3.2-0.3c-1-0.2-1.9-0.4-2.9-0.7c-0.9-0.3-1.9-0.6-2.9-1l0,23.3L621.2,264z M647.6,189.1
				c-4,0-7.2,1.2-9.6,3.4c-2.4,2.3-4.1,5.5-5.1,9.7l0,32.9c1.5,1,3.2,1.6,5,2c1.8,0.3,4.3,0.5,7.3,0.5c2.8,0,5.2-0.7,7.4-2
				c2.2-1.3,4-3.1,5.5-5.5c1.5-2.4,2.6-5.2,3.4-8.4c0.8-3.3,1.2-6.9,1.2-10.8c0-3.2-0.3-6.1-0.8-8.8c-0.5-2.7-1.4-4.9-2.5-6.8
				c-1.2-1.9-2.7-3.4-4.7-4.5C652.9,189.6,650.5,189.1,647.6,189.1z"/>
			<path class="st0" d="M725.8,242.9h-28.9v-5.7h8.4v-48.5h-11.6l-2.3,2.3l-7.3,0v-8h54.4V195h-7.3v-4.1l-2.3-2.3h-11.6v48.5h8.4
				V242.9z"/>
			<path class="st0" d="M748.1,182.7H768v51.9l29.3-51.9h11.4V237h8.4v5.7l-19.9-0.1v-51.8L768,242.6h-11.4v-54.1h-8.4V182.7z"/>
		</g>
	</g>
	<g>
		<path class="st0" d="M60.9,28.6c1.8-1.2,3.6-2.3,5.4-3.4c-1.5,1-3.1,2-4.6,3c-1.8,1.2-3.6,2.4-5.4,3.6
			C57.9,30.7,59.4,29.6,60.9,28.6z"/>
		<path class="st0" d="M226.4,219.5c-0.9,0.9-1.7,1.8-2.6,2.6c-0.3,0.3-0.5,0.5-0.8,0.8c-0.6,0.6-1.2,1.2-1.8,1.8
			c-6,5.9-12.7,11.2-20,15.6c-28.5,17.6-65.1,21.8-98.1,12.6c-2.7-0.8-5.3-1.6-7.9-2.5C59.9,238.4,31,211,17.2,179.2
			C3.8,149.1,4.1,117,13.1,90.4c8.4-24.6,24.6-45.6,43.2-58.6c1.8-1.2,3.6-2.4,5.4-3.6C43,40.7,26.7,61.2,18.1,85.4
			c-9.3,26.5-9.8,58.6,3.7,88.9c14,32.2,43.5,59.9,79.3,71.9c2.6,0.9,5.3,1.7,8,2.5c33.3,9,69.7,4.4,97.8-13.5
			C214,230.7,220.6,225.4,226.4,219.5z"/>
		<path class="st0" d="M257.3,152.9c3.2-30.6-6.9-64-26.5-88c-15.5-18.9-37-32.7-58.7-39.5c-5.3-1.7-10.7-2.9-16.1-3.8
			c-27.7-4.6-56.1,1.6-76.3,14.6c-4,2.5-7.7,5.3-11.1,8.3C53.7,57.5,43.9,74.3,39.3,90.7c-6.1,22.6-3.7,44.6,2.8,62.2
			c14.4,38.1,40.5,51.6,45.1,55.2c7.9,5,16.1,8.5,24.2,10.8c14.4,4.1,28,4.2,38.1,2.1c8.9-1.8,15.2-4.8,18.8-7.8
			c1.9-1.9,2.7-3.7,2.4-5.1c-0.6-2.4-3.7-3.8-8.6-5.1c-3.2-0.8-7.1-1.6-11.6-2.5c-4.5-0.9-9.6-2.1-15-3.5
			c-10.6-2.9-22.6-7.3-34.3-14.8c-3.4-2.8-23.1-12.2-35.2-40.5c-10.6-22.5-9.5-62.2,19-87.8c2.8-2.7,6-5.2,9.4-7.5
			c16-11,39.3-16.7,63.2-13.1c5.2,0.8,10.5,2,15.7,3.6c18,5.8,35.8,17.2,49.1,32.9c17.2,20.4,26.6,49.7,24.1,77.1
			c-2.1,24.2-13.8,48-32.2,64.7c-4.1,3.8-8.5,7.3-13.3,10.4c-25.6,16.8-60.2,21.4-91.7,12.6c-1.5-0.4-2.9-0.9-4.4-1.3
			c-33-10.4-60.8-35-74.6-64.4c-13.4-27.8-13.9-57.9-5.7-83.2c6.2-19.2,17.6-36.1,31.5-48.5c3.2-2.9,6.5-5.6,10-8
			C94.9,8.5,131.2,4.5,157.8,8.3c-26.9-4.5-65.1-1.5-96.1,19.9c-3.4,2.3-6.7,4.8-9.9,7.6C37.9,48.2,26.2,65.1,19.4,84.3
			c-9.3,26.5-9.8,58.6,3.7,88.9c14,32.2,43.5,59.9,79.3,71.9c2.6,0.9,5.3,1.7,8,2.5c33.3,9,69.7,4.4,97.9-13.5
			c4.9-3.1,9.5-6.6,13.8-10.5C241.7,205.4,254.7,179.5,257.3,152.9z"/>
		<g>
			<path class="st0" d="M257.3,152.9c3.2-30.6-6.9-64-26.5-88c-15.5-18.9-37-32.7-58.7-39.5c-5.3-1.7-10.7-2.9-16.1-3.8
				c-27.7-4.6-56.1,1.6-76.3,14.6c-4,2.5-7.7,5.3-11.1,8.3C53.7,57.5,43.9,74.3,39.3,90.7c-6.1,22.6-3.7,44.6,2.8,62.2
				c14.4,38.1,40.5,51.6,45.1,55.2c7.9,5,16.1,8.5,24.2,10.8c14.4,4.1,28,4.2,38.1,2.1c8.9-1.8,15.2-4.8,18.8-7.8
				c1.9-1.9,2.7-3.7,2.4-5.1c-0.6-2.4-3.7-3.8-8.6-5.1c-3.2-0.8-7.1-1.6-11.6-2.5c-4.5-0.9-9.6-2.1-15-3.5
				c-10.6-2.9-22.6-7.3-34.3-14.8c-3.4-2.8-23.1-12.2-35.2-40.5c-10.6-22.5-9.5-62.2,19-87.8c2.8-2.7,6-5.2,9.4-7.5
				c16-11,39.3-16.7,63.2-13.1c5.2,0.8,10.5,2,15.7,3.6c18,5.8,35.8,17.2,49.1,32.9c17.2,20.4,26.6,49.7,24.1,77.1
				c-2.1,24.2-13.8,48-32.2,64.7c-4.1,3.8-8.5,7.3-13.3,10.4c-25.6,16.8-60.2,21.4-91.7,12.6c-1.5-0.4-2.9-0.9-4.4-1.3
				c-33-10.4-60.8-35-74.6-64.4c-13.4-27.8-13.9-57.9-5.7-83.2c6.2-19.2,17.6-36.1,31.5-48.5c3.2-2.9,6.5-5.6,10-8
				C94.9,8.5,131.2,4.5,157.8,8.3c-26.9-4.5-65.1-1.5-96.1,19.9c-3.4,2.3-6.7,4.8-9.9,7.6C37.9,48.2,26.2,65.1,19.4,84.3
				c-9.3,26.5-9.8,58.6,3.7,88.9c14,32.2,43.5,59.9,79.3,71.9c2.6,0.9,5.3,1.7,8,2.5c33.3,9,69.7,4.4,97.9-13.5
				c4.9-3.1,9.5-6.6,13.8-10.5C241.7,205.4,254.7,179.5,257.3,152.9z"/>
		</g>
	</g>
	<g>
		<path class="st0" d="M285.7,326.3c0-3.3,0.7-6.3,2.2-9c1.5-2.7,3.6-4.8,6.2-6.4c2.6-1.6,5.6-2.3,8.9-2.3c2.4,0,4.7,0.4,6.9,1.3
			c2.1,0.9,4,2.1,5.5,3.7c1.5,1.6,2.8,3.4,3.6,5.6c0.9,2.2,1.3,4.6,1.3,7.1c0,2.5-0.4,4.9-1.3,7.1c-0.9,2.2-2.1,4.1-3.6,5.6
			c-1.5,1.6-3.4,2.8-5.5,3.7c-2.1,0.9-4.4,1.4-6.9,1.4c-2.4,0-4.7-0.4-6.9-1.3c-2.1-0.9-4-2.1-5.5-3.7c-1.5-1.6-2.7-3.4-3.6-5.6
			C286.2,331.2,285.7,328.8,285.7,326.3z M288.6,326.3c0,2.8,0.6,5.4,1.9,7.7c1.3,2.3,3,4.1,5.2,5.5c2.2,1.3,4.7,2,7.3,2
			c2.8,0,5.3-0.7,7.5-2c2.2-1.3,3.9-3.1,5.2-5.5c1.2-2.3,1.8-4.9,1.8-7.7c0-2.9-0.6-5.5-1.9-7.8c-1.3-2.3-3-4.1-5.2-5.4
			c-2.2-1.3-4.7-2-7.3-2c-2,0-3.9,0.4-5.7,1.2c-1.8,0.8-3.3,1.8-4.6,3.1c-1.3,1.3-2.3,2.9-3,4.8
			C288.9,322.1,288.6,324.1,288.6,326.3z"/>
		<path class="st0" d="M328.5,343.6V309h19.1v2.6h-16.4v11.7c2-0.2,4-0.3,5.8-0.3c4,0,7.1,0.9,9.2,2.7c2.1,1.8,3.2,4.2,3.2,7.3
			c0,3.5-1.2,6.2-3.5,8c-2.3,1.8-5.6,2.7-9.7,2.7c-1.1,0-2.5,0-4.3-0.1C330.3,343.6,329.1,343.6,328.5,343.6z M331.3,341
			c3.3,0.1,5.1,0.1,5.4,0.1c3.3,0,5.9-0.7,7.6-2.1c1.7-1.4,2.6-3.4,2.6-6c0-2.4-0.8-4.2-2.5-5.6c-1.7-1.3-4.1-2-7.3-2
			c-2,0-3.9,0.1-5.7,0.3V341z"/>
		<path class="st0" d="M358.7,343.6V309c0.6,0,2.1,0,4.2,0c2.2,0,3.6,0,4.2,0c1.8,0,3.5,0.2,4.9,0.6c1.4,0.4,2.6,0.9,3.5,1.6
			c0.9,0.7,1.6,1.4,2.2,2.4c0.6,0.9,1,1.9,1.2,2.8c0.2,1,0.3,2,0.3,3.1c0,1.4-0.2,2.7-0.7,3.9c-0.5,1.2-1.2,2.4-2.2,3.4
			c-1,1-2.2,1.8-3.8,2.4c-1.6,0.6-3.5,0.9-5.5,0.9c-2.1,0-4-0.1-5.7-0.2v13.9H358.7z M361.4,327.1c2.1,0.2,4,0.2,5.6,0.2
			c3.1,0,5.4-0.7,7.1-2.2c1.7-1.5,2.5-3.4,2.5-5.9c0-2.4-0.8-4.3-2.3-5.7c-1.5-1.4-3.8-2.1-6.9-2.1c-1.8,0-3.8,0-6,0.1V327.1z"/>
		<path class="st0" d="M380,343.6l15.1-34.9h2.2l15.1,34.9h-2.9l-5-11.7h-16.6l-5,11.7H380z M388.9,329.2h14.4l-7.2-16.8
			L388.9,329.2z"/>
		<path class="st0" d="M415.5,338.9l1.5-1.8c1.1,1.3,2.5,2.4,4.3,3.2c1.8,0.8,3.4,1.2,4.9,1.2c2.7,0,4.9-0.7,6.5-2.1
			c1.6-1.4,2.5-3.3,2.5-5.7c0-2-0.7-3.5-2-4.7c-1.3-1.2-3.1-1.7-5.4-1.7h-4.3v-2.6h4c1.6,0,3.1-0.7,4.4-2c1.3-1.3,1.9-3,1.9-4.9
			c0-2.1-0.7-3.8-2-4.9c-1.4-1.1-3.1-1.7-5.2-1.7c-1.9,0-3.5,0.3-4.8,1c-1.4,0.7-2.6,1.7-3.8,3l-1.6-1.7c1.2-1.5,2.7-2.7,4.5-3.5
			c1.8-0.9,3.8-1.3,5.9-1.3c3,0,5.4,0.8,7.1,2.4s2.7,3.8,2.7,6.6c0,1.6-0.5,3.2-1.4,4.7c-0.9,1.5-2.2,2.7-3.9,3.4v0.1
			c2.1,0.3,3.7,1.2,4.8,2.7c1.2,1.5,1.7,3.3,1.7,5.4c0,3.1-1.1,5.5-3.3,7.4c-2.2,1.8-5,2.7-8.3,2.7c-2.2,0-4.4-0.5-6.4-1.5
			C418,341.5,416.5,340.3,415.5,338.9z"/>
		<path class="st0" d="M444.3,326.3c0-3.3,0.7-6.3,2.2-9c1.5-2.7,3.6-4.8,6.2-6.4c2.6-1.6,5.6-2.3,8.9-2.3c2.4,0,4.7,0.4,6.9,1.3
			c2.1,0.9,4,2.1,5.5,3.7c1.5,1.6,2.8,3.4,3.6,5.6c0.9,2.2,1.3,4.6,1.3,7.1c0,2.5-0.4,4.9-1.3,7.1c-0.9,2.2-2.1,4.1-3.6,5.6
			c-1.5,1.6-3.4,2.8-5.5,3.7c-2.1,0.9-4.4,1.4-6.9,1.4c-2.4,0-4.7-0.4-6.9-1.3c-2.1-0.9-4-2.1-5.5-3.7c-1.5-1.6-2.7-3.4-3.6-5.6
			C444.8,331.2,444.3,328.8,444.3,326.3z M447.2,326.3c0,2.8,0.6,5.4,1.9,7.7c1.3,2.3,3,4.1,5.2,5.5c2.2,1.3,4.7,2,7.3,2
			c2.8,0,5.3-0.7,7.5-2c2.2-1.3,3.9-3.1,5.2-5.5c1.2-2.3,1.8-4.9,1.8-7.7c0-2.9-0.6-5.5-1.9-7.8c-1.3-2.3-3-4.1-5.2-5.4
			c-2.2-1.3-4.7-2-7.3-2c-2,0-3.9,0.4-5.7,1.2c-1.8,0.8-3.3,1.8-4.6,3.1c-1.3,1.3-2.3,2.9-3,4.8
			C447.5,322.1,447.2,324.1,447.2,326.3z"/>
		<path class="st0" d="M487.1,343.5V309c5.1-0.1,8.2-0.2,9.1-0.2c2,0,3.7,0.2,5.2,0.7c1.4,0.4,2.6,1,3.4,1.8
			c0.8,0.8,1.4,1.7,1.8,2.7c0.4,1,0.6,2.1,0.6,3.4c0,2.2-0.6,3.9-1.9,5.3c-1.3,1.4-2.9,2.3-4.8,2.8v0.1c2.5,0.3,4.5,1.2,5.9,2.6
			c1.4,1.4,2.1,3.3,2.1,5.7c0,1.7-0.3,3.2-0.9,4.5c-0.6,1.3-1.5,2.3-2.6,3.1c-1.1,0.8-2.4,1.3-3.9,1.7c-1.5,0.4-3.1,0.6-4.9,0.6
			C492.8,343.7,489.8,343.6,487.1,343.5z M489.8,324.7h6.7c2.2,0,4.1-0.6,5.6-1.8c1.5-1.2,2.3-2.9,2.3-4.9c0-4.3-2.8-6.5-8.3-6.5
			c-1.4,0-3.5,0-6.3,0.1V324.7z M489.8,340.9c4.1,0.1,6.3,0.2,6.4,0.2c3,0,5.4-0.6,7-1.9c1.6-1.2,2.5-3.1,2.5-5.6
			c0-2.1-0.8-3.8-2.4-4.9c-1.6-1.1-3.9-1.7-6.9-1.7h-6.6V340.9z"/>
		<path class="st0" d="M513.1,343.6l15.1-34.9h2.2l15.1,34.9h-2.9l-5-11.7H521l-5,11.7H513.1z M522.1,329.2h14.4l-7.2-16.8
			L522.1,329.2z"/>
		<path class="st0" d="M543.3,311.6V309h28.3v2.6h-12.8v32h-2.7v-32H543.3z"/>
		<path class="st0" d="M577.6,343.6V309h19.1v2.6h-16.4v13.2h14.9v2.6h-14.9V341h16.9v2.6H577.6z"/>
		<path class="st0" d="M601.8,343.6l0-2.7c0.3,0,0.6,0,0.9,0c0.3,0,0.6-0.1,1-0.3c0.4-0.2,0.7-0.4,1.1-0.8c0.3-0.3,0.7-0.8,1.1-1.4
			c0.4-0.6,0.8-1.3,1.1-2.2c0.3-0.8,0.7-1.9,0.9-3.2c0.3-1.3,0.6-2.7,1-4.3c0.4-1.6,0.7-3.4,0.9-5.6c0.3-2.2,0.5-4.6,0.7-7.1
			l0.5-6.9h19.8v34.6h-2.7v-32h-14.7l-0.6,6.5c-0.2,3.3-0.6,6.2-1.1,8.8c-0.5,2.6-0.9,4.8-1.3,6.6c-0.3,1.8-0.8,3.3-1.3,4.6
			c-0.5,1.3-1.1,2.3-1.6,3c-0.5,0.7-1.1,1.3-1.8,1.7c-0.7,0.4-1.3,0.7-1.9,0.8C603.1,343.6,602.5,343.6,601.8,343.6z"/>
		<path class="st0" d="M641.7,343.6V309h2.7v13.7c2.6-0.2,4.4-0.3,5.6-0.3c4.3,0,7.6,0.9,9.8,2.7c2.2,1.8,3.2,4.3,3.2,7.6
			c0,3.6-1.2,6.3-3.6,8.2c-2.4,1.9-5.7,2.8-10,2.8c-1,0-2.4,0-4.1,0C643.5,343.6,642.3,343.6,641.7,343.6z M644.5,340.9
			c0.3,0,0.8,0,1.5,0.1c0.7,0,1.3,0.1,1.9,0.1c0.6,0,1.2,0,1.8,0c3.4,0,5.9-0.7,7.8-2.1c1.8-1.4,2.7-3.5,2.7-6.3
			c0-2.5-0.9-4.4-2.6-5.7c-1.8-1.3-4.3-2-7.6-2c-2,0-3.8,0.1-5.4,0.3V340.9z"/>
		<path class="st0" d="M671.2,343.6V309h2.7v15.7h21.6V309h2.7v34.6h-2.7v-16.4h-21.6v16.4H671.2z"/>
		<path class="st0" d="M709.1,343.6V309h2.7v13.7c2.6-0.2,4.3-0.3,5.2-0.3c4.3,0,7.5,0.9,9.6,2.7c2.2,1.8,3.2,4.3,3.2,7.6
			c0,3.5-1.2,6.3-3.6,8.2c-2.4,1.9-5.7,2.9-9.9,2.9c-1,0-2.3,0-3.9,0C710.9,343.6,709.7,343.6,709.1,343.6z M711.9,340.9
			c0.1,0,0.8,0,2,0.1c1.2,0.1,2.2,0.1,2.9,0.1c3.3,0,5.9-0.7,7.7-2.1c1.8-1.4,2.7-3.5,2.7-6.3c0-2.5-0.9-4.4-2.6-5.7
			c-1.7-1.3-4.2-2-7.5-2c-1.7,0-3.4,0.1-5.1,0.3V340.9z M736.4,343.6V309h2.7v34.6H736.4z"/>
		<path class="st0" d="M750.1,343.6V309h2.7v30.2l23.3-30.2h2.4v34.6h-2.7v-30.1l-23.3,30.1H750.1z M755.7,301.5h2.6
			c0.5,1.1,1.3,1.9,2.4,2.6c1,0.6,2.3,1,3.8,1c1.4,0,2.7-0.3,3.8-1c1.1-0.6,1.8-1.5,2.2-2.6h2.6c-0.3,1.6-1.3,2.9-2.9,3.9
			c-1.6,1-3.5,1.5-5.6,1.5c-2.3,0-4.2-0.5-5.7-1.5C757.1,304.4,756.1,303.1,755.7,301.5z"/>
		<path class="st0" d="M801,343.6V309h2.7v32H825v-32h2.7v32h4.7v9.2h-2.6v-6.6H801z"/>
		<path class="st0" d="M839.5,343.6V309h19.1v2.6h-16.4v13.2h14.9v2.6h-14.9V341h16.9v2.6H839.5z"/>
		<path class="st0" d="M867.9,343.6V309h2.7v15.7h21.6V309h2.7v34.6h-2.7v-16.4h-21.6v16.4H867.9z"/>
		<path class="st0" d="M900.9,311.6V309h28.3v2.6h-12.8v32h-2.7v-32H900.9z"/>
		<path class="st0" d="M935.2,343.6V309c0.6,0,2.1,0,4.2,0c2.2,0,3.6,0,4.2,0c1.8,0,3.5,0.2,4.9,0.6c1.4,0.4,2.6,0.9,3.5,1.6
			c0.9,0.7,1.6,1.4,2.2,2.4c0.6,0.9,1,1.9,1.2,2.8c0.2,1,0.4,2,0.4,3.1c0,1.4-0.2,2.7-0.7,3.9c-0.5,1.2-1.2,2.4-2.2,3.4
			c-1,1-2.2,1.8-3.8,2.4c-1.6,0.6-3.5,0.9-5.5,0.9c-2.1,0-4-0.1-5.7-0.2v13.9H935.2z M937.9,327.1c2.1,0.2,4,0.2,5.6,0.2
			c3.1,0,5.4-0.7,7.1-2.2c1.7-1.5,2.5-3.4,2.5-5.9c0-2.4-0.8-4.3-2.3-5.7c-1.5-1.4-3.8-2.1-6.9-2.1c-1.8,0-3.8,0-6,0.1V327.1z"/>
	</g>
</g>
</svg>
