<?xml version="1.0" encoding="utf-8"?>
<!-- Generator: Adobe Illustrator 19.2.1, SVG Export Plug-In . SVG Version: 6.00 Build 0)  -->
<svg version="1.1" id="Layer_1" xmlns="http://www.w3.org/2000/svg" xmlns:xlink="http://www.w3.org/1999/xlink" x="0px" y="0px"
	 viewBox="0 0 841.9 311" style="enable-background:new 0 0 841.9 311;" xml:space="preserve">
<style type="text/css">
	.st0{fill:#E6EFC2;}
	.st1{fill:#880C18;}
	.st2{fill:#FDDDCE;}
	.st3{fill:#ED1C24;}
	.st4{fill:#58595B;}
</style>
<g>
	<g>
		<g>
			<path d="M243.6,11.5h17.1v44.6l25.2-44.6h9.8V58h7.3v4.9l-17.1-0.1V18.4l-25.2,44.5h-9.8V16.4h-7.3V11.5z"/>
			<path d="M318,62.9l-2,2v12.7h-7.1V58h6.6c0.8-1,1.8-2.4,2.9-4.3c1.1-1.9,2.2-4.5,3.1-7.7c1-3.3,1.8-7.3,2.5-12.2
				c0.7-4.8,1-10.7,1-17.4h-7.6v-4.9h39.9V58h8.8v12h-9.1l0.1-7.1H318z M331.4,16.7c-0.1,6.2-0.4,11.6-1.1,16.2
				c-0.7,4.6-1.4,8.5-2.4,11.8c-0.9,3.3-1.9,6-2.9,8.2c-1,2.2-1.9,3.9-2.7,5.2h24.7V16.7H331.4z"/>
			<path d="M419.3,55.4c-1.7,2.3-4.1,4.2-7.2,5.5c-3.1,1.3-6.7,2-10.8,2c-4.3,0-8.1-0.6-11.4-1.8c-3.3-1.2-6.1-2.9-8.3-5.2
				c-2.2-2.2-3.9-4.9-5.1-8.1c-1.1-3.2-1.7-6.7-1.7-10.6c0-8.4,2.2-14.8,6.6-19.1c4.4-4.4,10.5-6.5,18.4-6.5c2.6,0,5.2,0.3,7.7,0.9
				c2.5,0.6,4.8,1.7,6.7,3.1c2,1.4,3.5,3.4,4.8,5.7c1.2,2.4,1.8,5.3,1.8,8.8c0,1.1-0.1,2.2-0.2,3.4c-0.1,1.2-0.3,2.4-0.6,3.8h-34.3
				c0,2.8,0.4,5.3,1.1,7.5c0.8,2.3,1.9,4.2,3.4,5.8c1.5,1.6,3.5,2.9,5.8,3.8c2.3,0.9,5,1.4,8.2,1.4c2.6,0,4.9-0.4,7.1-1.2
				c2.2-0.8,4-1.8,5.3-2.8L419.3,55.4z M399.3,16c-2,0-3.8,0.3-5.3,0.8c-1.5,0.6-2.9,1.5-4,2.8c-1.1,1.3-2,3.1-2.6,5.2
				c-0.7,2.2-1.1,4.8-1.3,8h23.6c0.1-0.6,0.1-1.1,0.1-1.7c0-0.6,0-1.1,0-1.6c0-4.1-0.9-7.4-2.6-9.9C405.5,17.2,402.9,16,399.3,16z"
				/>
			<path d="M430,11.5h17.1v44.6l25.2-44.6h9.8V58h7.3v4.9l-17.1-0.1V18.4l-25.2,44.5h-9.8V16.4H430V11.5z"/>
		</g>
		<g>
			<path d="M279.3,141.1h-24.8v-4.9h7.3V94.6h-10l-2,2l-6.3,0v-6.8h46.8V100H284v-3.5l-2-2h-10v41.7h7.3V141.1z"/>
			<path d="M416.5,141.1V94.6h-7.3v-4.9h17.5v22.5h24V89.7h10.3v46.6h7.3v4.9l-17.5,0v-23.4h-24v23.4H416.5z"/>
			<path d="M476.9,115.4c0-4.2,0.6-7.8,1.9-11c1.2-3.2,3-5.9,5.2-8.1c2.3-2.2,5-3.8,8.2-5s6.8-1.7,10.7-1.7c4.6,0,8.5,0.6,11.8,1.8
				c3.3,1.2,6,3,8.1,5.2c2.1,2.2,3.6,4.9,4.6,8.1c1,3.2,1.5,6.7,1.5,10.6c0,4.2-0.6,7.8-1.8,11c-1.2,3.2-2.9,5.9-5.2,8
				c-2.2,2.2-5,3.8-8.2,5c-3.2,1.1-6.8,1.7-10.8,1.7c-4.4,0-8.3-0.6-11.5-1.8c-3.3-1.2-6-3-8.1-5.2c-2.2-2.2-3.7-4.9-4.8-8.1
				C477.5,122.8,476.9,119.3,476.9,115.4z M487.9,115.4c0,3,0.3,5.8,0.9,8.4c0.6,2.6,1.6,4.8,2.9,6.7c1.3,1.9,3.1,3.4,5.2,4.5
				c2.1,1.1,4.7,1.7,7.8,1.7c3.9,0,7-1.7,9.5-5.1c2.5-3.4,3.7-8.8,3.7-16.1c0-3-0.3-5.8-0.9-8.4c-0.6-2.6-1.5-4.9-2.8-6.8
				c-1.3-1.9-2.9-3.4-4.9-4.5c-2-1.1-4.4-1.6-7.3-1.6c-4.3,0-7.8,1.7-10.3,5.1C489.2,102.6,487.9,108,487.9,115.4z"/>
			<path d="M538.9,136.1c2.5-3,5.6-9.3,6.4-12c0.8-2.7,1.5-5.7,2.1-9c0.5-3.3,0.9-6.7,1.1-10.2c0.2-3.6,0.3-7,0.3-10.3l0-4.9h37.8
				v4.9h-7.3v46.5l-16.8,0v-4.9h6.5V94.6h-14.3c-0.1,6.1-0.4,11.8-1.1,16.9c-0.7,5.1-1.6,9.6-2.8,13.6c-1.2,4-2.5,7.3-4.1,10
				c-1.5,2.7-3.2,4.8-5,6.1H533v-5H538.9z"/>
			<path d="M595.2,115.7c0-4.1,0.6-7.8,1.8-11c1.2-3.2,2.9-5.9,5-8c2.2-2.2,4.8-3.8,7.9-4.9c3.1-1.1,6.5-1.7,10.3-1.7
				c4.4,0,8.1,0.6,11.3,1.8c3.2,1.2,5.7,2.9,7.7,5.2c2,2.2,3.5,4.9,4.5,8.1c1,3.2,1.5,6.7,1.5,10.6c0,4.1-0.6,7.8-1.7,11
				c-1.2,3.2-2.8,5.8-5,8c-2.2,2.2-4.8,3.8-7.9,4.9c-3.1,1.1-6.6,1.7-10.4,1.7c-4.3,0-7.9-0.6-11.1-1.8c-3.1-1.2-5.7-2.9-7.8-5.2
				c-2.1-2.2-3.6-4.9-4.6-8C595.7,123.1,595.2,119.6,595.2,115.7z M605.8,115.7c0,3,0.3,5.8,0.8,8.4c0.6,2.6,1.5,4.8,2.8,6.7
				c1.3,1.9,3,3.4,5,4.5c2,1.1,4.5,1.6,7.5,1.6c3.7,0,6.8-1.7,9.1-5.1c2.4-3.4,3.6-8.7,3.6-16.1c0-3-0.3-5.8-0.9-8.4
				c-0.6-2.6-1.5-4.9-2.7-6.8c-1.2-1.9-2.8-3.4-4.7-4.5c-1.9-1.1-4.3-1.6-7-1.6c-4.2,0-7.5,1.7-9.9,5.1
				C607,102.9,605.8,108.3,605.8,115.7z"/>
			<path d="M697,89.7V100h-6.3v-3.5l-2-2h-15.2v41.7h7.6v4.9H656v-4.9h7.3V94.6H656v-4.9H697z"/>
			<path d="M343.3,133.5c-1.7,2.3-4.1,4.2-7.2,5.5c-3.1,1.3-6.7,2-10.8,2c-4.3,0-8.1-0.6-11.4-1.8c-3.3-1.2-6.1-2.9-8.3-5.2
				c-2.2-2.2-3.9-4.9-5.1-8.1c-1.1-3.2-1.7-6.7-1.7-10.6c0-8.4,2.2-14.8,6.6-19.1c4.4-4.4,10.5-6.5,18.4-6.5c2.6,0,5.2,0.3,7.7,0.9
				c2.5,0.6,4.8,1.7,6.7,3.1c2,1.4,3.5,3.4,4.8,5.7c1.2,2.4,1.8,5.3,1.8,8.8c0,1.1-0.1,2.2-0.2,3.4c-0.1,1.2-0.3,2.4-0.6,3.8h-34.3
				c0,2.8,0.4,5.3,1.1,7.5c0.8,2.3,1.9,4.2,3.5,5.8c1.5,1.6,3.5,2.9,5.8,3.8c2.3,0.9,5,1.4,8.2,1.4c2.6,0,4.9-0.4,7.1-1.2
				c2.2-0.8,4-1.8,5.3-2.8L343.3,133.5z M323.2,94.1c-2,0-3.8,0.3-5.3,0.8c-1.5,0.6-2.9,1.5-4,2.8c-1.1,1.3-2,3.1-2.6,5.2
				c-0.7,2.2-1.1,4.8-1.3,8h23.6c0.1-0.6,0.1-1.1,0.1-1.7c0-0.6,0-1.1,0-1.6c0-4.1-0.9-7.4-2.6-9.9
				C329.5,95.3,326.8,94.1,323.2,94.1z"/>
			<polygon points="398.1,136.2 380.8,113.3 395.9,94.6 402,94.6 402,89.7 392.5,89.7 377.3,108.6 366.7,94.6 373,94.6 373,89.7 
				349.5,89.7 349.5,94.6 354.9,94.6 371.2,116 355,136.2 348.8,136.2 348.8,141.1 358.4,141.1 374.8,120.7 386.6,136.2 380,136.2 
				380,141.1 403.9,141.1 403.9,136.2 			"/>
			<path d="M703.6,89.9h17.1v44.6l25.2-44.6h9.8v46.6h7.3v4.9l-17.1-0.1V96.8l-25.2,44.5h-9.8V94.8h-7.3V89.9z"/>
			<path d="M771.4,89.7h17.1v44.6l25.2-44.6h9.8v46.6h7.3v4.9l-17.1-0.1V96.6l-25.2,44.5h-9.8V94.6h-7.3V89.7z"/>
		</g>
		<g>
			<path d="M265.1,212.6c-3.8,0-7.2-0.6-10-1.8c-2.8-1.2-5.1-2.6-7.1-4.3v-5.2h6.4v2l1.5,1.9c0.7,0.4,1.8,0.8,3.2,1.3
				c1.4,0.5,3.3,0.7,5.7,0.7c5,0,8.9-1.6,11.6-4.9c2.7-3.3,4.1-7.8,4.1-13.5h-17.8v-5.4h17.7c-0.1-3.5-0.6-6.4-1.4-8.8
				c-0.8-2.3-1.9-4.2-3.3-5.6c-1.4-1.4-3.1-2.4-5-3c-1.9-0.6-4-0.8-6.3-0.8c-2.3,0-3.9,0.1-5,0.4c-1.1,0.3-1.9,0.5-2.5,0.8l-1.7,1.9
				v9.2h-6.4v-13.8c1-0.5,2-1,3.1-1.4c1.1-0.4,2.3-0.8,3.6-1.2c1.4-0.4,2.9-0.6,4.6-0.9c1.7-0.2,3.8-0.3,6.2-0.3
				c3.6,0,6.9,0.4,10,1.3c3.1,0.9,5.7,2.3,8,4.3c2.3,2,4.1,4.6,5.4,7.9c1.3,3.3,1.9,7.2,1.9,11.9c0,4.8-0.8,8.9-2.3,12.4
				c-1.5,3.4-3.5,6.3-6,8.5c-2.5,2.2-5.3,3.8-8.5,4.9C271.7,212.1,268.4,212.6,265.1,212.6z"/>
			<path d="M353.7,159.7l0,5.1h-6.4l-15.7,18.9l18.3,23.7l3.7,0v5h-10.9l-18.6-24.8h-5.7v24.8H308v-47.5h-7.4v-5.1h17.9v23.7h5.2
				l20.4-23.7H353.7z"/>
			<path d="M404.2,204.9c-1.4,1.9-3.6,3.6-6.7,5.1c-3,1.6-6.6,2.3-10.8,2.3c-4.4,0-8.3-0.6-11.6-1.9c-3.3-1.2-6.1-3-8.3-5.3
				c-2.2-2.3-3.8-5-4.9-8.2c-1.1-3.2-1.6-6.8-1.6-10.8c0-8.5,2.4-15,7.1-19.4c4.7-4.5,11.1-6.7,19.2-6.7c3.7,0,6.7,0.2,9.1,0.7
				c2.4,0.4,4.6,1.1,6.6,2.1v12.4h-9v-9c-1-0.6-3-0.8-6-0.8c-2.5,0-4.8,0.4-6.7,1.1c-1.9,0.7-3.6,1.8-4.9,3.4
				c-1.3,1.6-2.3,3.7-3,6.4c-0.7,2.7-1,5.9-1,9.8c0,2.5,0.4,5,1.1,7.3c0.7,2.3,1.8,4.4,3.3,6.1c1.5,1.7,3.3,3.1,5.6,4.1
				c2.2,1,4.9,1.5,7.9,1.5c1.6,0,3-0.2,4.3-0.5c1.2-0.3,2.3-0.7,3.3-1c0.9-0.4,1.8-0.7,2.5-1.2c0.7-0.4,1.4-0.9,2.1-1.4L404.2,204.9
				z"/>
			<path d="M420,212.4v-52.7l52.8,0.1v5h-7.4v47.5H455v-47.5h-24.4v47.5L420,212.4z"/>
			<path d="M744.9,206.8c1.9,0,3.6-0.3,5.1-0.9c1.5-0.6,2.7-1.4,3.7-2.3c1-1,1.8-2.1,2.3-3.3c0.5-1.2,0.7-2.5,0.7-3.7
				c0-3-0.8-5.1-2.3-6.3c-1.5-1.2-3.6-2-6.3-2.4h-3.6v-5.5h4.3c0.7-0.3,1.4-0.7,2.1-1.2c0.7-0.5,1.4-1.2,2-2.1
				c0.6-0.8,1.1-1.8,1.5-2.9c0.4-1.1,0.6-2.3,0.6-3.7c0-3.2-1-5.4-2.9-6.5c-1.9-1.2-14.2-1.2-14.6-1.1l-1.9,2.1v8.4h-6.4v-13.1
				c1.5-0.8,2.2-1.8,4.7-2.6h22.2c1.6,0.4,3.1,1.2,4.4,1.9c3.3,1.9,5,4.9,5,8.8c0,1.7-0.4,3.2-1.1,4.6c-0.7,1.4-1.7,2.6-2.9,3.7
				c-1.2,1.1-2.5,2-4,2.7c-1.5,0.7-2.9,1.3-4.4,1.7c2.1,0.2,4,0.6,5.7,1.2c1.8,0.6,3.3,1.5,4.6,2.5c1.3,1.1,2.4,2.3,3.1,3.8
				c0.8,1.5,1.1,3.2,1.1,5.1c0,2.8-0.6,5.2-1.6,7.2c-1.1,2-2.6,3.7-4.6,5.1c-2,1.4-4.4,2.4-7.2,3.1c-2.8,0.7-5.9,1-9.4,1
				c-3.9,0-7.3-0.6-10.2-1.8c-3-1.2-5.4-2.7-7.3-4.4v-5.2h6.4v2l1.7,2.1c0.7,0.5,1.8,0.9,3.3,1.2
				C740.4,206.6,742.4,206.8,744.9,206.8z"/>
			<path d="M820.8,207.3l6.6,0l0,5l-17,0l0-9.3c0,0-1.5,2.6-2.4,3.8c-0.9,1.2-2,2.4-3.4,3.3c-1.4,1-2.8,1.7-4.7,2.3h-12.6
				c-1.9-0.7-3.6-1.6-5-2.7c-1.4-1.2-2.5-2.6-3.3-4.3c-0.8-1.7-1.2-3.5-1.2-5.6c0-3.2,0.7-5.9,2.1-7.9c1.4-2.1,3.4-3.7,6.1-5
				c2.7-1.2,6-2.1,10-2.6c4-0.5,9-1,14.3-1c0.1-1-0.1-1.9-0.1-2.8c0-0.9,0-1.9,0-2.8c0-4-0.7-7.1-2.1-9.2c-1.4-2.1-2.6-3.7-6.2-3.7
				c-1.3,0-7.9,0.1-9.8,1.9v8.9h-9v-10.9c2.4-1.2,5.3-2.4,8.5-3.3c3.3-1,7.1-1.5,11.6-1.5c3.8,0,6.9,0.5,9.2,1.4
				c2.3,0.9,4.1,2.2,5.3,3.7c1.2,1.5,2,3.3,2.4,5.2c0.4,1.9,0.6,3.8,0.6,5.7V207.3z M798.2,206.8c1.6,0,3-0.2,4.3-0.7
				c1.3-0.5,2.4-1.1,3.4-1.9c1-0.8,1.8-1.6,2.5-2.5c0.7-0.9,1.6-2.5,2.1-3.3v-11.3c-4.3,0-8.2,0.6-10.9,1.1
				c-2.7,0.6-4.8,1.3-6.4,2.2c-1.5,0.9-2.6,2-3.2,3.3c-0.6,1.3-0.9,2.6-0.9,4.1c0,2.9,0.8,5.2,2.4,6.7
				C793.2,206,795.4,206.8,798.2,206.8z"/>
			<path d="M527.2,204.5c-1.7,2.4-4.2,4.2-7.4,5.6c-3.2,1.4-6.9,2.1-11.1,2.1c-4.4,0-8.3-0.6-11.7-1.9c-3.4-1.2-6.2-3-8.5-5.3
				c-2.3-2.3-4-5-5.2-8.3c-1.2-3.2-1.8-6.8-1.8-10.8c0-8.6,2.2-15.1,6.7-19.5c4.5-4.4,10.7-6.7,18.8-6.7c2.7,0,5.3,0.3,7.9,1
				c2.6,0.6,4.9,1.7,6.9,3.2c2,1.5,3.6,3.4,4.9,5.9c1.2,2.4,1.9,5.4,1.9,9c0,1.1-0.1,2.2-0.2,3.5c-0.1,1.2-0.3,2.5-0.6,3.8h-35
				c0,2.8,0.4,5.4,1.2,7.7c0.8,2.3,1.9,4.3,3.5,6c1.6,1.7,3.5,3,5.9,3.9c2.3,0.9,5.1,1.4,8.3,1.4c2.6,0,5-0.4,7.3-1.2
				c2.2-0.8,4-1.8,5.4-2.9L527.2,204.5z M506.7,164.3c-2.1,0-3.9,0.3-5.5,0.9c-1.6,0.6-2.9,1.5-4.1,2.9c-1.1,1.3-2,3.1-2.7,5.3
				c-0.7,2.2-1.1,4.9-1.3,8.2h24.1c0.1-0.6,0.1-1.2,0.2-1.8c0-0.6,0-1.2,0-1.7c0-4.2-0.9-7.6-2.7-10.1
				C513.1,165.6,510.4,164.3,506.7,164.3z"/>
			<path d="M544.5,231l-0.1-66.3l-7.3,0l0-4.9l17.6,0l0,10.3h0.1c1.4-3.5,3.3-8.3,6-10.3l16.2,0c0,0,4.9-0.1,9.5,5
				c3.6,4,5.4,10.5,5.4,19.6c0,4.3-0.6,8.2-1.8,11.7c-1.2,3.5-2.9,6.4-5.2,8.8c-2.3,2.4-5,4.3-8.2,5.6c-3.2,1.3-6.7,1.9-10.7,1.9
				c-1.3,0-2.5,0-3.5-0.1c-1-0.1-2-0.2-2.8-0.3c-0.8-0.1-1.7-0.3-2.5-0.6c-0.8-0.3-1.7-0.6-2.5-0.9l0,20.4L544.5,231z M567.6,165.3
				c-3.5,0-6.3,1-8.4,3c-2.1,2-3.6,4.8-4.5,8.5l0,28.8c1.3,0.8,2.8,1.4,4.4,1.7c1.6,0.3,3.7,0.4,6.4,0.4c2.4,0,4.6-0.6,6.5-1.7
				c1.9-1.1,3.5-2.8,4.8-4.8c1.3-2.1,2.3-4.5,3-7.4c0.7-2.9,1-6,1-9.5c0-2.8-0.2-5.4-0.7-7.7c-0.5-2.3-1.2-4.3-2.2-6
				c-1-1.7-2.4-3-4.1-3.9C572.2,165.8,570.1,165.3,567.6,165.3z"/>
			<path d="M636.1,212.4h-25.3v-5h7.4v-42.5H608l-2,2l-6.4,0v-7h47.7v10.6h-6.4v-3.6l-2-2h-10.2v42.5h7.4V212.4z"/>
			<path d="M655.7,159.8h17.4v45.5l25.7-45.5h10v47.5h7.4v5l-17.4-0.1v-45.4l-25.7,45.4h-10v-47.5h-7.4V159.8z"/>
		</g>
	</g>
	<g>
		<path class="st0" d="M53.5,24.7c1.6-1,3.1-2,4.7-3c-1.3,0.8-2.7,1.7-4,2.6c-1.6,1-3.1,2.1-4.7,3.1C50.8,26.5,52.2,25.6,53.5,24.7z
			"/>
		<path class="st1" d="M198.5,191.9c-0.8,0.8-1.5,1.5-2.3,2.3c-0.2,0.2-0.5,0.5-0.7,0.7c-0.5,0.5-1.1,1.1-1.6,1.6
			c-5.3,5.2-11.1,9.8-17.5,13.7c-25,15.4-57,19.1-86,11.1c-2.3-0.7-4.7-1.4-6.9-2.2c-30.8-10.6-56.2-34.6-68.3-62.4
			c-11.7-26.4-11.5-54.5-3.5-77.9c7.3-21.5,21.5-40,37.9-51.4c1.6-1.1,3.1-2.1,4.7-3.1C37.8,35.3,23.5,53.3,16,74.5
			c-8.2,23.2-8.6,51.3,3.2,77.9c12.2,28.2,38.1,52.5,69.5,63c2.3,0.8,4.7,1.5,7,2.2c29.2,7.9,61.1,3.8,85.7-11.8
			C187.7,201.8,193.4,197.1,198.5,191.9z"/>
		<path class="st0" d="M216.1,128.4c2.2-24-6.1-49.7-21.1-67.6C183.4,47,167.8,37,152,32c-4.6-1.4-9.2-2.5-13.8-3.2
			c-20.9-3.1-41.3,1.8-55.4,11.5c-3,2.1-5.7,4.3-8.2,6.6c2.2-2,4.6-3.8,7.1-5.6c14-9.7,34.5-14.6,55.4-11.5
			c4.6,0.7,9.2,1.7,13.8,3.2c15.8,5,31.4,15.1,43,28.8c15,17.9,23.3,43.6,21.1,67.6c-1.8,20.8-11.7,41.2-27.1,55.7
			C204,170.5,214.3,149.6,216.1,128.4z"/>
		<path class="st0" d="M97.7,191.4c-7-2-14.2-5.1-21.2-9.4c-4-3.1-26.8-14.9-39.5-48.4c-5.7-15.4-7.8-34.6-2.5-54.5
			c4-14.4,12.6-29.1,25.5-40.6C46.5,50.2,37.6,65.3,33.5,80.1c-5.4,19.8-3.3,39.1,2.5,54.5c12.7,33.4,35.5,45.3,39.5,48.4
			c7,4.4,14.2,7.4,21.2,9.4c12.6,3.6,24.6,3.7,33.4,1.8c8.7-1.8,14.6-4.9,17.6-7.8c-3.2,2.6-8.7,5.2-16.5,6.8
			C122.3,195.1,110.3,195,97.7,191.4z"/>
		<path class="st0" d="M96.8,216.6c-2.4-0.6-4.7-1.4-7-2.1c-31.4-10.5-57.2-34.8-69.5-63C8.5,124.8,8.9,96.7,17.1,73.5
			C23,56.6,33.3,41.8,45.5,31C32.9,41.9,22.1,57.1,16,74.5c-8.2,23.2-8.6,51.3,3.2,77.9c12.2,28.2,38.1,52.5,69.5,63
			c2.3,0.8,4.7,1.5,7,2.2c29.2,7.9,61.1,3.8,85.7-11.8c4.7-2.9,9.1-6.4,13.2-10.1c-3.8,3.4-7.8,6.5-12.1,9.2
			C157.9,220.4,126,224.4,96.8,216.6z"/>
		<path class="st2" d="M58.1,25.2c-3,2.1-5.9,4.5-8.8,7c2.5-2.2,5-4.2,7.7-6.1C85.5,5.6,122.5,3.9,146,9.5c4.1,0.9,7.8,2,11.3,3.2
			c17.1,5.6,27.9,13.2,32.3,16.1c-4.5-3.3-16.5-12.1-36-18.1c-2.4-0.8-4.9-1.5-7.5-2.1c-2.4-0.6-4.9-1.1-7.6-1.6
			C115.1,3.6,83.3,7,58.1,25.2z"/>
		<path class="st0" d="M225.6,133.6c2.8-26.8-6-56.1-23.3-77.1c-13.6-16.6-32.4-28.7-51.5-34.6c-4.7-1.5-9.4-2.6-14.1-3.3
			c-24.3-4-49.2,1.4-66.9,12.8c-3.5,2.2-6.7,4.7-9.8,7.3C47.1,50.1,38.6,64.7,34.6,79.1c-5.4,19.8-3.3,39.1,2.5,54.5
			C49.7,167,72.5,178.9,76.5,182c6.9,4.4,14.1,7.4,21.2,9.4c12.6,3.6,24.6,3.7,33.4,1.9c7.8-1.6,13.3-4.2,16.5-6.8
			c1.7-1.6,2.4-3.2,2.1-4.4c-0.5-2.1-3.3-3.4-7.5-4.5c-2.8-0.7-6.2-1.4-10.1-2.2c-3.9-0.8-8.4-1.8-13.1-3.1c-9.3-2.6-19.8-6.4-30-13
			c-2.9-2.4-20.3-10.7-30.9-35.5c-9.3-19.7-8.3-54.5,16.7-76.9c2.5-2.3,5.2-4.5,8.2-6.6c14.1-9.7,34.5-14.6,55.4-11.5
			c4.6,0.7,9.2,1.7,13.8,3.2c15.8,5.1,31.4,15.1,43,28.8c15,17.9,23.3,43.6,21.1,67.6c-1.8,21.2-12.1,42.1-28.2,56.7
			c-3.6,3.4-7.5,6.4-11.6,9.1c-22.5,14.7-52.8,18.7-80.4,11.1c-1.3-0.4-2.6-0.7-3.8-1.1c-28.9-9.1-53.3-30.6-65.4-56.5
			c-11.7-24.4-12.2-50.8-5-72.9C27.1,57.9,37.2,43,49.3,32.2c2.8-2.6,5.7-4.9,8.8-7C83.3,7,115.1,3.6,138.4,6.9
			c-23.6-3.9-57-1.3-84.2,17.4c-3,2-5.9,4.2-8.7,6.7C33.3,41.8,23,56.6,17.1,73.5c-8.2,23.2-8.6,51.3,3.2,77.9
			c12.2,28.2,38.1,52.4,69.5,63c2.3,0.8,4.7,1.5,7,2.1c29.2,7.9,61.1,3.8,85.8-11.8c4.3-2.7,8.3-5.8,12.1-9.2
			C211.9,179.6,223.3,156.9,225.6,133.6z"/>
		<g>
			<path class="st3" d="M225.6,133.6c2.8-26.8-6-56.1-23.3-77.1c-13.6-16.6-32.4-28.7-51.5-34.6c-4.7-1.5-9.4-2.6-14.1-3.3
				c-24.3-4-49.2,1.4-66.9,12.8c-3.5,2.2-6.7,4.7-9.8,7.3C47.1,50.1,38.6,64.7,34.6,79.1c-5.4,19.8-3.3,39.1,2.5,54.5
				C49.7,167,72.5,178.9,76.5,182c6.9,4.4,14.1,7.4,21.2,9.4c12.6,3.6,24.6,3.7,33.4,1.9c7.8-1.6,13.3-4.2,16.5-6.8
				c1.7-1.6,2.4-3.2,2.1-4.4c-0.5-2.1-3.3-3.4-7.5-4.5c-2.8-0.7-6.2-1.4-10.1-2.2c-3.9-0.8-8.4-1.8-13.1-3.1
				c-9.3-2.6-19.8-6.4-30-13c-2.9-2.4-20.3-10.7-30.9-35.5c-9.3-19.7-8.3-54.5,16.7-76.9c2.5-2.3,5.2-4.5,8.2-6.6
				c14.1-9.7,34.5-14.6,55.4-11.5c4.6,0.7,9.2,1.7,13.8,3.2c15.8,5.1,31.4,15.1,43,28.8c15,17.9,23.3,43.6,21.1,67.6
				c-1.8,21.2-12.1,42.1-28.2,56.7c-3.6,3.4-7.5,6.4-11.6,9.1c-22.5,14.7-52.8,18.7-80.4,11.1c-1.3-0.4-2.6-0.7-3.8-1.1
				c-28.9-9.1-53.3-30.6-65.4-56.5c-11.7-24.4-12.2-50.8-5-72.9C27.1,57.9,37.2,43,49.3,32.2c2.8-2.6,5.7-4.9,8.8-7
				C83.3,7,115.1,3.6,138.4,6.9c-23.6-3.9-57-1.3-84.2,17.4c-3,2-5.9,4.2-8.7,6.7C33.3,41.8,23,56.6,17.1,73.5
				c-8.2,23.2-8.6,51.3,3.2,77.9c12.2,28.2,38.1,52.4,69.5,63c2.3,0.8,4.7,1.5,7,2.1c29.2,7.9,61.1,3.8,85.8-11.8
				c4.3-2.7,8.3-5.8,12.1-9.2C211.9,179.6,223.3,156.9,225.6,133.6z"/>
		</g>
	</g>
	<g>
		<path class="st4" d="M250.5,285.5c0-2.9,0.7-5.5,2-7.9c1.3-2.4,3.1-4.2,5.4-5.6c2.3-1.4,4.9-2,7.8-2c2.1,0,4.1,0.4,6,1.2
			c1.9,0.8,3.5,1.8,4.8,3.2c1.3,1.4,2.4,3,3.2,4.9c0.8,1.9,1.2,4,1.2,6.2c0,2.2-0.4,4.3-1.2,6.2c-0.8,1.9-1.8,3.6-3.2,4.9
			c-1.3,1.4-3,2.4-4.8,3.2c-1.9,0.8-3.9,1.2-6,1.2c-2.1,0-4.1-0.4-6-1.2c-1.9-0.8-3.5-1.8-4.8-3.2c-1.3-1.4-2.4-3-3.2-4.9
			C250.9,289.8,250.5,287.8,250.5,285.5z M253,285.5c0,2.5,0.6,4.7,1.7,6.8c1.1,2,2.6,3.6,4.6,4.8c1.9,1.2,4.1,1.7,6.4,1.7
			c2.4,0,4.6-0.6,6.6-1.7c1.9-1.2,3.5-2.8,4.5-4.8c1.1-2,1.6-4.3,1.6-6.8c0-2.5-0.6-4.8-1.7-6.8c-1.1-2-2.6-3.6-4.6-4.8
			c-1.9-1.1-4.1-1.7-6.4-1.7c-1.8,0-3.4,0.3-5,1c-1.6,0.7-2.9,1.6-4,2.8s-2,2.6-2.7,4.2C253.3,281.9,253,283.7,253,285.5z"/>
		<path class="st4" d="M288,300.7v-30.3h16.7v2.3h-14.3v10.3c1.8-0.2,3.5-0.3,5.1-0.3c3.5,0,6.2,0.8,8.1,2.3
			c1.9,1.6,2.8,3.7,2.8,6.4c0,3.1-1,5.4-3.1,7c-2,1.6-4.9,2.4-8.5,2.4c-1,0-2.2,0-3.7-0.1C289.6,300.7,288.5,300.7,288,300.7z
			 M290.4,298.5c2.9,0.1,4.5,0.1,4.8,0.1c2.9,0,5.1-0.6,6.6-1.8c1.5-1.2,2.3-3,2.3-5.2c0-2.1-0.7-3.7-2.2-4.9
			c-1.5-1.2-3.6-1.8-6.4-1.8c-1.7,0-3.4,0.1-5,0.3V298.5z"/>
		<path class="st4" d="M314.4,300.7v-30.3c0.6,0,1.8,0,3.7,0c1.9,0,3.1,0,3.7,0c1.6,0,3.1,0.2,4.3,0.5c1.3,0.4,2.3,0.8,3.1,1.4
			c0.8,0.6,1.4,1.3,2,2.1c0.5,0.8,0.9,1.6,1.1,2.5c0.2,0.8,0.3,1.7,0.3,2.7c0,1.2-0.2,2.4-0.6,3.4c-0.4,1.1-1.1,2.1-1.9,2.9
			c-0.8,0.9-2,1.6-3.4,2.1c-1.4,0.5-3,0.8-4.8,0.8c-1.8,0-3.5-0.1-5-0.2v12.2H314.4z M316.8,286.2c1.9,0.1,3.5,0.2,4.9,0.2
			c2.7,0,4.7-0.6,6.2-1.9c1.5-1.3,2.2-3,2.2-5.1c0-2.1-0.7-3.7-2-5c-1.3-1.2-3.3-1.9-6.1-1.9c-1.6,0-3.3,0-5.2,0.1V286.2z"/>
		<path class="st4" d="M333.1,300.7l13.2-30.6h1.9l13.2,30.6h-2.5l-4.4-10.3h-14.5l-4.4,10.3H333.1z M340.9,288.1h12.6l-6.3-14.7
			L340.9,288.1z"/>
		<path class="st4" d="M364.2,296.6l1.4-1.6c1,1.2,2.2,2.1,3.8,2.8s3,1,4.3,1c2.4,0,4.3-0.6,5.7-1.8c1.4-1.2,2.2-2.9,2.2-5
			c0-1.7-0.6-3.1-1.7-4.1c-1.2-1-2.7-1.5-4.7-1.5h-3.8v-2.2h3.5c1.4,0,2.7-0.6,3.8-1.8c1.1-1.2,1.7-2.6,1.7-4.3
			c0-1.9-0.6-3.3-1.8-4.3c-1.2-1-2.7-1.5-4.6-1.5c-1.6,0-3,0.3-4.2,0.9c-1.2,0.6-2.3,1.4-3.3,2.6l-1.4-1.5c1-1.3,2.3-2.3,3.9-3.1
			c1.6-0.7,3.3-1.1,5.2-1.1c2.6,0,4.7,0.7,6.3,2.1c1.6,1.4,2.3,3.3,2.3,5.8c0,1.4-0.4,2.8-1.2,4.2c-0.8,1.3-1.9,2.3-3.4,3v0.1
			c1.8,0.3,3.2,1.1,4.2,2.4c1,1.3,1.5,2.9,1.5,4.7c0,2.7-1,4.9-2.9,6.5c-1.9,1.6-4.3,2.4-7.2,2.4c-2,0-3.8-0.4-5.6-1.3
			C366.4,298.9,365.1,297.9,364.2,296.6z"/>
		<path class="st4" d="M389.5,285.5c0-2.9,0.7-5.5,2-7.9c1.3-2.4,3.1-4.2,5.4-5.6c2.3-1.4,4.9-2,7.8-2c2.1,0,4.1,0.4,6,1.2
			c1.9,0.8,3.5,1.8,4.8,3.2c1.3,1.4,2.4,3,3.2,4.9c0.8,1.9,1.2,4,1.2,6.2c0,2.2-0.4,4.3-1.2,6.2c-0.8,1.9-1.8,3.6-3.2,4.9
			c-1.3,1.4-3,2.4-4.8,3.2c-1.9,0.8-3.9,1.2-6,1.2c-2.1,0-4.1-0.4-6-1.2c-1.9-0.8-3.5-1.8-4.8-3.2c-1.3-1.4-2.4-3-3.2-4.9
			C389.9,289.8,389.5,287.8,389.5,285.5z M392,285.5c0,2.5,0.6,4.7,1.7,6.8c1.1,2,2.6,3.6,4.6,4.8c1.9,1.2,4.1,1.7,6.4,1.7
			c2.4,0,4.6-0.6,6.6-1.7c1.9-1.2,3.5-2.8,4.5-4.8c1.1-2,1.6-4.3,1.6-6.8c0-2.5-0.6-4.8-1.7-6.8c-1.1-2-2.6-3.6-4.6-4.8
			c-1.9-1.1-4.1-1.7-6.4-1.7c-1.8,0-3.4,0.3-5,1c-1.6,0.7-2.9,1.6-4,2.8c-1.1,1.2-2,2.6-2.7,4.2C392.3,281.9,392,283.7,392,285.5z"
			/>
		<path class="st4" d="M427,300.7v-30.2c4.5-0.1,7.2-0.2,8-0.2c1.7,0,3.3,0.2,4.5,0.6c1.3,0.4,2.3,0.9,3,1.6
			c0.7,0.7,1.2,1.5,1.6,2.4c0.3,0.9,0.5,1.9,0.5,3c0,1.9-0.6,3.5-1.7,4.7c-1.1,1.2-2.5,2-4.2,2.4v0.1c2.2,0.3,4,1,5.2,2.3
			c1.2,1.2,1.9,2.9,1.9,5c0,1.5-0.3,2.8-0.8,3.9c-0.5,1.1-1.3,2-2.3,2.7c-1,0.7-2.1,1.2-3.4,1.5c-1.3,0.3-2.7,0.5-4.3,0.5
			C432,300.8,429.3,300.8,427,300.7z M429.4,284.2h5.9c1.9,0,3.6-0.5,4.9-1.6c1.3-1.1,2-2.5,2-4.3c0-3.8-2.4-5.7-7.3-5.7
			c-1.3,0-3.1,0-5.5,0.1V284.2z M429.4,298.4c3.6,0.1,5.5,0.2,5.6,0.2c2.6,0,4.7-0.5,6.1-1.6c1.4-1.1,2.2-2.7,2.2-4.9
			c0-1.9-0.7-3.3-2.1-4.3c-1.4-1-3.4-1.5-6.1-1.5h-5.7V298.4z"/>
		<path class="st4" d="M449.8,300.7l13.2-30.6h1.9l13.2,30.6h-2.5l-4.4-10.3h-14.5l-4.4,10.3H449.8z M457.6,288.1h12.6l-6.3-14.7
			L457.6,288.1z"/>
		<path class="st4" d="M476.2,272.6v-2.3H501v2.3h-11.2v28.1h-2.4v-28.1H476.2z"/>
		<path class="st4" d="M506.3,300.7v-30.3H523v2.3h-14.4v11.6h13.1v2.2h-13.1v12h14.8v2.2H506.3z"/>
		<path class="st4" d="M527.5,300.7l0-2.4c0.3,0,0.5,0,0.8,0c0.2,0,0.5-0.1,0.8-0.3c0.3-0.2,0.6-0.4,0.9-0.7c0.3-0.3,0.6-0.7,1-1.2
			c0.4-0.5,0.7-1.2,1-1.9c0.3-0.7,0.6-1.7,0.8-2.8c0.3-1.1,0.5-2.4,0.9-3.8c0.3-1.4,0.6-3,0.8-4.9c0.2-1.9,0.4-4,0.6-6.2l0.4-6.1
			h17.4v30.3h-2.4v-28.1h-12.9l-0.5,5.7c-0.2,2.9-0.5,5.4-1,7.7c-0.4,2.3-0.8,4.2-1.1,5.8c-0.3,1.6-0.7,2.9-1.2,4.1
			c-0.5,1.1-1,2-1.4,2.7c-0.5,0.6-1,1.1-1.6,1.5c-0.6,0.4-1.1,0.6-1.6,0.7C528.7,300.7,528.1,300.8,527.5,300.7z"/>
		<path class="st4" d="M562.5,300.7v-30.3h2.4v12c2.3-0.2,3.9-0.2,4.9-0.2c3.8,0,6.7,0.8,8.6,2.4c1.9,1.6,2.8,3.8,2.8,6.6
			c0,3.1-1,5.5-3.1,7.2c-2.1,1.7-5,2.5-8.8,2.5c-0.9,0-2.1,0-3.6,0C564,300.7,563,300.7,562.5,300.7z M564.9,298.4
			c0.3,0,0.7,0,1.3,0.1c0.6,0,1.2,0.1,1.7,0.1c0.5,0,1.1,0,1.6,0c2.9,0,5.2-0.6,6.8-1.9c1.6-1.2,2.4-3.1,2.4-5.5
			c0-2.2-0.8-3.9-2.3-5c-1.5-1.2-3.8-1.8-6.7-1.8c-1.7,0-3.3,0.1-4.8,0.3V298.4z"/>
		<path class="st4" d="M588.3,300.7v-30.3h2.4v13.7h18.9v-13.7h2.4v30.3h-2.4v-14.3h-18.9v14.3H588.3z"/>
		<path class="st4" d="M621.5,300.7v-30.3h2.4v12c2.3-0.2,3.8-0.2,4.6-0.2c3.7,0,6.5,0.8,8.4,2.4c1.9,1.6,2.8,3.8,2.8,6.6
			c0,3.1-1,5.5-3.1,7.2c-2.1,1.7-5,2.5-8.7,2.5c-0.9,0-2,0-3.4,0C623.1,300.7,622.1,300.7,621.5,300.7z M623.9,298.4
			c0.1,0,0.7,0,1.7,0.1c1,0,1.9,0.1,2.6,0.1c2.9,0,5.2-0.6,6.7-1.9c1.6-1.3,2.3-3.1,2.3-5.5c0-2.2-0.8-3.9-2.3-5
			c-1.5-1.2-3.7-1.8-6.6-1.8c-1.5,0-3,0.1-4.5,0.3V298.4z M645.4,300.7v-30.3h2.4v30.3H645.4z"/>
		<path class="st4" d="M657.4,300.7v-30.3h2.4v26.4l20.4-26.4h2.1v30.3h-2.4v-26.4l-20.4,26.4H657.4z M662.3,263.8h2.2
			c0.5,0.9,1.2,1.7,2.1,2.3c0.9,0.6,2,0.8,3.3,0.8c1.3,0,2.4-0.3,3.3-0.8c1-0.6,1.6-1.3,1.9-2.3h2.3c-0.3,1.4-1.1,2.6-2.6,3.5
			c-1.4,0.9-3.1,1.3-4.9,1.3c-2,0-3.6-0.4-5-1.3C663.6,266.4,662.7,265.2,662.3,263.8z"/>
		<path class="st4" d="M702.1,300.7v-30.3h2.4v28.1H723v-28.1h2.4v28.1h4.1v8h-2.3v-5.8H702.1z"/>
		<path class="st4" d="M735.8,300.7v-30.3h16.8v2.3h-14.4v11.6h13.1v2.2h-13.1v12H753v2.2H735.8z"/>
		<path class="st4" d="M760.7,300.7v-30.3h2.4v13.7H782v-13.7h2.4v30.3H782v-14.3h-18.9v14.3H760.7z"/>
		<path class="st4" d="M789.6,272.6v-2.3h24.8v2.3h-11.2v28.1h-2.4v-28.1H789.6z"/>
		<path class="st4" d="M819.6,300.7v-30.3c0.6,0,1.8,0,3.7,0c1.9,0,3.1,0,3.7,0c1.6,0,3.1,0.2,4.3,0.5c1.3,0.4,2.3,0.8,3.1,1.4
			c0.8,0.6,1.4,1.3,2,2.1c0.5,0.8,0.9,1.6,1.1,2.5c0.2,0.8,0.3,1.7,0.3,2.7c0,1.2-0.2,2.4-0.6,3.4c-0.4,1.1-1.1,2.1-1.9,2.9
			c-0.8,0.9-2,1.6-3.4,2.1c-1.4,0.5-3,0.8-4.8,0.8c-1.8,0-3.5-0.1-5-0.2v12.2H819.6z M822,286.2c1.9,0.1,3.5,0.2,4.9,0.2
			c2.7,0,4.7-0.6,6.2-1.9c1.5-1.3,2.2-3,2.2-5.1c0-2.1-0.7-3.7-2-5c-1.3-1.2-3.3-1.9-6.1-1.9c-1.6,0-3.3,0-5.2,0.1V286.2z"/>
	</g>
</g>
</svg>
