<?xml version="1.0" encoding="utf-8"?>
<!-- Generator: Adobe Illustrator 19.2.1, SVG Export Plug-In . SVG Version: 6.00 Build 0)  -->
<svg version="1.1" id="Layer_1" xmlns="http://www.w3.org/2000/svg" xmlns:xlink="http://www.w3.org/1999/xlink" x="0px" y="0px"
	 viewBox="0 0 64 64" style="enable-background:new 0 0 64 64;" xml:space="preserve">
<style type="text/css">
	.st0{clip-path:url(#SVGID_2_);fill:#FFFFFF;}
	.st1{opacity:0.2;clip-path:url(#SVGID_2_);}
</style>
<g>
	<defs>
		<path id="SVGID_1_" d="M7.8,57c-1.4,0-2.7-0.8-3.5-2c-0.7-1.2-0.7-2.8,0-4L28.5,9c0.7-1.2,2-2,3.5-2l0,0c1.4,0,2.8,0.8,3.5,2
			l24.2,42c0.7,1.2,0.7,2.8,0,4c-0.7,1.2-2,2-3.5,2H7.8z"/>
	</defs>
	<use xlink:href="#SVGID_1_"  style="overflow:visible;fill:#F7D11A;"/>
	<clipPath id="SVGID_2_">
		<use xlink:href="#SVGID_1_"  style="overflow:visible;"/>
	</clipPath>
	<path class="st0" d="M34,39h-4l-2-17h8L34,39z M32,41c-2.5,0-4.5,2-4.5,4.5s2,4.5,4.5,4.5s4.5-2,4.5-4.5S34.5,41,32,41z"/>
	<rect x="32" y="5" class="st1" width="30" height="53"/>
</g>
</svg>
