<?xml version="1.0" encoding="utf-8"?>
<!-- Generator: Adobe Illustrator 20.0.0, SVG Export Plug-In . SVG Version: 6.00 Build 0)  -->
<svg version="1.1" id="Layer_1" xmlns="http://www.w3.org/2000/svg" xmlns:xlink="http://www.w3.org/1999/xlink" x="0px" y="0px"
	 viewBox="0 0 960 560" style="enable-background:new 0 0 960 560;" xml:space="preserve">
<style type="text/css">
	.st0{clip-path:url(#SVGID_2_);fill:#3C9242;}
	.st1{clip-path:url(#SVGID_2_);fill:#EDC226;}
	.st2{clip-path:url(#SVGID_2_);}
	.st3{clip-path:url(#SVGID_4_);fill:#2D146E;}
	.st4{clip-path:url(#SVGID_4_);fill:#FFFFFF;}
	.st5{clip-path:url(#SVGID_4_);fill-rule:evenodd;clip-rule:evenodd;fill:#3C9242;}
	.st6{clip-path:url(#SVGID_4_);fill:#3C9242;}
</style>
<g>
	<g>
		<defs>
			<rect id="SVGID_1_" y="0.1" width="960" height="559.9"/>
		</defs>
		<clipPath id="SVGID_2_">
			<use xlink:href="#SVGID_1_"  style="overflow:visible;"/>
		</clipPath>
		<rect y="0.1" class="st0" width="960" height="559.9"/>
		<polygon class="st1" points="148,280 480,492 812,280 480,68.1 		"/>
		<g class="st2">
			<defs>
				<rect id="SVGID_3_" y="0.1" width="960" height="559.9"/>
			</defs>
			<clipPath id="SVGID_4_">
				<use xlink:href="#SVGID_3_"  style="overflow:visible;"/>
			</clipPath>
			<path class="st3" d="M620,280c0,77.3-62.7,140-140,140c-77.3,0-140-62.7-140-140c0-77.2,62.7-140,140-140
				C557.3,140.1,620,202.8,620,280"/>
			<path class="st4" d="M400,220.1c-16.3,0-32.4,1.2-48.1,3.4c-3,6.9-5.5,14-7.5,21.4c18.1-3.1,36.6-4.8,55.6-4.8
				c82.1,0,157,30.9,213.6,81.8c2.2-7.1,3.9-14.6,5-22.1C559.5,250,483.3,220.1,400,220.1"/>
			<path class="st5" d="M360.6,239.1c3.3-0.4,5.6-3.7,5.2-7.3c-0.4-3.6-3.5-6.3-6.8-5.9c-3.3,0.4-5.6,3.7-5.2,7.3
				C354.3,236.9,357.3,239.5,360.6,239.1 M360.3,236.7c1.9-0.2,3.3-2.3,3-4.6c-0.3-2.3-2.1-4-4-3.7c-1.9,0.2-3.3,2.3-3,4.6
				C356.6,235.2,358.4,236.9,360.3,236.7"/>
			<path class="st5" d="M371.5,237.9l2.5-0.2l-0.3-4.9l5.3-0.4c2.3-0.2,4.1-2.2,3.9-4.5c-0.2-2.3-2.2-4-4.5-3.9l-7.6,0.5
				L371.5,237.9z M373.4,230.3l5.1-0.4c0.9,0,1.6-0.9,1.6-1.8c-0.1-1-0.9-1.7-1.8-1.6l-5.1,0.3L373.4,230.3z"/>
			<path class="st6" d="M382.8,237.1c-0.1-1.9-0.4-6.1-3.2-5.9l-3.6,0.3c4.2-0.3,4.5,3.9,4.6,5.8"/>
			<path class="st5" d="M388.4,236.9l6.3-0.1c3.2,0,5.7-2.6,5.6-5.8l0-1.9c-0.1-3.1-2.6-5.7-5.8-5.6l-6.3,0.1L388.4,236.9z
				 M390.8,234.4l3.6-0.1c2,0,3.6-1.7,3.5-3.7v-1.1c0-2-1.7-3.6-3.7-3.5l-3.6,0L390.8,234.4z"/>
			<polygon class="st6" points="405.3,236.7 417.3,237.1 417.4,234.6 407.7,234.3 407.8,230.9 415.4,231.1 415.5,228.9 407.9,228.6 
				408,225.9 417.1,226.3 417.2,223.8 405.8,223.4 			"/>
			<polygon class="st6" points="422.2,237.4 424.5,237.6 425.3,228.5 427.1,237.8 429.2,238 432.7,229.2 431.9,238.3 434.2,238.5 
				435.3,225.2 432,224.9 428.5,233.8 426.7,224.4 423.4,224.1 			"/>
			<polygon class="st6" points="449.8,240.5 459.7,242.2 460.1,240 452.5,238.7 453,235.7 459.2,236.7 459.6,234.5 453.4,233.4 
				453.7,231.3 461.1,232.6 461.5,230.4 451.8,228.7 			"/>
			<path class="st5" d="M475.1,245.5l2.4,0.6l1.2-4.8l5.2,1.3c2.2,0.6,4.6-0.8,5.1-3c0.6-2.2-0.8-4.5-3-5.1l-7.4-1.9L475.1,245.5z
				 M479.4,238.9l5,1.3c0.9,0.2,1.8-0.3,2.1-1.2c0.2-0.9-0.3-1.8-1.2-2.1l-5-1.3L479.4,238.9z"/>
			<path class="st5" d="M491.5,249.8l2.4,0.8l1.5-4.7l5.1,1.6c2.2,0.7,4.6-0.5,5.3-2.7c0.7-2.2-0.5-4.5-2.7-5.3l-7.3-2.3
				L491.5,249.8z M496.1,243.5l4.9,1.5c0.9,0.3,1.9-0.2,2.2-1.1c0.3-0.9-0.2-1.9-1.1-2.2l-4.9-1.5L496.1,243.5z"/>
			<path class="st6" d="M502.3,253.3c0.6-1.8,1.8-5.8-0.9-6.7l-3.5-1.1c4,1.3,2.7,5.2,2.1,7.1"/>
			<path class="st5" d="M513.2,257.2c3.1,1.2,6.7-0.7,8-4.1c1.3-3.4-0.2-7.2-3.3-8.4c-3.1-1.2-6.7,0.7-8,4.1
				C508.7,252.3,510.1,256,513.2,257.2 M514.1,254.9c1.8,0.7,3.9-0.5,4.8-2.7c0.8-2.2,0-4.5-1.8-5.2c-1.8-0.7-4,0.5-4.8,2.7
				C511.4,251.9,512.3,254.2,514.1,254.9"/>
			<path class="st5" d="M528.9,263.5c3,1.3,6.7-0.4,8.2-3.7c1.5-3.4,0.2-7.2-2.8-8.5c-3-1.3-6.7,0.3-8.2,3.7
				C524.6,258.4,525.9,262.2,528.9,263.5 M529.9,261.3c1.8,0.8,4-0.3,4.9-2.4c0.9-2.1,0.2-4.5-1.6-5.3c-1.8-0.8-4,0.3-4.9,2.4
				C527.4,258.1,528.1,260.5,529.9,261.3"/>
			<polygon class="st6" points="532.5,257.8 537.1,259.8 536.3,261.5 531.7,259.5 			"/>
			<polygon class="st6" points="535.3,259 537.1,259.8 534.4,265.9 532.7,265.2 			"/>
			<path class="st5" d="M538.9,268l2.2,1.1l2.2-4.4l4.8,2.4c2.1,1.1,4.6,0.2,5.6-1.9c1-2.1,0.2-4.6-1.9-5.6l-6.8-3.4L538.9,268z
				 M544.4,262.5l4.6,2.3c0.8,0.4,1.9,0.1,2.3-0.8c0.4-0.9,0.1-1.9-0.8-2.3l-4.6-2.3L544.4,262.5z"/>
			<path class="st6" d="M549,273c0.8-1.7,2.7-5.4,0.2-6.7l-3.2-1.6c3.7,1.9,1.9,5.6,1,7.3"/>
			<polygon class="st6" points="554,275.7 564.4,281.6 565.7,279.4 557.2,274.6 558.9,271.7 565.5,275.4 566.7,273.4 560,269.7 
				561.3,267.3 569.3,271.9 570.5,269.7 560.6,264.1 			"/>
			<path class="st6" d="M573.4,282.2c-0.7,1.1,0,2.4,1.6,3.4c1.6,1,2.7,1,3.2,0.3c1.5-2.3-7-5.6-4.4-9.6c2.2-3.4,6.1-0.8,7.5,0.2
				c1.4,0.9,3.8,3.3,2,6l-2.4-1.6c0.8-1.2-0.1-2.4-1.4-3.1c-1.2-0.8-2.2-1.2-3,0c-1.2,1.9,7,5.4,4.5,9.4c-1.8,2.9-5.1,1.6-7.3,0.3
				c-1.9-1.2-4.6-4-2.8-6.8L573.4,282.2z"/>
			<path class="st6" d="M587.8,291.6c-0.8,1.1-0.1,2.4,1.4,3.5c1.5,1.1,2.6,1.1,3.2,0.4c1.6-2.2-6.7-6-3.9-9.8
				c2.4-3.3,6.1-0.5,7.5,0.5c1.4,1,3.6,3.5,1.6,6.1l-2.4-1.7c0.8-1.1,0.1-2.3-1.2-3.2c-1.2-0.9-2.2-1.3-3-0.1
				c-1.3,1.8,6.7,5.7,4,9.5c-2,2.8-5.2,1.4-7.3-0.1c-1.8-1.3-4.4-4.2-2.5-6.9L587.8,291.6z"/>
			<path class="st5" d="M601.3,307c2.6,2.1,6.5,1.4,8.8-1.5c2.3-2.9,2-6.9-0.5-8.9c-2.6-2.1-6.6-1.4-8.9,1.5
				C598.4,300.9,598.7,304.9,601.3,307 M602.8,305c1.5,1.2,3.9,0.7,5.3-1.1c1.5-1.8,1.4-4.3-0.2-5.5c-1.5-1.2-3.9-0.7-5.3,1.1
				C601.2,301.4,601.3,303.8,602.8,305"/>
			<polygon class="st4" points="365.7,248.9 363.9,254.6 366.7,255.5 			"/>
			<polygon class="st4" points="365.7,248.9 367.6,254.6 364.7,255.5 			"/>
			<polygon class="st4" points="371.4,253 365.4,253 365.4,256 			"/>
			<polygon class="st4" points="371.4,253 366.6,256.6 364.8,254.2 			"/>
			<polygon class="st4" points="360,253 364.9,256.6 366.6,254.2 			"/>
			<polygon class="st4" points="360,253 366,253 366,256 			"/>
			<polygon class="st4" points="369.2,259.8 367.4,254 364.5,255 			"/>
			<polygon class="st4" points="369.2,259.8 364.4,256.2 366.1,253.8 			"/>
			<polygon class="st4" points="362.2,259.8 367.1,256.2 365.3,253.8 			"/>
			<polygon class="st4" points="362.2,259.8 364,254 366.9,255 			"/>
			<polygon class="st4" points="378.1,307.8 376.2,313.4 379.1,314.4 			"/>
			<polygon class="st4" points="378.1,307.8 379.9,313.4 377.1,314.4 			"/>
			<polygon class="st4" points="383.8,311.9 377.8,311.9 377.8,314.9 			"/>
			<polygon class="st4" points="383.8,311.9 378.9,315.4 377.2,313 			"/>
			<polygon class="st4" points="372.4,311.9 377.2,315.4 379,313 			"/>
			<polygon class="st4" points="372.4,311.9 378.4,311.9 378.4,314.9 			"/>
			<polygon class="st4" points="381.6,318.6 379.8,312.9 376.9,313.8 			"/>
			<polygon class="st4" points="381.6,318.6 376.8,315.1 378.5,312.7 			"/>
			<polygon class="st4" points="374.6,318.6 379.4,315.1 377.7,312.7 			"/>
			<polygon class="st4" points="374.6,318.6 376.4,312.9 379.3,313.8 			"/>
			<polygon class="st4" points="361,322.3 359.7,326.1 361.6,326.7 			"/>
			<polygon class="st4" points="361,322.3 362.2,326.1 360.3,326.7 			"/>
			<polygon class="st4" points="364.8,325.1 360.8,325.1 360.8,327.1 			"/>
			<polygon class="st4" points="364.8,325.1 361.5,327.4 360.3,325.8 			"/>
			<polygon class="st4" points="357.2,325.1 360.4,327.4 361.5,325.8 			"/>
			<polygon class="st4" points="357.2,325.1 361.1,325.1 361.1,327.1 			"/>
			<polygon class="st4" points="363.3,329.5 362.1,325.8 360.2,326.4 			"/>
			<polygon class="st4" points="363.3,329.5 360.1,327.2 361.3,325.6 			"/>
			<polygon class="st4" points="358.6,329.5 361.8,327.2 360.7,325.6 			"/>
			<polygon class="st4" points="358.6,329.5 359.8,325.8 361.7,326.4 			"/>
			<polygon class="st4" points="391.8,302.3 390.9,305 392.3,305.5 			"/>
			<polygon class="st4" points="391.8,302.3 392.7,305 391.3,305.5 			"/>
			<polygon class="st4" points="394.5,304.3 391.7,304.3 391.7,305.7 			"/>
			<polygon class="st4" points="394.5,304.3 392.2,306 391.4,304.8 			"/>
			<polygon class="st4" points="389.1,304.3 391.4,306 392.2,304.8 			"/>
			<polygon class="st4" points="389.1,304.3 391.9,304.3 391.9,305.7 			"/>
			<polygon class="st4" points="393.5,307.5 392.6,304.7 391.3,305.2 			"/>
			<polygon class="st4" points="393.5,307.5 391.2,305.8 392,304.7 			"/>
			<polygon class="st4" points="390.1,307.5 392.4,305.8 391.6,304.7 			"/>
			<polygon class="st4" points="390.1,307.5 391,304.7 392.4,305.2 			"/>
			<polygon class="st4" points="407.2,322.6 405.7,327.4 408.1,328.2 			"/>
			<polygon class="st4" points="407.2,322.6 408.8,327.4 406.4,328.2 			"/>
			<polygon class="st4" points="412,326.1 407,326.1 407,328.6 			"/>
			<polygon class="st4" points="412,326.1 408,329.1 406.5,327 			"/>
			<polygon class="st4" points="402.5,326.1 406.5,329.1 408,327 			"/>
			<polygon class="st4" points="402.5,326.1 407.5,326.1 407.5,328.6 			"/>
			<polygon class="st4" points="410.2,331.7 408.6,327 406.2,327.7 			"/>
			<polygon class="st4" points="410.2,331.7 406.1,328.8 407.6,326.7 			"/>
			<polygon class="st4" points="404.3,331.7 408.3,328.8 406.9,326.7 			"/>
			<polygon class="st4" points="404.3,331.7 405.9,327 408.2,327.7 			"/>
			<polygon class="st4" points="403.1,336.5 401.5,341.3 403.9,342.1 			"/>
			<polygon class="st4" points="403.1,336.5 404.6,341.3 402.2,342.1 			"/>
			<polygon class="st4" points="407.8,340 402.8,340 402.8,342.5 			"/>
			<polygon class="st4" points="407.8,340 403.8,343 402.3,340.9 			"/>
			<polygon class="st4" points="398.3,340 402.4,343 403.8,340.9 			"/>
			<polygon class="st4" points="398.3,340 403.3,340 403.3,342.5 			"/>
			<polygon class="st4" points="406,345.6 404.5,340.8 402.1,341.6 			"/>
			<polygon class="st4" points="406,345.6 401.9,342.7 403.4,340.6 			"/>
			<polygon class="st4" points="400.1,345.6 404.2,342.7 402.7,340.6 			"/>
			<polygon class="st4" points="400.1,345.6 401.7,340.8 404,341.6 			"/>
			<polygon class="st4" points="523.4,230.6 521.6,236.3 524.4,237.2 			"/>
			<polygon class="st4" points="523.4,230.6 525.3,236.3 522.4,237.2 			"/>
			<polygon class="st4" points="529.1,234.8 523.1,234.8 523.1,237.8 			"/>
			<polygon class="st4" points="529.1,234.8 524.3,238.3 522.5,235.9 			"/>
			<polygon class="st4" points="517.7,234.8 522.6,238.3 524.3,235.9 			"/>
			<polygon class="st4" points="517.7,234.8 523.7,234.8 523.7,237.8 			"/>
			<polygon class="st4" points="527,241.5 525.1,235.8 522.2,236.7 			"/>
			<polygon class="st4" points="527,241.5 522.1,238 523.9,235.5 			"/>
			<polygon class="st4" points="519.9,241.5 524.7,238 523,235.5 			"/>
			<polygon class="st4" points="519.9,241.5 521.8,235.8 524.6,236.7 			"/>
			<polygon class="st4" points="578.1,323.2 576.2,328.9 579.1,329.8 			"/>
			<polygon class="st4" points="578.1,323.2 580,328.9 577.1,329.8 			"/>
			<polygon class="st4" points="583.8,327.3 577.8,327.3 577.8,330.3 			"/>
			<polygon class="st4" points="583.8,327.3 578.9,330.9 577.2,328.4 			"/>
			<polygon class="st4" points="572.4,327.3 577.2,330.9 579,328.4 			"/>
			<polygon class="st4" points="572.4,327.3 578.4,327.3 578.4,330.3 			"/>
			<polygon class="st4" points="581.6,334 579.8,328.3 576.9,329.2 			"/>
			<polygon class="st4" points="581.6,334 576.8,330.5 578.5,328.1 			"/>
			<polygon class="st4" points="574.6,334 579.4,330.5 577.6,328.1 			"/>
			<polygon class="st4" points="574.6,334 576.4,328.3 579.3,329.2 			"/>
			<polygon class="st4" points="597.5,326.5 596.3,330.3 598.2,330.9 			"/>
			<polygon class="st4" points="597.5,326.5 598.8,330.3 596.9,330.9 			"/>
			<polygon class="st4" points="601.3,329.3 597.3,329.3 597.3,331.2 			"/>
			<polygon class="st4" points="601.3,329.3 598.1,331.6 596.9,330 			"/>
			<polygon class="st4" points="593.7,329.3 597,331.6 598.1,330 			"/>
			<polygon class="st4" points="593.7,329.3 597.7,329.3 597.7,331.2 			"/>
			<polygon class="st4" points="599.9,333.7 598.6,329.9 596.7,330.5 			"/>
			<polygon class="st4" points="599.9,333.7 596.6,331.4 597.8,329.8 			"/>
			<polygon class="st4" points="595.2,333.7 598.4,331.4 597.2,329.8 			"/>
			<polygon class="st4" points="595.2,333.7 596.4,329.9 598.3,330.5 			"/>
			<polygon class="st4" points="583.8,336.5 582.2,341.3 584.6,342.1 			"/>
			<polygon class="st4" points="583.8,336.5 585.4,341.3 583,342.1 			"/>
			<polygon class="st4" points="588.6,340 583.6,340 583.6,342.5 			"/>
			<polygon class="st4" points="588.6,340 584.5,343 583.1,340.9 			"/>
			<polygon class="st4" points="579,340 583.1,343 584.6,340.9 			"/>
			<polygon class="st4" points="579,340 584.1,340 584.1,342.5 			"/>
			<polygon class="st4" points="586.8,345.6 585.2,340.8 582.8,341.6 			"/>
			<polygon class="st4" points="586.8,345.6 582.7,342.7 584.2,340.6 			"/>
			<polygon class="st4" points="580.9,345.6 584.9,342.7 583.4,340.6 			"/>
			<polygon class="st4" points="580.9,345.6 582.4,340.8 584.8,341.6 			"/>
			<polygon class="st4" points="550.1,365.9 548.5,370.6 550.9,371.4 			"/>
			<polygon class="st4" points="550.1,365.9 551.7,370.6 549.3,371.4 			"/>
			<polygon class="st4" points="554.9,369.3 549.9,369.3 549.9,371.8 			"/>
			<polygon class="st4" points="554.9,369.3 550.8,372.3 549.3,370.2 			"/>
			<polygon class="st4" points="545.3,369.3 549.4,372.3 550.8,370.2 			"/>
			<polygon class="st4" points="545.3,369.3 550.3,369.3 550.3,371.8 			"/>
			<polygon class="st4" points="553,374.9 551.5,370.2 549.1,370.9 			"/>
			<polygon class="st4" points="553,374.9 549,372 550.5,370 			"/>
			<polygon class="st4" points="547.1,374.9 551.2,372 549.7,370 			"/>
			<polygon class="st4" points="547.1,374.9 548.7,370.2 551.1,370.9 			"/>
			<polygon class="st4" points="549.9,381 548.7,384.8 550.6,385.4 			"/>
			<polygon class="st4" points="549.9,381 551.1,384.8 549.2,385.4 			"/>
			<polygon class="st4" points="553.7,383.7 549.7,383.7 549.7,385.7 			"/>
			<polygon class="st4" points="553.7,383.7 550.5,386.1 549.3,384.5 			"/>
			<polygon class="st4" points="546.1,383.7 549.3,386.1 550.5,384.5 			"/>
			<polygon class="st4" points="546.1,383.7 550.1,383.7 550.1,385.7 			"/>
			<polygon class="st4" points="552.3,388.2 551,384.4 549.1,385 			"/>
			<polygon class="st4" points="552.3,388.2 549,385.9 550.2,384.2 			"/>
			<polygon class="st4" points="547.5,388.2 550.8,385.9 549.6,384.2 			"/>
			<polygon class="st4" points="547.5,388.2 548.8,384.4 550.7,385 			"/>
			<polygon class="st4" points="564,355.8 562.8,359.7 564.7,360.3 			"/>
			<polygon class="st4" points="564,355.8 565.2,359.7 563.3,360.3 			"/>
			<polygon class="st4" points="567.8,358.6 563.8,358.6 563.8,360.6 			"/>
			<polygon class="st4" points="567.8,358.6 564.6,361 563.4,359.3 			"/>
			<polygon class="st4" points="560.2,358.6 563.4,361 564.6,359.3 			"/>
			<polygon class="st4" points="560.2,358.6 564.2,358.6 564.2,360.6 			"/>
			<polygon class="st4" points="566.4,363.1 565.1,359.3 563.2,359.9 			"/>
			<polygon class="st4" points="566.4,363.1 563.1,360.7 564.3,359.1 			"/>
			<polygon class="st4" points="561.7,363.1 564.9,360.7 563.7,359.1 			"/>
			<polygon class="st4" points="561.7,363.1 562.9,359.3 564.8,359.9 			"/>
			<polygon class="st4" points="575.2,347.8 573.7,352.5 576.1,353.3 			"/>
			<polygon class="st4" points="575.2,347.8 576.8,352.5 574.4,353.3 			"/>
			<polygon class="st4" points="580,351.2 575,351.2 575,353.7 			"/>
			<polygon class="st4" points="580,351.2 575.9,354.2 574.5,352.2 			"/>
			<polygon class="st4" points="570.5,351.2 574.5,354.2 576,352.2 			"/>
			<polygon class="st4" points="570.5,351.2 575.5,351.2 575.5,353.7 			"/>
			<polygon class="st4" points="578.2,356.8 576.6,352.1 574.2,352.9 			"/>
			<polygon class="st4" points="578.2,356.8 574.1,353.9 575.6,351.9 			"/>
			<polygon class="st4" points="572.3,356.8 576.3,353.9 574.9,351.9 			"/>
			<polygon class="st4" points="572.3,356.8 573.9,352.1 576.2,352.9 			"/>
			<polygon class="st4" points="549.5,353.2 548.3,357 550.2,357.6 			"/>
			<polygon class="st4" points="549.5,353.2 550.7,357 548.9,357.6 			"/>
			<polygon class="st4" points="553.3,355.9 549.3,355.9 549.3,357.9 			"/>
			<polygon class="st4" points="553.3,355.9 550.1,358.3 548.9,356.7 			"/>
			<polygon class="st4" points="545.7,355.9 549,358.3 550.1,356.7 			"/>
			<polygon class="st4" points="545.7,355.9 549.7,355.9 549.7,357.9 			"/>
			<polygon class="st4" points="551.9,360.4 550.6,356.6 548.7,357.2 			"/>
			<polygon class="st4" points="551.9,360.4 548.6,358.1 549.8,356.4 			"/>
			<polygon class="st4" points="547.2,360.4 550.4,358.1 549.2,356.4 			"/>
			<polygon class="st4" points="547.2,360.4 548.4,356.6 550.3,357.2 			"/>
			<polygon class="st4" points="426.7,280.8 425.1,285.5 427.5,286.3 			"/>
			<polygon class="st4" points="426.7,280.8 428.2,285.5 425.8,286.3 			"/>
			<polygon class="st4" points="431.4,284.2 426.4,284.2 426.4,286.7 			"/>
			<polygon class="st4" points="431.4,284.2 427.4,287.2 425.9,285.1 			"/>
			<polygon class="st4" points="421.9,284.2 426,287.2 427.4,285.1 			"/>
			<polygon class="st4" points="421.9,284.2 426.9,284.2 426.9,286.7 			"/>
			<polygon class="st4" points="429.6,289.8 428.1,285.1 425.7,285.8 			"/>
			<polygon class="st4" points="429.6,289.8 425.6,286.9 427,284.8 			"/>
			<polygon class="st4" points="423.7,289.8 427.8,286.9 426.3,284.8 			"/>
			<polygon class="st4" points="423.7,289.8 425.3,285.1 427.7,285.8 			"/>
			<polygon class="st4" points="518.1,269 516.9,272.8 518.8,273.4 			"/>
			<polygon class="st4" points="518.1,269 519.3,272.8 517.4,273.4 			"/>
			<polygon class="st4" points="521.9,271.8 517.9,271.8 517.9,273.8 			"/>
			<polygon class="st4" points="521.9,271.8 518.7,274.1 517.5,272.5 			"/>
			<polygon class="st4" points="514.3,271.8 517.5,274.1 518.7,272.5 			"/>
			<polygon class="st4" points="514.3,271.8 518.3,271.8 518.3,273.8 			"/>
			<polygon class="st4" points="520.5,276.2 519.2,272.4 517.3,273 			"/>
			<polygon class="st4" points="520.5,276.2 517.2,273.9 518.4,272.2 			"/>
			<polygon class="st4" points="515.7,276.2 519,273.9 517.8,272.2 			"/>
			<polygon class="st4" points="515.7,276.2 517,272.4 518.9,273 			"/>
			<polygon class="st4" points="480,336.9 478.1,342.6 481,343.5 			"/>
			<polygon class="st4" points="480,336.9 481.9,342.6 479,343.5 			"/>
			<polygon class="st4" points="485.7,341 479.7,341 479.7,344 			"/>
			<polygon class="st4" points="485.7,341 480.9,344.5 479.1,342.1 			"/>
			<polygon class="st4" points="474.3,341 479.1,344.5 480.9,342.1 			"/>
			<polygon class="st4" points="474.3,341 480.3,341 480.3,344 			"/>
			<polygon class="st4" points="483.5,347.7 481.7,342 478.8,343 			"/>
			<polygon class="st4" points="483.5,347.7 478.7,344.2 480.4,341.8 			"/>
			<polygon class="st4" points="476.5,347.7 481.3,344.2 479.6,341.8 			"/>
			<polygon class="st4" points="476.5,347.7 478.3,342 481.2,343 			"/>
			<polygon class="st4" points="496.2,310.1 494.6,314.8 497,315.6 			"/>
			<polygon class="st4" points="496.2,310.1 497.7,314.8 495.3,315.6 			"/>
			<polygon class="st4" points="500.9,313.5 496,313.5 496,316 			"/>
			<polygon class="st4" points="500.9,313.5 496.9,316.5 495.4,314.5 			"/>
			<polygon class="st4" points="491.4,313.5 495.5,316.5 497,314.5 			"/>
			<polygon class="st4" points="491.4,313.5 496.4,313.5 496.4,316 			"/>
			<polygon class="st4" points="499.1,319.1 497.6,314.4 495.2,315.2 			"/>
			<polygon class="st4" points="499.1,319.1 495.1,316.2 496.5,314.1 			"/>
			<polygon class="st4" points="493.2,319.1 497.3,316.2 495.8,314.1 			"/>
			<polygon class="st4" points="493.2,319.1 494.8,314.4 497.2,315.2 			"/>
			<polygon class="st4" points="480,297.5 478.4,302.3 480.8,303 			"/>
			<polygon class="st4" points="480,297.5 481.6,302.3 479.2,303 			"/>
			<polygon class="st4" points="484.8,301 479.8,301 479.8,303.5 			"/>
			<polygon class="st4" points="484.8,301 480.7,303.9 479.2,301.9 			"/>
			<polygon class="st4" points="475.3,301 479.3,303.9 480.8,301.9 			"/>
			<polygon class="st4" points="475.3,301 480.2,301 480.2,303.5 			"/>
			<polygon class="st4" points="482.9,306.6 481.4,301.8 479,302.6 			"/>
			<polygon class="st4" points="482.9,306.6 478.9,303.6 480.4,301.6 			"/>
			<polygon class="st4" points="477,306.6 481.1,303.6 479.6,301.6 			"/>
			<polygon class="st4" points="477,306.6 478.6,301.8 481,302.6 			"/>
			<polygon class="st4" points="465.9,311.1 464.7,314.9 466.6,315.5 			"/>
			<polygon class="st4" points="465.9,311.1 467.1,314.9 465.2,315.5 			"/>
			<polygon class="st4" points="469.7,313.8 465.7,313.8 465.7,315.8 			"/>
			<polygon class="st4" points="469.7,313.8 466.5,316.2 465.3,314.6 			"/>
			<polygon class="st4" points="462.1,313.8 465.3,316.2 466.5,314.6 			"/>
			<polygon class="st4" points="462.1,313.8 466.1,313.8 466.1,315.8 			"/>
			<polygon class="st4" points="468.3,318.3 467,314.5 465.1,315.1 			"/>
			<polygon class="st4" points="468.3,318.3 465,316 466.2,314.4 			"/>
			<polygon class="st4" points="463.6,318.3 466.8,316 465.6,314.4 			"/>
			<polygon class="st4" points="463.6,318.3 464.8,314.5 466.7,315.1 			"/>
			<polygon class="st4" points="472.9,321.9 472.1,324.6 473.4,325.1 			"/>
			<polygon class="st4" points="472.9,321.9 473.9,324.6 472.5,325.1 			"/>
			<polygon class="st4" points="475.7,323.9 472.8,323.9 472.8,325.3 			"/>
			<polygon class="st4" points="475.7,323.9 473.3,325.6 472.5,324.5 			"/>
			<polygon class="st4" points="470.2,323.9 472.5,325.6 473.4,324.5 			"/>
			<polygon class="st4" points="470.2,323.9 473.1,323.9 473.1,325.3 			"/>
			<polygon class="st4" points="474.6,327.1 473.7,324.4 472.4,324.8 			"/>
			<polygon class="st4" points="474.6,327.1 472.3,325.4 473.2,324.3 			"/>
			<polygon class="st4" points="471.3,327.1 473.6,325.4 472.7,324.3 			"/>
			<polygon class="st4" points="471.3,327.1 472.1,324.4 473.5,324.8 			"/>
			<polygon class="st4" points="521.9,369.3 520.4,374.1 522.7,374.8 			"/>
			<polygon class="st4" points="521.9,369.3 523.5,374.1 521.1,374.8 			"/>
			<polygon class="st4" points="526.7,372.8 521.7,372.8 521.7,375.3 			"/>
			<polygon class="st4" points="526.7,372.8 522.6,375.7 521.2,373.7 			"/>
			<polygon class="st4" points="517.1,372.8 521.2,375.7 522.7,373.7 			"/>
			<polygon class="st4" points="517.1,372.8 522.2,372.8 522.2,375.3 			"/>
			<polygon class="st4" points="524.9,378.4 523.3,373.6 520.9,374.4 			"/>
			<polygon class="st4" points="524.9,378.4 520.8,375.4 522.3,373.4 			"/>
			<polygon class="st4" points="519,378.4 523,375.4 521.5,373.4 			"/>
			<polygon class="st4" points="519,378.4 520.5,373.6 522.9,374.4 			"/>
			<polygon class="st4" points="533.9,357.9 532.7,361.7 534.6,362.4 			"/>
			<polygon class="st4" points="533.9,357.9 535.1,361.7 533.2,362.4 			"/>
			<polygon class="st4" points="537.7,360.7 533.7,360.7 533.7,362.7 			"/>
			<polygon class="st4" points="537.7,360.7 534.5,363 533.3,361.4 			"/>
			<polygon class="st4" points="530.1,360.7 533.3,363 534.5,361.4 			"/>
			<polygon class="st4" points="530.1,360.7 534.1,360.7 534.1,362.7 			"/>
			<polygon class="st4" points="536.3,365.1 535,361.3 533.1,362 			"/>
			<polygon class="st4" points="536.3,365.1 533,362.8 534.2,361.2 			"/>
			<polygon class="st4" points="531.6,365.1 534.8,362.8 533.6,361.2 			"/>
			<polygon class="st4" points="531.6,365.1 532.8,361.3 534.7,362 			"/>
			<polygon class="st4" points="510.9,354.5 509.6,358.3 511.5,358.9 			"/>
			<polygon class="st4" points="510.9,354.5 512.1,358.3 510.2,358.9 			"/>
			<polygon class="st4" points="514.7,357.3 510.7,357.3 510.7,359.3 			"/>
			<polygon class="st4" points="514.7,357.3 511.4,359.6 510.3,358 			"/>
			<polygon class="st4" points="507.1,357.3 510.3,359.6 511.4,358 			"/>
			<polygon class="st4" points="507.1,357.3 511,357.3 511,359.3 			"/>
			<polygon class="st4" points="513.2,361.7 512,357.9 510.1,358.6 			"/>
			<polygon class="st4" points="513.2,361.7 510,359.4 511.1,357.8 			"/>
			<polygon class="st4" points="508.5,361.7 511.7,359.4 510.6,357.8 			"/>
			<polygon class="st4" points="508.5,361.7 509.7,357.9 511.7,358.6 			"/>
			<polygon class="st4" points="423.8,348.3 422,354 424.8,355 			"/>
			<polygon class="st4" points="423.8,348.3 425.7,354 422.8,355 			"/>
			<polygon class="st4" points="429.5,352.5 423.5,352.5 423.5,355.5 			"/>
			<polygon class="st4" points="429.5,352.5 424.7,356 422.9,353.6 			"/>
			<polygon class="st4" points="418.1,352.5 423,356 424.7,353.6 			"/>
			<polygon class="st4" points="418.1,352.5 424.1,352.5 424.1,355.5 			"/>
			<polygon class="st4" points="427.3,359.2 425.5,353.5 422.6,354.4 			"/>
			<polygon class="st4" points="427.3,359.2 422.5,355.6 424.2,353.2 			"/>
			<polygon class="st4" points="420.3,359.2 425.1,355.6 423.4,353.2 			"/>
			<polygon class="st4" points="420.3,359.2 422.1,353.5 425,354.4 			"/>
			<polygon class="st4" points="480,387.5 479.4,389.4 480.3,389.8 			"/>
			<polygon class="st4" points="480,387.5 480.6,389.4 479.7,389.8 			"/>
			<polygon class="st4" points="481.9,388.9 479.9,388.9 479.9,389.9 			"/>
			<polygon class="st4" points="481.9,388.9 480.3,390.1 479.7,389.3 			"/>
			<polygon class="st4" points="478.1,388.9 479.7,390.1 480.3,389.3 			"/>
			<polygon class="st4" points="478.1,388.9 480.1,388.9 480.1,389.9 			"/>
			<polygon class="st4" points="481.2,391.2 480.6,389.3 479.6,389.6 			"/>
			<polygon class="st4" points="481.2,391.2 479.6,390 480.1,389.2 			"/>
			<polygon class="st4" points="478.8,391.2 480.4,390 479.9,389.2 			"/>
			<polygon class="st4" points="478.8,391.2 479.5,389.3 480.4,389.6 			"/>
		</g>
	</g>
</g>
</svg>
