<?xml version="1.0" encoding="utf-8"?>
<!-- Generator: Adobe Illustrator 19.2.1, SVG Export Plug-In . SVG Version: 6.00 Build 0)  -->
<svg version="1.1" id="Layer_1" xmlns="http://www.w3.org/2000/svg" xmlns:xlink="http://www.w3.org/1999/xlink" x="0px" y="0px"
	 viewBox="0 0 960 560" style="enable-background:new 0 0 960 560;" xml:space="preserve">
<style type="text/css">
	.st0{clip-path:url(#SVGID_2_);fill:#CB2127;}
	.st1{clip-path:url(#SVGID_2_);fill:#F7DE28;}
</style>
<g>
	<g>
		<defs>
			<rect id="SVGID_1_" y="0.6" width="959.5" height="559.7"/>
		</defs>
		<clipPath id="SVGID_2_">
			<use xlink:href="#SVGID_1_"  style="overflow:visible;"/>
		</clipPath>
		<rect y="0.6" class="st0" width="959.5" height="559.7"/>
		<polygon class="st1" points="92.3,203.2 110.4,147.3 63,112.7 121.7,112.6 139.9,56.8 158.2,112.6 216.9,112.8 169.5,147.4 
			187.5,203.2 139.9,168.8 		"/>
		<polygon class="st1" points="256,233.4 275.8,241.3 289.5,225 288.1,246.3 307.9,254.3 287.2,259.6 285.6,280.8 274.3,262.8 
			253.5,267.9 267.2,251.5 		"/>
		<polygon class="st1" points="363.2,126.1 342.1,122.4 332.1,141.2 329.1,120.1 308,116.3 327.2,106.9 324.3,85.8 339.2,101.1 
			358.4,91.8 348.4,110.7 		"/>
		<polygon class="st1" points="318.5,221.7 325.1,201.4 307.8,188.8 329.2,188.7 335.8,168.5 342.5,188.7 363.8,188.8 346.6,201.4 
			353.1,221.7 335.8,209.2 		"/>
		<polygon class="st1" points="257,36.2 276.4,45.2 291,29.6 288.4,50.8 307.7,59.9 286.8,64 284.1,85.1 273.7,66.5 252.8,70.5 
			267.3,54.9 		"/>
	</g>
</g>
</svg>
