<?xml version="1.0" encoding="utf-8"?>
<!-- Generator: Adobe Illustrator 19.2.1, SVG Export Plug-In . SVG Version: 6.00 Build 0)  -->
<svg version="1.1" id="Layer_1" xmlns="http://www.w3.org/2000/svg" xmlns:xlink="http://www.w3.org/1999/xlink" x="0px" y="0px"
	 viewBox="0 0 960 560" style="enable-background:new 0 0 960 560;" xml:space="preserve">
<style type="text/css">
	.st0{fill:#FFFFFF;}
	.st1{clip-path:url(#SVGID_2_);}
	.st2{clip-path:url(#SVGID_4_);fill:#D51F3A;}
</style>
<rect class="st0" width="960" height="560"/>
<g>
	<g>
		<defs>
			<rect id="SVGID_1_" x="0" width="960" height="560"/>
		</defs>
		<clipPath id="SVGID_2_">
			<use xlink:href="#SVGID_1_"  style="overflow:visible;"/>
		</clipPath>
		<g class="st1">
			<defs>
				<rect id="SVGID_3_" x="0" width="960" height="560"/>
			</defs>
			<clipPath id="SVGID_4_">
				<use xlink:href="#SVGID_3_"  style="overflow:visible;"/>
			</clipPath>
			<path class="st2" d="M227.6,126.4c-0.5,10.3-1.5,20.4-3.1,30.4c-0.5,3.2-1.1,6.4-1.7,9.6c6.3-0.8,12.6-1.2,19.1-1.2
				c6.5,0,12.8,0.4,19.1,1.2c-0.6-3.2-1.2-6.4-1.7-9.6c-1.5-10-2.6-20.1-3.1-30.4c13.6,0.6,27,2.3,40,4.7
				c-0.8-6.3-1.2-12.7-1.2-19.1c0-6.5,0.4-12.9,1.2-19.1c-13.1,2.5-26.4,4.1-40,4.7c0.7-13.6,2.3-27,4.7-40
				c-6.3,0.8-12.6,1.1-19.1,1.1c-6.5,0-12.8-0.4-19.1-1.1c2.5,13,4.1,26.4,4.7,40c-13.6-0.6-27-2.3-40-4.7
				c0.8,6.2,1.2,12.6,1.2,19.1c0,6.4-0.4,12.8-1.2,19.1C200.7,128.6,214,127,227.6,126.4"/>
			<path class="st2" d="M703.6,126.4c-0.5,10.3-1.5,20.4-3.1,30.4c-0.5,3.2-1.1,6.4-1.7,9.6c6.3-0.8,12.6-1.2,19.1-1.2
				c6.5,0,12.8,0.4,19.1,1.2c-0.6-3.2-1.2-6.4-1.7-9.6c-1.6-10-2.6-20.1-3.1-30.4c13.6,0.6,27,2.3,40,4.7
				c-0.8-6.3-1.2-12.7-1.2-19.1c0-6.5,0.4-12.9,1.2-19.1c-13.1,2.5-26.4,4.1-40,4.7c0.7-13.6,2.3-27,4.7-40
				c-6.3,0.8-12.6,1.1-19.1,1.1c-6.5,0-12.8-0.4-19.1-1.1c2.5,13,4.1,26.4,4.7,40c-13.6-0.6-27-2.3-40-4.7
				c0.8,6.2,1.2,12.6,1.2,19.1c0,6.4-0.4,12.8-1.2,19.1C676.7,128.6,690,127,703.6,126.4"/>
			<path class="st2" d="M256.3,433.7c0.5-10.3,1.5-20.5,3.1-30.5c0.5-3.2,1.1-6.4,1.7-9.6c-6.3,0.8-12.6,1.2-19.1,1.2
				c-6.5,0-12.8-0.4-19.1-1.2c0.6,3.2,1.2,6.4,1.7,9.6c1.5,10,2.6,20.1,3.1,30.5c-13.6-0.7-27-2.3-40-4.7c0.8,6.2,1.2,12.6,1.2,19.1
				s-0.4,12.8-1.2,19.1c13.1-2.5,26.4-4.1,40-4.7c-0.7,13.6-2.3,27-4.7,40c6.3-0.8,12.6-1.2,19.1-1.2c6.5,0,12.8,0.4,19.1,1.2
				c-2.5-13.1-4.1-26.4-4.7-40c13.6,0.7,27,2.3,40,4.7c-0.8-6.3-1.2-12.6-1.2-19.1s0.4-12.9,1.2-19.1
				C283.3,431.4,269.9,433,256.3,433.7"/>
			<path class="st2" d="M732.3,433.7c0.5-10.3,1.5-20.5,3.1-30.5c0.5-3.2,1-6.4,1.7-9.6c-6.3,0.8-12.6,1.2-19.1,1.2
				c-6.5,0-12.8-0.4-19.1-1.2c0.6,3.2,1.2,6.4,1.7,9.6c1.5,10,2.6,20.1,3.1,30.5c-13.6-0.7-27-2.3-40-4.7c0.8,6.2,1.2,12.6,1.2,19.1
				s-0.4,12.8-1.2,19.1c13-2.5,26.4-4.1,40-4.7c-0.7,13.6-2.3,27-4.7,40c6.3-0.8,12.6-1.2,19.1-1.2c6.5,0,12.8,0.4,19.1,1.2
				c-2.5-13.1-4.1-26.4-4.7-40c13.6,0.7,27,2.3,40,4.7c-0.8-6.3-1.2-12.6-1.2-19.1s0.4-12.9,1.2-19.1
				C759.3,431.4,746,433,732.3,433.7"/>
			<rect x="423.5" class="st2" width="112.9" height="560"/>
			<rect x="0" y="223.5" class="st2" width="960" height="112.9"/>
		</g>
	</g>
</g>
</svg>
