<?xml version="1.0" encoding="utf-8"?>
<!-- Generator: Adobe Illustrator 19.2.1, SVG Export Plug-In . SVG Version: 6.00 Build 0)  -->
<svg version="1.1" id="Layer_1" xmlns="http://www.w3.org/2000/svg" xmlns:xlink="http://www.w3.org/1999/xlink" x="0px" y="0px"
	 viewBox="0 0 960 560" style="enable-background:new 0 0 960 560;" xml:space="preserve">
<style type="text/css">
	.st0{clip-path:url(#SVGID_2_);fill:#FFFFFF;}
	.st1{clip-path:url(#SVGID_2_);fill:#F0953E;}
	.st2{clip-path:url(#SVGID_2_);fill:#3D8A41;}
	.st3{clip-path:url(#SVGID_2_);}
	.st4{clip-path:url(#SVGID_4_);fill:#2A2874;}
	.st5{clip-path:url(#SVGID_4_);fill:#FFFFFF;}
</style>
<g>
	<g>
		<defs>
			<rect id="SVGID_1_" width="960" height="560"/>
		</defs>
		<clipPath id="SVGID_2_">
			<use xlink:href="#SVGID_1_"  style="overflow:visible;"/>
		</clipPath>
		<rect class="st0" width="960" height="560"/>
		<rect class="st1" width="960" height="186.7"/>
		<rect y="373.3" class="st2" width="960" height="186.7"/>
		<g class="st3">
			<defs>
				<rect id="SVGID_3_" width="960" height="560"/>
			</defs>
			<clipPath id="SVGID_4_">
				<use xlink:href="#SVGID_3_"  style="overflow:visible;"/>
			</clipPath>
			<path class="st4" d="M480,196c-46.4,0-84,37.6-84,84c0,46.4,37.6,84,84,84c46.4,0,84-37.6,84-84C564,233.6,526.4,196,480,196
				 M479.9,204.2l-2.1,42.2l2.3,24.1l2.2-24.1l-2.1-42.2c2.2,0,4.3,0.1,6.4,0.3c0,0.1,0,0.3,0,0.4c0,1.9,1.6,3.5,3.5,3.5
				c1.8,0,3.2-1.3,3.4-3c2.1,0.4,4.1,0.8,6.2,1.4l-13,40.2l-4.1,23.8l8.4-22.7l8.8-41.3c2.1,0.5,4.1,1.1,6.1,1.9
				c-0.2,0.4-0.3,0.8-0.3,1.3c0,1.9,1.6,3.5,3.5,3.5c1.4,0,2.7-0.9,3.2-2.1c1.9,0.9,3.8,1.9,5.7,2.9l-22.9,35.4l-10.1,22l14-19.7
				l19.2-37.6c1.8,1.1,3.6,2.2,5.3,3.4c-0.5,0.6-0.7,1.3-0.7,2.1c0,1.9,1.6,3.5,3.5,3.5c1.2,0,2.1-0.5,2.8-1.4
				c1.6,1.4,3.2,2.8,4.7,4.3l-31.3,28.3l-15.5,18.6l18.6-15.4l28.3-31.3c1.5,1.5,2.9,3.1,4.3,4.7c-0.8,0.6-1.3,1.6-1.3,2.7
				c0,1.9,1.6,3.5,3.5,3.5c0.8,0,1.5-0.3,2.1-0.7c1.2,1.7,2.4,3.5,3.4,5.3L508,261.3l-19.8,14l22-10.1l35.5-23c1.1,1.9,2.1,3.9,3,6
				c-1.2,0.5-2.1,1.8-2.1,3.2c0,1.9,1.6,3.5,3.5,3.5c0.5,0,0.9-0.1,1.3-0.3c0.7,1.9,1.3,3.8,1.8,5.8l-41.3,8.8l-22.7,8.4l23.8-4
				l40.2-13c0.5,2,1,4.1,1.4,6.2c-1.7,0.3-3,1.7-3,3.4c0,1.9,1.6,3.5,3.5,3.5c0.1,0,0.3,0,0.4,0c0.2,2.1,0.3,4.2,0.3,6.3l-42.2-2.1
				l-24.1,2.3l24.1,2.2l42.2-2.1c0,2.1-0.1,4.3-0.3,6.4c-0.1,0-0.2,0-0.4,0c-1.9,0-3.5,1.6-3.5,3.5c0,1.7,1.3,3.2,3,3.4
				c-0.4,2.1-0.8,4.1-1.4,6.2l-14.3-4.6l-25.9-8.3l-23.8-4.1l0.1,0.1l-0.1,0l22.7,8.4l41.3,8.8c-0.6,2-1.2,4-1.9,6
				c-0.2-0.1-0.4-0.1-0.5-0.2h0c-0.2-0.1-0.5-0.1-0.7-0.1c-1.9,0-3.5,1.6-3.5,3.5c0,0.5,0.1,0.9,0.3,1.3h0c0.2,0.5,0.5,1,1,1.3h0
				c0.1,0.1,0.2,0.1,0.3,0.2h0c0.1,0.1,0.2,0.1,0.3,0.2c0,0,0,0,0,0c0.1,0.1,0.1,0.1,0.2,0.2c-0.9,1.9-1.9,3.8-2.9,5.6l-35.4-22.9h0
				l-22-10.1l0.1,0.1l11.5,8.1l8.2,5.8h0l37.6,19.2c-1.1,1.8-2.2,3.7-3.5,5.4c-0.6-0.4-1.3-0.6-2-0.6c-1.9,0-3.5,1.5-3.5,3.5
				c0,1.1,0.5,2,1.3,2.6c-1.4,1.6-2.7,3.1-4.2,4.6l-28.3-31.3l-18.6-15.4l15.4,18.6l31.4,28.3c-1.5,1.5-3,2.9-4.6,4.2
				c-0.6-0.5-1.4-0.8-2.2-0.8c-1.9,0-3.5,1.6-3.5,3.5c0,0.5,0.1,1,0.3,1.5c-1.8,1.3-3.7,2.5-5.6,3.6L498.7,308l-14-19.8h0l10.1,22
				l22.9,35.5c-1.8,1-3.7,2-5.6,2.9c-0.5-1.2-1.8-2-3.2-2c-1.9,0-3.5,1.6-3.5,3.5c0,0.4,0.1,0.9,0.2,1.2c-2,0.7-4,1.4-6.1,1.9
				l-8.8-41.3l-8.4-22.6l0,0l4.1,23.8l13,40.2c-2,0.5-4.1,1-6.2,1.4c-0.2-1.7-1.7-3-3.5-3c-1.9,0-3.5,1.6-3.5,3.5c0,0.1,0,0.3,0,0.4
				c-2.1,0.2-4.2,0.3-6.4,0.3l2.2-42.2l-2.2-24.1l-2.3,24.1l2.2,42.2c-2.2,0-4.3-0.1-6.5-0.3c0-0.1,0-0.2,0-0.4
				c0-1.9-1.6-3.5-3.5-3.5c-1.8,0-3.2,1.3-3.5,3c-2.1-0.4-4.1-0.9-6.1-1.4l13-40.2l4.1-23.8l-8.4,22.6l-8.9,41.3
				c-2.1-0.6-4.1-1.2-6.1-1.9c0.2-0.4,0.2-0.8,0.2-1.3c0-1.9-1.5-3.5-3.4-3.5c-1.4,0-2.7,0.9-3.2,2.1c-1.9-0.9-3.8-1.9-5.6-2.9
				l22.9-35.4l10.1-22l-14,19.7L442,345.6c-1.8-1-3.7-2.2-5.4-3.4c0.4-0.6,0.7-1.3,0.7-2.1c0-1.9-1.6-3.5-3.5-3.5
				c-1.1,0-2.1,0.5-2.7,1.3c-1.6-1.4-3.2-2.8-4.6-4.2l31.4-28.3l15.4-18.6v0l-18.6,15.5l-28.3,31.3c-1.5-1.5-2.9-3.1-4.3-4.7
				c0.8-0.6,1.3-1.6,1.3-2.7c0-1.9-1.5-3.5-3.4-3.5c-0.8,0-1.5,0.3-2.1,0.7c-1.2-1.7-2.3-3.5-3.4-5.4l37.6-19.3l19.7-14l-22,10.1
				l-35.5,22.9c-1-1.8-2-3.7-2.9-5.5c1.3-0.5,2.3-1.7,2.3-3.2c0-1.9-1.6-3.5-3.5-3.5c-0.5,0-1,0.2-1.5,0.4c-0.7-2-1.4-4.1-1.9-6.2
				l41.3-8.8l22.7-8.4l-23.8,4.1l-40.2,13c-0.5-2-1-4.1-1.4-6.2c1.7-0.2,3-1.7,3-3.4c0-1.9-1.6-3.5-3.5-3.5c-0.1,0-0.2,0-0.4,0
				c-0.2-2.1-0.3-4.2-0.3-6.4l42.2,2.1l24-2.2l-24-2.3l-42.2,2.2c0-2.1,0.1-4.3,0.3-6.3c0.2,0,0.4,0,0.6,0c1.9,0,3.5-1.6,3.5-3.5
				c0-1.8-1.4-3.3-3.2-3.5c0.4-2.1,0.8-4.2,1.4-6.2l40.2,13l23.8,4l-22.7-8.4l-41.3-8.9c0.6-2,1.2-4.1,1.9-6
				c0.4,0.2,0.8,0.3,1.3,0.3c1.9,0,3.5-1.6,3.5-3.5c0-1.4-0.9-2.6-2.1-3.2c0.9-1.9,1.9-3.8,2.9-5.7l35.5,23l22,10.1l-19.7-14
				L414.4,242c1.1-1.8,2.2-3.6,3.5-5.4c0.6,0.5,1.3,0.7,2.1,0.7c1.9,0,3.5-1.5,3.5-3.4c0-1.1-0.5-2.1-1.4-2.7
				c1.4-1.6,2.8-3.1,4.3-4.6l28.3,31.3l18.6,15.4l-15.4-18.6l-31.4-28.3c1.5-1.5,3.1-2.9,4.7-4.3c0.6,0.8,1.6,1.3,2.7,1.3
				c1.9,0,3.5-1.6,3.5-3.5c0-0.8-0.2-1.5-0.7-2.1c1.7-1.2,3.5-2.4,5.3-3.4l19.2,37.6l14,19.7l-10.1-22l-23-35.4c1.8-1,3.7-2,5.5-2.9
				c0.5,1.3,1.8,2.2,3.2,2.2c1.9,0,3.5-1.5,3.5-3.4c0-0.5-0.1-1-0.3-1.4c2-0.7,4.1-1.4,6.2-1.9l8.9,41.3l8.4,22.7l-4.1-23.8
				l-13-40.2c2-0.5,4.1-1,6.2-1.4c0.2,1.7,1.7,3,3.5,3c1.9,0,3.5-1.6,3.5-3.5c0-0.1,0-0.3,0-0.4
				C475.7,204.3,477.8,204.2,479.9,204.2"/>
			<path class="st5" d="M480.1,267.5c6.9,0,12.6,5.6,12.6,12.6c0,6.9-5.6,12.6-12.6,12.6c-7,0-12.6-5.6-12.6-12.6
				C467.5,273.1,473.1,267.5,480.1,267.5"/>
			<path class="st4" d="M480,270.3c5.4,0,9.7,4.4,9.7,9.8s-4.4,9.7-9.7,9.7c-5.4,0-9.8-4.4-9.8-9.7S474.6,270.3,480,270.3"/>
		</g>
	</g>
</g>
</svg>
