<?xml version="1.0" encoding="utf-8"?>
<!-- Generator: Adobe Illustrator 19.2.1, SVG Export Plug-In . SVG Version: 6.00 Build 0)  -->
<svg version="1.1" id="Layer_1" xmlns="http://www.w3.org/2000/svg" xmlns:xlink="http://www.w3.org/1999/xlink" x="0px" y="0px"
	 viewBox="0 0 960 560" style="enable-background:new 0 0 960 560;" xml:space="preserve">
<style type="text/css">
	.st0{clip-path:url(#SVGID_2_);fill:#4EAEC4;}
	.st1{clip-path:url(#SVGID_2_);}
	.st2{clip-path:url(#SVGID_4_);fill:#F5C933;}
	.st3{clip-path:url(#SVGID_4_);fill:#4EAEC4;}
	.st4{clip-path:url(#SVGID_4_);}
	.st5{fill:#4EAEC4;}
	.st6{fill:#F5C933;}
</style>
<g>
	<g>
		<defs>
			<rect id="SVGID_1_" width="960" height="560"/>
		</defs>
		<clipPath id="SVGID_2_">
			<use xlink:href="#SVGID_1_"  style="overflow:visible;"/>
		</clipPath>
		<rect class="st0" width="960" height="560"/>
		<g class="st1">
			<defs>
				<rect id="SVGID_3_" width="960" height="560"/>
			</defs>
			<clipPath id="SVGID_4_">
				<use xlink:href="#SVGID_3_"  style="overflow:visible;"/>
			</clipPath>
			<path class="st2" d="M63.1,394.9c0-11.2,10.1-17,18-17c10.7,0,16.3,6.4,16.3,14.7c0,4.7-0.9,7.7-3,12.2c0,0-17.6,36.5-24.5,50.6
				c-0.9,1.8-1.1,3.8-1.1,6.7c0,4.6,4.4,8.2,9,8.4c4.2,0.1,8.8-3.9,8.8-8.5c0-5.6-2.9-8-5.9-8c-3.7,0-5.1,1.5-5.1,4.1
				c0,1.8,0.9,2.5,2.1,2.5c3.1,0,2.2-4.2,2.2-4.2c1.6,0.3,2.8,1.9,2.1,3.9c1.1,0.3,2.2,0.9,3.1,1.8c-0.8,0.8-1.8,1.4-3.1,1.7
				c0.7,2.4-0.2,3.6-2.4,4.1c0.4-1,0.5-1.8,0.3-2.6c-3.4,1-8.5-0.5-8.5-6.3c0-5.7,4-10.5,11.5-9.3c-1.8-0.9-2.7-2.6-2.9-4.6
				c1.4,0.5,2.9,0.6,2.9,0.6c-0.9-1.5-2.1-2.9-2-5.9c1.4,0.6,2.7,1.8,4.4,1.1c-2.8-5.5,0.6-13,9.3-14.8c-3.2,3.7-4.7,7.7-4.7,11.7
				c0,13,3.6,15.2,3.6,24.2c0,3.8-1.9,7.9-5.8,10.6v-0.2c2.5,0.7,4.2,1.9,5.1,3.7c-5.8,1.6-14.3,1.6-18.9-0.2
				c-5.2-0.6-8.8-4.6-9.9-6.6c-1.1-2-3.2-9.4,0-16c3.5-7.2,19.8-41.7,24.9-52.6c1.1-2.3,1.7-4.7,1.7-7.4c0-6.7-6.1-9-9.5-9
				c-4.2,0-8.4,3.2-8.4,7.1c0,2.5,1.4,4,3.3,4c4.7,0,4.4-4,3.5-6.5c2.9,1.3,4.6,3.6,4.2,6.1c1.7,0.2,3.2,1,4.7,2.6
				c-1.1,1.4-2.5,2.5-4.7,2.6c0.9,3.8-1.6,5.4-4.2,6.3c0.8-2.8,1.3-6-3.5-6c-3.5,0-6.2-0.6-7.8-2.9c-0.1,3-0.4,14.9-0.4,14.9
				c-0.2,4.5,6,4.4,9.9,3c-1.5,5.2-4.5,8-11.6,7.2c1.7,0.7,3.5,2.3,3.5,5.4c0,4.2-3.4,8.8-5.6,10.2L63.1,394.9z"/>
			<path class="st2" d="M65.3,394.9c0-11.2-10.1-17-18-17c-10.7,0-16.3,6.4-16.3,14.7c0,4.7,0.9,7.7,3.1,12.2
				c0,0,17.6,36.5,24.5,50.6c0.9,1.8,1.1,3.8,1.1,6.7c0,4.6-4.4,8.2-9.1,8.4c-4.2,0.1-8.8-3.9-8.8-8.5c0-5.6,2.9-8,5.9-8
				c3.7,0,5.1,1.5,5.1,4.1c0,1.8-0.9,2.5-2.1,2.5c-3.1,0-2.3-4.2-2.3-4.2c-1.6,0.3-2.8,1.9-2.1,3.9c-1.1,0.3-2.2,0.9-3,1.8
				c0.8,0.8,1.8,1.4,3,1.7c-0.7,2.4,0.3,3.6,2.4,4.1c-0.4-1-0.4-1.8-0.3-2.6c3.4,1,8.5-0.5,8.5-6.3c0-5.7-4-10.5-11.5-9.3
				c1.8-0.9,2.7-2.6,2.9-4.6c-1.4,0.5-2.9,0.6-2.9,0.6c0.9-1.5,2.1-2.9,2-5.9c-1.4,0.6-2.7,1.8-4.4,1.1c2.8-5.5-0.6-13-9.3-14.8
				c3.2,3.7,4.7,7.7,4.7,11.7c0,13-3.6,15.2-3.6,24.2c0,3.8,1.9,7.9,5.8,10.6v-0.2c-2.5,0.7-4.2,1.9-5.1,3.7
				c5.8,1.6,14.3,1.6,18.9-0.2c5.2-0.6,8.9-4.6,9.9-6.6c1.1-2,3.2-9.4,0-16c-3.5-7.2-19.8-41.7-24.9-52.6c-1.1-2.3-1.7-4.7-1.7-7.4
				c0-6.7,6.1-9,9.6-9c4.1,0,8.4,3.2,8.4,7.1c0,2.5-1.4,4-3.3,4c-4.7,0-4.4-4-3.5-6.5c-2.9,1.3-4.6,3.6-4.2,6.1
				c-1.6,0.2-3.2,1-4.7,2.6c1.1,1.4,2.5,2.5,4.7,2.6c-0.9,3.8,1.6,5.4,4.2,6.3c-0.8-2.8-1.3-6,3.5-6c3.5,0,6.2-0.6,7.8-2.9
				c0.1,3,0.4,14.9,0.4,14.9c0.2,4.5-6,4.4-9.9,3c1.5,5.2,4.5,8,11.6,7.2c-1.7,0.7-3.5,2.3-3.5,5.4c0,4.2,3.4,8.8,5.7,10.2
				L65.3,394.9z"/>
			<path class="st2" d="M64.2,516c0,0,5.3,4.5,7.1,2.2c2.9-3.6-8.9-21.5-8.9-27.9c0-10.3,6.9-13.2,15.5-14.6
				c5.7-1,15.1,0.4,15.1,0.4c-1.8,2.4-2.9,3.1-5.9,3.2c3.3,1.7,6.7,5.4,6.7,11.2c0,8.9-3.7,12.6-3.7,22.6c0,5.6,4.6,12.7,4.6,12.7
				c-8.1-0.8-12.1-8.3-9.8-14.3c-1.3-0.2-2.5,0.1-3.5,1.1c-0.6-1.7,0.3-3.6,1.6-5.2c-1-0.5-1.8-0.2-3.4,0.1c0.2-1.7,1.2-3.5,3.7-5.3
				c-7.3,1.9-11.8-3.2-11.8-8.5c0-4,2.8-6.9,5.5-6.9c0.9,0,2.2,0.4,3,0.9c0.5-1.1,0.2-2.6-0.3-3.7c2,0.5,3.3,1.7,2.4,4.2
				c1.5,0.1,2.8,0.7,3.6,1.7c-0.8,1.1-2.1,1.7-3.6,1.7c1.1,2.3-0.1,3.6-2,4.7c0,0,1.1-4.7-1.8-4.7c-1.4,0-2.6,0.4-2.6,2.4
				c0,1.7,1.5,4.1,5,3.9c3.5-0.2,6.3-2.4,6.3-7.9c0-5.1-4.1-7.6-9.5-7.8c-4.9-0.2-8.6,2.5-8.6,7.5c0,6.7,9.7,22,9.7,27.9
				c0,4.5-4,7-8,7c-5.1,0-9.4-5.1-9.4-5.1L64.2,516z"/>
			<path class="st2" d="M64.2,516c0,0-5.3,4.5-7.1,2.2c-2.9-3.6,8.9-21.5,8.9-27.9c0-10.3-6.9-13.2-15.5-14.6
				c-5.8-1-15.1,0.4-15.1,0.4c1.8,2.4,2.9,3.1,5.9,3.2c-3.3,1.7-6.7,5.4-6.7,11.2c0,8.9,3.7,12.6,3.7,22.6c0,5.6-4.6,12.7-4.6,12.7
				c8.1-0.8,12.1-8.3,9.8-14.3c1.3-0.2,2.5,0.1,3.5,1.1c0.6-1.7-0.3-3.6-1.6-5.2c1-0.5,1.7-0.2,3.4,0.1c-0.2-1.7-1.2-3.5-3.7-5.3
				c7.3,1.9,11.8-3.2,11.8-8.5c0-4-2.8-6.9-5.6-6.9c-0.9,0-2.2,0.4-2.9,0.9c-0.5-1.1-0.3-2.6,0.3-3.7c-2,0.5-3.3,1.7-2.4,4.2
				c-1.5,0.1-2.8,0.7-3.6,1.7c0.8,1.1,2.1,1.7,3.6,1.7c-1.1,2.3,0.1,3.6,2,4.7c0,0-1.1-4.7,1.8-4.7c1.4,0,2.6,0.4,2.6,2.4
				c0,1.7-1.5,4.1-5,3.9c-3.5-0.2-6.3-2.4-6.3-7.9c0-5.1,4.1-7.6,9.5-7.8c4.9-0.2,8.6,2.5,8.6,7.5c0,6.7-9.7,22-9.7,27.9
				c0,4.5,4,7,8,7c5.1,0,9.4-5.1,9.4-5.1L64.2,516z"/>
			<path class="st2" d="M63.1,198.8c0-11.2,10.1-17,18-17c10.7,0,16.3,6.4,16.3,14.7c0,4.7-0.9,7.7-3,12.2c0,0-17.6,36.5-24.5,50.6
				c-0.9,1.8-1.1,3.8-1.1,6.7c0,4.5,4.4,8.2,9,8.4c4.2,0.1,8.8-3.9,8.8-8.5c0-5.6-2.9-8.1-5.9-8.1c-3.7,0-5.1,1.5-5.1,4.1
				c0,1.8,0.9,2.5,2.1,2.5c3.1,0,2.2-4.2,2.2-4.2c1.6,0.3,2.8,1.9,2.1,3.9c1.1,0.3,2.2,0.8,3.1,1.8c-0.8,0.8-1.8,1.4-3.1,1.7
				c0.7,2.4-0.2,3.6-2.4,4.1c0.4-0.9,0.5-1.8,0.3-2.6c-3.4,1-8.5-0.6-8.5-6.3c0-5.7,4-10.5,11.5-9.4c-1.8-0.8-2.7-2.6-2.9-4.5
				c1.4,0.5,2.9,0.6,2.9,0.6c-0.9-1.6-2.1-2.9-2-5.9c1.4,0.6,2.7,1.8,4.4,1.1c-2.8-5.5,0.6-13,9.3-14.8c-3.2,3.7-4.7,7.7-4.7,11.7
				c0,13,3.6,15.2,3.6,24.2c0,3.8-1.9,7.9-5.8,10.6v-0.1c2.5,0.7,4.2,1.9,5.1,3.6c-5.8,1.6-14.3,1.6-18.9-0.2
				c-5.2-0.6-8.8-4.6-9.9-6.6c-1.1-2-3.2-9.4,0-16C67.7,250,84,215.5,89,204.7c1.1-2.3,1.7-4.7,1.7-7.4c0-6.7-6.1-9-9.5-9
				c-4.2,0-8.4,3.2-8.4,7.1c0,2.5,1.4,4,3.3,4c4.7,0,4.4-4,3.5-6.5c2.9,1.3,4.6,3.7,4.2,6.1c1.7,0.2,3.2,1,4.7,2.6
				c-1.1,1.4-2.5,2.5-4.7,2.6c0.9,3.8-1.6,5.4-4.2,6.3c0.8-2.8,1.3-6-3.5-6c-3.5,0-6.2-0.6-7.8-2.9c-0.1,3-0.4,14.9-0.4,14.9
				c-0.2,4.5,6,4.3,9.9,3c-1.5,5.2-4.5,7.9-11.6,7.2c1.7,0.7,3.5,2.3,3.5,5.4c0,4.2-3.4,8.8-5.6,10.2L63.1,198.8z"/>
			<path class="st2" d="M65.3,198.8c0-11.2-10.1-17-18-17c-10.7,0-16.3,6.4-16.3,14.7c0,4.7,0.9,7.7,3.1,12.2
				c0,0,17.6,36.5,24.5,50.6c0.9,1.8,1.1,3.8,1.1,6.7c0,4.5-4.4,8.2-9.1,8.4c-4.2,0.1-8.8-3.9-8.8-8.5c0-5.6,2.9-8.1,5.9-8.1
				c3.7,0,5.1,1.5,5.1,4.1c0,1.8-0.9,2.5-2.1,2.5c-3.1,0-2.3-4.2-2.3-4.2c-1.6,0.3-2.8,1.9-2.1,3.9c-1.1,0.3-2.2,0.8-3,1.8
				c0.8,0.8,1.8,1.4,3,1.7c-0.7,2.4,0.3,3.6,2.4,4.1c-0.4-0.9-0.4-1.8-0.3-2.6c3.4,1,8.5-0.6,8.5-6.3c0-5.7-4-10.5-11.5-9.4
				c1.8-0.8,2.7-2.6,2.9-4.5c-1.4,0.5-2.9,0.6-2.9,0.6c0.9-1.6,2.1-2.9,2-5.9c-1.4,0.6-2.7,1.8-4.4,1.1c2.8-5.5-0.6-13-9.3-14.8
				c3.2,3.7,4.7,7.7,4.7,11.7c0,13-3.6,15.2-3.6,24.2c0,3.8,1.9,7.9,5.8,10.6v-0.1c-2.5,0.7-4.2,1.9-5.1,3.6
				c5.8,1.6,14.3,1.6,18.9-0.2c5.2-0.6,8.9-4.6,9.9-6.6c1.1-2,3.2-9.4,0-16c-3.5-7.2-19.8-41.7-24.9-52.6c-1.1-2.3-1.7-4.7-1.7-7.4
				c0-6.7,6.1-9,9.6-9c4.1,0,8.4,3.2,8.4,7.1c0,2.5-1.4,4-3.3,4c-4.7,0-4.4-4-3.5-6.5c-2.9,1.3-4.6,3.7-4.2,6.1
				c-1.6,0.2-3.2,1-4.7,2.6c1.1,1.4,2.5,2.5,4.7,2.6c-0.9,3.8,1.6,5.4,4.2,6.3c-0.8-2.8-1.3-6,3.5-6c3.5,0,6.2-0.6,7.8-2.9
				c0.1,3,0.4,14.9,0.4,14.9c0.2,4.5-6,4.3-9.9,3c1.5,5.2,4.5,7.9,11.6,7.2c-1.7,0.7-3.5,2.3-3.5,5.4c0,4.2,3.4,8.8,5.7,10.2
				L65.3,198.8z"/>
			<path class="st2" d="M65.3,165.2c0,11.2-10.1,17-18,17c-10.7,0-16.3-6.4-16.3-14.7c0-4.7,0.9-7.7,3.1-12.2
				c0,0,17.6-36.5,24.5-50.7c0.9-1.7,1.1-3.8,1.1-6.7c0-4.6-4.4-8.2-9.1-8.4c-4.2-0.1-8.8,3.9-8.8,8.5c0,5.6,2.9,8,5.9,8
				c3.7,0,5.1-1.5,5.1-4c0-1.8-0.9-2.6-2.1-2.6c-3.1,0-2.3,4.2-2.3,4.2c-1.6-0.4-2.8-1.9-2.1-3.9c-1.1-0.3-2.2-0.8-3-1.8
				c0.8-0.8,1.8-1.5,3-1.7c-0.7-2.5,0.3-3.6,2.4-4.1c-0.4,1-0.4,1.8-0.3,2.6c3.4-1,8.5,0.6,8.5,6.3c0,5.7-4,10.6-11.5,9.3
				c1.8,0.9,2.7,2.6,2.9,4.6c-1.4-0.5-2.9-0.6-2.9-0.6c0.9,1.5,2.1,2.9,2,5.9c-1.4-0.6-2.7-1.8-4.4-1.1c2.8,5.5-0.6,13-9.3,14.8
				c3.2-3.8,4.7-7.8,4.7-11.8c0-13-3.6-15.1-3.6-24.2c0-3.8,1.9-7.9,5.8-10.6v0.2c-2.5-0.7-4.2-1.9-5.1-3.6
				c5.8-1.7,14.3-1.6,18.9,0.2c5.2,0.6,8.9,4.6,9.9,6.6c1.1,2,3.2,9.4,0,16c-3.5,7.3-19.8,41.7-24.9,52.6c-1.1,2.3-1.7,4.7-1.7,7.4
				c0,6.6,6.1,8.9,9.6,8.9c4.1,0,8.4-3.2,8.4-7.1c0-2.5-1.4-4-3.3-4c-4.7,0-4.4,4-3.5,6.5c-2.9-1.3-4.6-3.6-4.2-6.1
				c-1.6-0.2-3.2-1-4.7-2.6c1.1-1.4,2.5-2.5,4.7-2.5c-0.9-3.8,1.6-5.4,4.2-6.3c-0.8,2.8-1.3,6,3.5,6c3.5,0,6.2,0.6,7.8,2.9
				c0.1-3,0.4-14.9,0.4-14.9c0.2-4.5-6-4.3-9.9-3c1.5-5.2,4.5-8,11.6-7.3c-1.7-0.7-3.5-2.3-3.5-5.4c0-4.2,3.4-8.8,5.7-10.2
				L65.3,165.2z"/>
			<path class="st2" d="M63.1,165.2c0,11.2,10.1,17,18,17c10.7,0,16.3-6.4,16.3-14.7c0-4.7-0.9-7.7-3-12.2c0,0-17.6-36.5-24.5-50.7
				c-0.9-1.7-1.1-3.8-1.1-6.7c0-4.6,4.4-8.2,9-8.4c4.2-0.1,8.8,3.9,8.8,8.5c0,5.6-2.9,8-5.9,8c-3.7,0-5.1-1.5-5.1-4
				c0-1.8,0.9-2.6,2.1-2.6c3.1,0,2.2,4.2,2.2,4.2c1.6-0.4,2.8-1.9,2.1-3.9c1.1-0.3,2.2-0.8,3.1-1.8c-0.8-0.8-1.8-1.5-3.1-1.7
				c0.7-2.5-0.2-3.6-2.4-4.1c0.4,1,0.5,1.8,0.3,2.6c-3.4-1-8.5,0.6-8.5,6.3c0,5.7,4,10.6,11.5,9.3c-1.8,0.9-2.7,2.6-2.9,4.6
				c1.4-0.5,2.9-0.6,2.9-0.6c-0.9,1.5-2.1,2.9-2,5.9c1.4-0.6,2.7-1.8,4.4-1.1c-2.8,5.5,0.6,13,9.3,14.8c-3.2-3.8-4.7-7.8-4.7-11.8
				c0-13,3.6-15.1,3.6-24.2c0-3.8-1.9-7.9-5.8-10.6v0.2c2.5-0.7,4.2-1.9,5.1-3.6c-5.8-1.7-14.3-1.6-18.9,0.2
				c-5.2,0.6-8.8,4.6-9.9,6.6c-1.1,2-3.2,9.4,0,16c3.5,7.3,19.8,41.7,24.9,52.6c1.1,2.3,1.7,4.7,1.7,7.4c0,6.6-6.1,8.9-9.5,8.9
				c-4.2,0-8.4-3.2-8.4-7.1c0-2.5,1.4-4,3.3-4c4.7,0,4.4,4,3.5,6.5c2.9-1.3,4.6-3.6,4.2-6.1c1.7-0.2,3.2-1,4.7-2.6
				c-1.1-1.4-2.5-2.5-4.7-2.5c0.9-3.8-1.6-5.4-4.2-6.3c0.8,2.8,1.3,6-3.5,6c-3.5,0-6.2,0.6-7.8,2.9c-0.1-3-0.4-14.9-0.4-14.9
				c-0.2-4.5,6-4.3,9.9-3c-1.5-5.2-4.5-8-11.6-7.3c1.7-0.7,3.5-2.3,3.5-5.4c0-4.2-3.4-8.8-5.6-10.2L63.1,165.2z"/>
			<path class="st2" d="M65.3,361.3c0,11.2-10.1,17-18,17c-10.7,0-16.3-6.4-16.3-14.7c0-4.7,0.9-7.7,3.1-12.2
				c0,0,17.6-36.5,24.5-50.6c0.9-1.8,1.1-3.8,1.1-6.7c0-4.5-4.4-8.2-9.1-8.4c-4.2-0.1-8.8,3.9-8.8,8.5c0,5.6,2.9,8.1,5.9,8.1
				c3.7,0,5.1-1.5,5.1-4.1c0-1.8-0.9-2.5-2.1-2.5c-3.1,0-2.3,4.2-2.3,4.2c-1.6-0.4-2.8-1.9-2.1-3.9c-1.1-0.3-2.2-0.9-3-1.8
				c0.8-0.8,1.8-1.5,3-1.7c-0.7-2.4,0.3-3.6,2.4-4.1c-0.4,0.9-0.4,1.8-0.3,2.6c3.4-1,8.5,0.6,8.5,6.3c0,5.7-4,10.6-11.5,9.4
				c1.8,0.9,2.7,2.6,2.9,4.5c-1.4-0.5-2.9-0.6-2.9-0.6c0.9,1.5,2.1,2.9,2,5.9c-1.4-0.6-2.7-1.8-4.4-1c2.8,5.4-0.6,13-9.3,14.8
				c3.2-3.7,4.7-7.8,4.7-11.8c0-13-3.6-15.1-3.6-24.2c0-3.8,1.9-7.9,5.8-10.6v0.2c-2.5-0.7-4.2-1.9-5.1-3.6
				c5.8-1.7,14.3-1.6,18.9,0.2c5.2,0.6,8.9,4.6,9.9,6.6c1.1,2,3.2,9.4,0,16c-3.5,7.3-19.8,41.8-24.9,52.6c-1.1,2.3-1.7,4.7-1.7,7.4
				c0,6.7,6.1,8.9,9.6,8.9c4.1,0,8.4-3.2,8.4-7.1c0-2.5-1.4-4-3.3-4c-4.7,0-4.4,4-3.5,6.5c-2.9-1.3-4.6-3.7-4.2-6.1
				c-1.6-0.2-3.2-1-4.7-2.6c1.1-1.4,2.5-2.5,4.7-2.5c-0.9-3.8,1.6-5.4,4.2-6.3c-0.8,2.8-1.3,6,3.5,6c3.5,0,6.2,0.6,7.8,2.9
				c0.1-3,0.4-14.9,0.4-14.9c0.2-4.5-6-4.3-9.9-3c1.5-5.1,4.5-7.9,11.6-7.2c-1.7-0.7-3.5-2.3-3.5-5.4c0-4.2,3.4-8.8,5.7-10.2
				L65.3,361.3z"/>
			<path class="st2" d="M63.1,361.3c0,11.2,10.1,17,18,17c10.7,0,16.3-6.4,16.3-14.7c0-4.7-0.9-7.7-3-12.2c0,0-17.6-36.5-24.5-50.6
				c-0.9-1.8-1.1-3.8-1.1-6.7c0-4.5,4.4-8.2,9-8.4c4.2-0.1,8.8,3.9,8.8,8.5c0,5.6-2.9,8.1-5.9,8.1c-3.7,0-5.1-1.5-5.1-4.1
				c0-1.8,0.9-2.5,2.1-2.5c3.1,0,2.2,4.2,2.2,4.2c1.6-0.4,2.8-1.9,2.1-3.9c1.1-0.3,2.2-0.9,3.1-1.8c-0.8-0.8-1.8-1.5-3.1-1.7
				c0.7-2.4-0.2-3.6-2.4-4.1c0.4,0.9,0.5,1.8,0.3,2.6c-3.4-1-8.5,0.6-8.5,6.3c0,5.7,4,10.6,11.5,9.4c-1.8,0.9-2.7,2.6-2.9,4.5
				c1.4-0.5,2.9-0.6,2.9-0.6c-0.9,1.5-2.1,2.9-2,5.9c1.4-0.6,2.7-1.8,4.4-1c-2.8,5.4,0.6,13,9.3,14.8c-3.2-3.7-4.7-7.8-4.7-11.8
				c0-13,3.6-15.1,3.6-24.2c0-3.8-1.9-7.9-5.8-10.6v0.2c2.5-0.7,4.2-1.9,5.1-3.6c-5.8-1.7-14.3-1.6-18.9,0.2
				c-5.2,0.6-8.8,4.6-9.9,6.6c-1.1,2-3.2,9.4,0,16c3.5,7.3,19.8,41.8,24.9,52.6c1.1,2.3,1.7,4.7,1.7,7.4c0,6.7-6.1,8.9-9.5,8.9
				c-4.2,0-8.4-3.2-8.4-7.1c0-2.5,1.4-4,3.3-4c4.7,0,4.4,4,3.5,6.5c2.9-1.3,4.6-3.7,4.2-6.1c1.7-0.2,3.2-1,4.7-2.6
				c-1.1-1.4-2.5-2.5-4.7-2.5c0.9-3.8-1.6-5.4-4.2-6.3c0.8,2.8,1.3,6-3.5,6c-3.5,0-6.2,0.6-7.8,2.9c-0.1-3-0.4-14.9-0.4-14.9
				c-0.2-4.5,6-4.3,9.9-3c-1.5-5.1-4.5-7.9-11.6-7.2c1.7-0.7,3.5-2.3,3.5-5.4c0-4.2-3.4-8.8-5.6-10.2L63.1,361.3z"/>
			<path class="st2" d="M64.2,44.1c0,0,5.3-4.5,7.1-2.3c2.9,3.6-8.9,21.5-8.9,27.9c0,10.4,6.9,13.2,15.5,14.6
				c5.7,1,15.1-0.4,15.1-0.4c-1.8-2.4-2.9-3.1-5.9-3.2c3.3-1.7,6.7-5.4,6.7-11.2c0-8.9-3.7-12.6-3.7-22.6c0-5.6,4.6-12.7,4.6-12.7
				c-8.1,0.8-12.1,8.3-9.8,14.3c-1.3,0.2-2.5-0.1-3.5-1.1c-0.6,1.7,0.3,3.6,1.6,5.2c-1,0.5-1.8,0.2-3.4-0.1c0.2,1.7,1.2,3.5,3.7,5.2
				c-7.3-1.9-11.8,3.2-11.8,8.5c0,4,2.8,6.9,5.5,6.9c0.9,0,2.2-0.4,3-0.9c0.5,1.1,0.2,2.6-0.3,3.7c2-0.5,3.3-1.7,2.4-4.2
				c1.5-0.1,2.8-0.7,3.6-1.7c-0.8-1.1-2.1-1.7-3.6-1.7c1.1-2.3-0.1-3.6-2-4.7c0,0,1.1,4.7-1.8,4.7c-1.4,0-2.6-0.4-2.6-2.4
				c0-1.7,1.5-4.1,5-3.9c3.5,0.2,6.3,2.4,6.3,7.9c0,5.1-4.1,7.6-9.5,7.8c-4.9,0.1-8.6-2.5-8.6-7.5c0-6.7,9.7-22,9.7-27.9
				c0-4.5-4-7-8-7c-5.1,0-9.4,5.1-9.4,5.1L64.2,44.1z"/>
			<path class="st2" d="M64.2,44.1c0,0-5.3-4.5-7.1-2.3C54.2,45.4,66,63.4,66,69.7c0,10.4-6.9,13.2-15.5,14.6
				c-5.8,1-15.1-0.4-15.1-0.4c1.8-2.4,2.9-3.1,5.9-3.2c-3.3-1.7-6.7-5.4-6.7-11.2c0-8.9,3.7-12.6,3.7-22.6c0-5.6-4.6-12.7-4.6-12.7
				c8.1,0.8,12.1,8.3,9.8,14.3c1.3,0.2,2.5-0.1,3.5-1.1c0.6,1.7-0.3,3.6-1.6,5.2c1,0.5,1.7,0.2,3.4-0.1c-0.2,1.7-1.2,3.5-3.7,5.2
				c7.3-1.9,11.8,3.2,11.8,8.5c0,4-2.8,6.9-5.6,6.9c-0.9,0-2.2-0.4-2.9-0.9c-0.5,1.1-0.3,2.6,0.3,3.7c-2-0.5-3.3-1.7-2.4-4.2
				c-1.5-0.1-2.8-0.7-3.6-1.7c0.8-1.1,2.1-1.7,3.6-1.7c-1.1-2.3,0.1-3.6,2-4.7c0,0-1.1,4.7,1.8,4.7c1.4,0,2.6-0.4,2.6-2.4
				c0-1.7-1.5-4.1-5-3.9c-3.5,0.2-6.3,2.4-6.3,7.9c0,5.1,4.1,7.6,9.5,7.8c4.9,0.1,8.6-2.5,8.6-7.5c0-6.7-9.7-22-9.7-27.9
				c0-4.5,4-7,8-7c5.1,0,9.4,5.1,9.4,5.1L64.2,44.1z"/>
			<path class="st3" d="M53.7,360.4c-0.1-0.9-2-0.4-3.5,0c-1.5,0.3-2.4,1.1-2.3,2c0.1,0.9,1.9,0.4,3.4,0.1
				C52.9,362.1,53.8,361.3,53.7,360.4L53.7,360.4z"/>
			<g class="st4">
				<path class="st5" d="M48.9,363.4L48.9,363.4h-0.5l-1-1c-0.1-1.2,0.9-2.1,2.7-2.5c1.2-0.3,2.1-0.5,2.8-0.5h0.5l0.9,1
					c0.1,1.2-1,2.2-2.8,2.6C50.5,363.2,49.6,363.4,48.9,363.4L48.9,363.4z"/>
			</g>
			<path class="st2" d="M501.2,380.5c-75.2,0.3-128.1-60-132.8-120.3c0,0-3-1.1-3.4,1.5c-0.9,6.4,1.7,26,0.7,24.7
				c-1.8-2.5-15.6-39.2-18.1-35.3c-3.3,5.4,15.4,47.2,14.3,48.4c-3.8,4.5-25.2-40.8-27-37.5c-6.5,12.7,26.6,53.8,26.3,55.6
				c-0.7,5.5-25.2-22.1-27.2-19.2c-4.6,6.7,26.3,31,28,32.8c4.8,5.5-16.9-9.8-17.6-4.5c-0.5,4.4,10.5,13.1,17.2,16.9
				c6.6,3.8,8.8,2.6,10.6,5.9c1.4,2.4-12.4-1.6-12,1.5c0.7,6,15.2,4.7,17.4,7.4c2.2,2.7-9.8,0.6-9.4,2.9c0.8,3.9,13.1,4.5,13.3,6.2
				c0.2,1.7-7.7,0.5-7.2,3.8c0.4,2.8,12.4,2.2,15.4,4.1c2.9,1.9-10.8,0.3-0.1,5.6c10.6,5.3,22.8,11.3,39.5,14.5
				c16.7,3.3,25.2-0.4,25.8-1.5c0.6-1.1-7.9,0.9-19.7-1.3c-11.8-2.2-27.6-9.6-34.1-13.4c-2-1.2,6.3-3.6,4.6-5.9
				c-1.8-2.3-8.4,0.3-11-3c-1.7-2.1,3.2-2.1,3-3.5c-0.1-1.2-9.2-3.4-10.9-5.6c-1.7-2.3,4.1-1.9,4.3-3.5c0.2-1.1-5.7-3.1-6.2-4.6
				c-0.4-1.5,6.6-1.1,3.3-2.9c-3.5-2-13-4.4-14.8-7.8c-1.7-3.3,7.3,0.5,4.9-2.7c-1.6-2.2-10.3-5.9-12.2-11c-1.3-3.4,6.2-0.4,6.3-2.6
				c0.2-3.4-4.4-1.2-5.8-11.2c-0.5-3.2,5.8-1.1,5.8-1.1l0.8-1.7c0,0,7.4,4.1,17,15.2c9.5,11.1,12.2,21.5,21.3,29.1
				c4.3,3.6,4.4-1.4,14.2,4.6c9.8,6.1,13.8,10.3,24,19.1c1.4,1.2,8.1-1.2,27.7,2.9c10.5,2.2,12.7,7.8,12.7,7.8
				c0.1,0.2,5.9-3.6,8.7-7.8c1.1-1.7,2.2-0.1,2.5-0.4C502.5,381.9,501.2,380.5,501.2,380.5L501.2,380.5z"/>
			<g class="st4">
				<path class="st6" d="M441.7,397.4c-3.9,0-8.2-0.4-12.8-1.3c-17.3-3.4-30.2-9.9-39.6-14.6c-3.3-1.7-4.6-2.7-4.4-3.8
					c0.1-1,1.7-1.3,3.2-1.6c0.5-0.1,1.4-0.3,1.5-0.4c-1.4-0.6-4.4-1-7.3-1.3c-4.4-0.5-8.3-1-8.6-3l0-0.3l0.4-1.3
					c0.8-1.1,2.8-1.4,4.5-1.7c0.8-0.1,2.2-0.4,2.4-0.6c-0.2-0.3-2.4-0.9-4-1.2c-3.8-1-8.6-2.2-9.2-4.9c0.8-1.7,2.6-1.8,5.4-1.9
					c1.5-0.1,3.9-0.2,4.2-0.5c-0.9-1.1-3.6-1.5-6.3-2c-5.1-0.9-10.8-1.8-11.3-5.9c1.4-2.9,4.3-1.9,7.7-1.5c1.3,0.1,2.5,0.2,3.4,0.2
					c0-1.7-1-2-3-2.7c-1.5-0.6-3.6-1.3-6.5-2.9c-6.2-3.5-18-12.6-17.4-17.4c0.1-0.6,0.4-1.6,2.1-1.6c2.7,0,7.7,2.6,11.7,4.6
					c2,1.1,4.3,2.2,4.8,2.2c-1.2-0.6-2.3-1.6-4-3.1c-14.3-12.3-28.4-25.6-24.9-30.8c2.8-0.6,7,3.2,13.7,9.4
					c5.1,4.6,11.3,10.3,13.2,10.3c0.1-0.6-2-3.6-4.1-6.7c-8.8-12.7-27.1-39.3-22-49.3c2.2-0.5,4.8,3.7,11.2,14.9
					c5.2,9,13.1,22.6,15.6,22.6c0.2-0.8-2-6.7-4.2-12.4c-6.7-17.7-12.1-32.7-10-36.1c2.9-0.7,7.4,8.3,14.8,25.8
					c1.6,3.8,3,7.2,3.8,8.7c-0.4-1.3-0.6-3.9-0.8-6.4c-0.5-6.1-1.1-13.6-0.5-17.2c0.2-1.4,1.1-2.3,2.6-2.3c0.8,0,1.5,0.3,1.5,0.3
					c5,59.3,55.6,120.2,132.1,120.2c1,0.3,1.7,1,1.7,2l0,0.3l-0.7,1l-0.8-0.5L500,383c-3.4,4.7-9.1,8.6-9.8,8.6
					c-0.8-0.9-3.2-5.8-12.9-7.8c-10.8-2.2-17.6-2.5-21.7-2.5l-3.6,0c-1.4,0-2.2-0.1-2.7-0.5l-5.9-5.1c-6.3-5.5-10.5-9.2-18.1-13.9
					c-4.5-2.8-6.9-3.2-8.5-3.2l-1.9,0.1c-1.2,0-2.3-0.3-3.8-1.6c-5.1-4.2-8.2-9.5-11.6-15c-2.7-4.6-5.6-9.3-9.8-14.2
					c-9.4-10.9-16.7-15.1-16.8-15.1l-0.1,1.5c-0.7,0.3-2.7-0.4-4.2-0.4c-0.7,0-1.2,0.1-1.4,0.4c0.7,6.6,2.6,8,4,9.1
					c0.9,0.7,1.8,1.3,1.7,3c-0.1,1.4-1.8,1.4-2.6,1.4l-2.2,0c-1.1,0-1.5,0.2-1.6,0.3c1.2,3.8,5.3,6.6,8.3,8.6c1.8,1.2,3.2,2.1,3.8,3
					l0.2,0.3l0.2,1.4c-0.3,0.6-1.1,0.6-1.7,0.6l-2.8-0.1c0.3,2.8,5.1,4.6,8.9,6.1c2,0.8,3.7,1.5,4.9,2.1c0.6,0.4,1.3,0.8,1.2,1.4
					c-0.1,0.8-1.1,1-2.3,1.3c-0.6,0.1-1.7,0.4-1.9,0.6c0.2,0.4,1.9,1.4,3.1,2c1.9,1.1,3.2,1.7,3.1,2.7c-0.1,1-1.4,1.4-2.7,1.7
					c-0.7,0.2-1.8,0.5-1.9,0.9c1,1.6,4,2.7,6.5,3.7c3.2,1.2,4.6,1.8,4.7,2.7c0.1,1-1,1.4-1.9,1.8c-0.5,0.2-1.4,0.6-1.5,0.9
					c1.5,2.1,3.9,2.1,6.2,2.1c2.1,0,4.1,0.1,5,1.3l0.3,1.3c-0.2,1.2-1.8,2.2-3.2,3.1c-0.7,0.4-1.7,1.1-1.8,1.4
					c5.9,3.3,21.8,11,33.9,13.2c3.9,0.7,7.9,1.1,12.2,1.1c1.7,0,3.1-0.1,4.3-0.1l1.9-0.1c1,0,1.4,0.1,1.7,0.5
					C454.7,395.4,450.1,397.4,441.7,397.4L441.7,397.4z M363.1,350.4c-1.7,0-2.1,0.3-2.2,0.4c0.4,3.5,5.9,4.4,10.3,5.2
					c3.3,0.5,5.9,1,6.9,2.2l0.2,0.3l0.1,1.1c-0.4,1-2.3,1.1-5.2,1.2c-1.4,0.1-4.1,0.2-4.4,0.6c0.4,2,5,3.1,8.4,4
					c3.2,0.8,4.8,1.2,4.9,2.2c0.2,1.3-1.5,1.5-3.3,1.8c-1.4,0.2-3.2,0.5-3.7,1.2c0,1.8,4.3,2.4,7.5,2.8c3.1,0.4,6.1,0.8,7.5,1.7
					l0.7,1.1c-0.2,0.7-1,0.9-2.4,1.1c-0.6,0.1-2.1,0.4-2.3,0.7c0,0,0,0.7,3.8,2.6c9.4,4.7,22.2,11.1,39.3,14.4
					c4.5,0.9,8.7,1.3,12.5,1.3c8.2,0,12.3-2,12.6-2.5l-2.6,0.5c-1.2,0-2.6,0.1-4.3,0.1c-4.4,0-8.4-0.4-12.4-1.1
					c-12.3-2.2-28.4-10-34.3-13.5c-0.6-1.7,0.4-2.3,1.8-3.2c1.1-0.7,2.6-1.7,2.7-2.4c-0.7-1.2-2.5-1.3-4.3-1.3
					c-2.5-0.1-5.3-0.1-6.8-2.1l-0.4-1.5c0.2-0.9,1.2-1.3,2.1-1.7c0.4-0.2,1.1-0.5,1.2-0.7c-0.2-0.3-2.4-1.1-3.9-1.7
					c-2.9-1.1-5.9-2.3-6.8-3.6l-0.3-1.5c0.3-0.9,1.5-1.2,2.7-1.6c0.6-0.2,1.8-0.5,1.9-0.8c-0.1-0.3-1.6-1-2.5-1.5
					c-2-1.1-3.4-1.9-3.6-2.8c0.5-1.5,1.6-1.7,2.7-2c0.6-0.1,1.4-0.3,1.5-0.4c-1.7-0.8-3.5-1.5-5.4-2.2c-4.2-1.7-9-3.5-10.3-6
					l-0.1-0.3l0-1.3c0.6-1,2.1-0.7,3.4-0.6l1.3,0.1c-0.1-1.2-1.5-2.1-3.2-3.2c-3.3-2.2-7.4-5-8.7-8.4c-0.3-0.7-0.2-1.3,0.1-1.7
					c0.5-0.7,1.6-0.8,2.5-0.8l2.2,0.1c0.7,0,1.4-0.1,1.4-0.4c0-1.1-0.4-1.4-1.3-2c-1.5-1.1-3.7-2.7-4.6-9c-0.1-0.7,0-1.2,0.4-1.7
					c1.2-1.4,6-0.1,6.2,0l0.2-1.5c0,0,0,0,0,0c1.2,0,8.4,4.1,17.9,15.1c4.3,5,7.1,9.7,9.9,14.3c3.3,5.5,6.4,10.6,11.3,14.7
					c1.3,1.1,2.2,1.3,3.1,1.3l1.9-0.1c1.8,0,4.3,0.4,9.1,3.3c7.7,4.8,11.9,8.5,18.2,14l5.8,5.1c0.3,0.3,1.5,0.3,2,0.3l3.6,0
					c4.2,0,11,0.3,21.9,2.5c10.7,2.2,13,7.9,13.1,8.1c0-0.6,5.2-4.2,7.7-7.9c0.4-0.7,1-1,1.6-1l1.1,0.4l0.1-1.7l-0.5,0.6
					c-77.1,0-128-61.2-132.8-120.5c-0.2,0-0.5,0-0.8,0c-0.9,0-1.3,0.4-1.5,1.3c-0.5,3.5,0.1,11.3,0.6,17c0.5,6.6,0.5,7.6,0.2,8
					c-1.5-0.9-2.9-4.1-5.3-9.7c-3.5-8.3-10.8-25.6-12.8-25.7c-2,3.3,5.6,23.2,10.1,35.2c4.2,11.1,4.7,12.8,4.2,13.4l-1.1,0.5
					c-2.9,0-8.4-9.2-16.5-23.1c-3.9-6.8-8.4-14.5-9.6-14.9c-4.6,9.3,13.5,35.4,22.2,48c3.8,5.6,4.6,6.7,4.5,7.3l-0.1,0.5l-1.2,0.7
					c-2.1,0-6.7-4-13.9-10.6c-4.9-4.5-10.5-9.5-12-9.5c-3.5,5.1,17.7,23.3,24.6,29.3c1.8,1.5,3,2.5,3.3,2.9c0.6,0.8,1,1.3,0.7,1.7
					c-1.5,0.4-3-0.4-6-1.9c-3.7-1.9-8.8-4.5-11.2-4.5c-0.9,0-1,0.4-1,0.7c-0.5,3.8,9.7,12.2,16.9,16.3c2.8,1.6,4.8,2.3,6.3,2.8
					c2,0.7,3.4,1.2,4.6,3.2c-0.5,3.4-3,1.7-5.5,1.4C365.8,350.6,364.3,350.4,363.1,350.4L363.1,350.4z"/>
			</g>
			<path class="st2" d="M551.8,402.9c-2.7-0.5-2.4,1.7-2.4,1.7c0.2,2.7-1.8,5.6-4,6.2c-1.7,0.4-0.9,1.7-1.5,2.9l-7.3-0.4
				c-11.6,6.3-26.1,8.5-43.6,6.6c0,0-3.7,2.8-6.9,5.6c-3.3,2.9-5.5,3.5-6.2,5.9c-0.7,2.3,1.7,3.5,4.7,3.6c3,0.1,6.9-2.7,6.9-2.7
				s0.5,2.3,3.3,2.5c2.8,0.2,7.8-1.7,7.8-1.7s4.2,1.9,7.5,1.5c3.2-0.4,6-2.5,6-2.5s0.9,3.8,4,3.9c3.2,0.1,8.2-4,8.2-4
				s2.4,2.7,5.3,2.4c3-0.4,6.6-3.8,6.6-3.8s3.6,1.6,7.1,0.5c3.5-1,6.7-4.6,6.7-4.6s3.1,2.5,5.8,1.6c2.8-0.9,4.6-4.8,4.6-4.8
				s7.4,3,12.3,0.6c3.5-1.7,2.5-7.1,2.5-7.1s20.4,3,19.5-10.4C598.9,405.2,566.2,405.6,551.8,402.9L551.8,402.9z"/>
			<g class="st4">
				<path class="st6" d="M520.4,436.7h-0.2c-3-0.2-4.1-3-4.5-4c-0.3,0.7-2.7,2.2-5.5,2.5c-3.9-0.2-7.6-1.5-7.8-1.6
					c0.2,0.1-4.2,1.7-7.1,1.7c-2.8-0.2-3.9-1.8-4.2-2.8c-0.3,0.8-3.6,2.9-6.3,2.9c-2.5-0.1-4.2-0.8-5.1-1.9
					c-0.5-0.7-0.6-1.6-0.4-2.5c0.5-1.7,1.7-2.6,3.4-3.8c0.8-0.6,1.8-1.3,2.9-2.3c3.3-2.9,7-5.7,7-5.7c4.5,0.4,8.4,0.6,12.2,0.6
					c12.2,0,22.8-2.4,31.5-7.2l7.6,0.3c-0.3-1.5-0.2-2.5,1.3-2.9c2.1-0.5,3.8-3.2,3.6-5.6c0-0.1-0.1-1,0.4-1.7
					c0.4-0.4,1-0.7,1.7-0.7c8.8,1.6,22.2,2.1,33,2.5c14.5,0.6,15.5,0.8,15.5,1.7c0.2,2.9-0.6,5.3-2.3,7.1c-3.2,3.4-8.9,4.1-13.2,4.1
					l0,0c-2.2,0-3.9-0.2-4.5-0.3c0.6,0.5,1.1,5.4-2.4,7.1c-4,1.9-11.7-0.2-12.7-0.5c0.3,0.4-1.6,3.8-4.3,4.7
					c-2.6,0.8-5.8-1.3-6.3-1.7c0.1,0.5-3,3.7-6.3,4.6c-3,0.9-7.1-0.4-7.5-0.5c0.2,0.2-3.3,3.5-6.3,3.8c0,0-0.1,0-0.1,0
					c-3.2,0-5.3-2.1-5.7-2.5C528.1,433,523.6,436.7,520.4,436.7L520.4,436.7z M515.8,431.8c0.9,0.5,1.7,3.7,4.4,3.8l0.1,0.6v-0.5
					c3,0,7.6-3.8,7.7-3.9c0.8,0.1,2.7,2.3,5.1,2.3c3.2-0.4,6.7-3.7,6.7-3.7c0.5,0,2.6,0.7,5,0.7c0.8,0,1.6-0.1,2.4-0.3
					c3.3-1,6.5-4.4,6.5-4.4c0.4,0.1,2.8,1.7,5,1.7c3.6-1,5.3-4.6,5.4-4.6c0.8-0.3,4.5,1.2,8.3,1.2c1.7,0,3.2-0.3,4.4-0.9
					c3.1-1.5,2.2-6.5,2.2-6.5c0.6-0.6,2.5-0.4,5.1-0.4l0,0c4.1,0,9.5-0.6,12.4-3.8c1.5-1.6,2.2-3.7,2-6.3c-0.6-0.1-7.7-0.4-14.5-0.7
					c-10.8-0.4-24.2-1-32.3-2.5l-1.5,0.2c0,3.8-2,6.9-4.6,7.6c-0.7,0.2-0.7,0.4-0.8,1.2c0,0.4-0.1,0.9-0.3,1.5l-7.8-0.1
					c-11.3,6.3-26.1,8.5-43.6,6.6c0,0.1-3.4,2.8-6.5,5.5c-1.1,1-2.2,1.7-3,2.4c-1.6,1.2-2.6,1.9-3,3.2c-0.2,0.6-0.1,1.1,0.2,1.5
					c0.6,0.8,2.1,1.4,4,1.4c0,0,0,0,0,0c2.9,0,6.6-2.6,6.6-2.6c0.9,0.4,1.4,2.3,3.6,2.5c0,0,0,0,0,0c3.2,0,7.5-1.6,7.6-1.6
					c0.5,0,3.8,1.5,6.7,1.5C513.2,433.8,515.8,431.8,515.8,431.8L515.8,431.8z"/>
			</g>
			<path class="st2" d="M508.4,388.8c0,0,5.8-2.3,16.4-4.4c19.7-4.1,26.5-2.7,27.9-4c15.6-17.3,27-18.7,38.4-23.2
				c9-7.5,11.9-18.4,21.5-29.4c9.5-11.1,15.2-12,15.2-12l1.3,2.5c0,0,5.1-3.8,4.9-0.6c-0.4,4.9-4.5,9.6-4.3,13c0.1,2.2,7-1,6.4,1
				c-1.6,5.2-7.1,8.3-8.7,10.4c-2.4,3.2,6.3-1.1,4.5,2.2c-1.8,3.4-10.5,6.8-13.9,9c-2.1,1.3,2.3,1.6,1.8,3.1c-0.4,1.5-9.5,4.8-9.3,6
				c0.2,1.6,2.5,1.7,1.4,2.9c-1.9,2.1-9.3,2.4-9.4,3.6c-0.1,1.3,1.5,2.6-0.1,4.7c-2.6,3.3-4.6,0-5.7,2.7c-0.6,1.5,4.3,4.6,1,5.2
				c-4.5,0.8-7.9,2.7-11.8,5.2c-1.5,0.9-8.1,2.2-11.9,3.1c-2.5,0.7-16.4,2.4-15.9,3.5c0.6,1.1,9.4,1,27.9-2.3
				c8-1.4,12.7-2.4,25.2-6.3c14.3-4.6-3.7-4.9-0.7-6.8c2.9-2,15.4-1,15.9-3.8c0.5-3.2-6.9-2.2-6.7-4c0.2-1.7,15.1-1.6,16-5.6
				c0.5-2.3-8.6-0.7-6.4-3.4c2.2-2.7,14.1-3.3,14.5-8.5c0.3-3.1-9.7,0.6-8.4-1.8c0.5-1,4.6-2.1,8.6-4.9c6.2-4.4,16.2-11.9,15.6-16.2
				c-0.7-5.3-20.7,12.3-18.9,5.6c0.6-2.4,32.6-27.7,27.4-33.9c-3.6-4.2-26.4,23.1-27.1,17.6c-0.2-1.8,35.6-42.3,29.1-55
				c-1.7-3.3-28.7,48.4-32.5,43.9c-1.1-1.2,23-51,19.2-56.1c-1.8-2.4-5.6,5.9-9.7,15c-4.1,9.2-8.6,19.3-9.5,20.6
				c-1,1.3,1-19.5,0.1-25.9c-0.4-2.6-3.4-1.5-3.4-1.5c-4.2,64.9-66.5,113.1-116.2,120.2c-12.9,1.8-17,7.9-31.1,15.9
				c-4.8,2.7-12.1,3.9-18.4,7.5c-6.3,3.5-10.8,8.9-12.9,12.2c-1,1.6,0.5,6.3,1.8,6.8c1.3,0.6,1.2-3.5,2.7-4.2
				c1.5-0.7,1.5,1.5,3.2,1.4c1.7-0.1,3.7-1.8,3.7-1.8s35-0.1,50.1-0.5c2.7-0.1,7.2-1.2,9.1-3.2c-0.6-1.7-4.6-0.7-7.2-0.6
				c-10.6-0.8-24.5-0.1-34.3-0.7c0,0-1.6-0.1-1.5-1.7c0.1-0.7,6.3-7.4,6.3-7.4h-4.9c0,0-3,1.7-4.5,1.9c-1.5,0.1-2.1-0.8-1.5-1.2
				C485.9,399,508.4,388.8,508.4,388.8L508.4,388.8z"/>
			<g class="st4">
				<path class="st6" d="M457.4,423.4l-0.4-0.1c-1-0.4-1.7-2.2-2-3c-0.5-1.6-0.8-3.6-0.1-4.7c2.4-3.8,7.1-9,13.1-12.3
					c3.4-1.9,7-3.1,10.4-4.3c3-1,5.7-2,7.9-3.2c4.5-2.5,8-4.9,11.1-7c6.6-4.4,11.3-7.6,20.2-8.9c52.7-7.5,111.7-57.4,115.7-119.6
					c1.1-1.4,4.2-0.7,4.5,1.5c0.5,3.5,0.1,11.1-0.1,17.2c-0.2,3.9-0.4,7.9-0.2,8.5c0-1.2,3.7-9.5,7.4-17.6l1.3-2.9
					c4.8-10.7,7.3-15.8,9.5-15.8h0.3l0.9,0.7c2.5,3.3-4.6,21-13.5,42.1c-2.9,6.8-5.6,13.2-5.6,14.1c2.7-0.1,12.1-15.4,19-26.6
					c8-13,11.2-17.9,12.6-17.9c5.9,10.5-14,36.6-23.5,49.2c-2.4,3.1-4.6,6-4.7,6.5c1.6-0.3,6.5-4.2,10.7-8
					c5.8-5.2,11.8-10.6,14.8-10.6h0.3l1.2,0.6c3.8,4.4-8.1,16.2-20.7,27.8c-3.1,2.9-6.4,6-6.6,6.6c1.4,0.9,4.7-1,7.8-2.9
					c5.7-3.4,10.9-5.8,11.2-2.9c0.4,3.5-4.9,9.1-15.9,16.8c-2.1,1.5-4.2,2.5-5.8,3.2c-1.1,0.5-2.4,1.1-2.5,1.5c1.3,0.1,2,0,2.8-0.1
					c2.3-0.2,4.5-0.3,5.3,0.5l0.4,1.2c-0.3,3.5-5,5-9.2,6.3c-2.4,0.8-4.7,1.5-5.4,2.4c0,0.7,1.6,0.9,2.5,1c1.7,0.2,3.2,0.4,3.7,1.1
					c-0.4,3.8-6,4.7-10.9,5.5c-2.1,0.3-4.6,0.7-4.9,1.1c0.2,0.2,1.5,0.4,2.3,0.6c2.1,0.4,4.9,1,4.5,3.3c-0.3,2-4.2,2.4-8.8,2.8
					c-3,0.3-6.1,0.6-7.3,1.3c0.1,0.1,1.5,0.5,2.4,0.8c2.2,0.6,4.2,1.2,4.2,2.5c0,0.9-0.7,1.9-6,3.6c-12.7,4-17.2,5-25.3,6.4
					c-14.4,2.5-21.4,2.9-24.3,2.9c-3.3,0-4-0.4-4.2-0.9c0.4-1.4,2.7-2,11.4-3.4c2.2-0.4,4-0.7,4.8-0.9c1.2-0.3,2.7-0.7,4.2-1
					c3.1-0.7,6.6-1.5,7.6-2.1c3.7-2.4,7.2-4.4,12-5.3c0.8-0.6,0.1-1.5-0.3-2c-0.7-1-1.5-2-1.1-2.9c0.4-1,1-1.5,2.1-1.5l1.3,0.6v-0.6
					c0.7,0,1.5-0.2,2.5-1.4c0.9-1.1,0.6-1.9,0.3-2.8c-0.2-0.5-0.4-1-0.3-1.6c0.1-1,1.6-1.3,4-1.9c2.1-0.5,4.6-1.1,5.5-2
					c-0.7-1-1.4-1.5-1.5-2.4c-0.1-0.9,1-1.5,4.6-3.3c1.7-0.9,4.6-2.3,4.8-2.9c0.1-0.3-0.6-0.6-1.1-0.9c-0.7-0.3-1.3-0.7-1.4-1.4
					l0-0.3l0.8-0.9c1-0.6,2.5-1.4,4.1-2.2c3.8-1.9,8.4-4.3,9.6-6.5c-0.8-0.5-1.4-0.4-2-0.4c-0.6,0.1-1.2,0.2-1.7,0.2l-1.2-0.6
					c-0.3-0.5,0.1-1.1,0.4-1.6c0.5-0.7,1.4-1.5,2.5-2.4c2.3-2,5.1-4.5,6.2-7.9c-0.8,0-1.4,0.1-2.1,0.2c-2.7,0.4-4.2-0.2-4.3-1.1
					c-0.1-1.8,0.9-3.9,1.9-6.1c1.1-2.3,2.1-4.6,2.3-7c-1.2-0.7-3,0.4-4,1.1l-2.1-2.6c0,0.4-5.4,1.7-14.3,12
					c-4.2,4.9-7.1,9.7-9.9,14.3c-3.4,5.6-6.6,10.9-11.7,15.2c-2.2,0.9-4.2,1.6-6.2,2.3c-9.5,3.3-19.4,6.7-32.1,20.8
					c-0.7,0.7-2.1,0.7-4.9,0.9c-4.2,0.3-11.3,0.7-23.3,3.2c-10.4,2.1-16.2,4.4-16.3,4.4c-0.2,0.1-22.5,10.1-29.9,15.8
					c2.2,0,4.6-1.1,5.3-1.6l5.2-0.1c-2.4,4-5.5,7.6-5.8,8.1l0.9,1.6l0-0.5c9.9,0.6,23.8-0.1,34.4,0.7l1.8-0.2c2.2-0.3,5.1-1,5.9,1.2
					c-2.2,2.7-6.9,3.8-9.6,3.9c-14.8,0.4-49.1,0.5-50.1,0.5c0.1,0-1.9,1.6-3.7,1.7c0,0,0,0,0,0c-1.1,0-1.7-0.6-2.1-1
					c-1.2-0.2-1.7,0.9-2,1.7C458.7,422.3,458.3,423.4,457.4,423.4L457.4,423.4z M635.3,260.6c-0.6,0-1.1,0.2-1.1,0.2
					c-3.7,62.3-63.2,112.6-116.3,120.2c-8.6,1.2-13.3,4.4-19.7,8.8c-3.1,2.1-6.6,4.5-11.2,7.1c-2.3,1.3-5.1,2.3-8.1,3.3
					c-3.4,1.1-7,2.4-10.3,4.2c-5.8,3.3-10.4,8.3-12.7,12c-0.4,0.6-0.3,2.2,0.2,3.8c0.4,1.3,1,2.1,1.3,2.3l0,0
					c0.2-0.2,0.4-0.9,0.6-1.4c0.4-1.1,0.7-2.3,1.7-2.8c1.5-0.2,1.9,0.3,2.2,0.6c0.4,0.4,0.7,0.7,1.1,0.7c1.6-0.1,3.5-1.6,3.5-1.6
					c0.4-0.2,35.4-0.2,50.4-0.6c2.4-0.1,6.9-1.1,8.7-3c-0.3,0.2-0.9,0-2.1,0c-0.8,0-1.8,0.1-2.7,0.2l-1.9,0.2
					c-10.7-0.8-24.5-0.1-34.4-0.7c-0.1,0-1-0.1-1.6-0.8c-0.4-0.4-0.5-1-0.4-1.6c0.1-0.6,2.2-3.2,6.5-7.8l-4.6,1l0,0
					c0.1,0-2.8,1.7-4.4,1.8c-1.2,0.1-2-0.4-2.3-1l-0.1-0.4l0.5-0.8c7.5-5.7,29.3-15.6,30.2-15.9c0.1-0.1,6-2.3,16.5-4.5
					c12.1-2.5,19.2-3,23.4-3.2c2.3-0.2,3.8-0.3,4.2-0.6c12.9-14.3,22.9-17.8,32.5-21.1c2-0.7,4-1.4,6-2.2c4.8-4,7.9-9.3,11.3-14.8
					c2.8-4.7,5.7-9.5,10-14.4c9.6-11.1,15.3-12.1,15.5-12.2l1.8,2.6c-0.1-0.5,2.1-2.1,3.5-2.1l1.1,0.4c0.3,0.3,0.4,0.8,0.4,1.5
					c-0.2,2.6-1.4,5.2-2.5,7.4c-1,2.1-1.9,4-1.8,5.6c1.5,0.3,2.3,0.2,3,0c0.7-0.1,1.4-0.2,2-0.2l1.3,0.5c-1,4.6-4.1,7.4-6.4,9.3
					c-1,0.9-1.8,1.6-2.3,2.3c0.3,0.4,0.8,0.3,1.4,0.2c0.7-0.1,1.3-0.2,1.9-0.2h0.3l1.1,0.6c0.4,0.6,0,1.3-0.1,1.6
					c-1.3,2.6-6,4.9-10.1,7c-1.6,0.8-3,1.6-4,2.2c1.2,1.1,2.4,1.7,2.1,2.8c-0.3,0.9-1.9,1.8-5.3,3.6c-1.6,0.8-3.7,1.9-4,2.3
					c0.1,0.3,0.5,0.6,0.9,0.9l0.8,1.2c-1.6,2.3-4.2,2.9-6.5,3.4c-1.3,0.3-3,0.7-3.2,1c0.6,2,1.1,3.3-0.2,4.9
					c-1.3,1.6-2.4,1.8-3.3,1.8l-1.3-0.1c-0.4,0-0.7,0.1-1,0.8c-0.1,0.4,0.5,1.2,1,1.8c0.7,1,1.4,1.9,1.1,2.8c-0.2,0.5-0.7,0.8-1.5,1
					c-4.6,0.9-8,2.8-11.6,5.1c-1.1,0.7-4.4,1.4-7.9,2.2c-1.5,0.4-3,0.7-4.2,1c-0.8,0.2-2.7,0.5-4.9,0.9c-3.1,0.5-8.4,1.4-10.2,2
					c1.3,0,4.9,1,26.9-2.7c8-1.4,12.5-2.4,25.1-6.3c5.2-1.7,5.2-2.5,5.2-2.5c0-0.5-2.5-1.2-3.4-1.5c-2.1-0.6-3.1-1-3.2-1.7l-0.1-0.4
					l0.6-0.7c1.4-0.9,4.5-1.2,7.8-1.5c3-0.3,7.6-0.7,7.8-1.9c0.2-1.2-1.4-1.6-3.6-2.1c-1.7-0.3-3.3-0.6-3.1-1.9c0.1-1,1.8-1.3,5.9-2
					c3.9-0.6,9.7-1.6,10.1-3.6c-0.3-0.5-1.9-0.7-3-0.8c-1.8-0.2-3.3-0.4-3.7-1.3l-0.1-0.3l0.5-1.2c1-1.2,3.3-1.9,6-2.8
					c3.8-1.2,8.2-2.6,8.4-5.4c-0.3-0.8-2.3-0.7-4.4-0.5c-1.7,0.2-3.4,0.6-4-0.4c0.4-1.8,1.4-2.3,3.1-3.1c1.6-0.8,3.6-1.7,5.7-3.1
					c13.9-9.7,15.6-14,15.4-15.7c-2.4-0.4-6.2,1.7-9.5,3.8c-3.5,2.1-6.6,3.9-8.2,3.9l-1.1-0.5c-0.3-0.4-0.4-1-0.1-1.8
					c0.2-0.8,1.9-2.5,6.9-7.1c8.4-7.8,24-22.3,20.6-26.3c-3,0-9.5,5.5-14.7,10.1c-5.8,5.2-9.5,8.4-11.3,8.4h-0.5l-0.8-1.2
					c-0.1-0.6,0.7-1.7,4.9-7.3c9.4-12.4,29-38.2,24.2-47.5c-1,0.5-6.5,9.5-11.5,17.5c-10,16.3-16.9,27-19.9,27
					c-1.5-1.1-1.1-2.2,4.5-15.5c6-14.2,16-38,13.7-41c-1.9-0.1-5.9,8.5-8.8,14.9l-1.3,2.9c-3.8,8.5-7.4,16.6-8.3,17.8
					c-1.4-0.4-1.4-1.5-1-9.1c0.3-6,0.6-13.6,0.1-17C636.6,261,636.2,260.6,635.3,260.6L635.3,260.6z"/>
			</g>
			<path class="st3" d="M473.6,410c0-0.8-1.7-0.3-2.9,0c-1.2,0.3-2,0.9-1.9,1.7c0.1,0.8,1.6,0.4,2.8,0.1
				C472.9,411.5,473.7,410.8,473.6,410L473.6,410z"/>
			<g class="st4">
				<path class="st5" d="M469.6,412.7h-0.5l-0.8-1c-0.1-1.1,0.8-1.9,2.3-2.2c1.1-0.3,1.8-0.4,2.3-0.4h0.5l0.7,1
					c0.1,1.1-0.9,1.9-2.4,2.3C471,412.5,470.2,412.7,469.6,412.7L469.6,412.7z"/>
			</g>
			<path class="st2" d="M518.5,155.7c4.2,0.8,6.3-1.6,7-4.7c0.8-4.2-1-25.5-1-25.5s-9.8,18.9-10.6,23.2
				C513.3,151.9,514.3,154.9,518.5,155.7L518.5,155.7z"/>
			<path class="st2" d="M534,160.4c4,1.6,6.5-0.3,7.8-3.2c1.6-4,4-25.2,4-25.2s-13.3,16.7-15,20.7C529.6,155.6,530,158.8,534,160.4
				L534,160.4z"/>
			<path class="st2" d="M548.2,168c3.6,2.4,6.4,1,8.3-1.7c2.4-3.6,8.9-23.9,8.9-23.9s-16.3,13.8-18.7,17.3
				C544.8,162.4,544.6,165.6,548.2,168L548.2,168z"/>
			<path class="st2" d="M560.7,178.3c3.1,3,6.1,2.2,8.4-0.1c3-3,13.4-21.7,13.4-21.7s-18.7,10.3-21.7,13.4
				C558.4,172.1,557.6,175.2,560.7,178.3L560.7,178.3z"/>
			<path class="st2" d="M570.9,190.7c2.4,3.6,5.6,3.4,8.3,1.6c3.6-2.4,17.3-18.7,17.3-18.7s-20.3,6.5-23.9,8.8
				C569.9,184.3,568.5,187.1,570.9,190.7L570.9,190.7z"/>
			<path class="st2" d="M578.5,205c1.7,3.9,4.8,4.4,7.8,3.2c4-1.7,20.7-15,20.7-15s-21.2,2.4-25.2,4
				C578.8,198.4,576.9,201,578.5,205L578.5,205z"/>
			<path class="st2" d="M583.2,220.4c0.9,4.2,3.9,5.3,7,4.6c4.2-0.9,23.2-10.7,23.2-10.7s-21.3-1.8-25.5-1
				C584.7,214,582.4,216.2,583.2,220.4L583.2,220.4z"/>
			<path class="st2" d="M584.8,236.5c0,4.3,2.8,5.9,6,5.9c4.3,0,24.8-5.9,24.8-5.9s-20.5-5.9-24.8-5.9
				C587.5,230.5,584.8,232.1,584.8,236.5L584.8,236.5z"/>
			<path class="st2" d="M583.2,252.5c-0.8,4.2,1.5,6.3,4.7,7c4.2,0.9,25.5-1,25.5-1s-19-9.8-23.2-10.7
				C587.1,247.2,584,248.3,583.2,252.5L583.2,252.5z"/>
			<path class="st2" d="M578.5,267.9c-1.6,4,0.3,6.5,3.3,7.8c4,1.7,25.2,4,25.2,4s-16.7-13.3-20.7-15
				C583.3,263.5,580.2,263.9,578.5,267.9L578.5,267.9z"/>
			<path class="st2" d="M570.9,282.1c-2.4,3.6-1,6.5,1.7,8.2c3.6,2.4,23.9,8.9,23.9,8.9s-13.7-16.3-17.3-18.7
				C576.5,278.8,573.3,278.6,570.9,282.1L570.9,282.1z"/>
			<path class="st2" d="M560.7,294.7c-3,3.1-2.3,6.1,0,8.4c3,3,21.7,13.4,21.7,13.4s-10.3-18.7-13.4-21.7
				C566.8,292.4,563.7,291.6,560.7,294.7L560.7,294.7z"/>
			<path class="st2" d="M548.2,304.9c-3.5,2.5-3.4,5.6-1.6,8.2c2.4,3.6,18.7,17.4,18.7,17.4s-6.5-20.4-8.9-23.9
				C554.6,303.8,551.8,302.5,548.2,304.9L548.2,304.9z"/>
			<path class="st2" d="M534,312.5c-4,1.7-4.4,4.8-3.2,7.8c1.6,4,15,20.7,15,20.7s-2.4-21.2-4-25.2
				C540.5,312.8,537.9,310.8,534,312.5L534,312.5z"/>
			<path class="st2" d="M456.8,304.9c-3.6-2.3-6.5-1-8.3,1.7c-2.4,3.6-8.9,23.9-8.9,23.9s16.3-13.8,18.7-17.4
				C460.2,310.4,460.3,307.3,456.8,304.9L456.8,304.9z"/>
			<path class="st2" d="M444.3,294.7c-3.1-3-6.1-2.3-8.4,0c-3.1,3-13.4,21.7-13.4,21.7s18.7-10.3,21.7-13.4
				C446.5,300.8,447.3,297.7,444.3,294.7L444.3,294.7z"/>
			<path class="st2" d="M434.1,282.1c-2.5-3.5-5.6-3.4-8.3-1.6c-3.6,2.4-17.3,18.7-17.3,18.7s20.3-6.5,23.9-8.9
				C435,288.6,436.4,285.7,434.1,282.1L434.1,282.1z"/>
			<path class="st2" d="M426.4,267.9c-1.7-3.9-4.8-4.4-7.8-3.2c-4,1.7-20.7,15-20.7,15s21.2-2.4,25.2-4
				C426.2,274.4,428.1,271.9,426.4,267.9L426.4,267.9z"/>
			<path class="st2" d="M421.7,252.5c-0.9-4.2-3.8-5.3-7-4.6c-4.2,0.9-23.2,10.7-23.2,10.7s21.3,1.8,25.5,1
				C420.2,258.8,422.6,256.7,421.7,252.5L421.7,252.5z"/>
			<path class="st2" d="M420.2,236.5c0-4.3-2.8-5.9-6-5.9c-4.3,0-24.8,5.9-24.8,5.9s20.5,5.9,24.8,5.9
				C417.4,242.4,420.2,240.8,420.2,236.5L420.2,236.5z"/>
			<path class="st2" d="M421.7,220.4c0.8-4.2-1.5-6.4-4.7-7c-4.2-0.9-25.5,1-25.5,1s19,9.8,23.2,10.7
				C417.9,225.7,420.9,224.6,421.7,220.4L421.7,220.4z"/>
			<path class="st2" d="M426.4,205c1.6-4-0.3-6.5-3.2-7.8c-4-1.7-25.2-4-25.2-4s16.7,13.3,20.7,15
				C421.6,209.3,424.8,208.9,426.4,205L426.4,205z"/>
			<path class="st2" d="M434.1,190.7c2.3-3.6,1-6.4-1.7-8.2c-3.6-2.4-23.9-8.8-23.9-8.8s13.7,16.3,17.3,18.7
				C428.5,194.1,431.6,194.3,434.1,190.7L434.1,190.7z"/>
			<path class="st2" d="M444.3,178.3c3-3.1,2.2-6.1,0-8.4c-3-3.1-21.7-13.4-21.7-13.4s10.3,18.7,13.4,21.7
				C438.2,180.5,441.2,181.3,444.3,178.3L444.3,178.3z"/>
			<path class="st2" d="M502.4,164.1c40,0,72.5,32.5,72.5,72.5c0,40-32.4,72.5-72.5,72.5c-40,0-72.5-32.4-72.5-72.5
				C429.9,196.5,462.4,164.1,502.4,164.1L502.4,164.1z"/>
			<path class="st2" d="M502.5,154.1c4.3-0.1,5.9-2.7,5.9-6c0-4.3-5.9-24.8-5.9-24.8s-5.9,20.5-5.9,24.8
				C496.6,151.4,498.2,154.1,502.5,154.1L502.5,154.1z"/>
			<path class="st2" d="M518.5,317.1c-4.2,0.9-5.3,3.8-4.6,7c0.8,4.2,10.6,23.2,10.6,23.2s1.8-21.3,1-25.5
				C524.9,318.7,522.8,316.3,518.5,317.1L518.5,317.1z"/>
			<path class="st2" d="M502.5,318.7c-4.3,0.1-5.9,2.7-5.9,6c0,4.3,5.9,24.8,5.9,24.8s5.9-20.5,5.9-24.8
				C508.4,321.5,506.8,318.7,502.5,318.7L502.5,318.7z"/>
			<path class="st2" d="M486.4,317.1c-4.2-0.8-6.3,1.6-7,4.7c-0.8,4.2,1,25.5,1,25.5s9.8-18.9,10.6-23.2
				C491.7,321,490.6,318,486.4,317.1L486.4,317.1z"/>
			<path class="st2" d="M471,312.5c-4-1.6-6.5,0.3-7.8,3.2c-1.6,4-4,25.2-4,25.2s13.3-16.7,15-20.7C475.4,317.3,475,314.1,471,312.5
				L471,312.5z"/>
			<path class="st2" d="M456.8,168c3.5-2.5,3.4-5.6,1.6-8.3c-2.4-3.6-18.7-17.3-18.7-17.3s6.5,20.4,8.9,23.9
				C450.3,169,453.2,170.4,456.8,168L456.8,168z"/>
			<path class="st2" d="M471,160.4c4-1.7,4.4-4.8,3.2-7.8c-1.7-4-15-20.7-15-20.7s2.4,21.2,4,25.2C464.5,160.1,467,162.1,471,160.4
				L471,160.4z"/>
			<path class="st2" d="M486.4,155.7c4.2-0.9,5.3-3.8,4.6-7c-0.8-4.2-10.6-23.2-10.6-23.2s-1.8,21.3-1,25.5
				C480.1,154.2,482.2,156.6,486.4,155.7L486.4,155.7z"/>
		</g>
	</g>
</g>
</svg>
