<?xml version="1.0" encoding="utf-8"?>
<!-- Generator: Adobe Illustrator 19.2.1, SVG Export Plug-In . SVG Version: 6.00 Build 0)  -->
<svg version="1.1" id="Layer_1" xmlns="http://www.w3.org/2000/svg" xmlns:xlink="http://www.w3.org/1999/xlink" x="0px" y="0px"
	 viewBox="0 0 960 560" style="enable-background:new 0 0 960 560;" xml:space="preserve">
<style type="text/css">
	.st0{clip-path:url(#SVGID_2_);fill:#FFFFFF;}
	.st1{clip-path:url(#SVGID_2_);fill:#2E6934;}
	.st2{clip-path:url(#SVGID_2_);}
	.st3{clip-path:url(#SVGID_4_);fill:#FFFFFF;}
	.st4{clip-path:url(#SVGID_4_);fill:#2E6934;}
</style>
<g>
	<g>
		<defs>
			<rect id="SVGID_1_" x="0.5" y="0.6" width="959" height="559.4"/>
		</defs>
		<clipPath id="SVGID_2_">
			<use xlink:href="#SVGID_1_"  style="overflow:visible;"/>
		</clipPath>
		<rect x="0.5" y="0.6" class="st0" width="959" height="559.4"/>
		<rect x="240.2" y="0.6" class="st1" width="719.3" height="559.4"/>
		<g class="st2">
			<defs>
				<rect id="SVGID_3_" x="0.5" y="0.6" width="959" height="559.4"/>
			</defs>
			<clipPath id="SVGID_4_">
				<use xlink:href="#SVGID_3_"  style="overflow:visible;"/>
			</clipPath>
			<path class="st3" d="M584.8,112.5c92.5,0,167.5,75.1,167.5,167.8c0,92.7-75,167.8-167.5,167.8S417.3,373,417.3,280.3
				C417.3,187.6,492.3,112.5,584.8,112.5"/>
			<path class="st4" d="M525.6,127.2C589,70.7,686,76.5,742.3,140c56.3,63.5,50.6,160.7-12.7,217.2
				c-63.4,56.5-160.4,50.7-216.8-12.8C456.5,280.8,462.2,183.6,525.6,127.2"/>
			<polygon class="st3" points="710,168.8 658.8,191.2 670,216.9 			"/>
			<polygon class="st3" points="710,168.8 681.7,217 657.7,202.9 			"/>
			<polygon class="st3" points="716.4,234.2 679.3,192.4 658.4,211 			"/>
			<polygon class="st3" points="716.4,234.2 661.9,222.3 667.8,194.9 			"/>
			<polygon class="st3" points="645.9,154.7 651.3,210.4 679.1,207.6 			"/>
			<polygon class="st3" points="645.9,154.7 682.9,196.5 662.1,215.1 			"/>
			<polygon class="st3" points="656.3,260.6 684.5,212.3 660.4,198.2 			"/>
			<polygon class="st3" points="656.3,260.6 650.8,204.9 678.6,202.2 			"/>
			<polygon class="st3" points="612.7,211.5 667.2,223.4 673.2,196.1 			"/>
			<polygon class="st3" points="612.7,211.5 663.8,189 675,214.7 			"/>
		</g>
	</g>
</g>
</svg>
