<?xml version="1.0" encoding="utf-8"?>
<!-- Generator: Adobe Illustrator 20.0.0, SVG Export Plug-In . SVG Version: 6.00 Build 0)  -->
<svg version="1.1" id="Layer_1" xmlns="http://www.w3.org/2000/svg" xmlns:xlink="http://www.w3.org/1999/xlink" x="0px" y="0px"
	 viewBox="0 0 960 560" style="enable-background:new 0 0 960 560;" xml:space="preserve">
<style type="text/css">
	.st0{clip-path:url(#SVGID_2_);fill:#4497B1;}
	.st1{clip-path:url(#SVGID_2_);fill:#BC0030;}
	.st2{clip-path:url(#SVGID_2_);fill:#FFFFFF;}
	.st3{clip-path:url(#SVGID_2_);fill:#50B63F;}
	.st4{clip-path:url(#SVGID_2_);}
	.st5{clip-path:url(#SVGID_4_);fill:#FFFFFF;}
	.st6{clip-path:url(#SVGID_4_);fill:#4497B1;}
</style>
<g>
	<g>
		<defs>
			<rect id="SVGID_1_" x="0.6" width="959.4" height="559.6"/>
		</defs>
		<clipPath id="SVGID_2_">
			<use xlink:href="#SVGID_1_"  style="overflow:visible;"/>
		</clipPath>
		<rect x="0.6" class="st0" width="959.4" height="179.1"/>
		<rect x="0.6" y="179.1" class="st1" width="959.4" height="11.2"/>
		<rect x="0.6" y="190.3" class="st2" width="959.4" height="179.1"/>
		<rect x="0.6" y="369.4" class="st1" width="959.4" height="11.2"/>
		<rect x="0.6" y="380.5" class="st3" width="959.4" height="179.1"/>
		<g class="st4">
			<defs>
				<rect id="SVGID_3_" x="0.6" width="959.4" height="559.6"/>
			</defs>
			<clipPath id="SVGID_4_">
				<use xlink:href="#SVGID_3_"  style="overflow:visible;"/>
			</clipPath>
			<path class="st5" d="M224.5,89.5c0,37.1-30.1,67.1-67.2,67.1c-37.1,0-67.1-30.1-67.1-67.1s30.1-67.2,67.1-67.2
				C194.4,22.4,224.5,52.5,224.5,89.5"/>
			<path class="st6" d="M243.5,89.5c0,30.9-25.1,55.9-56,55.9s-56-25.1-56-55.9s25.1-56,56-56S243.5,58.7,243.5,89.5"/>
			<polygon class="st5" points="327.5,22.4 323.3,35.2 329.7,37.2 			"/>
			<polygon class="st5" points="327.5,22.4 331.6,35.2 325.2,37.2 			"/>
			<polygon class="st5" points="340.2,31.7 326.8,31.7 326.8,38.4 			"/>
			<polygon class="st5" points="340.2,31.7 329.4,39.6 325.4,34.1 			"/>
			<polygon class="st5" points="314.7,31.7 325.5,39.6 329.5,34.1 			"/>
			<polygon class="st5" points="314.7,31.7 328.1,31.7 328.1,38.4 			"/>
			<polygon class="st5" points="335.3,46.7 331.2,33.9 324.8,36 			"/>
			<polygon class="st5" points="335.3,46.7 324.5,38.8 328.4,33.4 			"/>
			<polygon class="st5" points="319.5,46.7 330.4,38.8 326.5,33.4 			"/>
			<polygon class="st5" points="319.5,46.7 323.7,33.9 330.1,36 			"/>
			<polygon class="st5" points="381.2,22.4 377,35.2 383.4,37.2 			"/>
			<polygon class="st5" points="381.2,22.4 385.3,35.2 378.9,37.2 			"/>
			<polygon class="st5" points="393.9,31.7 380.5,31.7 380.5,38.4 			"/>
			<polygon class="st5" points="393.9,31.7 383.1,39.6 379.1,34.1 			"/>
			<polygon class="st5" points="368.4,31.7 379.3,39.6 383.2,34.1 			"/>
			<polygon class="st5" points="368.4,31.7 381.8,31.7 381.8,38.4 			"/>
			<polygon class="st5" points="389.1,46.7 384.9,33.9 378.5,36 			"/>
			<polygon class="st5" points="389.1,46.7 378.2,38.8 382.1,33.4 			"/>
			<polygon class="st5" points="373.3,46.7 384.1,38.8 380.2,33.4 			"/>
			<polygon class="st5" points="373.3,46.7 377.4,33.9 383.8,36 			"/>
			<polygon class="st5" points="434.9,22.4 430.8,35.2 437.1,37.2 			"/>
			<polygon class="st5" points="434.9,22.4 439,35.2 432.7,37.2 			"/>
			<polygon class="st5" points="447.7,31.7 434.2,31.7 434.2,38.4 			"/>
			<polygon class="st5" points="447.7,31.7 436.8,39.6 432.8,34.1 			"/>
			<polygon class="st5" points="422.1,31.7 433,39.6 436.9,34.1 			"/>
			<polygon class="st5" points="422.1,31.7 435.5,31.7 435.5,38.4 			"/>
			<polygon class="st5" points="442.8,46.7 438.6,33.9 432.3,36 			"/>
			<polygon class="st5" points="442.8,46.7 431.9,38.8 435.9,33.4 			"/>
			<polygon class="st5" points="427,46.7 437.9,38.8 433.9,33.4 			"/>
			<polygon class="st5" points="427,46.7 431.2,33.9 437.5,36 			"/>
			<polygon class="st5" points="273.7,76.1 269.6,88.9 276,90.9 			"/>
			<polygon class="st5" points="273.7,76.1 277.9,88.9 271.5,90.9 			"/>
			<polygon class="st5" points="286.5,85.4 273.1,85.4 273.1,92.1 			"/>
			<polygon class="st5" points="286.5,85.4 275.6,93.3 271.7,87.9 			"/>
			<polygon class="st5" points="261,85.4 271.8,93.3 275.8,87.9 			"/>
			<polygon class="st5" points="261,85.4 274.4,85.4 274.4,92.1 			"/>
			<polygon class="st5" points="281.6,100.4 277.5,87.6 271.1,89.7 			"/>
			<polygon class="st5" points="281.6,100.4 270.8,92.5 274.7,87.1 			"/>
			<polygon class="st5" points="265.8,100.4 276.7,92.5 272.8,87.1 			"/>
			<polygon class="st5" points="265.8,100.4 270,87.6 276.4,89.7 			"/>
			<polygon class="st5" points="327.5,76.1 323.3,88.9 329.7,90.9 			"/>
			<polygon class="st5" points="327.5,76.1 331.6,88.9 325.2,90.9 			"/>
			<polygon class="st5" points="340.2,85.4 326.8,85.4 326.8,92.1 			"/>
			<polygon class="st5" points="340.2,85.4 329.4,93.3 325.4,87.9 			"/>
			<polygon class="st5" points="314.7,85.4 325.5,93.3 329.5,87.9 			"/>
			<polygon class="st5" points="314.7,85.4 328.1,85.4 328.1,92.1 			"/>
			<polygon class="st5" points="335.3,100.4 331.2,87.6 324.8,89.7 			"/>
			<polygon class="st5" points="335.3,100.4 324.5,92.5 328.4,87.1 			"/>
			<polygon class="st5" points="319.5,100.4 330.4,92.5 326.5,87.1 			"/>
			<polygon class="st5" points="319.5,100.4 323.7,87.6 330.1,89.7 			"/>
			<polygon class="st5" points="381.2,76.1 377,88.9 383.4,90.9 			"/>
			<polygon class="st5" points="381.2,76.1 385.3,88.9 378.9,90.9 			"/>
			<polygon class="st5" points="393.9,85.4 380.5,85.4 380.5,92.1 			"/>
			<polygon class="st5" points="393.9,85.4 383.1,93.3 379.1,87.9 			"/>
			<polygon class="st5" points="368.4,85.4 379.3,93.3 383.2,87.9 			"/>
			<polygon class="st5" points="368.4,85.4 381.8,85.4 381.8,92.1 			"/>
			<polygon class="st5" points="389.1,100.4 384.9,87.6 378.5,89.7 			"/>
			<polygon class="st5" points="389.1,100.4 378.2,92.5 382.1,87.1 			"/>
			<polygon class="st5" points="373.3,100.4 384.1,92.5 380.2,87.1 			"/>
			<polygon class="st5" points="373.3,100.4 377.4,87.6 383.8,89.7 			"/>
			<polygon class="st5" points="434.9,76.1 430.8,88.9 437.1,90.9 			"/>
			<polygon class="st5" points="434.9,76.1 439,88.9 432.7,90.9 			"/>
			<polygon class="st5" points="447.7,85.4 434.2,85.4 434.2,92.1 			"/>
			<polygon class="st5" points="447.7,85.4 436.8,93.3 432.8,87.9 			"/>
			<polygon class="st5" points="422.1,85.4 433,93.3 436.9,87.9 			"/>
			<polygon class="st5" points="422.1,85.4 435.5,85.4 435.5,92.1 			"/>
			<polygon class="st5" points="442.8,100.4 438.6,87.6 432.3,89.7 			"/>
			<polygon class="st5" points="442.8,100.4 431.9,92.5 435.9,87.1 			"/>
			<polygon class="st5" points="427,100.4 437.9,92.5 433.9,87.1 			"/>
			<polygon class="st5" points="427,100.4 431.2,87.6 437.5,89.7 			"/>
			<polygon class="st5" points="220,129.8 215.9,142.6 222.2,144.7 			"/>
			<polygon class="st5" points="220,129.8 224.1,142.6 217.8,144.7 			"/>
			<polygon class="st5" points="232.8,139.1 219.3,139.1 219.3,145.8 			"/>
			<polygon class="st5" points="232.8,139.1 221.9,147 218,141.6 			"/>
			<polygon class="st5" points="207.2,139.1 218.1,147 222,141.6 			"/>
			<polygon class="st5" points="207.2,139.1 220.7,139.1 220.7,145.8 			"/>
			<polygon class="st5" points="227.9,154.1 223.7,141.3 217.4,143.4 			"/>
			<polygon class="st5" points="227.9,154.1 217,146.2 221,140.8 			"/>
			<polygon class="st5" points="212.1,154.1 223,146.2 219,140.8 			"/>
			<polygon class="st5" points="212.1,154.1 216.3,141.3 222.6,143.4 			"/>
			<polygon class="st5" points="273.7,129.8 269.6,142.6 276,144.7 			"/>
			<polygon class="st5" points="273.7,129.8 277.9,142.6 271.5,144.7 			"/>
			<polygon class="st5" points="286.5,139.1 273.1,139.1 273.1,145.8 			"/>
			<polygon class="st5" points="286.5,139.1 275.6,147 271.7,141.6 			"/>
			<polygon class="st5" points="261,139.1 271.8,147 275.8,141.6 			"/>
			<polygon class="st5" points="261,139.1 274.4,139.1 274.4,145.8 			"/>
			<polygon class="st5" points="281.6,154.1 277.5,141.3 271.1,143.4 			"/>
			<polygon class="st5" points="281.6,154.1 270.8,146.2 274.7,140.8 			"/>
			<polygon class="st5" points="265.8,154.1 276.7,146.2 272.8,140.8 			"/>
			<polygon class="st5" points="265.8,154.1 270,141.3 276.4,143.4 			"/>
			<polygon class="st5" points="327.5,129.8 323.3,142.6 329.7,144.7 			"/>
			<polygon class="st5" points="327.5,129.8 331.6,142.6 325.2,144.7 			"/>
			<polygon class="st5" points="340.2,139.1 326.8,139.1 326.8,145.8 			"/>
			<polygon class="st5" points="340.2,139.1 329.4,147 325.4,141.6 			"/>
			<polygon class="st5" points="314.7,139.1 325.5,147 329.5,141.6 			"/>
			<polygon class="st5" points="314.7,139.1 328.1,139.1 328.1,145.8 			"/>
			<polygon class="st5" points="335.3,154.1 331.2,141.3 324.8,143.4 			"/>
			<polygon class="st5" points="335.3,154.1 324.5,146.2 328.4,140.8 			"/>
			<polygon class="st5" points="319.5,154.1 330.4,146.2 326.5,140.8 			"/>
			<polygon class="st5" points="319.5,154.1 323.7,141.3 330.1,143.4 			"/>
			<polygon class="st5" points="381.2,129.8 377,142.6 383.4,144.7 			"/>
			<polygon class="st5" points="381.2,129.8 385.3,142.6 378.9,144.7 			"/>
			<polygon class="st5" points="393.9,139.1 380.5,139.1 380.5,145.8 			"/>
			<polygon class="st5" points="393.9,139.1 383.1,147 379.1,141.6 			"/>
			<polygon class="st5" points="368.4,139.1 379.3,147 383.2,141.6 			"/>
			<polygon class="st5" points="368.4,139.1 381.8,139.1 381.8,145.8 			"/>
			<polygon class="st5" points="389.1,154.1 384.9,141.3 378.5,143.4 			"/>
			<polygon class="st5" points="389.1,154.1 378.2,146.2 382.1,140.8 			"/>
			<polygon class="st5" points="373.3,154.1 384.1,146.2 380.2,140.8 			"/>
			<polygon class="st5" points="373.3,154.1 377.4,141.3 383.8,143.4 			"/>
			<polygon class="st5" points="434.9,129.8 430.8,142.6 437.1,144.7 			"/>
			<polygon class="st5" points="434.9,129.8 439,142.6 432.7,144.7 			"/>
			<polygon class="st5" points="447.7,139.1 434.2,139.1 434.2,145.8 			"/>
			<polygon class="st5" points="447.7,139.1 436.8,147 432.8,141.6 			"/>
			<polygon class="st5" points="422.1,139.1 433,147 436.9,141.6 			"/>
			<polygon class="st5" points="422.1,139.1 435.5,139.1 435.5,145.8 			"/>
			<polygon class="st5" points="442.8,154.1 438.6,141.3 432.3,143.4 			"/>
			<polygon class="st5" points="442.8,154.1 431.9,146.2 435.9,140.8 			"/>
			<polygon class="st5" points="427,154.1 437.9,146.2 433.9,140.8 			"/>
			<polygon class="st5" points="427,154.1 431.2,141.3 437.5,143.4 			"/>
		</g>
	</g>
</g>
</svg>
