<?xml version="1.0" encoding="utf-8"?>
<!-- Generator: Adobe Illustrator 19.2.1, SVG Export Plug-In . SVG Version: 6.00 Build 0)  -->
<svg version="1.1" id="Layer_1" xmlns="http://www.w3.org/2000/svg" xmlns:xlink="http://www.w3.org/1999/xlink" x="0px" y="0px"
	 viewBox="0 0 64 64" style="enable-background:new 0 0 64 64;" xml:space="preserve">
<style type="text/css">
	.st0{fill-rule:evenodd;clip-rule:evenodd;fill:#E0A30A;}
	.st1{fill:#231F20;fill-opacity:0.6;}
	.st2{fill-rule:evenodd;clip-rule:evenodd;fill:#DE7047;}
	.st3{clip-path:url(#SVGID_2_);}
	.st4{opacity:0.3;fill:#231F20;}
	.st5{fill:#47475E;}
	.st6{clip-path:url(#SVGID_4_);}
	.st7{opacity:0.15;fill:#FFFFFF;}
	.st8{opacity:0.15;fill:#231F20;}
	.st9{opacity:0.3;fill:#FFFFFF;}
	.st10{clip-path:url(#SVGID_4_);fill:#231F20;fill-opacity:0.6;}
	.st11{display:none;fill:#47475E;}
</style>
<g>
	<path class="st0" d="M19,13C8.7,13,6,14.4,6,20c0,2,0,5,0,8c0,5.9,5.6,13.5,13,13.5S32,33.9,32,28c0-3,0-6,0-8
		C32,14.4,29.3,13,19,13z"/>
	<path class="st1" d="M14.6,26.5l-5.2-3c0.8-1.4,2.7-1.9,4.1-1.1C14.9,23.2,15.4,25.1,14.6,26.5z"/>
	<path class="st1" d="M27,30c0,3.3-3.6,6-8,6c-6,0-9-4.7-9-8c0,0,2,5,9,5C23.4,33,27,26.7,27,30z"/>
</g>
<g>
	<path class="st2" d="M45,13c10.3,0,13,1.4,13,7c0,2,0,5,0,8c0,5.9-5.6,13.5-13,13.5S32,33.9,32,28c0-3,0-6,0-8
		C32,14.4,34.7,13,45,13z"/>
	<path class="st1" d="M49.4,21.5l5.2,3c-0.8,1.4-2.7,1.9-4.1,1.1C49.1,24.8,48.6,22.9,49.4,21.5z"/>
	<path class="st1" d="M37,34c0-3.3,3.6-6,8-6s9,4.7,9,8c0,0-3.1-5-9-5C40.6,31,37,37.4,37,34z"/>
</g>
<g>
	<g>
		<defs>
			<path id="SVGID_1_" d="M26,39c0,0-2,1-14,7c-4,2-4,3-5,14h50c-1-11-1-12-5-14c-12.8-6.4-14-7-14-7H26z"/>
		</defs>
		<use xlink:href="#SVGID_1_"  style="overflow:visible;fill-rule:evenodd;clip-rule:evenodd;fill:#47475E;"/>
		<clipPath id="SVGID_2_">
			<use xlink:href="#SVGID_1_"  style="overflow:visible;"/>
		</clipPath>
		<g class="st3">
			<path class="st4" d="M58,60V46.9c0-0.4-0.2-0.8-0.6-1c-0.4-0.2-0.8-0.2-1.2,0L32,60H58z"/>
		</g>
	</g>
	<g>
		<path class="st5" d="M32,60L21.2,41.4c-0.6-0.9-0.6-2,0-2.9c0.6-0.9,1.6-1.5,2.7-1.5H40c1.1,0,2.2,0.6,2.7,1.5
			c0.6,0.9,0.6,2,0,2.9L32,60z"/>
		<g>
			<path class="st4" d="M32,37h8c1.1,0,2.2,0.6,2.7,1.5c0.6,0.9,0.6,2,0,2.9L32,60V37z"/>
		</g>
	</g>
</g>
<g>
	<defs>
		<path id="SVGID_3_" d="M32,7c10.3,0,13,7.4,13,13c0,2,0,5,0,8c0,5.9-5.6,13.5-13,13.5S19,33.9,19,28c0-3,0-6,0-8
			C19,14.4,21.7,7,32,7z"/>
	</defs>
	<use xlink:href="#SVGID_3_"  style="overflow:visible;fill-rule:evenodd;clip-rule:evenodd;fill:#85DED8;"/>
	<clipPath id="SVGID_4_">
		<use xlink:href="#SVGID_3_"  style="overflow:visible;"/>
	</clipPath>
	<g class="st6">
		<rect x="19" y="7" class="st7" width="13" height="35"/>
	</g>
	<g class="st6">
		<g>
			<polygon class="st8" points="45.4,14.6 32,22.3 32,32.3 32,42 46,42 			"/>
		</g>
		<g>
			<polygon class="st9" points="32,22.3 32,7 19,7 19,24.8 32,32.3 			"/>
		</g>
	</g>
	<ellipse class="st10" cx="26.5" cy="24" rx="1.5" ry="2"/>
	<ellipse class="st10" cx="37.5" cy="24" rx="1.5" ry="2"/>
</g>
<rect x="18" y="37" class="st11" width="30" height="12"/>
</svg>
