<?xml version="1.0" encoding="utf-8"?>
<!-- Generator: Adobe Illustrator 19.2.1, SVG Export Plug-In . SVG Version: 6.00 Build 0)  -->
<svg version="1.1" id="Layer_1" xmlns="http://www.w3.org/2000/svg" xmlns:xlink="http://www.w3.org/1999/xlink" x="0px" y="0px"
	 viewBox="0 0 64 64" style="enable-background:new 0 0 64 64;" xml:space="preserve">
<style type="text/css">
	.st0{clip-path:url(#SVGID_2_);fill:#C7441C;}
	.st1{clip-path:url(#SVGID_4_);}
	.st2{fill:#C7441C;}
	.st3{opacity:0.3;clip-path:url(#SVGID_6_);fill:#231F20;}
	.st4{opacity:0.15;clip-path:url(#SVGID_6_);fill:#231F20;}
	.st5{clip-path:url(#SVGID_6_);fill:#85DED8;}
	.st6{clip-path:url(#SVGID_8_);}
	.st7{opacity:0.15;fill:#231F20;}
	.st8{opacity:0.6;}
	.st9{fill:#231F20;}
	.st10{fill:#DE7047;}
</style>
<g id="Layer_1">
	<g>
		<g>
			<defs>
				<path id="SVGID_1_" d="M59,60c0-19.3-3.8-22.8-9.2-26c-2.4-1.4-9.9-5.7-12.8-7.4L26,34c0,0-1.4,0.7-4,2c-0.2,0-0.3-1-0.5-1
					c-5.2,0-9.5,4.3-9.5,9.5c0,4.9,3.7,8.9,8.5,9.4c0.3,1.5-6,4.2-6,6.1H59z"/>
			</defs>
			<clipPath id="SVGID_2_">
				<use xlink:href="#SVGID_1_"  style="overflow:visible;"/>
			</clipPath>
			<polygon class="st0" points="39,63.4 8.5,63.4 8.5,32.8 39,28.6 			"/>
			<polygon class="st0" points="53.3,66.1 45.7,52.9 59,45.3 60,61.6 			"/>
			<polygon class="st0" points="41.8,61.2 63.4,61.2 63.4,26.9 35.8,25.9 			"/>
			<polygon class="st0" points="54.8,61.3 38.3,77.8 38.3,51.7 41.7,38.8 			"/>
		</g>
		<g>
			<defs>
				<path id="SVGID_3_" d="M26,7c10.3,0,13,7.4,13,13c0,2,0,5,0,8c0,5.9-5.6,13.5-13,13.5S13,33.9,13,28c0-3,0-6,0-8
					C13,14.4,15.7,7,26,7z"/>
			</defs>
			<clipPath id="SVGID_4_">
				<use xlink:href="#SVGID_3_"  style="overflow:visible;"/>
			</clipPath>
			<g class="st1">
				<g>
					<polygon class="st2" points="41.3,12.3 24,22.3 24,37.2 24,49.7 42,49.7 					"/>
					<polygon class="st2" points="41.3,12.3 24,22.3 24,37.2 24,49.7 42,49.7 					"/>
				</g>
			</g>
			<g class="st1">
				<g>
					<path class="st2" d="M21,25c0,1.1-0.7,2-1.5,2S18,26.1,18,25s0.7-2,1.5-2S21,23.9,21,25z M30.5,23c-0.8,0-1.5,0.9-1.5,2
						s0.7,2,1.5,2s1.5-0.9,1.5-2S31.3,23,30.5,23z"/>
				</g>
				<path class="st2" d="M21,25c0,1.1-0.7,2-1.5,2S18,26.1,18,25s0.7-2,1.5-2S21,23.9,21,25z M30.5,23c-0.8,0-1.5,0.9-1.5,2
					s0.7,2,1.5,2s1.5-0.9,1.5-2S31.3,23,30.5,23z"/>
			</g>
		</g>
		<path class="st2" d="M41.7,38.8c-0.1-0.1-0.1-0.2-0.2-0.2c-2.7-4.3-8.4-5.8-12.8-3.2c-4.5,2.6-6.1,8.4-3.5,13
			c2.6,4.5,8.4,6.1,13,3.5c1.3,2.3,4.2,3,6.5,1.7c1.3-0.7,4.1-2.4,4.1-2.4S42.3,39.7,41.7,38.8z"/>
		<g>
			<path class="st2" d="M9,60h8c0.9-0.5,1.7-1,2.2-1.3c4.5-2.6,6.1-8.4,3.5-13c-2.6-4.5-8.4-6.1-13-3.5c-4.5,2.6-6.1,8.4-3.5,13
				C6.9,56.4,8,58.3,9,60z"/>
			<path class="st2" d="M9,60h8c0.9-0.5,1.7-1,2.2-1.3c4.5-2.6,6.1-8.4,3.5-13c-2.6-4.5-8.4-6.1-13-3.5c-4.5,2.6-6.1,8.4-3.5,13
				C6.9,56.4,8,58.3,9,60z"/>
			<path class="st2" d="M9,60h8c0.9-0.5,1.7-1,2.2-1.3c4.5-2.6,6.1-8.4,3.5-13c-2.6-4.5-8.4-6.1-13-3.5c-4.5,2.6-6.1,8.4-3.5,13
				C6.9,56.4,8,58.3,9,60z"/>
		</g>
	</g>
	<g>
		<g>
			<defs>
				<path id="SVGID_5_" d="M59,60c0-19.3-3.8-22.8-9.2-26c-2.4-1.4-9.9-5.7-12.8-7.4L26,34c0,0-1.4,0.7-4,2c-0.2,0-0.3-1-0.5-1
					c-5.2,0-9.5,4.3-9.5,9.5c0,4.9,3.7,8.9,8.5,9.4c0.3,1.5-6,4.2-6,6.1H59z"/>
			</defs>
			<use xlink:href="#SVGID_5_"  style="overflow:visible;fill:#85DED8;"/>
			<clipPath id="SVGID_6_">
				<use xlink:href="#SVGID_5_"  style="overflow:visible;"/>
			</clipPath>
			<polygon class="st3" points="39,63.4 8.5,63.4 8.5,32.8 39,28.6 			"/>
			<polygon class="st4" points="53.3,66.1 45.7,52.9 59,45.3 60,61.6 			"/>
			<polygon class="st4" points="41.8,61.2 63.4,61.2 63.4,26.9 35.8,25.9 			"/>
			<polygon class="st5" points="54.8,61.3 38.3,77.8 38.3,51.7 41.7,38.8 			"/>
		</g>
		<g>
			<defs>
				<path id="SVGID_7_" d="M26,7c10.3,0,13,7.4,13,13c0,2,0,5,0,8c0,5.9-5.6,13.5-13,13.5S13,33.9,13,28c0-3,0-6,0-8
					C13,14.4,15.7,7,26,7z"/>
			</defs>
			<use xlink:href="#SVGID_7_"  style="overflow:visible;fill-rule:evenodd;clip-rule:evenodd;fill:#85DED8;"/>
			<clipPath id="SVGID_8_">
				<use xlink:href="#SVGID_7_"  style="overflow:visible;"/>
			</clipPath>
			<g class="st6">
				<g>
					<polygon class="st7" points="41.3,12.3 24,22.3 24,37.2 24,49.7 42,49.7 					"/>
				</g>
			</g>
			<g class="st6">
				<g class="st8">
					<path class="st9" d="M21,25c0,1.1-0.7,2-1.5,2S18,26.1,18,25s0.7-2,1.5-2S21,23.9,21,25z M30.5,23c-0.8,0-1.5,0.9-1.5,2
						s0.7,2,1.5,2s1.5-0.9,1.5-2S31.3,23,30.5,23z"/>
				</g>
			</g>
		</g>
		<path class="st10" d="M41.7,38.8c-0.1-0.1-0.1-0.2-0.2-0.2c-2.7-4.3-8.4-5.8-12.8-3.2c-4.5,2.6-6.1,8.4-3.5,13
			c2.6,4.5,8.4,6.1,13,3.5c1.3,2.3,4.2,3,6.5,1.7c1.3-0.7,4.1-2.4,4.1-2.4S42.3,39.7,41.7,38.8z"/>
		<g>
			<path class="st10" d="M9,60h8c0.9-0.5,1.7-1,2.2-1.3c4.5-2.6,6.1-8.4,3.5-13c-2.6-4.5-8.4-6.1-13-3.5c-4.5,2.6-6.1,8.4-3.5,13
				C6.9,56.4,8,58.3,9,60z"/>
			<path class="st7" d="M9,60h8c0.9-0.5,1.7-1,2.2-1.3c4.5-2.6,6.1-8.4,3.5-13c-2.6-4.5-8.4-6.1-13-3.5c-4.5,2.6-6.1,8.4-3.5,13
				C6.9,56.4,8,58.3,9,60z"/>
		</g>
	</g>
	<g>
		<g>
			<defs>
				<path id="SVGID_9_" d="M59,60c0-19.3-3.8-22.8-9.2-26c-2.4-1.4-9.9-5.7-12.8-7.4L26,34c0,0-1.4,0.7-4,2c-0.2,0-0.3-1-0.5-1
					c-5.2,0-9.5,4.3-9.5,9.5c0,4.9,3.7,8.9,8.5,9.4c0.3,1.5-6,4.2-6,6.1H59z"/>
			</defs>
			<clipPath id="SVGID_10_">
				<use xlink:href="#SVGID_9_"  style="overflow:visible;"/>
			</clipPath>
		</g>
		<g>
			<defs>
				<path id="SVGID_11_" d="M26,7c10.3,0,13,7.4,13,13c0,2,0,5,0,8c0,5.9-5.6,13.5-13,13.5S13,33.9,13,28c0-3,0-6,0-8
					C13,14.4,15.7,7,26,7z"/>
			</defs>
			<clipPath id="SVGID_12_">
				<use xlink:href="#SVGID_11_"  style="overflow:visible;"/>
			</clipPath>
		</g>
	</g>
</g>
</svg>
