<?xml version="1.0" encoding="utf-8"?>
<!-- Generator: Adobe Illustrator 19.2.1, SVG Export Plug-In . SVG Version: 6.00 Build 0)  -->
<svg version="1.1" id="Layer_1" xmlns="http://www.w3.org/2000/svg" xmlns:xlink="http://www.w3.org/1999/xlink" x="0px" y="0px"
	 viewBox="0 0 64 64" style="enable-background:new 0 0 64 64;" xml:space="preserve">
<style type="text/css">
	.st0{clip-path:url(#SVGID_2_);fill:#231F20;fill-opacity:0.3;}
	.st1{clip-path:url(#SVGID_4_);}
	.st2{opacity:0.5;fill:#FFFFFF;}
	.st3{clip-path:url(#SVGID_6_);}
	.st4{fill:#85DED8;}
	.st5{opacity:0.15;fill:#231F20;}
	.st6{clip-path:url(#SVGID_8_);}
	.st7{opacity:0.15;fill:#FFFFFF;}
	.st8{opacity:0.3;fill:#FFFFFF;}
	.st9{display:none;}
	.st10{display:inline;fill:#75A2D9;}
	.st11{display:inline;}
	.st12{fill:#75A2D9;}
	.st13{opacity:0.1;fill:#231F20;}
	.st14{fill:#DE7047;}
	.st15{fill:#231F20;fill-opacity:0.6;}
</style>
<g>
	<defs>
		<path id="SVGID_1_" d="M32,6c6.1,0,10.7,2.6,13.2,6.6C46.8,15.1,52,23,52,23c0,8.4-5.7,16-20,16c-14.3,0-20-7.6-20-16
			c0,0,5.2-7.9,6.7-10.3C21.3,8.7,25.8,6,32,6z"/>
	</defs>
	<use xlink:href="#SVGID_1_"  style="overflow:visible;fill:#75A2D9;"/>
	<clipPath id="SVGID_2_">
		<use xlink:href="#SVGID_1_"  style="overflow:visible;"/>
	</clipPath>
	<rect x="32" y="6" class="st0" width="22.1" height="43.5"/>
</g>
<g>
	<defs>
		<path id="SVGID_3_" d="M27,39c0,0-2,1-14,7c-4,2-4,3-5,14h48c-1-11-1-12-5-14c-12.8-6.4-14-7-14-7H27z"/>
	</defs>
	<use xlink:href="#SVGID_3_"  style="overflow:visible;fill:#D1D5DD;"/>
	<clipPath id="SVGID_4_">
		<use xlink:href="#SVGID_3_"  style="overflow:visible;"/>
	</clipPath>
	<g class="st1">
		<path class="st2" d="M19.8,45.2l6.8-11.8l1.1,29.4l-7.9-13.6C18.9,47.8,18.9,46.6,19.8,45.2z"/>
	</g>
	<g class="st1">
		<path class="st2" d="M44.2,45.2l-6.8-11.8l-1.1,29.4l7.9-13.6C45.1,47.8,45.1,46.6,44.2,45.2z"/>
	</g>
</g>
<g>
	<defs>
		<rect id="SVGID_5_" x="26" y="22" width="12" height="38"/>
	</defs>
	<use xlink:href="#SVGID_5_"  style="overflow:visible;fill-rule:evenodd;clip-rule:evenodd;fill:#47475E;"/>
	<clipPath id="SVGID_6_">
		<use xlink:href="#SVGID_5_"  style="overflow:visible;"/>
	</clipPath>
	<g class="st3">
		<polygon class="st4" points="43.4,37.2 32,17.4 20.6,37.2 32,57 		"/>
		<polygon class="st5" points="43.4,37.2 32,17.4 20.6,37.2 32,57 		"/>
	</g>
	<g class="st3">
		<rect x="29.4" y="30.8" transform="matrix(0.5 -0.866 0.866 0.5 -15.4224 49.8104)" class="st5" width="12" height="14.8"/>
	</g>
</g>
<g>
	<defs>
		<path id="SVGID_7_" d="M32,7c10.3,0,13,7.4,13,13c0,2,0,5,0,8c0,5.9-5.6,13.5-13,13.5S19,33.9,19,28c0-3,0-6,0-8
			C19,14.4,21.7,7,32,7z"/>
	</defs>
	<use xlink:href="#SVGID_7_"  style="overflow:visible;fill-rule:evenodd;clip-rule:evenodd;fill:#85DED8;"/>
	<clipPath id="SVGID_8_">
		<use xlink:href="#SVGID_7_"  style="overflow:visible;"/>
	</clipPath>
	<g class="st6">
		<rect x="19" y="7" class="st7" width="13" height="35"/>
	</g>
	<g class="st6">
		<g>
			<polygon class="st5" points="45.4,4.6 32,12.3 32,32.3 32,42 46,42 			"/>
		</g>
		<g>
			<polygon class="st8" points="32,22.3 32,7 19,7 19,24.8 32,32.3 			"/>
		</g>
		<g class="st9">
			<path class="st10" d="M19,0l13,0.3v11.2c-4.5,7.8-13,14.5-13,14.5V0z"/>
			<g class="st11">
				<path class="st12" d="M45,0L32,0.3v11.2c4.5,7.8,13,14.5,13,14.5V0z"/>
				<path class="st13" d="M45,0L32,0.3v11.2c4.5,7.8,13,14.5,13,14.5V0z"/>
			</g>
		</g>
		<ellipse transform="matrix(0.1545 -0.988 0.988 0.1545 34.2348 62.0546)" class="st12" cx="53.4" cy="11" rx="14.1" ry="14.1"/>
		<path class="st12" d="M19-5l20.7,1.5c0,0,0,0.9,0,10c0,9.1-7.4,12.4-20.7,20.1V-5z"/>
	</g>
</g>
<polygon class="st14" points="51,57 48,57 48,60 45,60 45,57 42,57 42,54 45,54 45,51 48,51 48,54 51,54 "/>
<ellipse class="st15" cx="26.5" cy="24" rx="1.5" ry="2"/>
<ellipse class="st15" cx="37.5" cy="24" rx="1.5" ry="2"/>
</svg>
