<?xml version="1.0" encoding="utf-8"?>
<!-- Generator: Adobe Illustrator 19.2.1, SVG Export Plug-In . SVG Version: 6.00 Build 0)  -->
<svg version="1.1" id="Layer_1" xmlns="http://www.w3.org/2000/svg" xmlns:xlink="http://www.w3.org/1999/xlink" x="0px" y="0px"
	 viewBox="0 0 64 64" style="enable-background:new 0 0 64 64;" xml:space="preserve">
<style type="text/css">
	.st0{fill:#75A2D8;}
	.st1{opacity:0.3;fill:#231F20;}
	.st2{fill:#DEDCD9;}
	.st3{opacity:0.5;fill:#FFFFFF;}
	.st4{fill:#231F20;fill-opacity:0.3;}
	.st5{opacity:0.2;clip-path:url(#SVGID_2_);fill:#FFFFFF;}
</style>
<g>
	<path class="st0" d="M24,17h22c1.7,0,3,1.3,3,3v32H3V14c0-1.7,1.3-3,3-3h8c2,0,4,0.2,5,3S22,17,24,17z"/>
	<path class="st1" d="M24,17h22c1.7,0,3,1.3,3,3v32H3V14c0-1.7,1.3-3,3-3h8c2,0,4,0.2,5,3S22,17,24,17z"/>
</g>
<g>
	<path class="st2" d="M61.2,13c0.6-1.1,0.3-2-0.8-2h-37c-1.1,0-2.5,0.9-3.2,2L6.3,37c-0.6,1.1-0.3,2,0.8,2h37c1.1,0,2.5-0.9,3.2-2
		L61.2,13z"/>
	<path class="st3" d="M61.2,13c0.6-1.1,0.3-2-0.8-2h-37c-1.1,0-2.5,0.9-3.2,2L6.3,37c-0.6,1.1-0.3,2,0.8,2h37c1.1,0,2.5-0.9,3.2-2
		L61.2,13z"/>
</g>
<g>
	<polygon class="st4" points="27.4,16 25.4,16 15,34 17,34 	"/>
	<polygon class="st4" points="33.6,16 31.6,16 21.3,34 23.3,34 	"/>
	<polygon class="st4" points="39.9,16 37.9,16 27.5,34 29.5,34 	"/>
	<polygon class="st4" points="46.1,16 44.1,16 33.8,34 35.8,34 	"/>
	<polygon class="st4" points="52.4,16 50.4,16 40,34 42,34 	"/>
</g>
<g>
	<defs>
		<path id="SVGID_1_" d="M40.1,24.1h22c1.7,0,2.2,1.3,1.3,3L49,52H3l10.9-18.9c1-1.7,3.1-3,4.7-3h8c2,0,4.1-0.2,6.7-3
			S38.1,24.1,40.1,24.1z"/>
	</defs>
	<use xlink:href="#SVGID_1_"  style="overflow:visible;fill:#75A2D8;"/>
	<clipPath id="SVGID_2_">
		<use xlink:href="#SVGID_1_"  style="overflow:visible;"/>
	</clipPath>
	<path class="st5" d="M59.4,16c0.6-1.1,0.3-2-0.8-2h-37c-1.1,0-2.5,0.9-3.2,2L6.3,37c-0.6,1.1-0.3,2,0.8,2h37c1.1,0,2.5-0.9,3.2-2
		L59.4,16z"/>
</g>
</svg>
