<?xml version="1.0" encoding="utf-8"?>
<!-- Generator: Adobe Illustrator 19.2.1, SVG Export Plug-In . SVG Version: 6.00 Build 0)  -->
<svg version="1.1" id="Layer_1" xmlns="http://www.w3.org/2000/svg" xmlns:xlink="http://www.w3.org/1999/xlink" x="0px" y="0px"
	 viewBox="0 0 64 64" style="enable-background:new 0 0 64 64;" xml:space="preserve">
<style type="text/css">
	.st0{clip-path:url(#SVGID_2_);fill:#E0A30A;}
	.st1{opacity:0.3;clip-path:url(#SVGID_2_);fill:#FFFFFF;}
	.st2{fill:#575770;}
</style>
<g>
	<g>
		<defs>
			<path id="SVGID_1_" d="M15,56c0,0,0-0.2,0-3c0-16.8,15-15.9,15-21c0-5.1-15-4.2-15-21c0-2.8,0-3,0-3h34c0,0,0,0.2,0,3
				c0,16.8-15,15.9-15,21c0,5.1,15,4.2,15,21c0,2.8,0,3,0,3H15z"/>
		</defs>
		<use xlink:href="#SVGID_1_"  style="overflow:visible;fill:#AFCBE2;"/>
		<clipPath id="SVGID_2_">
			<use xlink:href="#SVGID_1_"  style="overflow:visible;"/>
		</clipPath>
		<polygon class="st0" points="64,56.4 32,74.9 0,56.4 32,37.9 		"/>
		<rect x="32" y="8" class="st1" width="17" height="48"/>
	</g>
	<rect x="13" y="6" class="st2" width="38" height="4"/>
	<rect x="13" y="54" class="st2" width="38" height="4"/>
</g>
</svg>
