<?xml version="1.0" encoding="utf-8"?>
<!-- Generator: Adobe Illustrator 19.2.1, SVG Export Plug-In . SVG Version: 6.00 Build 0)  -->
<svg version="1.1" id="Layer_1" xmlns="http://www.w3.org/2000/svg" xmlns:xlink="http://www.w3.org/1999/xlink" x="0px" y="0px"
	 viewBox="0 0 64 64" style="enable-background:new 0 0 64 64;" xml:space="preserve">
<style type="text/css">
	.st0{clip-path:url(#SVGID_2_);fill:#F7D11A;}
	.st1{clip-path:url(#SVGID_4_);}
	.st2{fill:#EA7A2F;}
	.st3{opacity:0.5;fill:#F7C90B;}
	.st4{clip-path:url(#SVGID_4_);fill:#93684E;fill-opacity:0.7;}
</style>
<g>
	<defs>
		<circle id="SVGID_1_" cx="32" cy="32" r="22"/>
	</defs>
	<use xlink:href="#SVGID_1_"  style="overflow:visible;fill:#E0A30A;"/>
	<clipPath id="SVGID_2_">
		<use xlink:href="#SVGID_1_"  style="overflow:visible;"/>
	</clipPath>
	<polygon class="st0" points="2,8 62,8 62,51 2,16.4 	"/>
</g>
<g>
	<defs>
		<path id="SVGID_3_" d="M60,31h-4C55.5,18.9,46,9.1,34,8.1V4c0-1.1-0.9-2-2-2c-1.1,0-2,0.9-2,2v4.1C18,9.1,8.5,18.9,8,31H4
			c-1.1,0-2,0.9-2,2c0,1.1,0.9,2,2,2h4.2C9.6,46.2,18.7,55,30,55.9V60c0,1.1,0.9,2,2,2c1.1,0,2-0.9,2-2v-4.1
			C45.3,55,54.4,46.2,55.8,35H60c1.1,0,2-0.9,2-2C62,31.9,61.1,31,60,31z M30,12.1v10.1c-4.2,0.9-7.5,4.4-7.9,8.8H12
			C12.5,21.1,20.2,13.1,30,12.1z M30,51.9C20.9,51,13.6,44,12.2,35h10.2c1.1,3.4,4,6.1,7.5,6.8V51.9z M32,38c-3.3,0-6-2.7-6-6
			s2.7-6,6-6c3.3,0,6,2.7,6,6S35.3,38,32,38z M34,51.9V41.8c3.6-0.7,6.5-3.4,7.5-6.8h10.2C50.4,44,43.1,51,34,51.9z M41.9,31
			c-0.4-4.4-3.7-7.9-7.9-8.8V12.1c9.8,1,17.5,9,18,18.9H41.9z"/>
	</defs>
	<clipPath id="SVGID_4_">
		<use xlink:href="#SVGID_3_"  style="overflow:visible;"/>
	</clipPath>
	<g class="st1">
		<rect x="2" y="2" class="st2" width="60" height="60"/>
		<rect x="2" y="2" class="st3" width="60" height="60"/>
	</g>
	<polygon class="st4" points="2,62 62,62 62,51 2,16.4 	"/>
</g>
</svg>
