<?xml version="1.0" encoding="utf-8"?>
<!-- Generator: Adobe Illustrator 20.0.0, SVG Export Plug-In . SVG Version: 6.00 Build 0)  -->
<svg version="1.1" id="Layer_1" xmlns="http://www.w3.org/2000/svg" xmlns:xlink="http://www.w3.org/1999/xlink" x="0px" y="0px"
	 viewBox="0 0 64 64" style="enable-background:new 0 0 64 64;" xml:space="preserve">
<style type="text/css">
	.st0{clip-path:url(#SVGID_2_);fill:#FFFFFF;fill-opacity:0.5;}
	.st1{fill:#DEDCD9;}
	.st2{opacity:0.5;fill:#FFFFFF;}
</style>
<g>
	<g>
		<defs>
			<path id="SVGID_1_" d="M14,5c-1.7,0-3,1.3-3,3v48c0,1.7,1.3,3,3,3h36c1.7,0,3-1.3,3-3V21.8L43.3,5H14z"/>
		</defs>
		<use xlink:href="#SVGID_1_"  style="overflow:visible;fill:#DEDCD9;"/>
		<clipPath id="SVGID_2_">
			<use xlink:href="#SVGID_1_"  style="overflow:visible;"/>
		</clipPath>
		<polygon class="st0" points="53,59 11,59 11,4 53,28.2 		"/>
	</g>
	<g>
		<path class="st1" d="M39.9,10.8L43.3,5L53,21.8l-12-6.9C39.6,14.1,39.1,12.3,39.9,10.8z"/>
		<path class="st2" d="M39.9,10.8L43.3,5L53,21.8l-12-6.9C39.6,14.1,39.1,12.3,39.9,10.8z"/>
	</g>
</g>
</svg>
