<?xml version="1.0" encoding="utf-8"?>
<!-- Generator: Adobe Illustrator 19.2.1, SVG Export Plug-In . SVG Version: 6.00 Build 0)  -->
<svg version="1.1" id="Layer_1" xmlns="http://www.w3.org/2000/svg" xmlns:xlink="http://www.w3.org/1999/xlink" x="0px" y="0px"
	 viewBox="0 0 451.6 211.9" style="enable-background:new 0 0 451.6 211.9;" xml:space="preserve">
<style type="text/css">
	.st0{fill:#BCBEC0;}
	.st1{fill:#2B3990;}
	.st2{fill:#BE1E2D;}
	.st3{fill:#FFFFFF;}
</style>
<g>
	<g>
		<path class="st0" d="M182.9,206.1H35.1c-6.8,0-12.3-5.5-12.3-12.3v-12.7c0,0-9.8-13.3-9.8-20.1c0-6.8,9.8-19.3,9.8-19.3v-24
			c0,0-4.8-0.2-9-3.6c-4.5-3.5-11.3-44.8-8.3-50.3c3.1-5.5,17.3-6.1,17.3-6.1V41.6c0-6.8,5.5-12.3,12.3-12.3l10.8-0.2
			c0.5-3.3,1.1-7.3,6.7-10.4C69,9.6,96.8,2.3,103.2,4.9c6.8,2.9-21.8,23.8-9,24.4h88.8c6.8,0,12.3,5.5,12.3,12.3v132
			c0,0-0.3,2.7,23.8,4c0,0-2,13.7-24.1,19.6C193.6,203,188,206.1,182.9,206.1z"/>
		<path class="st1" d="M172.8,200.4H45.2c-8.8,0-16.1-7.2-16.1-16.1V51.1c0-13,2.5-16.1,16.1-16.1h127.5c12.9,0,16.1,2.6,16.1,16.1
			v133.2C188.8,193.2,181.6,200.4,172.8,200.4z"/>
		<path class="st2" d="M176.6,200.4H41.4c-6.8,0-12.3-2-12.3-12.3v-29.6c0-6.8,40.2-44.5,47-44.5l45.5,8.2c6.8,0,45.9,38.3,45.9,45
			l21.3,20.8C188.8,194.9,187.9,200.4,176.6,200.4z"/>
		<g>
			<g>
				<path class="st3" d="M161.8,52.3c0.4-5.9,1.5-10.6,3.3-15.8c0.2-0.7-12.9,3.9-16.5,5.6c-3.7,1.7-14.4,7.5-14.9,9
					c-1.9,5.5-3,11.2-3.3,17c-0.1,1.7-0.1,3.4,0,5.1c-0.3,0-22.8,11-35.5-14c-0.4-0.7-6.4,1.3-14.6,4.9c-5.9,2.5-15,8.9-14.4,9.7
					c2,2.6,4,5.2,6.3,7.5c-8,3.1-15.7,6.8-23,11c-4-5.3-9-12.4-7.8-19.1c2.2-11.7,48.2-21,46.1-25.6c-2.1-4.7-4.7-14.7-3.4-21.9
					c1.5-9,11.1-13,10.8-16c-0.3-2.4-37.8,11-40.2,14.8c-1.2,1.8-1.5,4.4-2,6.4c-1.5,7.4,0,21.7,1.7,28.9c-0.6,0-39.6,5.8-40.6,6.2
					c-3.7,1.7-2.5,5-2.5,6.3c0,0.9,1.6,20.8,3.8,29.1c1,3.7,2.1,8,5.7,9.9c2.8,1.5,29.4-13.6,51.1-19.1c17.7-4.5,34.3-2.9,39-2.8
					c17.2,0.3,50.5-16.4,52-21.3C163,67.6,161.1,61.4,161.8,52.3z"/>
			</g>
			<path class="st3" d="M209.5,182c-7.9-0.3-15.8-1.9-22.9-5.6c-7.3-3.8-13-9.4-18.3-15.6c-11.5-13.4-23.1-26.6-35.8-39
				c-5.7-5.6-11.7-12.6-19-16.2c-7.8-3.8-16.2-2.6-24.2-0.1c-21.4,6.6-43,18.9-57.8,36c-2.8,3.2-5.4,6.7-7.6,10.4
				c-2.1,3.5-5.5,8.2-4.2,12.5c0.7,2.3,2.4,4.6,3.6,6.7c1.3,2.3,2.6,4.6,3.9,6.9c2.6,4.6,5.2,9.3,7.8,13.9c1.1,1.9,14.9-5,16.5-5.7
				c1.3-0.6,15.9-7.3,15-8.9c-4.1-7.3-8.2-14.7-12.3-22c-1.8-3.2-4.2-6.3-2.8-10.1c1.3-3.6,3.7-7,5.8-10.1
				c3.9-5.6,8.6-10.8,13.8-15.1c0.6-0.5,1.3-1.1,2-1.6c5.9,0,11.1,2.5,15.6,6.4c6,5.1,11.5,10.7,17.1,16.3
				c11.3,11.3,21.6,23.4,32.1,35.5c10.8,12.4,25.2,21.1,42.1,20.9c2.5,0,5.6-1.3,7.8-2.2c4.1-1.5,8.3-3.4,12.2-5.4
				c3-1.6,6.3-3.1,9-5.3C209.1,183.9,211.5,182.1,209.5,182z"/>
		</g>
	</g>
	<g>
		<path d="M215.9,48l16.6-16.7h5.8l-18.2,18.2l18.8,20.8h-6L217,52.4l-1.1,1.1v16.8h-4.3V31.3h4.3V48z"/>
		<path d="M247.8,55.2c0,3.3,0,6.8,3.1,9.5c1.6,1.3,4.3,2.2,6.4,2.2c2.2,0,4.8-0.9,6.4-2.2c3.1-2.6,3.1-6.2,3.1-9.5V31.3h4.3v25
			c0,3.3-0.4,6.4-2.5,9.3c-2.3,3.2-6.4,5.3-11.4,5.3c-5,0-9.1-2-11.4-5.3c-2.1-2.9-2.5-6.1-2.5-9.3v-25h4.3V55.2z"/>
		<path d="M281.2,70.3V29.7l30.4,31.8V31.3h4.3V72l-30.4-31.8v30.1H281.2z"/>
		<path d="M346,50.7h16.2v0.9c0,4.3-1.3,9-3.7,12.3c-1.2,1.6-5.5,7-14.5,7c-11.6,0-20.2-8.8-20.2-20.1s8.7-20.1,20.3-20.1
			c3.7,0,8.1,0.9,11.9,3.9c1.8,1.3,3.4,3.1,4.5,4.6l-3.2,2.9c-1.1-1.6-2.4-3-3.7-4c-1.9-1.5-4.8-3.3-9.5-3.3
			c-9.4,0-15.9,7.1-15.9,16.1c0,10.6,8.5,16,15.8,16c5.2,0,9.7-2.6,11.9-6.5c0.7-1.2,1.5-3.1,1.6-5.5H346V50.7z"/>
		<path d="M368.1,55.7h12.8V60h-12.8V55.7z"/>
		<path d="M406.6,35.4h-13.4v11.5h13V51h-13v19.3h-4.3V31.3h17.8V35.4z"/>
		<path d="M418.5,55.2c0,3.3,0,6.8,3.1,9.5c1.6,1.3,4.3,2.2,6.4,2.2c2.2,0,4.8-0.9,6.4-2.2c3.1-2.6,3.1-6.2,3.1-9.5V31.3h4.3v25
			c0,3.3-0.4,6.4-2.5,9.3c-2.3,3.2-6.4,5.3-11.4,5.3c-5,0-9.1-2-11.4-5.3c-2.1-2.9-2.5-6.1-2.5-9.3v-25h4.3V55.2z"/>
		<path d="M225.9,88.7h-10.2v8.7h9.8v3.1h-9.8v14.6h-3.3V85.6h13.4V88.7z"/>
		<path d="M246.9,88.7h-12v8.8h11.7v3.1h-11.7V112h12v3.1h-15.3V85.6h15.3V88.7z"/>
		<path d="M252.9,85.6h6c3,0,7.2,0.3,10.9,3.4c2.7,2.3,5,6,5,11.3c0,6.2-3,9.5-5.2,11.3c-2.7,2.3-5.5,3.4-10.8,3.4h-6V85.6z
			 M256.2,112h2.9c2.3,0,5.6-0.3,8.4-2.7c2.2-1.9,4-4.8,4-9c0-7.1-5-11.7-12.4-11.7h-2.9V112z"/>
		<path d="M296.1,88.7h-12v8.8h11.7v3.1h-11.7V112h12v3.1h-15.3V85.6h15.3V88.7z"/>
		<path d="M306.9,85.6c2,0,5,0.1,7.2,1.6c1.7,1.1,3.2,3.4,3.2,6.5c0,4.5-3,7.8-7.4,8.1l9.4,13.2h-4l-9-12.9h-0.8v12.9h-3.3V85.6
			H306.9z M305.4,99.3h2.1c4.1,0,6.5-1.9,6.5-5.4c0-1.6-0.5-3.3-2.3-4.3c-1.3-0.8-2.8-0.8-4.2-0.8h-2V99.3z"/>
		<path d="M340.6,106.8H328l-3.5,8.3h-3.6l13.6-30.9l13.2,30.9H344L340.6,106.8z M339.3,103.7l-5-11.8l-5,11.8H339.3z"/>
		<path d="M357.2,88.7v26.4h-3.3V88.7h-7.2v-3.1h17.6v3.1H357.2z"/>
		<path d="M372.1,85.6v29.5h-3.3V85.6H372.1z"/>
		<path d="M378.1,100.4c0-8.8,6.9-15.2,15.3-15.2s15.3,6.5,15.3,15.2c0,8.8-6.8,15.2-15.3,15.2C384.9,115.6,378.1,109.2,378.1,100.4
			z M381.4,100.4c0,6.8,5.3,12.2,12,12.2c6.6,0,12-5.4,12-12.2c0-6.8-5.3-12.2-12-12.2C386.8,88.2,381.4,93.6,381.4,100.4z"/>
		<path d="M414.8,115.1V84.4l23,24.1V85.6h3.3v30.8l-23-24.1v22.8H414.8z"/>
		<path d="M210.3,151.4c0-10.2,8-17.7,17.8-17.7c9.8,0,17.8,7.5,17.8,17.7c0,10.2-7.9,17.7-17.8,17.7
			C218.2,169.1,210.3,161.6,210.3,151.4z M214.2,151.4c0,7.8,6.2,14.1,13.9,14.1c7.7,0,13.9-6.3,13.9-14.1c0-7.8-6.2-14.1-13.9-14.1
			C220.4,137.3,214.2,143.6,214.2,151.4z"/>
		<path d="M268.4,137.9h-11.8V148H268v3.6h-11.4v16.9h-3.8v-34.2h15.6V137.9z"/>
		<path d="M296.4,134.3c2.3,0,5.7,0.2,8.3,1.9c2,1.3,3.7,3.9,3.7,7.6c0,5.2-3.4,9.1-8.6,9.4l10.9,15.3H306l-10.4-15h-1v15h-3.8
			v-34.2H296.4z M294.7,150.1h2.4c4.7,0,7.5-2.3,7.5-6.3c0-1.9-0.6-3.8-2.7-5c-1.5-0.9-3.3-1-4.9-1h-2.3V150.1z"/>
		<path d="M320.4,155.3c0,2.9,0,6,2.7,8.3c1.4,1.2,3.7,1.9,5.6,1.9c1.9,0,4.3-0.8,5.6-1.9c2.7-2.3,2.7-5.4,2.7-8.3v-21h3.8v22
			c0,2.9-0.3,5.6-2.2,8.2c-2.1,2.8-5.6,4.6-10,4.6c-4.4,0-8-1.8-10-4.6c-1.8-2.6-2.2-5.3-2.2-8.2v-22h3.8V155.3z"/>
		<path d="M365,141c-0.5-0.9-1.2-1.9-2-2.6c-0.7-0.5-1.9-1.2-3.8-1.2c-3.4,0-5.7,2.1-5.7,5.3c0,1.3,0.4,2.1,1.3,3
			c1,1,2.3,1.6,3.6,2.2l3.3,1.4c2,0.9,3.8,1.8,5.3,3.2c1.7,1.7,2.5,3.7,2.5,6.2c0,6.3-4.7,10.5-10.8,10.5c-2.3,0-5.1-0.5-7.4-2.8
			c-1.7-1.6-2.7-4-3.2-6.1l3.7-1c0.3,1.8,1.1,3.3,2.1,4.4c1.5,1.5,3.2,1.9,4.9,1.9c4.7,0,6.9-3.3,6.9-6.8c0-1.5-0.5-2.9-1.7-4
			c-1-0.9-2.3-1.5-4.1-2.4l-3.1-1.4c-1.3-0.6-3-1.3-4.6-2.8c-1.5-1.4-2.4-3-2.4-5.6c0-5.3,4.1-8.8,9.6-8.8c2.1,0,3.8,0.4,5.5,1.5
			c1.4,0.9,2.6,2.3,3.3,3.8L365,141z"/>
		<path d="M390.5,141c-0.5-0.9-1.2-1.9-2-2.6c-0.7-0.5-1.9-1.2-3.8-1.2c-3.4,0-5.7,2.1-5.7,5.3c0,1.3,0.4,2.1,1.3,3
			c1,1,2.3,1.6,3.6,2.2l3.3,1.4c2,0.9,3.8,1.8,5.3,3.2c1.7,1.7,2.5,3.7,2.5,6.2c0,6.3-4.7,10.5-10.8,10.5c-2.3,0-5.1-0.5-7.4-2.8
			c-1.7-1.6-2.7-4-3.2-6.1l3.7-1c0.3,1.8,1.1,3.3,2.1,4.4c1.5,1.5,3.2,1.9,4.9,1.9c4.7,0,6.9-3.3,6.9-6.8c0-1.5-0.5-2.9-1.7-4
			c-1-0.9-2.3-1.5-4.1-2.4l-3.1-1.4c-1.3-0.6-3-1.3-4.6-2.8c-1.5-1.4-2.4-3-2.4-5.6c0-5.3,4.1-8.8,9.6-8.8c2.1,0,3.8,0.4,5.5,1.5
			c1.4,0.9,2.6,2.3,3.3,3.8L390.5,141z"/>
		<path d="M405.6,134.3v34.2h-3.8v-34.2H405.6z"/>
		<path d="M433.3,158.8h-14.6l-4.1,9.6h-4.2l15.7-35.9l15.3,35.9h-4.2L433.3,158.8z M431.8,155.3l-5.7-13.7l-5.8,13.7H431.8z"/>
	</g>
</g>
</svg>
